<svg width="24" height="24" viewBox="0 0 24 24" fill="none" xmlns="http://www.w3.org/2000/svg">
<path fill-rule="evenodd" clip-rule="evenodd" d="M2.34243 15.3424C3.20197 14.4829 4.36776 14 5.58333 14H12C13.2156 14 14.3814 14.4829 15.2409 15.3424C16.1004 16.202 16.5833 17.3678 16.5833 18.5833V20.4167C16.5833 20.9229 16.1729 21.3333 15.6667 21.3333C15.1604 21.3333 14.75 20.9229 14.75 20.4167V18.5833C14.75 17.854 14.4603 17.1545 13.9445 16.6388C13.4288 16.1231 12.7293 15.8333 12 15.8333H5.58333C4.85399 15.8333 4.15452 16.1231 3.63879 16.6388C3.12306 17.1545 2.83333 17.854 2.83333 18.5833V20.4167C2.83333 20.9229 2.42293 21.3333 1.91667 21.3333C1.41041 21.3333 1 20.9229 1 20.4167V18.5833C1 17.3678 1.48289 16.202 2.34243 15.3424Z" fill="black"/>
<path fill-rule="evenodd" clip-rule="evenodd" d="M8.79159 4.83333C7.2728 4.83333 6.04159 6.06455 6.04159 7.58333C6.04159 9.10212 7.2728 10.3333 8.79159 10.3333C10.3104 10.3333 11.5416 9.10212 11.5416 7.58333C11.5416 6.06455 10.3104 4.83333 8.79159 4.83333ZM4.20825 7.58333C4.20825 5.05203 6.26028 3 8.79159 3C11.3229 3 13.3749 5.05203 13.3749 7.58333C13.3749 10.1146 11.3229 12.1667 8.79159 12.1667C6.26028 12.1667 4.20825 10.1146 4.20825 7.58333Z" fill="black"/>
<path fill-rule="evenodd" clip-rule="evenodd" d="M19.3334 7.58333C19.8397 7.58333 20.2501 7.99374 20.2501 8.5V14C20.2501 14.5063 19.8397 14.9167 19.3334 14.9167C18.8272 14.9167 18.4167 14.5063 18.4167 14V8.5C18.4167 7.99374 18.8272 7.58333 19.3334 7.58333Z" fill="black"/>
<path fill-rule="evenodd" clip-rule="evenodd" d="M15.6667 11.25C15.6667 10.7437 16.0772 10.3333 16.5834 10.3333H22.0834C22.5897 10.3333 23.0001 10.7437 23.0001 11.25C23.0001 11.7563 22.5897 12.1667 22.0834 12.1667H16.5834C16.0772 12.1667 15.6667 11.7563 15.6667 11.25Z" fill="black"/>
</svg>
