<svg width="24" height="24" viewBox="0 0 24 24" fill="none" xmlns="http://www.w3.org/2000/svg">
<path d="M22.7387 1.20006C22.5717 1.052 22.3501 0.98096 22.1281 1.00439L7.98511 2.57583C7.58701 2.61989 7.28578 2.95634 7.28583 3.35682V17.3584C6.57343 16.9331 5.75836 16.7103 4.92865 16.7141C2.7624 16.7142 1 18.1238 1 19.8571C1 21.5904 2.7624 23 4.92861 23C7.09481 23 8.85721 21.5904 8.85721 19.8571V7.99263L21.4288 6.59168V15.7847C20.7161 15.3601 19.9012 15.1382 19.0716 15.1427C16.9054 15.1427 15.143 16.5523 15.143 18.2857C15.143 20.019 16.9054 21.4286 19.0716 21.4286C21.2379 21.4286 23.0003 20.019 23.0003 18.2857V1.78544C23.0003 1.56197 22.9051 1.34908 22.7387 1.20006ZM4.92861 21.4285C3.65104 21.4285 2.57143 20.7088 2.57143 19.8571C2.57143 19.0054 3.65104 18.2857 4.92861 18.2857C6.20618 18.2857 7.28578 19.0054 7.28578 19.8571C7.28578 20.7088 6.20622 21.4285 4.92861 21.4285ZM19.0716 19.8571C17.7941 19.8571 16.7145 19.1374 16.7145 18.2857C16.7145 17.4339 17.7941 16.7142 19.0716 16.7142C20.3492 16.7142 21.4288 17.4339 21.4288 18.2857C21.4288 19.1374 20.3493 19.8571 19.0716 19.8571ZM21.4288 5.01081L8.85721 6.40785V4.06402L21.4288 2.66307V5.01081Z" fill="black"/>
</svg>
