<svg width="24" height="24" viewBox="0 0 24 24" fill="none" xmlns="http://www.w3.org/2000/svg">
<path fill-rule="evenodd" clip-rule="evenodd" d="M3.51576 7.57447C3.89472 7.57447 4.20193 7.88168 4.20193 8.26064V19.4681H19.2977V8.26064C19.2977 7.88168 19.6049 7.57447 19.9838 7.57447C20.3628 7.57447 20.67 7.88168 20.67 8.26064V20.1543C20.67 20.5332 20.3628 20.8404 19.9838 20.8404H3.51576C3.1368 20.8404 2.82959 20.5332 2.82959 20.1543V8.26064C2.82959 7.88168 3.1368 7.57447 3.51576 7.57447Z" fill="black"/>
<path fill-rule="evenodd" clip-rule="evenodd" d="M1 3.68617C1 3.30721 1.30721 3 1.68617 3H21.8138C22.1928 3 22.5 3.30721 22.5 3.68617V8.26064C22.5 8.6396 22.1928 8.94681 21.8138 8.94681H1.68617C1.30721 8.94681 1 8.6396 1 8.26064V3.68617ZM2.37234 4.37234V7.57447H21.1277V4.37234H2.37234Z" fill="black"/>
<path fill-rule="evenodd" clip-rule="evenodd" d="M9.23389 11.9202C9.23389 11.5413 9.5411 11.234 9.92006 11.234H13.5796C13.9586 11.234 14.2658 11.5413 14.2658 11.9202C14.2658 12.2992 13.9586 12.6064 13.5796 12.6064H9.92006C9.5411 12.6064 9.23389 12.2992 9.23389 11.9202Z" fill="black"/>
</svg>
