<svg width="24" height="24" viewBox="0 0 24 24" fill="none" xmlns="http://www.w3.org/2000/svg">
<g clip-path="url(#clip0)">
<path d="M7.54594 13.669L6.989 15.7481L4.95341 15.7912C4.34506 14.6628 4 13.3719 4 12C4 10.6734 4.32263 9.42241 4.8945 8.32088H4.89494L6.70719 8.65313L7.50106 10.4545C7.33491 10.9389 7.24434 11.4589 7.24434 12C7.24441 12.5873 7.35078 13.1499 7.54594 13.669Z" fill="#FBBB00"/>
<path d="M19.8601 10.5055C19.952 10.9894 19.9999 11.4892 19.9999 12C19.9999 12.5728 19.9397 13.1314 19.825 13.6703C19.4355 15.5042 18.4179 17.1055 17.0083 18.2387L17.0078 18.2383L14.7252 18.1218L14.4022 16.1051C15.3375 15.5565 16.0685 14.698 16.4536 13.6703H12.1758V10.5055H16.516H19.8601Z" fill="#518EF8"/>
<path d="M17.0079 18.2382L17.0083 18.2387C15.6373 19.3407 13.8958 20 12 20C8.95337 20 6.30459 18.2972 4.95337 15.7912L7.5459 13.669C8.22149 15.4721 9.96084 16.7556 12 16.7556C12.8764 16.7556 13.6976 16.5187 14.4021 16.1051L17.0079 18.2382Z" fill="#28B446"/>
<path d="M17.1064 5.84175L14.5148 7.9635C13.7855 7.50769 12.9235 7.24437 12 7.24437C9.91475 7.24437 8.14288 8.58678 7.50113 10.4545L4.89497 8.32088H4.89453C6.22597 5.75384 8.90816 4 12 4C13.9411 4 15.7209 4.69144 17.1064 5.84175Z" fill="#F14336"/>
</g>
<defs>
<clipPath id="clip0">
<rect width="16" height="16" fill="white" transform="translate(4 4)"/>
</clipPath>
</defs>
</svg>
