<svg width="24" height="24" viewBox="0 0 24 24" fill="none" xmlns="http://www.w3.org/2000/svg">
<g clip-path="url(#clip0)">
<path d="M7.54594 13.669L6.989 15.7481L4.95341 15.7912C4.34506 14.6628 4 13.3719 4 12C4 10.6734 4.32263 9.42239 4.8945 8.32086H4.89494L6.70719 8.65311L7.50106 10.4545C7.33491 10.9389 7.24434 11.4589 7.24434 12C7.24441 12.5872 7.35078 13.1499 7.54594 13.669Z" fill="#FBBB00"/>
<path d="M19.8602 10.5055C19.9521 10.9894 20 11.4892 20 12C20 12.5727 19.9398 13.1314 19.8251 13.6703C19.4357 15.5042 18.4181 17.1055 17.0084 18.2387L17.008 18.2382L14.7253 18.1218L14.4023 16.1051C15.3377 15.5565 16.0687 14.698 16.4537 13.6703H12.1759V10.5055H16.5161H19.8602Z" fill="#518EF8"/>
<path d="M17.0079 18.2383L17.0084 18.2387C15.6374 19.3407 13.8958 20 12 20C8.95343 20 6.30465 18.2972 4.95343 15.7912L7.54596 13.669C8.22155 15.4721 9.9609 16.7556 12 16.7556C12.8765 16.7556 13.6976 16.5187 14.4022 16.1051L17.0079 18.2383Z" fill="#28B446"/>
<path d="M17.1063 5.84175L14.5147 7.9635C13.7855 7.50769 12.9235 7.24437 12 7.24437C9.91469 7.24437 8.14281 8.58678 7.50106 10.4545L4.89491 8.32088H4.89447C6.22591 5.75384 8.9081 4 12 4C13.9411 4 15.7208 4.69144 17.1063 5.84175Z" fill="#F14336"/>
</g>
<defs>
<clipPath id="clip0">
<rect width="16" height="16" fill="white" transform="translate(4 4)"/>
</clipPath>
</defs>
</svg>
