<svg width="24" height="24" viewBox="0 0 24 24" fill="none" xmlns="http://www.w3.org/2000/svg">
<path fill-rule="evenodd" clip-rule="evenodd" d="M11.2434 13.004C11.3394 12.7004 11.6233 12.4804 11.9586 12.4804H13.904L12.6767 8.58C12.5688 8.21357 12.3462 8.03036 12.0089 8.03036H10.4911C10.1538 8.03036 9.9312 8.21357 9.82327 8.58L8.42689 13.0382L7.19242 5.34321C7.15194 5.03107 6.93608 4.875 6.54482 4.875H3.89373C3.7858 4.875 3.68461 4.9225 3.59017 5.0175C3.50922 5.09893 3.46875 5.19393 3.46875 5.3025C3.46875 5.35679 3.4755 5.3975 3.48899 5.42464L5.65438 18.4532C5.68136 18.6432 5.76231 18.8061 5.89723 18.9418C6.04564 19.0639 6.23452 19.125 6.46387 19.125H8.48761C8.70347 19.125 8.87211 19.0707 8.99354 18.9621C9.11496 18.8536 9.20266 18.7314 9.25662 18.5957L11.2434 13.004Z" fill="#0066CC"/>
<path fill-rule="evenodd" clip-rule="evenodd" d="M16.8278 5.34321L15.5731 13.0179L15.5545 13.125L13.8877 13.125C13.5687 13.125 13.2846 13.3268 13.1795 13.628L11.6102 18.128C11.4402 18.6155 11.8021 19.125 12.3184 19.125H17.7187C18.1086 19.125 18.429 18.8275 18.4653 18.4471L20.5312 5.42464V5.3025C20.5312 5.19393 20.4907 5.09893 20.4098 5.0175C20.3288 4.9225 20.2277 4.875 20.1062 4.875H17.4551C17.2528 4.875 17.1044 4.91571 17.0099 4.99714C16.9155 5.065 16.8548 5.18036 16.8278 5.34321Z" fill="#004D99"/>
</svg>
