<svg width="24" height="24" viewBox="0 0 24 24" fill="none" xmlns="http://www.w3.org/2000/svg">
<path fill-rule="evenodd" clip-rule="evenodd" d="M12.2872 3.05209C12.102 2.98264 11.8979 2.98264 11.7126 3.05209L5.16713 5.50666C4.84779 5.62641 4.63623 5.93169 4.63623 6.27275V12.0001C4.63623 14.8199 6.50313 17.0731 8.18839 18.5477C9.04821 19.3 9.90417 19.8881 10.5435 20.2877C10.8581 20.4843 11.4218 20.7963 11.6224 20.9074L11.6335 20.9135C11.8639 21.0287 12.1355 21.0289 12.3658 20.9137L12.3776 20.9072C12.5787 20.7959 13.1421 20.4841 13.4563 20.2877C14.0957 19.8881 14.9516 19.3 15.8114 18.5477C17.4967 17.0731 19.3636 14.8199 19.3636 12.0001V6.27275C19.3636 5.93169 19.152 5.62641 18.8327 5.50666L12.2872 3.05209Z" fill="#17181A"/>
</svg>
