<svg width="24" height="24" viewBox="0 0 24 24" fill="none" xmlns="http://www.w3.org/2000/svg">
<path fill-rule="evenodd" clip-rule="evenodd" d="M13.25 3.05196C13.5057 3.16296 13.6576 3.42923 13.623 3.70582L12.874 9.69768H19.6976C19.9413 9.69768 20.1629 9.83862 20.2662 10.0593C20.3696 10.2799 20.336 10.5404 20.18 10.7276L11.8079 20.774C11.6295 20.9882 11.3312 21.059 11.0755 20.948C10.8198 20.837 10.6679 20.5708 10.7025 20.2942L11.4515 14.3023H4.62791C4.38427 14.3023 4.16263 14.1614 4.05929 13.9407C3.95595 13.7201 3.98957 13.4596 4.14554 13.2724L12.5176 3.22596C12.6961 3.01183 12.9943 2.94097 13.25 3.05196Z" fill="black"/>
</svg>
