<svg width="512" height="512" viewBox="0 0 512 512" fill="none" xmlns="http://www.w3.org/2000/svg">
<path fill-rule="evenodd" clip-rule="evenodd" d="M239.858 277.418C241.906 270.943 247.963 266.249 255.116 266.249H296.619L270.437 183.04C268.134 175.223 263.385 171.314 256.19 171.314H223.81C216.615 171.314 211.865 175.223 209.563 183.04L179.774 278.149L153.438 113.989C152.575 107.33 147.97 104 139.623 104H83.0662C80.7636 104 78.605 105.013 76.5903 107.04C74.8633 108.777 73.9999 110.804 73.9999 113.12C73.9999 114.278 74.1438 115.147 74.4316 115.726L120.627 393.669C121.202 397.722 122.929 401.196 125.807 404.091C128.973 406.697 133.003 408 137.896 408H181.069C185.674 408 189.272 406.842 191.862 404.526C194.452 402.21 196.323 399.604 197.475 396.709L239.858 277.418Z" fill="#0066CC"/>
<path fill-rule="evenodd" clip-rule="evenodd" d="M358.994 113.989L332.226 277.714L331.831 280L296.272 280C289.467 280 283.406 284.305 281.165 290.731L247.685 386.731C244.058 397.131 251.779 408 262.793 408H378C386.318 408 393.153 401.653 393.927 393.539L438 115.726V113.12C438 110.804 437.137 108.777 435.41 107.04C433.683 105.013 431.524 104 428.934 104H372.377C368.06 104 364.894 104.869 362.879 106.606C360.864 108.053 359.569 110.514 358.994 113.989Z" fill="#004D99"/>
</svg>
