<svg width="163" height="142" viewBox="0 0 163 142" fill="none" xmlns="http://www.w3.org/2000/svg">
<g clip-path="url(#clip0)">
<path d="M163 140.24L46.3169 142L0 133.785H72.307L163 140.24Z" fill="#E6E6E6"/>
<path d="M134.367 37.3581C144.675 37.3581 153.032 28.9952 153.032 18.6791C153.032 8.3629 144.675 0 134.367 0C124.058 0 115.701 8.3629 115.701 18.6791C115.701 28.9952 124.058 37.3581 134.367 37.3581Z" fill="#E6F0FA"/>
<path d="M33.0197 134.761C33.0197 134.761 33.2927 129.036 38.8897 129.702L33.0197 134.761Z" fill="#3F3D56"/>
<path d="M31.4383 129.313C32.9854 129.313 34.2395 128.058 34.2395 126.51C34.2395 124.962 32.9854 123.707 31.4383 123.707C29.8911 123.707 28.637 124.962 28.637 126.51C28.637 128.058 29.8911 129.313 31.4383 129.313Z" fill="#0066CC"/>
<path d="M31.7732 131.231H30.9824V136.77H31.7732V131.231Z" fill="#3F3D56"/>
<path d="M125.272 135.739C125.272 135.739 125.545 130.014 131.142 130.68L125.272 135.739Z" fill="#3F3D56"/>
<path d="M123.69 130.291C125.237 130.291 126.491 129.036 126.491 127.488C126.491 125.94 125.237 124.685 123.69 124.685C122.143 124.685 120.889 125.94 120.889 127.488C120.889 129.036 122.143 130.291 123.69 130.291Z" fill="#0066CC"/>
<path d="M124.025 132.209H123.234V137.748H124.025V132.209Z" fill="#3F3D56"/>
<path d="M138.758 136.717C138.758 136.717 139.031 130.992 144.628 131.658L138.758 136.717Z" fill="#3F3D56"/>
<path d="M137.176 131.269C138.723 131.269 139.978 130.014 139.978 128.466C139.978 126.918 138.723 125.662 137.176 125.662C135.629 125.662 134.375 126.918 134.375 128.466C134.375 130.014 135.629 131.269 137.176 131.269Z" fill="#0066CC"/>
<path d="M137.511 133.186H136.72V138.726H137.511V133.186Z" fill="#3F3D56"/>
<path d="M55.1055 132.023C55.1055 132.023 55.3785 126.298 60.9756 126.963L55.1055 132.023Z" fill="#3F3D56"/>
<path d="M53.524 126.575C55.0711 126.575 56.3252 125.32 56.3252 123.772C56.3252 122.223 55.0711 120.968 53.524 120.968C51.9768 120.968 50.7227 122.223 50.7227 123.772C50.7227 125.32 51.9768 126.575 53.524 126.575Z" fill="#0066CC"/>
<path d="M53.8589 128.492H53.0681V134.032H53.8589V128.492Z" fill="#3F3D56"/>
<path d="M13.4747 133.001C13.4747 133.001 13.7478 127.276 19.3448 127.941L13.4747 133.001Z" fill="#3F3D56"/>
<path d="M11.8933 127.553C13.4404 127.553 14.6946 126.298 14.6946 124.75C14.6946 123.201 13.4404 121.946 11.8933 121.946C10.3462 121.946 9.09204 123.201 9.09204 124.75C9.09204 126.298 10.3462 127.553 11.8933 127.553Z" fill="#0066CC"/>
<path d="M12.2282 129.47H11.4375V135.009H12.2282V129.47Z" fill="#3F3D56"/>
<path d="M81.2045 123.053C98.0605 123.053 111.725 109.378 111.725 92.5098C111.725 75.6415 98.0605 61.967 81.2045 61.967C64.3486 61.967 50.6841 75.6415 50.6841 92.5098C50.6841 109.378 64.3486 123.053 81.2045 123.053Z" fill="#3F3D56"/>
<path d="M61.9901 94.9616C62.7481 94.0535 63.6961 93.323 64.7671 92.8217C65.8382 92.3205 67.0061 92.0607 68.1885 92.0607C69.3709 92.0607 70.5389 92.3205 71.6099 92.8217C72.681 93.323 73.629 94.0535 74.387 94.9616C75.684 93.7225 76.5805 92.1231 76.9608 90.3694C77.3412 88.6158 77.1881 86.7884 76.5211 85.1227C75.8542 83.4569 74.704 82.0293 73.2189 81.0237C71.7337 80.0181 69.9817 79.4807 68.1885 79.4807C66.3954 79.4807 64.6433 80.0181 63.1582 81.0237C61.673 82.0293 60.5229 83.4569 59.8559 85.1227C59.189 86.7884 59.0358 88.6158 59.4162 90.3694C59.7966 92.1231 60.6931 93.7225 61.9901 94.9616Z" fill="white"/>
<path d="M86.2268 94.9616C86.9848 94.0535 87.9328 93.323 89.0038 92.8217C90.0749 92.3205 91.2428 92.0607 92.4252 92.0607C93.6076 92.0607 94.7756 92.3205 95.8466 92.8217C96.9176 93.323 97.8656 94.0535 98.6236 94.9616C99.9207 93.7225 100.817 92.1231 101.198 90.3695C101.578 88.6158 101.425 86.7884 100.758 85.1227C100.091 83.457 98.9407 82.0293 97.4555 81.0237C95.9704 80.0181 94.2184 79.4807 92.4252 79.4807C90.6321 79.4807 88.88 80.0181 87.3949 81.0237C85.9097 82.0293 84.7596 83.457 84.0926 85.1227C83.4257 86.7884 83.2725 88.6158 83.6529 90.3695C84.0333 92.1231 84.9298 93.7225 86.2268 94.9616Z" fill="white"/>
<path d="M66.5752 93.5665C68.2805 93.5665 69.663 92.183 69.663 90.4764C69.663 88.7698 68.2805 87.3863 66.5752 87.3863C64.8698 87.3863 63.4873 88.7698 63.4873 90.4764C63.4873 92.183 64.8698 93.5665 66.5752 93.5665Z" fill="#3F3D56"/>
<path d="M90.8111 93.5665C92.5165 93.5665 93.899 92.183 93.899 90.4764C93.899 88.7698 92.5165 87.3863 90.8111 87.3863C89.1057 87.3863 87.7233 88.7698 87.7233 90.4764C87.7233 92.183 89.1057 93.5665 90.8111 93.5665Z" fill="#3F3D56"/>
<path d="M59.2119 103.739C61.1949 103.739 62.8025 102.13 62.8025 100.146C62.8025 98.161 61.1949 96.5523 59.2119 96.5523C57.2288 96.5523 55.6212 98.161 55.6212 100.146C55.6212 102.13 57.2288 103.739 59.2119 103.739Z" fill="#FF6584"/>
<path d="M100.504 103.739C102.487 103.739 104.095 102.13 104.095 100.146C104.095 98.161 102.487 96.5523 100.504 96.5523C98.5212 96.5523 96.9136 98.161 96.9136 100.146C96.9136 102.13 98.5212 103.739 100.504 103.739Z" fill="#FF6584"/>
<path d="M79.858 92.9589L77.165 104.637L81.6533 100.146L79.858 92.9589Z" fill="#FF6584"/>
<path d="M93.6952 137.875L90.6378 135.307L90.7091 137.875H89.7594L89.6836 135.16L85.5556 137.875H83.8275L89.6528 134.043L89.4271 125.997L89.2586 119.921L90.2058 119.895L90.3767 125.997L90.6022 134.036L95.1716 137.875H93.6952Z" fill="#3F3D56"/>
<path d="M79.3316 137.875L76.2742 135.307L76.3455 137.875H75.3984L75.3224 135.16L71.1944 137.875H69.4663L75.2892 134.043L75.0637 125.997L74.8952 119.921L75.8446 119.895L76.0155 125.997L76.2386 134.036L80.8082 137.875H79.3316Z" fill="#3F3D56"/>
<path d="M81.6534 59.7212C80.816 59.7212 80.0772 60.3722 79.5833 61.3721C79.148 59.8686 78.2333 58.8229 77.1651 58.8229C77.0925 58.8301 77.0205 58.8423 76.9496 58.8592C76.539 57.2538 75.5847 56.128 74.4722 56.128C72.9849 56.128 71.7792 58.1389 71.7792 60.6196C71.7792 63.1002 72.9849 65.1112 74.4722 65.1112C74.5447 65.1039 74.6168 65.0918 74.6878 65.0749C75.0983 66.6802 76.0526 67.8061 77.1651 67.8061C78.0026 67.8061 78.7414 67.1551 79.2353 66.1552C79.6706 67.6588 80.5853 68.7044 81.6534 68.7044C83.1407 68.7044 84.3464 66.6934 84.3464 64.2128C84.3464 61.7322 83.1407 59.7212 81.6534 59.7212Z" fill="#3F3D56"/>
<path d="M52.5571 104.084C51.3783 104.084 50.211 103.852 49.1219 103.4C48.0328 102.949 47.0433 102.287 46.2097 101.453C45.3762 100.619 44.715 99.6286 44.2638 98.5387C43.8127 97.4489 43.5805 96.2807 43.5805 95.101V90.6094C43.5805 88.2269 44.5263 85.942 46.2097 84.2574C47.8932 82.5727 50.1764 81.6263 52.5571 81.6263V104.084Z" fill="#0066CC"/>
<path d="M109.852 81.6263C111.031 81.6263 112.198 81.8586 113.287 82.3101C114.376 82.7615 115.366 83.4232 116.199 84.2574C117.033 85.0915 117.694 86.0818 118.145 87.1717C118.596 88.2616 118.829 89.4297 118.829 90.6094V95.101C118.829 96.2807 118.596 97.4488 118.145 98.5387C117.694 99.6286 117.033 100.619 116.199 101.453C115.366 102.287 114.376 102.949 113.287 103.4C112.198 103.852 111.031 104.084 109.852 104.084V81.6263H109.852Z" fill="#0066CC"/>
<path d="M114.556 91.3152H113.131C113.131 73.2394 98.4365 58.5335 80.3737 58.5335C62.311 58.5335 47.6159 73.2394 47.6159 91.3152H46.1917C46.1917 72.4534 61.5257 57.1082 80.3737 57.1082C99.2218 57.1082 114.556 72.4534 114.556 91.3152Z" fill="#0066CC"/>
<path d="M31.497 63.8448L31.4973 63.8443L30.8281 63.5654L28.0049 62.371L26.993 61.9429L26.9153 62.1392L25.5559 65.574L29.3817 67.1944L29.4017 67.2126L29.1439 67.821C29.1086 67.8766 29.0785 67.9354 29.054 67.9965C28.8734 68.4529 29.2145 68.9068 29.5369 69.0346C29.8594 69.1623 30.2672 68.896 30.4478 68.4397C30.6259 67.9896 30.4518 67.4178 30.1376 67.2796L30.1379 67.2791L29.4688 67.0002L27.1798 66.1098L28.4877 62.8052L28.2938 62.7283L26.9855 66.0342L26.7024 65.9241L28.0159 62.6053L28.0505 62.62L30.7411 63.7596L30.7611 63.7778L30.5033 64.3861C30.468 64.4418 30.4379 64.5005 30.4134 64.5617C30.2328 65.018 30.5739 65.4719 30.8963 65.5997C31.2188 65.7275 31.6266 65.4612 31.8072 65.0049C31.9853 64.5548 31.8112 63.983 31.497 63.8448Z" fill="#3F3D56"/>
<path d="M44.7387 72.2774C43.3499 71.4828 43.6278 69.739 43.6278 69.739C43.5928 68.6062 42.6576 68.7665 42.6576 68.7665L42.3172 68.8443C42.1591 68.7708 41.985 68.7386 41.8111 68.7506L41.2933 68.8378C42.4723 69.115 42.3755 70.102 42.3755 70.102L42.5406 71.2561L39.4513 70.0089L39.806 69.172C39.855 69.0947 39.8969 69.0131 39.931 68.9281C40.1818 68.2943 39.708 67.6639 39.2602 67.4864C38.8124 67.3089 38.246 67.6788 37.9951 68.3126C37.7477 68.9377 37.9895 69.7319 38.4259 69.9238L38.4256 69.9246L39.3549 70.3119L39.3618 70.2899L44.7387 72.2774ZM43.1699 70.2496L43.2689 71.3543C42.9191 70.8631 42.7548 70.2637 42.8052 69.6626C42.797 69.4488 42.7249 69.2424 42.5983 69.07C42.7929 69.1948 42.9493 69.371 43.0502 69.5792C43.1511 69.7874 43.1925 70.0194 43.1699 70.2496V70.2496Z" fill="#3F3D56"/>
<path d="M21.1732 55.9408L21.1736 55.94L20.2442 55.5527L16.3602 54.0417L17.3405 53.1689C17.5323 52.9131 17.8155 52.7413 18.1309 52.6896C18.4462 52.6379 18.7694 52.7102 19.0327 52.8915L18.7285 52.439C18.7285 52.439 18.1566 51.6813 17.3561 52.483C17.3561 52.483 16.3656 53.9443 14.8097 53.5718L20.1233 55.8225L20.1512 55.8477L19.7931 56.6926C19.7441 56.7699 19.7023 56.8515 19.6682 56.9365C19.4174 57.5703 19.8911 58.2007 20.3389 58.3782C20.7868 58.5557 21.3532 58.1858 21.604 57.552C21.8514 56.9269 21.6096 56.1327 21.1732 55.9408Z" fill="#3F3D56"/>
<path d="M35.3929 50.9955L35.0348 51.8404C34.9858 51.9176 34.944 51.9993 34.9099 52.0842C34.659 52.718 35.1328 53.3484 35.5806 53.5259C36.0285 53.7034 36.5949 53.3335 36.8457 52.6997C37.0931 52.0746 36.8513 51.2804 36.4149 51.0885L36.4153 51.0878L35.486 50.7005L32.3068 49.4637L34.1233 44.8739L33.8541 44.7672L32.0369 49.3587L31.6438 49.2058L33.468 44.5964L33.5161 44.6167L37.253 46.1995L37.2809 46.2248L36.9229 47.0697C36.8739 47.147 36.832 47.2286 36.7979 47.3135C36.5471 47.9473 37.0208 48.5778 37.4687 48.7553C37.9165 48.9328 38.4829 48.5629 38.7338 47.9291C38.9812 47.3039 38.7394 46.5097 38.303 46.3179L38.3033 46.3171L37.374 45.9298L33.5762 44.3231L33.576 44.3231L33.4528 44.271L32.0473 43.6764L30.0514 48.7196L35.365 50.9702L35.3929 50.9955Z" fill="#3F3D56"/>
<path d="M18.554 25.1672L18.5547 25.1659L16.9549 24.4992L10.2687 21.8981L11.9562 20.3956C11.9562 20.3956 13.0787 18.837 14.8693 19.9181L14.3457 19.1392C14.3457 19.1392 13.3612 17.8348 11.9831 19.2149C11.9831 19.2149 10.2779 21.7304 7.59961 21.0892L16.7466 24.9635L16.7947 25.0071L16.1783 26.4615C16.0939 26.5945 16.0219 26.735 15.9632 26.8813C15.5314 27.9723 16.3469 29.0575 17.1179 29.3631C17.8888 29.6687 18.8638 29.0319 19.2956 27.9409C19.7215 26.8647 19.3053 25.4976 18.554 25.1672Z" fill="#3F3D56"/>
<path d="M23.4637 47.0164C20.1432 45.1166 20.8077 40.9474 20.8077 40.9474C20.7241 38.239 18.488 38.6224 18.488 38.6224L17.6742 38.8082C17.2962 38.6326 16.8799 38.5556 16.4641 38.5842L15.2261 38.7927C18.045 39.4555 17.8134 41.8154 17.8134 41.8154L18.2084 44.5746L10.8221 41.5928L11.6701 39.5917C11.7873 39.4069 11.8873 39.2117 11.9689 39.0087C12.5686 37.4933 11.4359 35.986 10.3651 35.5616C9.29438 35.1372 7.94018 36.0216 7.34046 37.537C6.74891 39.0316 7.32702 40.9305 8.37046 41.3893L8.36958 41.3911L10.5915 42.3171L10.6081 42.2647L23.4637 47.0164ZM19.7128 42.1682L19.9505 44.8185C18.5559 42.9658 18.8409 40.7647 18.8409 40.7647C18.8213 40.2536 18.649 39.7601 18.3463 39.3479C19.9483 40.3073 19.7128 42.1682 19.7128 42.1682H19.7128Z" fill="#3F3D56"/>
</g>
<defs>
<clipPath id="clip0">
<rect width="163" height="142" fill="white"/>
</clipPath>
</defs>
</svg>
