<svg width="359" height="365" viewBox="0 0 359 365" fill="none" xmlns="http://www.w3.org/2000/svg">
<path opacity="0.1" d="M12.5651 274.807C-7.07278 241.467 -13.7678 150.664 69.9208 133.771C148.623 117.883 56.7955 61.9528 164.488 17.6267C203.821 1.43733 270.96 32.1354 304.248 19.7391C359.665 -0.899559 435.885 -14.5525 482.054 27.0894C537.081 76.7186 589.448 -1.24684 649.044 47.895C691.725 83.0903 669.111 120.728 659.482 148.044C652.744 167.159 661.797 185.912 675.824 201.347C698.445 226.239 685.256 257.133 670.803 283C670.801 282.998 12.5651 274.807 12.5651 274.807Z" fill="#0066CC"/>
<path d="M352.24 161.2C352.24 161.2 351.865 166.074 358.255 172.161C364.781 178.356 366.314 183.791 366.314 183.791L370.556 186.533C370.556 186.533 367.908 177.385 362.458 172.64C355.647 166.7 352.24 161.2 352.24 161.2Z" fill="#8FABFF"/>
<path d="M382.986 196.788C382.986 196.788 379.27 195.896 364.586 199.37C355.176 201.599 357.584 197.686 348.869 201.369C355.783 201.248 358.648 206.005 367.519 204.441C374.615 203.184 381.798 202.485 389.003 202.353L382.986 196.788Z" fill="#8FABFF"/>
<path d="M355.14 209.533C355.14 209.533 361.765 216.277 374.87 213.933C382.938 212.51 391.186 212.426 399.283 213.682L394.594 207.447C394.594 207.447 388.702 204.052 375.31 207.799C366.107 210.371 355.14 209.533 355.14 209.533Z" fill="#8FABFF"/>
<path d="M343.25 186.33C343.25 186.33 347.868 189.705 356.095 187.91C364.436 186.089 370.834 187.25 370.834 187.25L368.195 185.015C368.195 185.015 364.471 182.868 356.005 185.235C350.183 186.859 343.25 186.33 343.25 186.33Z" fill="#8FABFF"/>
<path d="M374.847 190.944C374.847 190.944 368.277 190.974 358.812 192.828C352.838 193.979 344.437 191.196 344.437 191.196C344.437 191.196 351.532 199.184 360.406 196.897C370.581 194.272 380.94 194.586 380.94 194.586L374.847 190.944Z" fill="#8FABFF"/>
<path d="M368.932 185.946C368.932 185.946 362.638 178.042 353.394 177.322C347.919 176.849 342.563 175.465 337.543 173.224C337.543 173.224 343.484 181.441 352.038 181.187C359.935 180.974 365.92 185.57 365.92 185.57L368.932 185.946Z" fill="#8FABFF"/>
<path d="M261.61 171.905C258.493 163.578 260.342 154.545 267.156 144.807C269.579 156.453 267.73 165.484 261.61 171.905Z" fill="#8FABFF"/>
<path d="M272.928 158.98C271.268 151.047 274.179 143.166 281.662 135.338C282.243 146.167 279.333 154.047 272.928 158.98Z" fill="#8FABFF"/>
<path d="M284.894 146.414C284.442 138.727 288.277 131.728 296.401 125.418C295.454 135.681 291.617 142.678 284.894 146.414Z" fill="#8FABFF"/>
<path d="M311.119 120.698C308.522 129.013 304.111 134.129 297.888 136.046C298.883 129.591 303.292 124.474 311.119 120.698Z" fill="#8FABFF"/>
<path d="M322.938 120.929C319.564 127.394 315.178 130.954 309.78 131.609C311.542 126.448 315.928 122.888 322.938 120.929Z" fill="#8FABFF"/>
<path d="M315.094 133.676C318.583 129.489 323.954 127.735 331.205 128.413C325.74 133.241 320.368 134.995 315.094 133.676Z" fill="#8FABFF"/>
<path d="M290.893 169.501C280.891 176.114 271.736 177.726 263.43 174.341C270.069 168.341 279.224 166.727 290.893 169.501Z" fill="#8FABFF"/>
<path d="M284.251 152.224C291.037 149.453 298.531 150.769 306.731 156.175C297.193 158.45 289.701 157.132 284.251 152.224Z" fill="#8FABFF"/>
<path d="M313.473 148.128C305.173 150.116 298.654 148.971 293.913 144.693C299.815 142.276 306.335 143.421 313.473 148.128Z" fill="#8FABFF"/>
<path d="M305.062 139.022C310.966 136.621 317.486 137.766 324.622 142.458C316.319 144.446 309.799 143.3 305.062 139.022Z" fill="#8FABFF"/>
<path d="M253.454 187.809C264.398 169.574 264.41 171.336 272.826 161.414C275.098 158.731 277.402 156.236 279.739 153.929C284.586 149.262 289.925 145.135 295.66 141.619C302.301 137.362 307.669 134.886 311.764 134.193L312.222 133.913C312.319 133.785 312.495 133.746 312.639 133.821C312.796 133.802 312.954 133.85 313.075 133.951C313.163 134.091 313.217 134.252 313.232 134.417C313.251 134.574 313.203 134.733 313.102 134.853L312.88 135.112C312.736 135.196 312.577 135.252 312.413 135.275L312.392 135.347L312.03 135.376C308.042 136.142 302.827 138.574 296.382 142.674C290.729 146.19 285.478 150.315 280.722 154.976C278.309 157.293 276.016 159.733 273.856 162.288L273.295 162.956C280.012 158.488 288.39 158.268 298.428 162.297C288.63 166.857 280.251 167.077 273.295 162.956C265.086 172.751 265.315 170.7 254.652 188.481L253.454 187.809Z" fill="#8FABFF"/>
<path d="M312.059 188.188L297.557 187.008L306.366 193.694C306.366 193.694 295.569 214.791 262.525 218.432C259.017 217.384 254.394 215.701 250.49 214.217C246.115 212.553 242.644 211.139 242.644 211.139C242.644 211.139 245.755 158.467 323.683 167.337C318.493 180.199 312.059 188.188 312.059 188.188Z" fill="#8FABFF"/>
<path d="M323.683 167.336C274.608 176.256 255.345 205.283 250.49 214.217C246.115 212.553 242.644 211.139 242.644 211.139C242.644 211.139 239.599 196.097 252.107 183.49C263.143 172.366 287.154 163.178 323.683 167.336Z" fill="#7D9EFF"/>
<path d="M236.33 215.687C236.33 215.687 233.697 215.894 230.409 216.076C229.058 209.046 212.74 164.821 181.719 148.346C192.928 150.526 203.735 155.246 212.394 162.759C214.122 164.249 215.752 165.828 217.266 167.462L217.833 174.26L221.162 172.102C230.461 184.304 235.678 200.595 236.33 215.687Z" fill="#7D9EFF"/>
<path d="M235.496 207.175C235.54 207.461 235.582 207.738 235.624 208.012C235.584 207.738 235.54 207.461 235.496 207.175Z" fill="#3F964F"/>
<path d="M181.72 148.346C178.267 167.202 200.206 207.191 221.599 216.695C224.177 216.743 227.474 216.235 230.409 216.074C229.058 209.044 212.74 164.819 181.72 148.346Z" fill="#8FABFF"/>
<path d="M224.9 215.461C224.9 215.461 222.489 216.842 219.44 218.493C214.999 212.411 179.615 177.671 142.703 175.945C154.346 172.979 166.749 172.611 178.361 175.865C180.675 176.505 182.935 177.274 185.109 178.15L190.9 180.811C205.224 188.244 217.5 201.396 224.9 215.461Z" fill="#7D9EFF"/>
<path d="M220.284 207.74C220.454 207.991 220.619 208.236 220.782 208.477C220.619 208.236 220.454 207.991 220.284 207.74Z" fill="#3F964F"/>
<path d="M142.703 175.947C148.754 191.254 179.098 226.773 203.719 226.199C206.192 225.084 216.719 219.967 219.44 218.495C214.999 212.413 179.613 177.673 142.703 175.947Z" fill="#8FABFF"/>
<path d="M688 289C688 318.368 612.721 343.844 502.532 356.497H502.529C493.747 357.506 484.745 358.432 475.54 359.273C475.104 359.313 474.668 359.353 474.23 359.392C473.133 359.491 472.034 359.589 470.932 359.685C465.654 360.149 460.314 360.583 454.912 360.987C450.38 361.329 445.804 361.649 441.189 361.946C439.578 362.052 437.963 362.154 436.343 362.253C435.709 362.292 435.076 362.33 434.443 362.366C433.908 362.399 433.375 362.432 432.841 362.462C431.104 362.564 429.36 362.664 427.611 362.76C400.998 364.223 373.158 365 344.498 365C154.789 365 1 330.975 1 289C1 247.027 154.791 213 344.498 213C534.209 213 688 247.027 688 289Z" fill="#CAE4FD"/>
<path d="M124.508 266.684C135.351 268.285 142.191 253.225 150.553 261.967C134.023 278.988 127.314 286.213 127.314 286.213C125.333 284.267 120.091 278.436 118.608 276.255L124.508 266.684Z" fill="black"/>
<path d="M134.618 277.054C145.461 278.654 152.301 263.595 160.663 272.337C144.133 289.357 137.424 296.583 137.424 296.583C135.443 294.637 130.201 288.806 128.718 286.625L134.618 277.054Z" fill="black"/>
<path d="M46.8066 263.58L52.8271 262.069L75.8354 248.976C82.317 245.288 90.3507 245.177 96.9414 248.683L126.59 268.051L116.517 281.604L88.2877 266.247L63.1744 285.196C58.9318 288.396 54.2624 290.983 49.3174 292.914L46.8066 263.58Z" fill="#6985DB"/>
<path d="M19.5176 281.726L20.7309 288.528C22.5833 298.909 32.3948 306.211 43.3334 305.35C54.5668 304.465 65.2815 300.428 74.1419 293.743L99.2552 274.794L127.484 290.15L137.558 276.598L107.913 257.229C101.324 253.721 93.2883 253.834 86.8067 257.522L63.7984 270.615L19.5176 281.726Z" fill="#95A6DB"/>
<path d="M81.5057 224.92L78.1203 225.707L76.3062 219.537L80.6445 216.76L81.5057 224.92Z" fill="#DE623C"/>
<path d="M76.3636 217.939L54.7676 224.952C54.7676 224.952 47.5243 227.085 48.4238 239.669C54.4136 241.944 61.3048 241.272 79.4217 227.373C77.8391 224.51 76.3636 217.939 76.3636 217.939Z" fill="#0E6A41"/>
<path d="M82.8894 230.588C81.6933 230.607 80.7078 229.654 80.6867 228.457L80.3997 211.22C80.3806 210.023 81.3336 209.037 82.5296 209.016C83.7257 208.996 84.7112 209.95 84.7323 211.147L85.0193 228.384C85.0384 229.581 84.0854 230.567 82.8894 230.588Z" fill="#C4204A"/>
<path d="M88.9749 202.206C88.9864 202.891 88.9328 203.604 88.8179 204.324C88.173 208.418 85.6106 212.652 82.4262 212.585C79.3127 212.52 76.8153 208.562 76.0804 204.561C75.9484 203.843 75.8738 203.125 75.8623 202.426C75.8604 202.344 75.8604 202.259 75.8623 202.177C75.8891 197.7 78.7251 194.061 82.2808 194.004C85.8498 193.945 88.8141 197.512 88.9691 202.01C88.973 202.074 88.9749 202.139 88.9749 202.206Z" fill="#E62552"/>
<path d="M88.9749 202.206C88.9864 202.891 88.9328 203.604 88.8179 204.324L87.0306 202.439L85.4518 204.395C85.2968 204.586 85.0652 204.703 84.8183 204.711H84.8049C84.5638 204.714 84.3303 204.617 84.1677 204.439L82.386 202.518L80.7575 204.481C80.5987 204.67 80.3671 204.783 80.1202 204.789C79.8753 204.797 79.638 204.693 79.4715 204.511L77.7319 202.598L76.0804 204.563C75.9484 203.845 75.8738 203.127 75.8623 202.428C75.8604 202.346 75.8604 202.261 75.8623 202.179L77.0545 200.758C77.2133 200.568 77.4449 200.459 77.6898 200.454C77.9348 200.452 78.1702 200.551 78.3367 200.733L80.0724 202.642L81.6952 200.685C81.8502 200.498 82.0818 200.385 82.3267 200.379C82.5717 200.371 82.8071 200.471 82.9735 200.651L84.7437 202.564L86.3168 200.618C86.4718 200.429 86.6995 200.314 86.9445 200.304C87.1894 200.293 87.4267 200.39 87.5951 200.568L88.9672 202.016C88.973 202.074 88.9749 202.139 88.9749 202.206Z" fill="#F5A3B7"/>
<path d="M82.966 222.574C83.0827 222.476 83.1325 222.394 83.2645 222.361C83.2645 222.361 83.2492 222.296 83.1822 222.311C82.1986 221.431 81.9421 220.094 82.6215 219.437C82.7382 219.339 82.8531 219.24 82.9698 219.142C82.5775 218.397 82.5832 217.556 83.031 217.097C83.1975 216.917 83.4444 216.787 83.7085 216.722C83.2511 215.994 83.2568 215.151 83.8042 214.527C84.4682 213.805 85.6719 213.861 86.491 214.642C87.31 215.421 87.4516 216.578 86.8546 217.285C86.6881 217.465 86.5063 217.579 86.2422 217.645C87.0115 218.506 87.1531 219.663 86.6058 220.287C86.4891 220.385 86.3742 220.484 86.2575 220.582C86.6498 221.327 86.6441 222.168 86.1963 222.627C86.0298 222.807 85.7829 222.938 85.5839 222.987C86.0087 223.583 86.0049 224.426 85.5571 224.885C85.0098 225.509 84.0032 225.404 83.2989 224.807C82.5928 224.205 82.4837 223.183 82.966 222.574Z" fill="#F37A50"/>
<path d="M82.4453 216.072C82.0415 217.124 81.1229 217.748 80.3938 217.468C79.6647 217.187 79.4025 216.107 79.8063 215.055C80.2101 214.004 81.1286 213.38 81.8578 213.659C82.5888 213.939 82.851 215.019 82.4453 216.072Z" fill="#F37A50"/>
<path d="M38.2333 204.18L36.5703 212.495L51.0531 215.881L51.587 207.15L38.2333 204.18Z" fill="#F37A50"/>
<path d="M25.8303 191.913C31.4508 205.517 50.6183 209.314 55.3413 208.546C66.745 206.691 70.1169 189.519 64.4964 175.915C58.8759 162.311 47.2234 158.301 36.547 162.718C25.8705 167.136 20.2098 178.309 25.8303 191.913Z" fill="#F37A50"/>
<path d="M61.779 182.033C61.8364 183.069 62.7225 183.862 63.7578 183.805C64.7931 183.747 65.5853 182.86 65.5279 181.824C65.4705 180.788 64.5845 179.996 63.5492 180.053C62.5119 180.111 61.7197 180.997 61.779 182.033Z" fill="black"/>
<path d="M49.2061 187.152C50.0214 187.882 51.2748 187.813 52.004 186.995C52.7331 186.179 52.6623 184.927 51.847 184.195C51.0318 183.466 49.7783 183.536 49.0492 184.352C48.3201 185.17 48.3909 186.422 49.2061 187.152Z" fill="black"/>
<path d="M65.6256 196.451C65.8916 196.001 65.6199 195.364 65.1874 195.425C64.087 195.58 62.2671 195.787 60.5333 195.764C58.7995 195.741 56.9854 195.482 55.8888 195.298C55.4582 195.226 55.1693 195.856 55.4219 196.313C56.2007 197.719 57.8178 199.86 60.4759 199.896C63.1321 199.931 64.8104 197.836 65.6256 196.451Z" fill="white"/>
<path d="M59.5898 186.057C59.5898 186.057 62.5867 187.466 64.2956 188.081C65.3768 189.73 62.5541 192.365 60.5314 192.271C61.9437 190.434 61.9896 188.927 61.9896 188.927L59.5898 186.057Z" fill="#DE623C"/>
<path d="M37.127 175.637C43.9455 178.395 64.6898 177.234 59.322 171.137C65.8266 173.793 71.5408 170.467 68.9306 166.547C66.3203 162.627 57.0849 158.5 50.1209 160.241C43.5379 157.041 32.6528 155.687 23.0786 167.299C13.5045 178.912 20.1239 202.311 38.2331 204.178C36.9624 202.361 34.6335 199.385 33.9618 196.135C33.2901 192.886 37.5978 192.313 37.6935 188.448L37.127 175.637Z" fill="black"/>
<path d="M36.5298 186.664C39.4979 188.443 40.7227 191.855 39.2683 194.285C37.8139 196.715 34.2276 197.244 31.2595 195.463C28.2914 193.684 27.0666 190.271 28.521 187.841C29.9773 185.413 33.5636 184.885 36.5298 186.664Z" fill="#F37A50"/>
<path d="M35.8637 194.048C35.9594 193.985 36.0417 193.9 36.101 193.795C36.9737 192.282 36.8818 190.714 35.8561 189.599C34.8055 188.458 33.0697 188.088 31.7263 188.722C31.3493 188.9 31.1867 189.352 31.3647 189.73C31.5426 190.109 31.9943 190.27 32.3713 190.092C33.1061 189.745 34.1491 189.979 34.7423 190.626C35.3126 191.246 35.3298 192.104 34.7901 193.041C34.5816 193.403 34.7059 193.866 35.0676 194.075C35.326 194.22 35.6322 194.199 35.8637 194.048Z" fill="#DE623C"/>
<path d="M45.6468 184.475C45.5262 184.475 45.4038 184.454 45.2851 184.41C44.7378 184.211 44.4565 183.603 44.6574 183.056C45.4363 180.921 47.1682 179.496 49.2847 179.247C49.8627 179.178 50.387 179.592 50.4559 180.172C50.5248 180.75 50.1095 181.275 49.5316 181.344C49.0398 181.401 47.3806 181.748 46.6381 183.782C46.4812 184.211 46.0755 184.475 45.6468 184.475Z" fill="black"/>
<path d="M66.1997 178.448C66.2839 178.37 66.3566 178.276 66.4121 178.165C66.6647 177.665 66.4657 177.056 65.9682 176.801C64.0219 175.811 61.8748 175.945 60.2233 177.16C59.7716 177.491 59.676 178.125 60.007 178.577C60.3381 179.029 60.9715 179.124 61.4232 178.793C61.8059 178.512 63.1991 177.667 65.0515 178.609C65.44 178.81 65.8974 178.732 66.1997 178.448Z" fill="black"/>
<path d="M19.1902 285.064C15.8489 257.787 16.4651 226.706 36.0727 210.463L52.2989 214.632C55.4871 215.544 57.5806 220.697 58.1107 223.847L59.0963 256.538L64.7876 270.686L19.1902 285.064Z" fill="#3F964F"/>
<path d="M95.2248 241.538C93.8469 241.147 93.047 239.715 93.4355 238.336L99.0445 218.491C99.4349 217.112 100.866 216.312 102.244 216.7C103.622 217.091 104.422 218.524 104.034 219.902L98.4245 239.747C98.036 241.126 96.6027 241.927 95.2248 241.538Z" fill="#C4204A"/>
<path d="M111.975 211.122C111.753 211.911 111.445 212.71 111.066 213.493C108.917 217.96 104.523 221.926 100.897 220.751C97.3528 219.602 95.8544 214.207 96.3903 209.37C96.4859 208.5 96.6467 207.652 96.8744 206.848C96.9012 206.752 96.9299 206.658 96.9605 206.562C98.5355 201.442 103.036 198.253 107.13 199.412C111.239 200.574 113.405 205.685 112.035 210.892C112.019 210.969 111.998 211.045 111.975 211.122Z" fill="#E62552"/>
<path d="M111.975 211.122C111.753 211.911 111.445 212.71 111.066 213.493L109.667 210.716L107.185 212.411C106.94 212.577 106.636 212.629 106.351 212.554L106.336 212.551C106.058 212.472 105.825 212.279 105.698 212.018L104.321 209.203L101.779 210.89C101.532 211.053 101.228 211.103 100.945 211.022C100.662 210.946 100.426 210.747 100.298 210.481L98.9622 207.688L96.394 209.368C96.4897 208.499 96.6505 207.65 96.8782 206.846C96.905 206.75 96.9337 206.656 96.9643 206.561L98.8187 205.345C99.0656 205.182 99.3679 205.136 99.6511 205.214C99.9325 205.297 100.168 205.492 100.296 205.756L101.628 208.543L104.162 206.859C104.405 206.698 104.707 206.649 104.99 206.727C105.274 206.804 105.509 206.997 105.639 207.261L107.009 210.063L109.482 208.376C109.725 208.211 110.025 208.16 110.308 208.232C110.594 208.305 110.833 208.497 110.965 208.759L112.038 210.89C112.019 210.969 111.998 211.045 111.975 211.122Z" fill="#F5A3B7"/>
<path d="M88.6379 232.798L92.7447 229.914C92.7447 229.914 92.85 223.734 97.6533 223.338L96.752 226.8C96.752 226.8 101.13 224.192 103.012 223.388C105.786 222.198 108.814 230.255 104.137 234.257C100.79 237.122 99.7048 236.777 96.6525 237.438C94.1876 237.972 93.2078 239.029 93.2078 239.029L88.6379 232.798Z" fill="#F37A50"/>
<path d="M33.4148 216.009C24.7171 226.002 35.5179 251.532 58.4037 260.473C64.2979 255.284 63.0578 244.769 63.0578 244.769C63.0578 244.769 61.4331 242.555 53.3975 227.982C44.6271 212.072 37.2517 211.599 33.4148 216.009Z" fill="#0E6A41"/>
<path d="M89.4665 230.278L65.3158 243.985C65.3158 243.985 55.3321 247.335 58.4055 260.472C65.1129 261.864 77.5002 257.459 94.2871 239.723C92.1304 236.969 89.4665 230.278 89.4665 230.278Z" fill="#0E6A41"/>
<path d="M91.9007 200.731C91.5544 200.731 91.2597 200.465 91.2329 200.113C90.942 196.317 89.4742 193.674 86.8735 192.257C84.9349 191.202 83.0863 191.246 83.0672 191.246C82.6978 191.258 82.3878 190.967 82.3763 190.597C82.3648 190.227 82.6557 189.917 83.025 189.906C83.1112 189.904 91.7802 189.754 92.5686 200.009C92.5973 200.379 92.3218 200.701 91.9524 200.729C91.9352 200.729 91.918 200.731 91.9007 200.731Z" fill="#2C2858"/>
<path d="M93.6461 195.239C93.3475 195.239 93.0758 195.038 92.9973 194.735C91.6539 189.525 87.4534 189.377 87.2735 189.373C86.9041 189.366 86.6094 189.061 86.6171 188.692C86.6228 188.322 86.9252 188.031 87.2945 188.033C87.3481 188.033 92.6892 188.175 94.2948 194.4C94.3867 194.758 94.1723 195.124 93.8145 195.216C93.759 195.233 93.7016 195.239 93.6461 195.239Z" fill="#2C2858"/>
<path d="M114.128 211.972C113.839 211.781 113.742 211.396 113.914 211.088C115.764 207.761 116 204.747 114.61 202.129C113.577 200.178 112.01 199.193 111.994 199.184C111.681 198.99 111.583 198.577 111.776 198.261C111.971 197.947 112.383 197.849 112.699 198.044C112.773 198.09 120.082 202.753 115.083 211.741C114.903 212.064 114.496 212.181 114.172 212.001C114.157 211.989 114.143 211.982 114.128 211.972Z" fill="#2C2858"/>
<path d="M118.614 208.359C118.365 208.194 118.248 207.876 118.352 207.581C120.105 202.495 116.683 200.049 116.537 199.948C116.235 199.737 116.157 199.322 116.365 199.017C116.574 198.713 116.987 198.636 117.293 198.841C117.337 198.872 121.714 201.938 119.618 208.018C119.498 208.368 119.117 208.554 118.767 208.433C118.709 208.414 118.66 208.389 118.614 208.359Z" fill="#2C2858"/>
<path d="M306.571 287.094C310.964 279.727 286.213 275.355 277.021 274.397L275.259 279.175C275.259 279.175 299.478 298.988 306.571 287.094Z" fill="#DE623C"/>
<path d="M276.472 271.071C276.887 272.657 276.51 274.924 278.072 275.257L277.13 278.607L275.259 279.175C270.362 277.316 267.815 270.926 267.627 270.278C267.139 268.601 266.808 267.842 267.009 267.664C267.21 267.486 268.647 266.768 269.434 269.185C270.421 272.22 272.495 269.664 268.886 263.827C267.983 262.365 268.163 259.242 269.529 260.089C271.032 261.023 274.583 263.855 276.472 271.071Z" fill="#DE623C"/>
<path d="M320.812 270.207L303.306 268.792L301.616 251.548L317.044 243.323L320.812 270.207Z" fill="#F37A50"/>
<path d="M289.809 245.931C289.962 247.476 290.224 248.901 290.545 250.171C291.428 253.62 292.76 255.952 293.573 256.598C295.41 258.053 298.836 258.536 302.024 258.629C305.843 258.74 309.323 258.292 309.323 258.292C309.323 258.292 315.439 255.688 320.474 252.116C323.35 250.079 325.872 247.723 326.699 245.356C329.766 236.576 325.679 219.311 316.908 216.241C308.136 213.171 297.622 214.78 293.808 223.261C290.318 231.023 289.292 240.663 289.809 245.931Z" fill="#F37A50"/>
<path d="M341.247 240.127C347.958 234.945 346.329 229.445 341.191 225.1C336.053 220.755 336.388 217.589 335.309 212.815C334.285 208.286 324.913 200.561 317.961 204.605C307.595 210.638 308.57 203.006 299.896 207.191C292.071 210.965 291.02 218.48 292.398 222.604C293.739 226.614 301.555 223.014 299.701 227.018C298.256 230.142 302.981 231.892 303.375 235.739C303.673 238.654 305.375 240.42 304.5 241.887C302.795 244.742 298.855 248.436 303.58 254.954C306.274 258.67 309.554 255.786 312.702 259.543C318.681 266.68 323.231 262.207 328.909 259.204C334.587 256.203 339.788 258.302 338.112 249.342C338.049 249.007 336.273 243.966 341.247 240.127Z" fill="black"/>
<path d="M302.701 233.436C300.003 235.402 299.117 238.788 300.726 240.998C302.334 243.208 305.826 243.407 308.524 241.44C311.223 239.474 312.109 236.088 310.499 233.878C308.892 231.668 305.399 231.469 302.701 233.436Z" fill="#F37A50"/>
<path d="M303.978 240.475C303.88 240.423 303.794 240.349 303.727 240.253C302.759 238.874 302.711 237.359 303.601 236.199C304.511 235.01 306.15 234.506 307.495 234.998C307.874 235.138 308.069 235.557 307.929 235.935C307.79 236.312 307.371 236.509 306.994 236.369C306.257 236.099 305.275 236.415 304.76 237.088C304.265 237.733 304.322 238.558 304.921 239.412C305.153 239.742 305.074 240.197 304.743 240.429C304.51 240.594 304.213 240.602 303.978 240.475Z" fill="#DE623C"/>
<path d="M307.453 314.492L291.912 337.169L273.873 323.672L297.766 300.556L307.453 314.492Z" fill="#293789"/>
<path d="M267.218 303.172L293.586 325.379C308.119 311.074 336.589 325.796 336.589 325.796C336.589 325.796 347.179 348.728 320.973 351.721C271.56 357.365 237.161 308.119 267.218 303.172Z" fill="#4450A8"/>
<path d="M272.963 311.792C265.185 315.401 262.711 290.395 262.711 281.146L268.335 279.805C268.335 279.805 285.518 305.962 272.963 311.792Z" fill="#DE623C"/>
<path d="M260.154 280.173C261.687 280.751 262.814 280.778 262.984 282.366L267.575 281.607L268.335 279.803C266.994 274.736 260.906 271.538 260.284 271.286C258.667 270.627 257.95 270.217 257.751 270.399C257.551 270.581 256.688 271.937 259.012 272.969C261.926 274.265 259.17 276.067 253.743 271.87C252.385 270.818 249.261 270.675 249.96 272.122C250.729 273.718 253.177 277.546 260.154 280.173Z" fill="#DE623C"/>
<path d="M291.546 274.872C291.546 274.872 291.894 272.366 292.028 271.594C298.097 267.756 303.306 265.533 317.079 263.798C323.105 263.04 329.996 265.776 333.952 273.296C344.67 293.674 342.297 312.983 341.664 331.667C319.683 337.97 300.898 337.769 290.352 322.466C293.646 313.839 291.546 274.872 291.546 274.872Z" fill="#0E6A41"/>
<path d="M278.828 285.03C282.531 279.106 288.255 272.567 294.097 273.507C299.94 274.447 299.733 290.141 299.733 290.141C299.733 290.141 276.75 318.19 268.902 310.897C261.052 303.603 273.252 293.952 278.828 285.03Z" fill="#F37A50"/>
<path d="M277.921 284.174C283.409 276.381 294.685 262.509 303.306 268.792C311.636 274.865 308.362 293.678 290.984 303.214C285.937 298.165 277.921 284.174 277.921 284.174Z" fill="#0B5434"/>
<path d="M252.771 326.351C255.502 323.852 262.449 324.831 268.255 329.306C274.061 333.782 278.124 338.021 274.842 344.073C266.106 338.418 252.771 326.351 252.771 326.351Z" fill="#241D26"/>
<path d="M260.483 342.137C267.862 346.601 272.918 346.945 274.225 345.078C276.705 341.534 273.575 337.227 266.739 331.493C259.232 325.197 254.13 324.029 251.326 327.736C248.523 331.442 252.48 337.298 260.483 342.137Z" fill="#E4E2E8"/>
<path d="M264.697 264.271C264.288 264.271 263.949 263.947 263.934 263.534L263.622 255.334C263.607 254.91 263.936 254.556 264.357 254.539C264.778 254.524 265.136 254.853 265.151 255.274L265.463 263.474C265.478 263.898 265.149 264.254 264.728 264.269C264.718 264.271 264.707 264.271 264.697 264.271Z" fill="#2C2858"/>
<path d="M261.507 263.896C261.159 263.896 260.845 263.656 260.763 263.302L257.697 250.094C257.601 249.682 257.858 249.271 258.269 249.175C258.681 249.079 259.092 249.336 259.188 249.748L262.254 262.955C262.349 263.367 262.093 263.779 261.681 263.874C261.624 263.89 261.565 263.896 261.507 263.896Z" fill="#2C2858"/>
<path d="M147.497 285.098C143.103 277.731 167.918 273.103 177.11 272.143L178.809 277.178C178.809 277.178 154.589 296.993 147.497 285.098Z" fill="#DE623C"/>
<path d="M177.594 269.074C177.178 270.659 177.555 272.927 175.994 273.26L176.935 276.609L178.807 277.178C183.704 275.319 186.251 268.928 186.439 268.281C186.927 266.603 187.258 265.847 187.057 265.667C186.856 265.489 185.419 264.771 184.632 267.187C183.645 270.223 181.57 267.666 185.18 261.829C186.083 260.368 185.903 257.245 184.537 258.091C183.034 259.026 179.483 261.858 177.594 269.074Z" fill="#DE623C"/>
<path d="M133.255 268.21L150.762 266.795L152.452 249.552L137.023 241.325L133.255 268.21Z" fill="#F37A50"/>
<path d="M162.862 242.384C162.875 243.937 162.766 245.381 162.581 246.68C162.072 250.203 162.324 252.367 161.586 253.095C159.913 254.738 155.23 255.879 152.071 256.312C148.284 256.829 144.778 256.755 144.778 256.755C144.778 256.755 138.419 254.817 133.033 251.804C129.956 250.085 127.197 248.013 126.123 245.747C122.137 237.344 124.362 219.741 132.756 215.752C141.151 211.764 149.973 213.843 155.395 221.396C160.087 227.936 162.814 237.091 162.862 242.384Z" fill="#F37A50"/>
<path d="M146.615 312.494L162.154 335.172L180.194 321.677L156.302 298.559L146.615 312.494Z" fill="#062440"/>
<path d="M186.85 301.177L160.481 323.381C145.949 309.076 117.479 323.799 117.479 323.799C117.479 323.799 106.889 346.731 133.095 349.724C182.506 355.368 216.904 306.123 186.85 301.177Z" fill="#332E66"/>
<path d="M181.105 309.794C188.883 313.404 191.357 288.398 191.357 279.149L185.733 277.808C185.733 277.808 168.548 303.967 181.105 309.794Z" fill="#DE623C"/>
<path d="M193.914 278.178C192.381 278.754 191.254 278.783 191.083 280.37L186.492 279.612L185.733 277.808C187.074 272.741 193.162 269.543 193.784 269.29C195.401 268.631 196.118 268.222 196.317 268.403C196.516 268.585 197.379 269.941 195.056 270.973C192.142 272.27 194.897 274.072 200.325 269.874C201.683 268.823 204.806 268.679 204.108 270.127C203.337 271.722 200.889 275.55 193.914 278.178Z" fill="#DE623C"/>
<path d="M162.521 272.875C162.521 272.875 162.173 270.368 162.039 269.597C155.971 265.759 150.762 263.536 136.989 261.801C130.963 261.042 124.072 263.779 120.116 271.299C109.397 291.676 111.77 310.985 112.404 329.67C134.384 335.972 153.169 335.771 163.716 320.47C160.422 311.841 162.521 272.875 162.521 272.875Z" fill="#E62552"/>
<path d="M175.24 283.032C171.537 277.109 165.813 270.569 159.97 271.51C154.128 272.45 154.335 288.143 154.335 288.143C154.335 288.143 177.318 316.192 185.166 308.9C193.014 301.606 180.816 291.954 175.24 283.032Z" fill="#F37A50"/>
<path d="M178.399 284.604C172.911 276.812 159.383 260.51 150.762 266.795C142.432 272.867 148.95 295.204 166.328 304.739C171.372 299.691 178.399 284.604 178.399 284.604Z" fill="#C4204A"/>
<path d="M201.295 324.354C198.564 321.853 191.617 322.832 185.811 327.309C180.005 331.784 175.942 336.024 179.224 342.074C187.96 336.42 201.295 324.354 201.295 324.354Z" fill="#241D26"/>
<path d="M193.582 340.141C186.203 344.605 181.147 344.95 179.84 343.083C177.36 339.538 180.491 335.231 187.326 329.498C194.834 323.201 199.936 322.033 202.739 325.741C205.543 329.446 201.585 335.3 193.582 340.141Z" fill="#E4E2E8"/>
<path d="M149.235 208.615C141.775 208.623 132.54 202.897 122.525 211.633C100.541 230.812 129.707 246.119 123.786 251.077C112.635 249.144 78.7765 253.878 92.0824 264.968C84.3722 265.916 78.0551 285.443 96.3059 277.033C93.4775 282.657 90.6873 300.595 111.86 289.053C118.931 305.445 136.537 289.495 137.592 271.933C137.887 267.03 137.642 260.638 133.696 256.64C143.966 254.342 149.062 246.804 147.662 231.643C161.743 234.86 171.948 208.59 149.235 208.615Z" fill="#2C2858"/>
<path d="M148.712 231.335C151.606 233.003 152.846 236.274 151.481 238.644C150.119 241.013 146.666 241.582 143.773 239.916C140.879 238.248 139.639 234.977 141.004 232.606C142.368 230.238 145.819 229.669 148.712 231.335Z" fill="#F37A50"/>
<path d="M148.192 238.472C148.282 238.411 148.36 238.327 148.417 238.223C149.233 236.749 149.118 235.238 148.109 234.179C147.076 233.095 145.394 232.767 144.11 233.401C143.748 233.579 143.599 234.018 143.777 234.38C143.955 234.742 144.393 234.891 144.755 234.711C145.459 234.364 146.467 234.573 147.051 235.186C147.612 235.776 147.644 236.603 147.139 237.515C146.944 237.867 147.072 238.311 147.424 238.507C147.675 238.646 147.972 238.623 148.192 238.472Z" fill="#DE623C"/>
<path d="M135.28 256.835C135.663 256.22 135.475 255.412 134.863 255.029L125.939 249.456C125.325 249.073 124.518 249.261 124.135 249.874C123.752 250.489 123.94 251.297 124.552 251.68L133.476 257.252C134.09 257.635 134.897 257.448 135.28 256.835Z" fill="#33BE86"/>
<path d="M188.919 261.68C188.9 261.68 188.883 261.68 188.863 261.678C188.389 261.647 188.029 261.238 188.06 260.763L188.743 250.125C188.773 249.65 189.183 249.29 189.658 249.321C190.132 249.351 190.492 249.761 190.461 250.236L189.778 260.874C189.748 261.33 189.369 261.68 188.919 261.68Z" fill="#2C2858"/>
<path d="M192.182 262.745C192.017 262.745 191.851 262.697 191.703 262.599C191.307 262.335 191.202 261.799 191.468 261.404L202.705 244.612C202.969 244.215 203.505 244.11 203.899 244.376C204.293 244.64 204.401 245.176 204.135 245.571L192.897 262.364C192.733 262.611 192.459 262.745 192.182 262.745Z" fill="#2C2858"/>
<path d="M196.285 266.695C195.973 266.695 195.672 266.527 195.519 266.23C195.301 265.807 195.466 265.288 195.887 265.068L205.985 259.824C206.408 259.604 206.927 259.769 207.147 260.192C207.367 260.615 207.2 261.134 206.779 261.354L196.681 266.598C196.553 266.665 196.417 266.695 196.285 266.695Z" fill="#2C2858"/>
<path d="M233.494 47.7917C234.47 41.792 235.586 35.3729 239.35 34.536C243.115 33.6992 240.885 36.4893 242.837 37.8854C244.789 39.2814 245.905 42.7686 245.905 42.7686L233.494 47.7917Z" fill="#E62552"/>
<path d="M236.143 47.6519C229.728 40.9532 222.338 38.0233 218.853 40.1164C215.366 42.2095 220.108 44.023 218.434 45.8384C216.761 47.6519 216.761 50.8614 219.27 50.5818C221.781 50.3022 236.143 47.6519 236.143 47.6519Z" fill="#E62552"/>
<path d="M254.279 99.1175C261.454 96.6165 276.7 88.9125 269.478 78.5255C262.255 68.1385 259.186 72.4894 261.965 59.9998C264.741 47.5083 255.954 37.5637 247.447 39.9612C238.939 42.3607 236.7 49.2049 226.324 47.3512C215.948 45.4994 207.2 55.1338 211.02 63.6134C214.84 72.093 216.467 76.1739 212.758 80.8044C209.047 85.4348 192.505 90.2836 199.259 101.548C206.012 112.812 209.172 112.159 206.72 117.869C204.269 123.578 209.706 130.167 219.274 129.382C228.842 128.595 237.532 125.073 241.155 114.434C244.776 103.792 254.279 99.1175 254.279 99.1175Z" fill="black"/>
<path d="M233.862 215.094C234.769 211.317 236.799 207.384 239.247 204.105C237.419 193.843 234.604 174.597 237.345 165.846C238.085 163.483 257.806 160.407 256.816 179.086C256.005 194.393 254.369 206.279 251.403 210.862C250.453 213.566 237.915 243.932 237.915 243.932L229.832 241.425C234.604 228.683 231.778 223.772 233.862 215.094Z" fill="#F37A50"/>
<path d="M201.833 191.903C203.941 190.959 206.339 190.3 208.796 189.906C210.138 179.708 213.083 161.569 217.802 153.934C219.104 151.828 238.973 153.739 233.389 171.591C227.805 189.442 224.523 200.647 218.02 202.321C214.155 203.316 181.79 212.631 181.79 212.631L178.53 204.78C191.529 200.785 193.692 195.547 201.833 191.903Z" fill="#F37A50"/>
<path d="M248.469 99.0754C249.011 109.278 260.156 110.992 275.879 114.185C280.971 113.899 273.581 102.852 273.581 102.852C273.581 102.852 247.977 90.8639 248.469 99.0754Z" fill="#F37A50"/>
<path d="M279.655 78.0525C279.655 78.0525 271.992 99.6575 272.101 103.185C272.21 106.71 272.851 113.798 276.172 114.116C279.49 114.434 283.407 106.718 283.989 99.9467C284.569 93.1752 285.564 79.5309 285.564 79.5309L279.655 78.0525Z" fill="#F37A50"/>
<path d="M289.931 76.3922C288.218 77.4857 285.401 77.9031 285.601 79.8737L279.637 78.38C279.97 71.8881 286.81 66.1086 287.501 65.6414C289.294 64.4273 290.061 63.7475 290.348 63.9179C290.635 64.0883 292.031 65.5112 289.476 67.3611C286.272 69.682 290.075 71.1604 295.59 64.6762C296.97 63.0523 300.724 62.0795 300.244 64.0136C299.718 66.145 297.728 71.4189 289.931 76.3922Z" fill="#F37A50"/>
<path d="M227.342 104.556C224.317 116.488 211.705 110.385 196.115 106.601C191.623 104.181 203 97.3155 203 97.3155C203 97.3155 229.897 97.3806 227.342 104.556Z" fill="#F37A50"/>
<path d="M208.016 72.2788C208.016 72.2788 205.794 95.096 204.2 98.2424C202.606 101.389 199.019 107.534 195.879 106.412C192.739 105.29 193.177 95.4599 195.523 89.081C197.869 82.7021 202.039 71.1068 202.039 71.1068L208.016 72.2788Z" fill="#F37A50"/>
<path d="M199.414 66.4131C200.501 68.1309 202.876 69.705 201.859 71.4036L207.893 72.5813C210.345 66.5625 206.601 58.4238 206.175 57.7075C205.065 55.8481 204.659 54.904 204.326 54.9365C203.993 54.9691 202.127 55.6662 203.656 58.4237C205.574 61.8861 201.503 61.6103 199.259 53.3969C198.696 51.3402 195.711 48.8641 195.324 50.8212C194.897 52.9775 194.465 58.598 199.414 66.4131Z" fill="#F37A50"/>
<path d="M225.442 132.337C216.459 138.882 217.95 144.562 213.558 154.061C210.245 161.223 196.304 177.271 196.304 177.271C196.304 177.271 223.207 195.295 241.561 185.478C257.967 176.704 270.978 187.177 270.978 187.177C270.978 187.177 270.922 156.732 256.153 132.337H225.442Z" fill="#062440"/>
<path d="M221.117 99.1577C221.13 99.2784 221.92 102.984 220.918 109.849C219.886 116.902 222.397 131.249 225.44 132.339H256.149C260.104 129.227 253.713 96.3178 253.336 96.2565C242.087 94.3951 231.091 95.7088 221.117 99.1577Z" fill="#F5A3B7"/>
<path d="M238.037 91.3656C247.105 91.3656 254.455 82.2946 254.455 71.1049C254.455 59.9152 247.105 50.8442 238.037 50.8442C228.97 50.8442 221.62 59.9152 221.62 71.1049C221.62 82.2946 228.97 91.3656 238.037 91.3656Z" fill="#F37A50"/>
<path d="M220.904 72.9605C229.967 71.8001 238.393 66.7464 243.155 60.2162C246.23 67.8494 254.832 72.9605 254.832 72.9605C254.832 72.9605 261.279 58.3587 249.554 50.4823C238.367 42.9697 211.676 48.1038 220.904 72.9605Z" fill="black"/>
<path d="M233.272 77.0203C232.308 77.0203 231.527 76.239 231.527 75.2739C231.527 74.3087 232.308 73.5274 233.272 73.5274C234.237 73.5274 235.018 74.3087 235.018 75.2739C235.016 76.2371 234.235 77.0203 233.272 77.0203Z" fill="black"/>
<path d="M248.442 77.1199C247.478 77.1199 246.697 76.3386 246.697 75.3734C246.697 74.4083 247.478 73.6269 248.442 73.6269C249.407 73.6269 250.188 74.4083 250.188 75.3734C250.186 76.3386 249.405 77.1199 248.442 77.1199Z" fill="black"/>
<path d="M251.516 73.8012C251.229 73.8012 250.951 73.6538 250.794 73.3895C250.364 72.6618 249.841 72.2271 249.242 72.093C248.209 71.8632 247.183 72.5545 247.173 72.5622C246.793 72.8226 246.272 72.7288 246.01 72.3477C245.748 71.9686 245.84 71.4496 246.217 71.1853C246.282 71.1394 247.832 70.0727 249.587 70.4519C250.664 70.6836 251.556 71.3845 252.237 72.5335C252.472 72.9318 252.342 73.4469 251.944 73.6825C251.808 73.7648 251.661 73.8012 251.516 73.8012Z" fill="black"/>
<path d="M229.962 73.7859C229.778 73.7859 229.592 73.7265 229.439 73.6021C229.078 73.3129 229.02 72.7843 229.309 72.4224C230.412 71.0474 231.631 70.2987 232.932 70.1972C234.612 70.067 235.768 71.1049 235.818 71.1489C236.16 71.4611 236.183 71.9915 235.871 72.3343C235.561 72.6752 235.035 72.7001 234.692 72.3918C234.668 72.3707 233.981 71.7905 233.041 71.8709C232.226 71.9417 231.41 72.4818 230.616 73.4718C230.45 73.6786 230.207 73.7859 229.962 73.7859Z" fill="black"/>
<path d="M224.071 70.9862C225.953 73.3703 226.046 76.4343 224.28 77.8304C222.514 79.2264 219.557 78.424 217.676 76.0398C215.795 73.6557 215.701 70.5917 217.467 69.1956C219.234 67.7996 222.19 68.602 224.071 70.9862Z" fill="#F37A50"/>
<path d="M222.422 76.1356C222.349 76.1356 222.276 76.1222 222.206 76.0916C221.92 75.9709 221.788 75.6434 221.909 75.36C222.307 74.414 222.317 73.6538 221.936 73.1003C221.348 72.2443 219.959 71.98 218.95 72.0126C218.642 72.0241 218.384 71.7809 218.374 71.4726C218.365 71.1643 218.606 70.9057 218.914 70.8942C220.267 70.8483 222.014 71.2389 222.858 72.4645C223.277 73.0754 223.633 74.1497 222.94 75.7928C222.847 76.0073 222.638 76.1356 222.422 76.1356Z" fill="#DE623C"/>
<path d="M235.745 84.5214C235.538 84.1269 235.844 83.6309 236.239 83.7209C237.243 83.9507 238.906 84.2916 240.51 84.4352C242.114 84.5788 243.811 84.5386 244.841 84.4888C245.245 84.4697 245.459 85.0135 245.185 85.364C244.345 86.4421 242.667 88.0431 240.208 87.8248C237.75 87.6065 236.38 85.7336 235.745 84.5214Z" fill="white"/>
<path d="M242.349 77.072C242.349 77.072 243.084 79.1192 244.081 80.4328C243.294 81.4823 240.828 81.4823 240.828 81.4823L242.611 80.0116C242.613 80.0116 242.035 78.1214 242.349 77.072Z" fill="#DE623C"/>
<path d="M243.23 89.2074L243.846 95.5403C243.846 95.5403 241.121 101.961 230.836 96.5955L230.046 88.1522L243.23 89.2074Z" fill="#F37A50"/>
<path d="M181.932 208.73C185.536 208.958 186.609 211.342 186.609 211.342C181.086 218.154 188.716 228.817 179.266 231.095C174.226 213.003 171.962 205.53 171.962 205.53C174.113 204.94 179.307 203.841 181.417 203.688L181.507 204.68L181.932 208.73Z" fill="#062440"/>
<path d="M176.465 230.726L169.782 207.334C169.61 206.731 169.958 206.103 170.561 205.93L172.22 205.456L179.527 231.03L177.867 231.505C177.265 231.678 176.637 231.329 176.465 230.726Z" fill="white"/>
<path d="M234.748 242.095C237.165 239.412 239.701 240.052 239.701 240.052C241.601 248.614 254.691 249.261 250.601 258.085C233.303 250.791 226.046 247.924 226.046 247.924C226.921 245.872 229.288 241.117 230.48 239.366L231.313 239.912L234.748 242.095Z" fill="#062440"/>
<path d="M248.571 260.05L226.104 250.753C225.526 250.514 225.25 249.849 225.49 249.271L226.15 247.676L250.712 257.842L250.052 259.437C249.814 260.016 249.15 260.29 248.571 260.05Z" fill="white"/>
<path d="M295.659 82.5815C295.328 82.5815 295.023 82.3651 294.926 82.0319C294.807 81.6259 295.037 81.2008 295.442 81.0801C295.481 81.0686 299.258 79.912 303.61 76.2141C307.625 72.8035 312.968 66.4649 315.628 55.6355C315.73 55.2238 316.145 54.9729 316.554 55.0744C316.966 55.1759 317.216 55.5896 317.115 56.0013C314.346 67.2711 308.746 73.8778 304.534 77.4359C299.945 81.3157 296.04 82.4991 295.877 82.547C295.804 82.57 295.731 82.5815 295.659 82.5815Z" fill="#2C2858"/>
<path d="M299.786 85.5478C299.467 85.5478 299.168 85.3448 299.061 85.0231C298.927 84.6229 299.143 84.1882 299.545 84.0541C299.672 84.012 312.258 79.7128 316.782 70.3983C316.968 70.0172 317.425 69.8602 317.806 70.044C318.187 70.2278 318.344 70.6874 318.16 71.0685C313.351 80.971 300.571 85.3276 300.029 85.5076C299.949 85.5364 299.867 85.5478 299.786 85.5478Z" fill="#2C2858"/>
<path d="M191.987 68.7092C191.803 68.7092 191.617 68.6441 191.472 68.5101C185.865 63.3913 184.041 57.1924 183.499 52.8952C182.912 48.2455 183.641 44.8368 183.672 44.6932C183.762 44.2796 184.171 44.0191 184.583 44.1091C184.996 44.1991 185.256 44.607 185.166 45.0207C185.159 45.0532 184.458 48.3604 185.023 52.7592C185.775 58.6153 188.289 63.5349 192.501 67.3783C192.813 67.6637 192.836 68.1482 192.551 68.4603C192.402 68.625 192.193 68.7092 191.987 68.7092Z" fill="#2C2858"/>
<path d="M189.034 70.1857C188.959 70.1857 188.883 70.1742 188.808 70.1512C181.391 67.8666 177.8 61.1948 177.651 60.9113C177.454 60.5379 177.598 60.0745 177.971 59.8772C178.344 59.68 178.807 59.8236 179.004 60.197C179.039 60.2602 182.462 66.597 189.258 68.6882C189.662 68.8126 189.889 69.2416 189.765 69.6457C189.663 69.975 189.361 70.1857 189.034 70.1857Z" fill="#2C2858"/>
<path d="M70.0445 66.5989C69.5929 66.2389 68.9365 66.3136 68.5786 66.7674C68.326 67.0872 68.282 67.5239 68.4657 67.8877L74.7024 81.2027C74.1972 81.5359 73.759 81.961 73.4107 82.457C72.3582 83.966 72.2433 85.7049 73.1963 86.3138C74.1494 86.9228 75.6803 86.2238 76.708 84.6669C77.7356 83.1081 77.8753 81.4191 76.9223 80.8101L71.9563 70.2087C72.7485 70.5591 77.6648 72.6982 78.4111 74.3681C78.7097 74.8487 79.3259 75.0192 79.8273 74.7587C80.3306 74.4791 80.5124 73.8414 80.233 73.3359C80.233 73.334 80.2311 73.332 80.2311 73.332C79.2053 71.1738 71.4951 67.7364 70.0445 66.5989Z" fill="#BACCFF"/>
<path d="M159.792 99.1615C159.785 98.5832 159.31 98.1236 158.734 98.1332C158.329 98.1408 157.961 98.3841 157.797 98.7556L151.455 112.021C150.877 111.841 150.27 111.772 149.665 111.816C147.832 111.958 146.416 112.971 146.548 114.093C146.68 115.215 148.192 115.96 150.046 115.768C151.902 115.577 153.296 114.614 153.163 113.492L158.214 102.93C158.445 103.765 159.907 108.928 159.088 110.562C158.905 111.098 159.165 111.684 159.683 111.906C160.219 112.118 160.826 111.856 161.04 111.318C161.04 111.316 161.042 111.314 161.042 111.314C162.06 109.154 159.833 101.008 159.792 99.1615Z" fill="#2C2858"/>
<path d="M107.972 130.816C107.545 130.426 106.887 130.455 106.498 130.88C106.225 131.18 106.15 131.613 106.307 131.99L111.591 145.711C111.062 146.008 110.595 146.403 110.215 146.872C109.059 148.302 108.823 150.028 109.729 150.704C110.636 151.378 112.213 150.79 113.347 149.308C114.482 147.826 114.741 146.152 113.833 145.476L109.625 134.551C110.391 134.957 115.144 137.437 115.77 139.154C116.034 139.656 116.637 139.869 117.156 139.645C117.678 139.401 117.904 138.779 117.659 138.254C117.659 138.252 117.657 138.251 117.657 138.251C116.788 136.025 109.34 132.054 107.972 130.816Z" fill="#2C2858"/>
<path d="M354.172 84.6018V69.3833C354.172 68.9103 353.858 68.4967 353.402 68.3722L343.266 65.651H342.992H342.846H342.699H342.462H342.334L342.15 65.7984L342.041 65.9459C342.004 66.0033 341.974 66.0646 341.949 66.1297C341.945 66.1795 341.945 66.2274 341.949 66.2772C341.947 66.3193 341.947 66.3634 341.949 66.4055V81.1089C341.35 81.1969 340.774 81.3961 340.248 81.6968C338.655 82.616 337.813 84.1422 338.418 85.0978C339.023 86.0534 340.705 86.0725 342.297 85.0978C343.889 84.1231 344.731 82.6523 344.127 81.6968V71.2217L352.178 73.3914V83.8684C351.579 83.9565 351.001 84.1556 350.476 84.4563C348.884 85.3755 348.042 86.9017 348.647 87.8573C349.25 88.8129 350.934 88.832 352.526 87.8573C354.116 86.8807 354.719 85.5574 354.172 84.6018Z" fill="#2C2858"/>
<path d="M142.55 73.2152L135.098 59.9481C134.867 59.5364 134.39 59.3296 133.933 59.4445L123.766 62.0431L123.526 62.1772L123.398 62.2499L123.27 62.3227L123.063 62.4395L122.952 62.5027L122.864 62.721L122.841 62.9029C122.837 62.9719 122.841 63.0408 122.851 63.1078C122.872 63.1519 122.895 63.1959 122.924 63.2362C122.943 63.2745 122.964 63.3128 122.987 63.3491L130.186 76.1681C129.708 76.5377 129.302 76.9954 128.99 77.5144C128.052 79.0962 128.066 80.8388 129.061 81.375C130.056 81.9112 131.531 81.1031 132.442 79.4734C133.353 77.8438 133.367 76.149 132.371 75.6128L127.241 66.4802L135.32 64.4235L140.451 73.5561C139.973 73.9257 139.567 74.3834 139.255 74.9023C138.317 76.4841 138.331 78.2268 139.326 78.763C140.321 79.2992 141.796 78.491 142.707 76.8614C143.618 75.2298 143.498 73.7801 142.55 73.2152Z" fill="#2C2858"/>
<path d="M64.7818 124.652L66.8581 109.575C66.9232 109.108 66.6667 108.654 66.2342 108.468L56.5663 104.389L56.2946 104.351L56.1491 104.332L56.0037 104.313L55.7683 104.28L55.642 104.263L55.4411 104.384L55.3128 104.514C55.2688 104.566 55.2305 104.623 55.198 104.684C55.1884 104.732 55.1808 104.78 55.1789 104.83C55.1712 104.872 55.1636 104.914 55.1617 104.958L53.1542 119.526C52.5495 119.529 51.9505 119.65 51.3879 119.876C49.6847 120.569 48.6436 121.965 49.1106 122.996C49.5775 124.026 51.2424 124.273 52.9533 123.526C54.6622 122.779 55.6975 121.437 55.2306 120.408L56.6601 110.029L64.3397 113.277L62.9102 123.656C62.3055 123.66 61.7065 123.779 61.1438 124.007C59.4407 124.7 58.3996 126.096 58.8666 127.124C59.3335 128.155 60.9984 128.402 62.7092 127.655C64.4162 126.902 65.1951 125.673 64.7818 124.652Z" fill="#BACCFF"/>
<path d="M361.606 362.417C360.158 362.518 358.703 362.618 357.245 362.713C352.926 356.936 351.273 349.136 352.287 339.312C359.084 347.162 362.19 354.864 361.606 362.417Z" fill="#8FABFF"/>
<path d="M362.894 346.995C357.14 340.417 355.71 331.466 358.606 320.149C364.896 330.009 366.325 338.958 362.894 346.995Z" fill="#8FABFF"/>
</svg>
