<svg width="343" height="253" viewBox="0 0 343 253" fill="none" xmlns="http://www.w3.org/2000/svg">
<path opacity="0.1" d="M6.2643 206.56C-3.52611 189.884 -6.86388 144.464 34.8588 136.014C74.0955 128.066 28.3152 100.09 82.0049 77.9182C101.614 69.8202 135.086 85.1754 151.682 78.9748C179.31 68.6513 217.309 61.8221 240.327 82.6514C267.76 107.476 293.867 68.4776 323.579 93.0584C344.857 110.663 333.583 129.49 328.783 143.153C325.423 152.714 329.937 162.094 336.93 169.815C348.208 182.266 341.632 197.72 334.427 210.658C334.425 210.657 6.2643 206.56 6.2643 206.56Z" fill="#0066CC"/>
<path d="M207.332 182.377C207.332 182.377 209.242 183.193 211.647 184.154C214.414 179.247 237.649 150.343 264.888 145.84C255.991 144.652 246.755 145.46 238.422 148.891C236.761 149.57 235.152 150.338 233.615 151.177L231.49 156.108L229.549 153.66C219.564 160.432 211.597 171.278 207.332 182.377Z" fill="#7D9EFF"/>
<path d="M210.085 176.236C209.979 176.437 209.879 176.634 209.781 176.828C209.878 176.633 209.979 176.437 210.085 176.236Z" fill="#3F964F"/>
<path d="M264.888 145.839C262.74 160.775 236.379 185.107 218.058 186.829C216.126 186.217 213.795 185.011 211.647 184.154C214.414 179.246 237.648 150.342 264.888 145.839Z" fill="#8FABFF"/>
<path d="M214.16 184.526C214.16 184.526 215.227 185.729 216.591 187.196C220.142 184.68 245.907 172.162 266.433 178.025C260.605 174.251 253.882 171.761 246.926 171.403C245.541 171.327 244.163 171.332 242.812 171.41L239.152 171.802C229.941 173.232 220.8 178.18 214.16 184.526Z" fill="#7D9EFF"/>
<path d="M218.109 181.143C217.969 181.25 217.834 181.354 217.701 181.457C217.833 181.354 217.969 181.25 218.109 181.143Z" fill="#3F964F"/>
<path d="M266.434 178.027C265.058 179.661 262.82 181.629 260.029 183.642L254.324 182.419L256.26 186.171C246.546 192.242 232.895 197.631 223.782 194.321C222.632 193.254 217.81 188.505 216.592 187.196C220.142 184.682 245.908 172.162 266.434 178.027Z" fill="#8FABFF"/>
<path d="M127.197 125.835C127.197 125.835 125.448 129.924 129.53 136.478C133.691 143.156 133.544 148.123 133.544 148.123L136.973 150.495C136.973 150.495 136.827 142.978 133.228 137.77C128.716 131.261 127.197 125.835 127.197 125.835Z" fill="#8FABFF"/>
<path d="M118.067 128.944C118.067 128.944 117.816 132.214 122.097 136.298C126.468 140.454 127.495 144.1 127.495 144.1L130.337 145.94C130.337 145.94 128.563 139.803 124.912 136.619C120.349 132.634 118.067 128.944 118.067 128.944Z" fill="#8FABFF"/>
<path d="M134.795 132.497C134.795 132.497 137.868 134.201 140.519 142.105C142.681 148.546 141.53 152.151 142.88 156.096L138.369 152.12C137.83 149.279 139.475 147.2 137.798 141.265C136.23 135.708 134.795 132.497 134.795 132.497Z" fill="#8FABFF"/>
<path d="M163.029 154.299C163.029 154.299 164.634 157.441 162.437 165.476C160.647 172.032 157.45 173.208 156.966 174.727L155.228 171.689C156.725 169.033 158.736 169.127 160.646 163.262C162.432 157.759 163.029 154.299 163.029 154.299Z" fill="#8FABFF"/>
<path d="M142.004 136.86C142.004 136.86 144.563 142.369 145.387 145.966C146.569 151.077 144.813 154.058 145.646 159.364L148.856 162.539C148.856 162.539 150.795 156.681 149.084 150.434C146.215 139.952 142.004 136.86 142.004 136.86Z" fill="#8FABFF"/>
<path d="M152.156 138.513C151.933 141.915 152.208 145.331 152.97 148.654C155.356 158.704 150.786 166.983 150.786 166.983L153.122 168.798C153.122 168.798 159.136 162.736 156.896 154.35C154.52 145.492 152.156 138.513 152.156 138.513Z" fill="#8FABFF"/>
<path d="M138.664 152.82C138.664 152.82 136.175 152.221 126.338 154.552C120.034 156.047 121.647 153.423 115.808 155.893C120.44 155.812 122.359 159.003 128.303 157.954C133.057 157.111 137.868 156.642 142.695 156.553L138.664 152.82Z" fill="#8FABFF"/>
<path d="M120.01 161.37C120.01 161.37 124.448 165.895 133.227 164.322C138.632 163.368 144.158 163.311 149.582 164.154L146.441 159.971C146.441 159.971 142.494 157.693 133.522 160.207C127.357 161.933 120.01 161.37 120.01 161.37Z" fill="#8FABFF"/>
<path d="M126.174 169.236C126.174 169.236 130.612 173.761 139.391 172.189C144.796 171.234 150.322 171.178 155.746 172.02L152.605 167.837C152.605 167.837 148.658 165.559 139.686 168.074C133.522 169.798 126.174 169.236 126.174 169.236Z" fill="#8FABFF"/>
<path d="M112.044 145.804C112.044 145.804 115.138 148.068 120.649 146.864C126.238 145.642 130.523 146.421 130.523 146.421L128.756 144.921C128.756 144.921 126.261 143.481 120.589 145.069C116.689 146.159 112.044 145.804 112.044 145.804Z" fill="#8FABFF"/>
<path d="M133.212 148.899C133.212 148.899 128.811 148.919 122.47 150.163C118.467 150.935 112.839 149.069 112.839 149.069C112.839 149.069 117.593 154.427 123.538 152.893C130.354 151.132 137.294 151.343 137.294 151.343L133.212 148.899Z" fill="#8FABFF"/>
<path d="M129.249 145.546C129.249 145.546 125.033 140.244 118.84 139.761C115.173 139.443 111.584 138.514 108.221 137.011C108.221 137.011 112.201 142.524 117.931 142.353C123.222 142.211 127.231 145.294 127.231 145.294L129.249 145.546Z" fill="#8FABFF"/>
<path d="M156.487 174.882L157.359 174.404C154.414 169.017 141.894 151.828 127.611 144.109L127.139 144.987C141.223 152.599 153.578 169.564 156.487 174.882Z" fill="#8FABFF"/>
<path d="M343 214.684C343 229.201 305.415 241.795 250.401 248.05H250.4C246.015 248.549 241.52 249.007 236.925 249.422C236.707 249.442 236.489 249.462 236.271 249.481C235.723 249.53 235.174 249.578 234.624 249.626C231.989 249.855 229.323 250.07 226.626 250.27C224.363 250.438 222.078 250.597 219.774 250.744C218.97 250.796 218.163 250.846 217.354 250.895C217.038 250.914 216.722 250.933 216.406 250.951C216.139 250.967 215.873 250.984 215.606 250.999C214.739 251.049 213.868 251.098 212.995 251.146C199.708 251.869 185.808 252.253 171.499 252.253C76.7824 252.253 0 235.433 0 214.684C0 193.935 76.7835 177.114 171.499 177.114C266.216 177.114 343 193.935 343 214.684Z" fill="#CAE4FD"/>
<path d="M215.201 217.548C213.775 217.548 212.619 216.389 212.619 214.961V169.109H217.784V214.961C217.783 216.389 216.626 217.548 215.201 217.548Z" fill="#6985DB"/>
<path d="M235.758 217.548C234.332 217.548 233.176 216.389 233.176 214.961V169.109H238.341V214.961C238.341 216.389 237.185 217.548 235.758 217.548Z" fill="#6985DB"/>
<path d="M259.92 217.548C258.495 217.548 257.338 216.389 257.338 214.961V169.109H262.503V214.961C262.503 216.389 261.347 217.548 259.92 217.548Z" fill="#6985DB"/>
<path d="M278.041 217.548C276.616 217.548 275.459 216.389 275.459 214.961V169.109H280.625V214.961C280.623 216.389 279.467 217.548 278.041 217.548Z" fill="#6985DB"/>
<path d="M249.468 101.061V155.626C249.468 156.246 248.965 156.75 248.346 156.75H214.587C211.18 156.75 208.42 159.517 208.42 162.929C208.42 166.343 211.182 169.109 214.587 169.109H249.468H255.636C259.042 169.109 261.802 166.342 261.802 162.929V156.75V101.061C261.802 97.6475 259.041 94.8814 255.636 94.8814C252.229 94.8801 249.468 97.6475 249.468 101.061Z" fill="#95A6DB"/>
<path d="M282.327 94.8792H255.636V157.75H282.327V94.8792Z" fill="#95A6DB"/>
<path d="M276.16 101.06V155.625C276.16 156.245 275.657 156.749 275.038 156.749H241.278C237.872 156.749 235.112 159.516 235.112 162.928C235.112 166.342 237.873 169.108 241.278 169.108H276.16H282.327C285.734 169.108 288.494 166.341 288.494 162.928V156.749V101.06C288.494 97.6465 285.732 94.8805 282.327 94.8805C278.921 94.8792 276.16 97.6465 276.16 101.06Z" fill="#6985DB"/>
<path d="M232.898 76.4559C230.213 69.4271 230.38 62.4509 235.129 57.4918C239.941 52.4658 248.168 53.4911 248.168 53.4911C248.169 53.4911 253.658 49.4467 261.074 53.9163C268.492 58.386 265.902 65.0679 269.528 68.8656C271.675 71.1152 278.702 69.5928 279.526 78.7787C279.765 81.4279 277.274 84.0102 274.788 84.9417C270.42 86.5784 265.752 86.1031 264.464 88.3745C260.219 95.8582 246.412 97.7776 243.003 93.1306C241.946 91.6892 231.018 98.3891 228.903 87.0435C227.831 81.2943 235.298 82.737 232.898 76.4559Z" fill="#2C2858"/>
<path d="M251.318 93.2668C256.574 100.788 244.799 113.27 235.453 124.242C231.697 126.863 231.308 113.869 231.308 113.869L237.476 103.993C237.476 103.993 245.291 91.1855 251.318 93.2668Z" fill="#C4204A"/>
<path d="M198.145 186.494L194.559 191.522C194.559 191.522 191.355 195.612 187.537 193.692C183.72 191.771 185.412 185.625 185.412 185.625L189.799 179.837L198.145 186.494Z" fill="#F0B37D"/>
<path d="M185.56 184.959C185.56 184.959 181.704 184.923 177.516 183.492C175.172 182.692 169.047 180.364 167.671 184.565C167.466 185.192 167.562 186.069 168.711 187.404C170.41 189.376 173.001 191.546 179.08 193.433C186.372 195.697 186.96 196.991 189.746 197.682C192.633 198.398 193.588 194.362 194.705 191.082C194.196 191.775 192.678 193.478 187.254 192.485C185.635 192.188 190.256 187.088 185.56 184.959Z" fill="#2C2858"/>
<path d="M228.518 203.778V207.188C228.518 207.188 228.288 212.383 224.066 213.046C219.846 213.709 217.655 207.722 217.655 207.722L217.81 202.352L228.518 203.778Z" fill="#F0B37D"/>
<path d="M251.334 84.0744C251.334 84.0744 252.138 91.4553 252.395 94.1777L262.311 94.4706C259.282 89.7697 260.648 76.3685 260.648 76.3685L251.334 84.0744Z" fill="#F0B37D"/>
<path d="M250.808 90.022C257.752 89.6233 262.97 82.1176 262.464 73.2575C261.957 64.3974 255.917 57.5381 248.974 57.9368C242.03 58.3354 236.811 65.8412 237.318 74.7013C237.824 83.5614 243.864 90.4207 250.808 90.022Z" fill="#F0B37D"/>
<path d="M241.583 77.4375C241.471 78.0978 240.845 78.5398 240.187 78.428C239.53 78.315 239.087 77.688 239.2 77.0289C239.313 76.3686 239.939 75.9254 240.596 76.0397C241.254 76.1515 241.696 76.7784 241.583 77.4375Z" fill="black"/>
<path d="M250.414 75.2958C250.292 76.0101 249.615 76.4893 248.903 76.3673C248.19 76.2452 247.712 75.5669 247.833 74.8526C247.955 74.1382 248.632 73.659 249.345 73.7811C250.058 73.9031 250.537 74.5815 250.414 75.2958Z" fill="black"/>
<path d="M251.475 74.0278C251.377 74.0111 251.283 73.961 251.213 73.8813C250.177 72.7122 248.399 72.9589 248.382 72.9615C248.133 72.9987 247.902 72.8266 247.864 72.5786C247.827 72.3294 247.997 72.0981 248.245 72.0596C248.337 72.0454 250.524 71.7294 251.893 73.2749C252.06 73.4638 252.043 73.7516 251.855 73.9186C251.747 74.0162 251.608 74.0509 251.475 74.0278Z" fill="#2C2858"/>
<path d="M238.052 76.2196C238.003 76.2118 237.955 76.1951 237.911 76.1707C237.69 76.05 237.608 75.7725 237.728 75.5515C238.663 73.8338 240.467 73.8852 240.542 73.889C240.794 73.8993 240.99 74.1113 240.98 74.3631C240.969 74.6136 240.759 74.8102 240.509 74.8012C240.45 74.7999 239.186 74.7806 238.528 75.9896C238.432 76.1643 238.237 76.2517 238.052 76.2196Z" fill="#2C2858"/>
<path d="M243.769 77.9835C243.331 78.8301 242.976 79.6729 242.485 80.2395C242.319 80.4297 242.335 80.7226 242.517 80.8973C243.268 81.6206 244.915 81.9058 245.904 82.015C246.049 82.0305 246.103 81.8313 245.971 81.7709C244.851 81.2596 244.299 80.8009 244.044 80.535C243.917 80.4027 243.864 80.2177 243.896 80.0378C243.969 79.6241 244.112 78.7813 244.173 78.1004C244.197 77.8666 243.878 77.7741 243.769 77.9835Z" fill="#DE623C"/>
<path d="M259.35 74.2513C258.145 75.9536 258.293 78.1338 259.683 79.1231C261.073 80.1123 263.177 79.5342 264.382 77.8319C265.587 76.1309 265.438 73.9494 264.048 72.9602C262.659 71.9709 260.555 72.549 259.35 74.2513Z" fill="#F0B37D"/>
<path d="M261.502 78.1646C261.434 78.1531 261.369 78.1261 261.31 78.0824C260.464 77.4593 260.134 76.5703 260.431 75.7069C260.733 74.8217 261.601 74.1974 262.495 74.2218C262.746 74.2282 262.945 74.4389 262.937 74.6907C262.931 74.9425 262.722 75.1416 262.47 75.1352C261.981 75.1224 261.464 75.5039 261.292 76.005C261.127 76.4855 261.325 76.9634 261.85 77.3501C262.052 77.4991 262.096 77.7844 261.947 77.9873C261.841 78.13 261.666 78.1929 261.502 78.1646Z" fill="#DE623C"/>
<path d="M250.853 82.7666C250.791 82.4351 250.614 82.1627 250.314 82.3156C249.551 82.7049 248.28 83.3203 247.021 83.7841C245.762 84.2479 244.395 84.6025 243.563 84.8016C243.236 84.88 243.268 85.2076 243.444 85.4954C244.169 86.6876 246.141 87.6011 248.071 86.8906C250 86.1802 251.083 84.0012 250.853 82.7666Z" fill="white"/>
<path d="M262.391 72.4796C254.347 73.7734 241.16 69.1419 239.057 65.3583C239.091 60.0407 246.324 55.1934 251.5 56.0914C256.677 56.9882 263.828 65.3686 262.391 72.4796Z" fill="#2C2858"/>
<path d="M259.02 154.707L218.056 152.954C218.056 152.954 216.035 142.708 217.554 138.645C219.075 134.583 256.711 135.421 256.711 135.421L259.02 154.707Z" fill="#2C2858"/>
<path d="M271.067 128.401C272.178 130.972 276.503 138.622 276.085 144.825C275.655 151.227 271.147 156.8 263.519 156.678C263.519 156.678 249.141 148.488 252.254 131.712C252.255 131.712 259.782 128.766 271.067 128.401Z" fill="#332E66"/>
<path d="M264.656 158.139L228.572 161.55C228.572 161.55 216.194 156.316 216.265 151.871C216.335 147.425 252.692 135.261 252.692 135.261C274.017 129.029 281.125 155.551 264.656 158.139Z" fill="#332E66"/>
<path d="M216.265 151.87L216.988 202.876C216.988 202.876 225.995 206.68 229.152 202.906C230.642 185.594 237.735 170.259 229.816 159.705C219.211 145.57 216.265 151.87 216.265 151.87Z" fill="#332E66"/>
<path d="M217.642 138.526L187.614 179.851C187.614 179.851 194.317 188.828 198.996 187.777C207.07 177.538 223.407 165.534 223.512 152.649C223.652 135.392 217.642 138.526 217.642 138.526Z" fill="#2C2858"/>
<path d="M261.279 90.4172L250.854 92.0193C246.198 98.497 241.48 104.046 241.471 107.831C241.459 112.813 251.995 134.573 251.995 134.573C260.971 135.759 268.284 134.62 273.828 131.015C269.498 118.746 278.793 103.29 270.773 95.0128C268.773 92.9456 262.739 92.9944 261.279 90.4172Z" fill="#E62552"/>
<path d="M217.39 207.093C217.39 207.093 214.233 209.31 209.994 210.589C207.624 211.304 201.29 212.981 202.609 217.199C202.806 217.828 203.393 218.486 205.104 218.902C207.629 219.516 210.997 219.771 217.038 217.764C224.284 215.355 225.513 216.065 228.18 215.003C230.944 213.902 229.379 210.062 228.384 206.745C228.371 207.604 228.125 209.876 223.136 212.228C221.647 212.931 222.445 206.088 217.39 207.093Z" fill="#2C2858"/>
<path d="M243.496 109.681C239.892 106.913 234.548 104.827 228.718 107.116C214.271 112.791 217.595 130.605 228.381 135.332C229.459 135.805 230.562 136.139 231.671 136.344C234.63 136.892 237.237 138.581 238.921 141.081C240.885 144 243.683 146.407 247.158 147.899C256.579 151.944 263.561 146.385 267.797 137.032C272.172 127.374 271.866 117.299 262.199 113.063C258.728 111.542 255.048 111.147 251.568 111.718C248.71 112.187 245.795 111.446 243.496 109.681Z" fill="#0059B3"/>
<path d="M233.176 114.722L228.434 125.907L187.355 105.774L190.201 99.0636L233.176 114.722Z" fill="#00468C"/>
<path d="M196.396 98.9004L197.315 100.883C197.548 101.386 197.557 101.966 197.341 102.477L194.693 108.724C194.464 109.264 194.005 109.673 193.443 109.839L191.482 110.416C190.977 110.565 190.432 110.503 189.972 110.245L175.996 102.399C175.125 101.909 174.761 100.84 175.152 99.9192L177.419 94.5721C177.805 93.6612 178.808 93.1807 179.758 93.4518L195.158 97.8379C195.704 97.9947 196.156 98.3827 196.396 98.9004Z" fill="#0059B2"/>
<path d="M242.417 117.347C245.918 118.837 247.483 123.046 245.914 126.749C244.345 130.45 240.235 132.242 236.734 130.752C233.232 129.262 231.667 125.051 233.236 121.35C234.805 117.647 238.916 115.855 242.417 117.347Z" fill="#003973"/>
<path d="M188.282 108.095L187.042 110.042C186.664 110.635 185.686 110.753 184.858 110.308C184.03 109.861 183.664 109.018 184.042 108.424L185.282 106.478C185.66 105.884 186.638 105.766 187.467 106.212C188.295 106.658 188.66 107.502 188.282 108.095Z" fill="#0059B2"/>
<path d="M182.462 104.629L181.222 106.576C180.844 107.169 179.866 107.289 179.037 106.841C178.209 106.394 177.844 105.552 178.222 104.958L179.462 103.012C179.84 102.418 180.818 102.299 181.646 102.746C182.474 103.193 182.84 104.036 182.462 104.629Z" fill="#0059B2"/>
<path d="M192.497 98.1553L193.035 95.9095C193.199 95.2248 192.605 94.4359 191.709 94.1494C190.813 93.8617 189.954 94.1828 189.79 94.8676L189.253 97.1133C189.089 97.7981 189.682 98.5857 190.578 98.8734C191.474 99.1625 192.333 98.84 192.497 98.1553Z" fill="#0059B2"/>
<path d="M185.967 96.3618L186.504 94.116C186.668 93.4313 186.074 92.6424 185.178 92.3546C184.282 92.0669 183.423 92.388 183.259 93.0728L182.722 95.3186C182.558 96.0033 183.151 96.7922 184.047 97.0799C184.944 97.369 185.804 97.0465 185.967 96.3618Z" fill="#0059B2"/>
<path d="M256.436 127.904C256.347 128.112 256.107 128.208 255.901 128.121L183.89 97.4577C183.682 97.369 183.586 97.1288 183.674 96.9219C183.763 96.7138 184.003 96.6175 184.209 96.7061L256.22 127.369C256.427 127.457 256.524 127.695 256.436 127.904Z" fill="#0080FF"/>
<path d="M255.121 131.002C255.033 131.211 254.793 131.307 254.587 131.22L182.576 100.556C182.368 100.468 182.272 100.228 182.359 100.021C182.447 99.8126 182.687 99.7163 182.894 99.8049L254.905 130.468C255.112 130.554 255.21 130.794 255.121 131.002Z" fill="#0080FF"/>
<path d="M253.807 134.101C253.719 134.309 253.479 134.406 253.273 134.317L181.262 103.654C181.054 103.565 180.958 103.325 181.046 103.117C181.135 102.909 181.374 102.812 181.581 102.901L253.592 133.564C253.8 133.653 253.896 133.893 253.807 134.101Z" fill="#0080FF"/>
<path d="M262.882 123.808L255.579 141.029C253.169 140.002 252.045 137.212 253.069 134.796L256.661 126.323C257.687 123.907 260.471 122.781 262.882 123.808Z" fill="#00468C"/>
<path d="M269.446 94.3524C278.411 96.2513 278.312 113.427 278.958 127.839C277.999 132.324 268.862 123.096 268.862 123.096L266.639 111.661C266.641 111.661 263.624 96.9553 269.446 94.3524Z" fill="#C4204A"/>
<path d="M230.854 124.076C233.298 124.733 237.062 125.366 237.31 124.074C237.71 121.999 235.79 121.834 235.894 120.252C235.986 118.849 239.69 119.451 242.268 125.021L243.259 124.932L244.303 130.436L243.31 130.368C240.132 133.113 232.18 133.044 227.904 129.77C223.576 126.456 227.594 123.201 230.854 124.076Z" fill="#F0B37D"/>
<path d="M204.394 116.247C204.347 116.066 204.282 115.967 204.316 115.804C204.316 115.804 204.234 115.787 204.218 115.868C202.723 116.496 201.105 116.072 200.737 114.97C200.689 114.789 200.642 114.608 200.593 114.428C199.561 114.469 198.632 114.018 198.359 113.277C198.246 112.997 198.233 112.652 198.301 112.325C197.252 112.448 196.322 111.997 195.92 111.058C195.47 109.939 196.169 108.631 197.466 108.133C198.764 107.634 200.12 108.089 200.586 109.126C200.698 109.406 200.729 109.668 200.66 109.996C202.023 109.596 203.378 110.051 203.779 110.989C203.827 111.17 203.874 111.351 203.923 111.531C204.955 111.49 205.884 111.941 206.157 112.682C206.27 112.962 206.283 113.306 206.232 113.552C207.118 113.395 208.047 113.846 208.32 114.586C208.721 115.525 208.075 116.586 207.039 117.054C206.006 117.524 204.814 117.104 204.394 116.247Z" fill="#F0B37D"/>
<path d="M242.99 124.86C242.99 124.86 266.692 121.904 269.801 122.491C272.91 123.078 279.1 124.633 278.92 127.626C278.74 130.618 271.962 134.191 265.882 133.766C259.801 133.341 243.799 130.774 243.799 130.774L242.99 124.86Z" fill="#C4204A"/>
<path d="M140.458 45.7248C140.409 45.3394 140.061 45.0683 139.677 45.1171C139.407 45.1518 139.181 45.3407 139.099 45.6015L135.856 54.9159C135.457 54.8388 135.048 54.8375 134.649 54.912C133.44 55.142 132.571 55.9219 132.742 56.6606C132.912 57.3993 133.974 57.7835 135.195 57.5188C136.417 57.2541 137.274 56.509 137.103 55.7703L139.686 48.3547C139.902 48.8943 141.255 52.2282 140.831 53.3793C140.749 53.7506 140.964 54.1219 141.326 54.2311C141.698 54.3339 142.084 54.1129 142.186 53.7391C142.186 53.7378 142.186 53.7365 142.187 53.7352C142.705 52.2192 140.622 46.9518 140.458 45.7248Z" fill="#2C2858"/>
<path d="M119.361 77.5557V67.3458C119.361 67.0284 119.151 66.7509 118.846 66.6674L112.055 64.8418H111.871H111.774H111.675H111.516H111.43L111.307 64.9407L111.234 65.0396C111.21 65.0782 111.189 65.1193 111.173 65.163C111.17 65.1964 111.17 65.2285 111.173 65.2619C111.171 65.2902 111.171 65.3197 111.173 65.348V75.2123C110.771 75.2714 110.386 75.405 110.033 75.6067C108.966 76.2234 108.402 77.2473 108.807 77.8884C109.213 78.5295 110.339 78.5423 111.406 77.8884C112.473 77.2345 113.037 76.2478 112.632 75.6067V68.5791L118.025 70.0347V77.0636C117.624 77.1227 117.237 77.2563 116.885 77.458C115.819 78.0747 115.255 79.0986 115.66 79.7397C116.064 80.3808 117.192 80.3937 118.258 79.7397C119.324 79.0845 119.728 78.1967 119.361 77.5557Z" fill="#2C2858"/>
<path d="M295.194 52.3414L298.971 42.8587C299.088 42.5645 298.996 42.2279 298.744 42.0378L293.112 37.8199L292.942 37.7518L292.851 37.7159L292.76 37.6799L292.612 37.6208L292.533 37.5887L292.383 37.6349L292.278 37.6992C292.241 37.7261 292.206 37.757 292.175 37.7904C292.161 37.8199 292.148 37.8508 292.139 37.8816C292.127 37.9073 292.116 37.9343 292.107 37.9613L288.459 47.1228C288.064 47.0277 287.656 47.0084 287.254 47.0663C286.036 47.2423 285.133 47.9836 285.272 48.73C285.41 49.4751 286.452 49.9055 287.686 49.6948C288.918 49.4841 289.806 48.7775 289.668 48.0311L292.268 41.5033L296.738 44.8578L294.138 51.3856C293.743 51.2905 293.336 51.2712 292.933 51.329C291.715 51.5051 290.812 52.2463 290.951 52.9928C291.089 53.7392 292.132 54.1696 293.365 53.9576C294.598 53.7456 295.298 53.0737 295.194 52.3414Z" fill="#2C2858"/>
<path d="M183.776 36.58L179.531 30.2706C179.399 30.0753 179.155 29.9905 178.931 30.0663L173.976 31.7737L173.862 31.8508L173.802 31.8919L173.742 31.933L173.643 31.9998L173.591 32.0358L173.556 32.1476L173.551 32.2388C173.552 32.2735 173.556 32.3069 173.565 32.3403C173.576 32.3621 173.591 32.3827 173.606 32.4007C173.616 32.4199 173.629 32.4366 173.642 32.4546L177.743 38.5508C177.52 38.755 177.337 38.9991 177.203 39.2702C176.801 40.0963 176.878 40.9648 177.394 41.1922C177.911 41.4196 178.612 40.9558 179.001 40.1079C179.388 39.2587 179.326 38.4133 178.81 38.1859L175.888 33.8422L179.825 32.4893L182.747 36.8331C182.524 37.0373 182.34 37.2814 182.207 37.5525C181.804 38.3786 181.881 39.2471 182.398 39.4745C182.915 39.7019 183.616 39.2381 184.004 38.3902C184.389 37.5397 184.27 36.8228 183.776 36.58Z" fill="#BACCFF"/>
<path d="M164.814 249.053C163.001 241.625 165.494 234.1 172.294 226.478C173.177 236.669 170.685 244.193 164.814 249.053Z" fill="#8FABFF"/>
<path d="M175.777 239.169C175.167 232.225 178.449 225.791 185.625 219.867C185.022 229.175 181.74 235.607 175.777 239.169Z" fill="#8FABFF"/>
<path d="M187.257 229.655C187.651 223.045 191.632 217.458 199.2 212.896C197.351 221.562 193.369 227.149 187.257 229.655Z" fill="#8FABFF"/>
<path d="M212.23 210.362C209.171 217.199 204.892 221.121 199.39 222.124C200.893 216.711 205.173 212.79 212.23 210.362Z" fill="#8FABFF"/>
<path d="M222.285 211.762C218.753 216.94 214.651 219.534 209.979 219.543C212.007 215.317 216.11 212.723 222.285 211.762Z" fill="#8FABFF"/>
<path d="M214.303 221.85C217.703 218.631 222.461 217.679 228.578 218.996C223.425 222.562 218.667 223.514 214.303 221.85Z" fill="#8FABFF"/>
<path d="M186.118 234.551C192.186 232.875 198.442 234.762 204.887 240.213C196.524 241.186 190.268 239.298 186.118 234.551Z" fill="#8FABFF"/>
<path d="M211.453 234.027C204.174 234.88 198.731 233.238 195.123 229.103C200.401 227.639 205.845 229.28 211.453 234.027Z" fill="#8FABFF"/>
<path d="M205.206 225.396C210.484 223.946 215.928 225.588 221.537 230.321C214.255 231.171 208.811 229.53 205.206 225.396Z" fill="#8FABFF"/>
<path d="M175.686 242.598C181.869 239.465 189.036 240.13 197.187 244.592C188.368 247.489 181.202 246.824 175.686 242.598Z" fill="#8FABFF"/>
<path d="M167.487 249.948C173.31 246.185 180.505 246.095 189.077 249.678C180.609 253.482 173.413 253.573 167.487 249.948Z" fill="#8FABFF"/>
<path d="M212.639 222.291C212.639 222.427 212.583 222.558 212.483 222.651L212.269 222.849C212.138 222.906 211.997 222.938 211.855 222.941L211.829 223L211.518 222.989C208.039 223.237 203.345 224.783 197.433 227.628C192.255 230.055 187.359 233.043 182.83 236.539C180.538 238.272 178.335 240.123 176.232 242.084L175.686 242.598C171.708 246.345 169.81 247.798 167.563 250.053C166.951 250.12 166.337 250.185 165.721 250.25C168.73 247.024 170.661 245.687 175.443 241.236C177.652 239.176 179.87 237.28 182.096 235.547C186.704 232.055 191.676 229.073 196.924 226.655C203.018 223.696 207.847 222.128 211.411 221.952L211.83 221.759C211.927 221.66 212.08 221.645 212.194 221.723C212.33 221.723 212.46 221.78 212.553 221.879C212.614 222.008 212.643 222.15 212.639 222.291Z" fill="#8FABFF"/>
<path d="M144.441 252.11C143.471 252.178 142.496 252.245 141.519 252.309C138.626 248.433 137.518 243.2 138.198 236.609C142.751 241.876 144.832 247.043 144.441 252.11Z" fill="#8FABFF"/>
<path d="M145.304 241.764C141.449 237.351 140.491 231.346 142.431 223.753C146.645 230.368 147.603 236.372 145.304 241.764Z" fill="#8FABFF"/>
<path d="M149.073 214.031C151.388 220.248 151.124 225.388 148.278 229.451C145.865 225.102 146.131 219.962 149.073 214.031Z" fill="#8FABFF"/>
<path d="M156.282 208.646C157.269 214.112 156.292 218.304 153.354 221.222C152.008 217.295 152.984 213.102 156.282 208.646Z" fill="#8FABFF"/>
<path d="M157.51 219.982C157.655 215.832 160.064 212.266 164.737 209.284C163.703 214.744 161.295 218.311 157.51 219.982Z" fill="#8FABFF"/>
<path d="M147.625 245.559C150.411 240.719 155.527 238.009 162.973 237.428C158.303 243.255 153.187 245.965 147.625 245.559Z" fill="#8FABFF"/>
<path d="M163.273 229.435C159.213 234.51 154.761 236.869 149.919 236.51C152.34 232.298 156.79 229.939 163.273 229.435Z" fill="#8FABFF"/>
<path d="M153.975 227.889C156.402 223.685 160.853 221.326 167.329 220.813C163.266 225.89 158.815 228.248 153.975 227.889Z" fill="#8FABFF"/>
<path d="M156.847 221.88C156.801 221.998 156.732 222.105 156.643 222.196L156.664 222.25L156.46 222.436C154.422 224.76 152.422 228.662 150.46 234.14C148.704 238.899 147.471 243.835 146.786 248.862C146.635 249.895 146.505 250.932 146.397 251.97C146.044 251.996 145.69 252.021 145.336 252.046C145.438 250.909 145.563 249.792 145.708 248.694C146.445 243.62 147.728 238.642 149.536 233.845C151.541 228.18 153.613 224.182 155.75 221.849L155.895 221.466C155.893 221.343 155.982 221.237 156.102 221.216C156.187 221.131 156.305 221.086 156.424 221.091C156.543 221.135 156.65 221.205 156.736 221.298C156.82 221.384 156.865 221.501 156.86 221.622L156.847 221.88Z" fill="#8FABFF"/>
<path d="M160.835 244.99C159.606 247.383 158.251 249.427 156.771 251.122C154.239 251.351 151.683 251.565 149.105 251.764C151.731 248.737 155.641 246.479 160.835 244.99Z" fill="#8FABFF"/>
<g clip-path="url(#clip0)">
<path d="M66.7605 2.44393C61.7212 4.82337 55.0261 6.55062 57.1551 15.5667C59.284 24.5756 53.614 27.2489 57.8862 30.7679C62.1585 34.2869 77.0111 33.9644 82.7313 31.7426C89.1755 29.2413 96.652 20.7914 89.3691 16.4697C83.6918 13.1013 81.2331 8.74372 80.4016 6.09193C78.7171 0.688017 72.918 -2.37229 66.7605 2.44393Z" fill="#263238"/>
<path d="M94.8312 16.1257C89.2974 15.0005 83.7563 12.9507 80.7098 5.6619C79.4841 2.73776 77.5415 0.903009 75.2261 0.487323C72.6097 0.0214679 69.6779 1.3402 66.9899 4.22133L66.7031 3.95615C69.4844 0.974679 72.5381 -0.394218 75.2978 0.100305C77.7494 0.537492 79.7995 2.45825 81.0754 5.51139C84.0574 12.6354 89.4909 14.6421 94.9173 15.7459L94.8312 16.1257Z" fill="#263238"/>
<path d="M92.7239 42.9948L92.9891 43.2743L93.3403 43.6327C93.5912 43.8763 93.8349 44.12 94.1073 44.3637C94.6306 44.8511 95.1969 45.3169 95.7704 45.7828C96.9173 46.7145 98.1287 47.596 99.3903 48.4131C100.645 49.2373 101.971 49.9898 103.297 50.728C103.978 51.0648 104.645 51.4375 105.34 51.7672L106.953 52.5412C107.082 52.5914 107.268 52.6344 107.655 52.5197C108.028 52.4051 108.523 52.1327 109.01 51.76C110.006 51.0147 111.01 49.9396 111.942 48.7786C113.791 46.4421 115.519 43.733 117.038 41.0382L120.042 42.2638C119.024 45.5104 117.755 48.5707 115.949 51.5665C115.031 53.0573 113.999 54.5265 112.544 55.8954C111.806 56.5691 110.953 57.2356 109.834 57.7445C108.738 58.2605 107.261 58.5687 105.799 58.2892C105.44 58.2247 105.089 58.1315 104.752 58.0097L104.093 57.7588L102.903 57.3001C102.107 56.9991 101.333 56.6336 100.544 56.2968C98.9961 55.5586 97.4549 54.7989 95.9854 53.8886C94.5088 52.9928 93.0536 52.0324 91.6701 50.943C90.982 50.3911 90.3082 49.825 89.6487 49.2086C89.319 48.9076 88.9892 48.5851 88.6667 48.2554L88.1792 47.7322C88.0072 47.5387 87.8782 47.3953 87.6416 47.1015L92.7239 42.9948Z" fill="#FFB573"/>
<path d="M87.4838 37.0032C90.1289 36.351 96.8742 45.0732 96.8742 45.0732L92.7811 52.8637C92.7811 52.8637 81.4625 46.4708 81.8926 42.9589C82.337 39.2894 83.6201 37.9492 87.4838 37.0032Z" fill="#0066CC"/>
<path opacity="0.2" d="M87.4838 37.0032C90.1289 36.351 96.8742 45.0732 96.8742 45.0732L92.7811 52.8637C92.7811 52.8637 81.4625 46.4708 81.8926 42.9589C82.337 39.2894 83.6201 37.9492 87.4838 37.0032Z" fill="white"/>
<path opacity="0.2" d="M89.2328 40.0133L88.5876 50.2119C90.8385 51.7529 92.7811 52.8566 92.7811 52.8566L93.6341 51.2297L89.2328 40.0133Z" fill="black"/>
<path d="M116.436 42.7081L118.902 35.8636L122.415 41.3536C122.415 41.3536 120.45 44.9657 117.784 44.9514L116.436 42.7081Z" fill="#FFB573"/>
<path d="M122.465 32.703L126.07 36.8025L122.415 41.3536L118.902 35.8637L122.465 32.703Z" fill="#FFB573"/>
<path d="M81.613 217.69L87.9999 217.941L89.1325 203.106L82.7456 202.855L81.613 217.69Z" fill="#FFB573"/>
<path d="M19.3929 129.88L18.1384 136.159L32.2813 141.097L33.5358 134.811L19.3929 129.88Z" fill="#FFB573"/>
<path d="M19.2208 137.09L21.6652 130.318C21.7512 130.074 21.658 129.809 21.4287 129.687L16.3464 126.985C15.8231 126.705 15.1206 126.992 14.9271 127.565C14.1171 129.938 13.8447 131.127 12.7694 134.102C12.11 135.936 10.4899 139.334 9.57242 141.864C8.67639 144.336 11.1136 145.433 11.7157 144.458C14.4325 140.1 16.5686 139.068 18.4825 137.958C18.8338 137.764 19.0918 137.449 19.2208 137.09Z" fill="#263238"/>
<path d="M88.2079 217.561L81.2762 215.619C81.0253 215.547 80.7672 215.669 80.6669 215.906L78.3444 221.166C78.1007 221.711 78.4447 222.385 79.0254 222.542C81.4554 223.18 82.6597 223.359 85.7062 224.212C87.5842 224.736 93.0607 227.208 95.7417 227.416C98.3652 227.624 98.7738 224.986 97.6771 224.657C92.7597 223.187 90.3798 220.048 89.1326 218.221C88.9103 217.905 88.5806 217.669 88.2079 217.561Z" fill="#263238"/>
<g opacity="0.2">
<path opacity="0.2" d="M89.1327 203.113L88.5449 210.76L82.158 210.509L82.7386 202.862L89.1327 203.113Z" fill="black"/>
<path opacity="0.2" d="M33.5358 134.811L32.2742 141.097L24.9841 138.552L26.2457 132.267L33.5358 134.811Z" fill="black"/>
</g>
<path d="M90.8243 39.6693C91.4407 43.2886 92.0357 52.4409 89.3763 73.7412L63.4058 75.3466C63.2051 65.3916 62.7033 57.3646 57.2913 38.1141C56.725 36.0858 58.1587 34.036 60.2661 33.9142C62.2446 33.7995 64.7391 33.7207 67.2766 33.8282C71.6923 34.0217 75.3122 34.208 79.2261 34.9104C82.6023 35.5124 86.2868 36.4513 88.4301 37.0247C89.6702 37.3615 90.6092 38.3864 90.8243 39.6693Z" fill="#0066CC"/>
<path opacity="0.2" d="M90.8243 39.6693C91.4407 43.2886 92.0357 52.4409 89.3763 73.7412L63.4058 75.3466C63.2051 65.3916 62.7033 57.3646 57.2913 38.1141C56.725 36.0858 58.1587 34.036 60.2661 33.9142C62.2446 33.7995 64.7391 33.7207 67.2766 33.8282C71.6923 34.0217 75.3122 34.208 79.2261 34.9104C82.6023 35.5124 86.2868 36.4513 88.4301 37.0247C89.6702 37.3615 90.6092 38.3864 90.8243 39.6693Z" fill="white"/>
<path d="M89.3763 73.7412C89.3763 73.7412 97.462 122.685 98.2505 142.208C99.0677 162.519 89.9354 208.703 89.9354 208.703H81.269C81.269 208.703 84.4302 164.604 82.4303 144.738C80.2583 123.072 70.3518 74.9094 70.3518 74.9094L89.3763 73.7412Z" fill="#0066CC"/>
<path d="M80.5163 209.018H90.6809L91.4264 205.779L80.0432 205.378L80.5163 209.018Z" fill="#263238"/>
<path opacity="0.2" d="M78.9249 86.6848C86.1003 99.1195 82.4445 122.842 80.7241 131.694C78.76 118.685 75.821 102.818 73.5774 91.1713C74.1365 84.4702 75.6203 80.9512 78.9249 86.6848Z" fill="black"/>
<path d="M82.5163 74.1641C82.5163 74.1641 82.3371 125.781 74.4305 140.903C65.0473 158.856 26.1382 140.358 26.1382 140.358L27.8586 131.794C27.8586 131.794 53.6498 137.606 60.4095 132.797C67.6637 110.322 54.3308 91.2215 63.4058 75.3466L82.5163 74.1641Z" fill="#0066CC"/>
<path d="M27.9947 130.769L25.8657 141.398L28.9839 143.197L32.0519 130.805L27.9947 130.769Z" fill="#263238"/>
<path d="M63.4272 42.5146C62.266 45.7039 61.0904 48.9792 59.9721 52.2187C58.8826 55.4725 57.8073 58.7335 56.9113 61.9873L56.7464 62.5965L56.6604 62.9047C56.6318 63.005 56.5959 63.1484 56.6102 63.0696V63.0481L56.6174 62.9692L56.6102 62.7327C56.6031 62.6682 56.5959 62.6109 56.5887 62.5535C56.5744 62.4532 56.5457 62.3314 56.5171 62.2238C56.5027 62.1665 56.4812 62.1163 56.4597 62.059C56.4382 62.0017 56.3952 61.8942 56.3522 61.8225C56.2662 61.6505 56.1658 61.5071 56.0368 61.3495C55.9006 61.1775 55.7286 61.0126 55.5422 60.8908C55.363 60.7689 55.2053 60.6758 55.0117 60.5969C54.7967 60.5181 54.682 60.4894 54.553 60.4608C54.4383 60.4321 54.2519 60.4249 54.1874 60.4178C53.8361 60.4106 53.6856 60.4679 53.6283 60.4823C53.5064 60.5324 53.5924 60.5181 53.6856 60.4751C53.786 60.4393 53.9222 60.3676 54.0655 60.2959C54.3523 60.1382 54.6748 59.9447 55.0046 59.7297C56.3164 58.8554 57.6855 57.8233 59.0331 56.7769C61.7284 54.6698 64.4379 52.4624 67.1547 50.2908L69.4557 52.5771C67.2192 55.3435 64.8824 57.9738 62.352 60.5181C61.0761 61.7795 59.7929 63.0266 58.2876 64.2306C57.9077 64.5316 57.5134 64.8326 57.0547 65.1408C56.8181 65.2913 56.5816 65.449 56.2877 65.6067C56.001 65.7643 55.6855 65.9292 55.1336 66.094C54.8684 66.1657 54.4956 66.2589 53.9293 66.2517C53.8146 66.2517 53.5709 66.223 53.4061 66.1944C53.2197 66.1585 53.0476 66.1227 52.7896 66.0152C52.553 65.9149 52.3308 65.8073 52.1158 65.6497C51.8936 65.4848 51.6785 65.2913 51.4993 65.0763C51.3344 64.8756 51.2197 64.6821 51.1051 64.4671C51.0549 64.3668 50.9904 64.2378 50.9617 64.1589L50.8828 63.9153C50.8327 63.7576 50.7897 63.5784 50.7681 63.4279C50.7538 63.3132 50.7395 63.1986 50.7323 63.0839C50.7108 62.8259 50.7251 62.6754 50.7323 62.5177L50.7538 62.2812L50.7825 62.102C50.8327 61.8082 50.847 61.7365 50.8685 61.6218L50.933 61.2921L51.0692 60.6256C51.7932 57.0779 52.7394 53.6378 53.7931 50.2478C54.8397 46.8435 55.9794 43.518 57.3127 40.1782L63.4272 42.5146Z" fill="#FFB573"/>
<path d="M58.1944 34.2152C55.6425 35.1684 53.0691 44.3207 53.0691 44.3207L63.6136 50.9143C63.6136 50.9143 66.9683 42.0774 65.6637 38.7878C64.3089 35.3476 61.1118 33.1258 58.1944 34.2152Z" fill="#0066CC"/>
<path opacity="0.2" d="M58.1944 34.2152C55.6425 35.1684 53.0691 44.3207 53.0691 44.3207L63.6136 50.9143C63.6136 50.9143 66.9683 42.0774 65.6637 38.7878C64.3089 35.3476 61.1118 33.1258 58.1944 34.2152Z" fill="white"/>
<path d="M17.2998 139.964C17.3069 139.986 17.3141 140.014 17.3284 140.036C17.4359 140.301 17.6653 140.473 18.0022 140.545C18.2531 140.595 18.418 140.502 18.504 140.409C19.0775 139.821 18.5542 137.563 18.4897 137.312C18.4753 137.248 18.4252 137.212 18.3678 137.198C18.3105 137.191 18.246 137.212 18.2173 137.262C17.7585 137.95 17.056 139.205 17.2998 139.964ZM18.2746 137.735C18.4538 138.646 18.5829 139.885 18.2818 140.194C18.246 140.229 18.1814 140.272 18.0596 140.244C17.823 140.194 17.6797 140.086 17.608 139.914C17.4359 139.513 17.6868 138.71 18.2746 137.735Z" fill="#407BFF"/>
<path d="M18.2459 137.599C18.4824 138.359 19.2852 139.635 19.9376 139.735C20.0737 139.756 20.339 139.742 20.511 139.398C20.6185 139.183 20.6329 138.954 20.5397 138.724C20.1956 137.857 18.4609 137.227 18.3892 137.198C18.339 137.176 18.2817 137.191 18.2387 137.227C18.1957 137.262 18.1742 137.313 18.1885 137.37C18.2028 137.434 18.2243 137.513 18.2459 137.599ZM20.2745 138.882C20.3175 139.011 20.3031 139.14 20.2458 139.262C20.1598 139.434 20.0594 139.448 19.9877 139.434C19.5433 139.369 18.8121 138.33 18.5613 137.592C19.1275 137.836 20.0522 138.323 20.2601 138.832C20.2673 138.853 20.2673 138.868 20.2745 138.882Z" fill="#407BFF"/>
<path d="M90.2222 219.289C90.8386 219.461 91.4264 219.525 91.8278 219.324C92.0787 219.203 92.2364 218.988 92.2938 218.687C92.3296 218.507 92.2794 218.35 92.1576 218.228C91.5196 217.604 88.7025 218.171 88.3871 218.235C88.3226 218.249 88.2796 218.3 88.2652 218.364C88.2581 218.429 88.2867 218.493 88.3441 218.522C88.8387 218.78 89.5484 219.102 90.2222 219.289ZM91.6845 218.321C91.7992 218.35 91.8852 218.393 91.9425 218.45C91.9927 218.5 92.0071 218.558 91.9927 218.636C91.9569 218.837 91.8565 218.973 91.6917 219.059C91.2257 219.289 90.1935 219.066 88.8889 218.457C89.8494 218.285 91.0967 218.156 91.6845 218.321Z" fill="#407BFF"/>
<path d="M88.3727 218.536C88.3942 218.543 88.4157 218.543 88.4372 218.543C89.2687 218.414 91.0966 217.497 91.1754 216.766C91.1969 216.594 91.1324 216.357 90.7453 216.2C90.4586 216.085 90.1576 216.092 89.8637 216.228C88.9103 216.658 88.301 218.278 88.2723 218.35C88.2508 218.4 88.2651 218.457 88.2938 218.5C88.3153 218.515 88.344 218.529 88.3727 218.536ZM90.5446 216.451C90.5733 216.458 90.602 216.465 90.6307 216.479C90.8887 216.579 90.8744 216.694 90.8744 216.73C90.8242 217.167 89.5411 217.941 88.6666 218.185C88.8744 217.719 89.3619 216.78 89.9855 216.501C90.1719 216.415 90.3583 216.393 90.5446 216.451Z" fill="#407BFF"/>
<path d="M62.9185 73.8415L62.3952 76.2067C62.3163 76.393 62.5385 76.565 62.8396 76.5435L89.5699 74.8951C89.8065 74.8808 89.9928 74.7518 90 74.6084L90.0932 72.272C90.1004 72.1071 89.8853 71.9853 89.6344 71.9996L63.3342 73.6265C63.1335 73.6337 62.9686 73.7269 62.9185 73.8415Z" fill="white"/>
<path d="M66.6316 76.565L65.9291 76.608C65.7857 76.6152 65.6782 76.5507 65.6782 76.4647L65.8216 73.4259C65.8288 73.3399 65.9434 73.2539 66.0868 73.2467L66.7893 73.2037C66.9327 73.1966 67.0402 73.2611 67.0402 73.3471L66.8968 76.3859C66.8896 76.479 66.775 76.5579 66.6316 76.565Z" fill="#407BFF"/>
<path d="M87.613 75.2678L86.9106 75.3108C86.7672 75.318 86.6597 75.2535 86.6597 75.1675L86.803 72.1287C86.8102 72.0427 86.9249 71.9567 87.0683 71.9495L87.7707 71.9065C87.9141 71.8993 88.0216 71.9638 88.0216 72.0498L87.8783 75.0886C87.8711 75.1818 87.7492 75.2606 87.613 75.2678Z" fill="#407BFF"/>
<path d="M77.1187 75.92L76.4162 75.963C76.2728 75.9702 76.1653 75.9057 76.1653 75.8197L76.3087 72.7809C76.3158 72.6949 76.4305 72.6089 76.5739 72.6017L77.2764 72.5587C77.4197 72.5515 77.5273 72.616 77.5273 72.7021L77.3839 75.7409C77.3767 75.8269 77.262 75.9129 77.1187 75.92Z" fill="#407BFF"/>
<path d="M67.2623 33.8282C71.678 34.0217 75.2979 34.2081 79.2118 34.9104C80.6526 35.1613 82.1507 35.4838 83.5629 35.8063C83.5629 35.8063 83.5629 35.8063 83.5629 35.8135C84.3155 38.1427 84.8388 42.9016 82.7314 46.8291C82.1866 45.3026 81.0325 44.2275 79.4268 43.475C78.0649 44.6934 77.3767 46.0551 76.8176 47.4383C74.0291 46.9366 66.524 40.4218 63.0976 35.1756L62.2087 33.821C63.7714 33.7637 65.5061 33.7565 67.2623 33.8282Z" fill="white"/>
<path d="M67.6351 20.7054C68.6243 24.5541 69.7999 31.5491 67.2695 33.8282C67.2695 33.8282 68.5598 37.7557 75.6994 38.4079C83.5557 39.1175 79.219 34.9104 79.219 34.9104C74.8678 33.5129 74.789 30.3952 75.3553 27.5284L67.6351 20.7054Z" fill="#FFB573"/>
<path d="M67.2696 33.8282C71.6852 34.0146 75.298 34.2009 79.219 34.9104C79.477 34.9606 79.7423 35.0036 80.0003 35.0538C81.0612 36.9172 81.3838 39.0315 79.348 42.83C79.348 42.83 68.7032 38.3793 65.6997 33.7852C66.2158 33.7924 66.7391 33.8067 67.2696 33.8282Z" fill="#FFB573"/>
<path opacity="0.2" d="M70.7747 23.4862L75.3409 27.5212C75.2047 28.2021 75.1115 28.8901 75.1043 29.571C73.4556 29.1911 70.7245 27.5427 70.445 25.8441C70.3088 24.9984 70.66 23.8661 70.7747 23.4862Z" fill="black"/>
<path d="M62.56 16.0612C64.8252 22.0027 65.6639 24.5613 69.6924 26.7186C75.7567 29.9509 82.5594 25.8728 82.1149 19.3724C81.7135 13.5241 78.0721 4.7947 71.3841 4.23568C64.8037 3.68382 60.2948 10.1198 62.56 16.0612Z" fill="#FFB573"/>
<path d="M71.8786 16.5056L71.3481 16.4482C71.4127 15.8749 71.8929 15.065 72.3947 14.6708C72.8105 14.3483 73.1474 14.3555 73.3552 14.4271C73.6563 14.5203 73.8857 14.7783 74.0076 15.1582L73.4986 15.323C73.4341 15.1152 73.3194 14.9718 73.1975 14.936C73.0327 14.8858 72.8535 14.9933 72.7244 15.0937C72.3374 15.3947 71.9288 16.0827 71.8786 16.5056Z" fill="#263238"/>
<path d="M77.8784 13.7248C77.8282 13.2948 77.9644 13.0296 78.0862 12.8791C78.2654 12.6569 78.5378 12.5279 78.8747 12.4992C79.4267 12.4562 79.907 12.7286 80.2009 13.2661L79.7349 13.5241C79.5987 13.2804 79.3622 13.0009 78.9178 13.0368C78.7816 13.0511 78.6024 13.0869 78.4948 13.2231C78.4088 13.3234 78.3801 13.4739 78.4016 13.6674L77.8784 13.7248Z" fill="#263238"/>
<path d="M76.8606 14.3268C76.8606 14.3268 78.3588 16.1902 79.606 16.9212C79.1473 17.7311 77.9502 17.8028 77.9502 17.8028L76.8606 14.3268Z" fill="#ED893E"/>
<path d="M75.8642 20.5764C76.1008 20.5406 76.3517 20.4833 76.6097 20.4044C76.6886 20.3829 76.7316 20.2969 76.7101 20.2109C76.6886 20.1321 76.5954 20.0891 76.5237 20.1106C74.3518 20.7914 72.8751 19.5946 72.8608 19.5802C72.7963 19.5301 72.7031 19.5372 72.6457 19.6017C72.5955 19.6662 72.6027 19.7594 72.6672 19.8167C72.7174 19.8669 73.9575 20.8631 75.8642 20.5764Z" fill="#263238"/>
<path d="M62.4167 21.4723C63.2195 22.5187 64.4238 23.0992 65.5062 23.2282C67.1262 23.4146 67.6853 21.9095 67.0187 20.5119C66.4237 19.2577 64.861 17.6451 63.3414 18.0966C61.8432 18.5482 61.5063 20.2754 62.4167 21.4723Z" fill="#FFB573"/>
<path d="M72.8821 4.19982C77.5701 7.66148 71.6563 8.10583 68.6887 10.6573C65.8501 13.0941 68.0435 17.0932 63.1763 18.713C61.6136 19.2362 58.646 19.2362 58.646 19.2362C58.646 19.2362 60.8968 14.8356 60.18 12.191C59.456 9.5464 67.4844 0.214965 72.8821 4.19982Z" fill="#263238"/>
<path d="M72.0506 3.69811C73.0398 5.84105 75.52 5.41103 77.5128 7.60413C78.7314 8.95152 80.7098 4.42915 77.563 2.85958C74.4233 1.29717 70.4879 0.329625 72.0506 3.69811Z" fill="#263238"/>
<path d="M69.3196 14.4415C69.4414 14.4128 69.5418 14.2981 69.549 14.1691C69.635 12.7644 71.169 11.8112 71.1833 11.7968C71.3267 11.7108 71.3697 11.5245 71.2837 11.3812C71.1977 11.2378 71.0113 11.1948 70.8679 11.2808C70.7962 11.3238 69.0544 12.4204 68.9468 14.1333C68.9397 14.2981 69.0615 14.4415 69.2336 14.4558C69.2551 14.4486 69.2909 14.4486 69.3196 14.4415Z" fill="#263238"/>
<path d="M79.5128 9.40306C79.6132 9.40306 79.7135 9.34573 79.7709 9.25256C79.8569 9.10922 79.8067 8.92288 79.6562 8.83687C78.201 8.0055 76.9466 8.62186 76.8892 8.65053C76.7387 8.72937 76.6814 8.90854 76.7602 9.05905C76.8391 9.20956 77.0183 9.26689 77.1688 9.19522C77.2118 9.17372 78.1939 8.7007 79.3551 9.36723C79.4125 9.3959 79.4626 9.41023 79.5128 9.40306Z" fill="#263238"/>
<path d="M66.4236 51.6382L65.3914 44.7937L70.9467 48.2052C70.9467 48.2052 70.7532 52.3119 68.3447 53.4586L66.4236 51.6382Z" fill="#FFB573"/>
<path d="M67.3483 41.332L72.5381 43.2098L70.9467 48.2052L65.3914 44.7937L67.3483 41.332Z" fill="#FFB573"/>
<path d="M126.457 40.1423L123.196 42.5934C123.017 42.7296 122.759 42.6938 122.63 42.5146L117.167 35.2472C117.031 35.0681 117.067 34.8101 117.246 34.6811L120.508 32.2299C120.687 32.0938 120.945 32.1296 121.074 32.3088L126.536 39.5761C126.673 39.7481 126.637 40.0061 126.457 40.1423Z" fill="#407BFF"/>
<path d="M124.02 37.4618L121.296 39.5044C121.153 39.6119 120.945 39.5833 120.838 39.4399L117.977 35.6343C117.87 35.4909 117.899 35.2831 118.042 35.1756L120.766 33.133C120.909 33.0255 121.117 33.0541 121.225 33.1975L124.085 37.0032C124.199 37.1465 124.164 37.3543 124.02 37.4618Z" fill="white"/>
<path d="M121.511 41.3894L121.468 40.4935L122.372 39.9632C122.838 39.6837 123.268 39.3468 123.648 38.9526L123.963 38.6229L123.762 38.3291C123.54 37.9994 123.124 37.8632 122.744 37.9851L121.977 38.2431L118.128 38.7663L118.099 40.4004L119.332 42.0846L121.511 41.3894Z" fill="#FFB573"/>
</g>
<defs>
<clipPath id="clip0">
<rect width="117.236" height="227.43" fill="white" transform="translate(9.37891)"/>
</clipPath>
</defs>
</svg>
