<svg width="359" height="383" viewBox="0 0 359 383" fill="none" xmlns="http://www.w3.org/2000/svg">
<path opacity="0.1" d="M14.9383 287.576C-1.53663 254.299 -7.15331 163.667 63.0561 146.806C129.082 130.948 52.0447 75.1235 142.392 30.8813C175.39 14.7225 231.715 45.3625 259.642 32.9897C306.133 12.3901 370.077 -1.23708 408.81 40.3261C454.974 89.8614 498.906 12.0434 548.903 61.0923C584.71 96.2211 565.738 133.788 557.66 161.051C552.007 180.131 559.602 198.848 571.37 214.254C590.348 239.099 579.283 269.935 567.158 295.753C567.156 295.751 14.9383 287.576 14.9383 287.576Z" fill="#0066CC"/>
<path d="M356.24 174.2C356.24 174.2 355.865 179.074 362.255 185.161C368.781 191.356 370.314 196.791 370.314 196.791L374.556 199.533C374.556 199.533 371.908 190.385 366.458 185.64C359.647 179.7 356.24 174.2 356.24 174.2Z" fill="#8FABFF"/>
<path d="M386.986 209.788C386.986 209.788 383.27 208.896 368.586 212.37C359.176 214.599 361.584 210.686 352.869 214.369C359.783 214.248 362.648 219.005 371.519 217.441C378.615 216.184 385.798 215.485 393.003 215.353L386.986 209.788Z" fill="#8FABFF"/>
<path d="M347.25 199.33C347.25 199.33 351.868 202.705 360.095 200.91C368.436 199.089 374.834 200.25 374.834 200.25L372.195 198.015C372.195 198.015 368.471 195.868 360.005 198.235C354.183 199.859 347.25 199.33 347.25 199.33Z" fill="#8FABFF"/>
<path d="M378.847 203.944C378.847 203.944 372.277 203.974 362.812 205.828C356.838 206.979 348.437 204.196 348.437 204.196C348.437 204.196 355.532 212.184 364.406 209.897C374.581 207.272 384.94 207.586 384.94 207.586L378.847 203.944Z" fill="#8FABFF"/>
<path d="M372.932 198.946C372.932 198.946 366.638 191.042 357.394 190.322C351.919 189.849 346.563 188.465 341.543 186.224C341.543 186.224 347.484 194.441 356.038 194.187C363.935 193.974 369.92 198.57 369.92 198.57L372.932 198.946Z" fill="#8FABFF"/>
<path d="M265.61 184.905C262.493 176.578 264.342 167.545 271.156 157.807C273.579 169.453 271.73 178.484 265.61 184.905Z" fill="#8FABFF"/>
<path d="M276.928 171.98C275.268 164.047 278.179 156.166 285.662 148.338C286.243 159.167 283.333 167.047 276.928 171.98Z" fill="#8FABFF"/>
<path d="M288.894 159.414C288.442 151.727 292.277 144.728 300.401 138.418C299.454 148.681 295.617 155.678 288.894 159.414Z" fill="#8FABFF"/>
<path d="M315.119 133.698C312.522 142.013 308.111 147.129 301.888 149.046C302.883 142.591 307.292 137.474 315.119 133.698Z" fill="#8FABFF"/>
<path d="M326.938 133.929C323.564 140.394 319.178 143.954 313.78 144.609C315.542 139.448 319.928 135.888 326.938 133.929Z" fill="#8FABFF"/>
<path d="M319.094 146.676C322.583 142.489 327.954 140.735 335.205 141.413C329.74 146.241 324.368 147.995 319.094 146.676Z" fill="#8FABFF"/>
<path d="M294.893 182.501C284.891 189.114 275.736 190.726 267.43 187.341C274.069 181.341 283.224 179.727 294.893 182.501Z" fill="#8FABFF"/>
<path d="M288.251 165.224C295.037 162.453 302.531 163.769 310.731 169.175C301.193 171.45 293.701 170.132 288.251 165.224Z" fill="#8FABFF"/>
<path d="M317.473 161.128C309.173 163.116 302.654 161.971 297.913 157.693C303.815 155.276 310.335 156.421 317.473 161.128Z" fill="#8FABFF"/>
<path d="M309.062 152.022C314.966 149.621 321.486 150.766 328.622 155.458C320.319 157.446 313.799 156.3 309.062 152.022Z" fill="#8FABFF"/>
<path d="M257.454 200.809C268.398 182.574 268.41 184.336 276.826 174.414C279.098 171.731 281.402 169.236 283.739 166.929C288.586 162.262 293.925 158.135 299.66 154.619C306.301 150.362 311.669 147.886 315.764 147.193L316.222 146.913C316.319 146.785 316.495 146.746 316.639 146.821C316.796 146.802 316.954 146.85 317.075 146.951C317.163 147.091 317.217 147.252 317.232 147.417C317.251 147.574 317.203 147.733 317.102 147.853L316.88 148.112C316.736 148.196 316.577 148.252 316.413 148.275L316.392 148.347L316.03 148.376C312.042 149.142 306.827 151.574 300.382 155.674C294.729 159.19 289.478 163.315 284.722 167.976C282.309 170.293 280.016 172.733 277.856 175.288L277.295 175.956C284.012 171.488 292.39 171.268 302.428 175.297C292.63 179.857 284.251 180.077 277.295 175.956C269.086 185.751 269.315 183.7 258.652 201.481L257.454 200.809Z" fill="#8FABFF"/>
<path d="M316.059 201.188L301.557 200.008L310.366 206.694C310.366 206.694 299.569 227.791 266.525 231.432C263.017 230.384 258.394 228.701 254.49 227.217C250.115 225.553 246.644 224.139 246.644 224.139C246.644 224.139 249.755 171.467 327.683 180.337C322.493 193.199 316.059 201.188 316.059 201.188Z" fill="#8FABFF"/>
<path d="M327.683 180.336C278.608 189.256 259.345 218.283 254.49 227.217C250.115 225.553 246.644 224.139 246.644 224.139C246.644 224.139 243.599 209.097 256.107 196.49C267.143 185.366 291.154 176.178 327.683 180.336Z" fill="#7D9EFF"/>
<path d="M240.33 228.687C240.33 228.687 237.697 228.894 234.409 229.076C233.058 222.046 216.74 177.821 185.719 161.346C196.928 163.526 207.735 168.246 216.394 175.759C218.122 177.249 219.752 178.828 221.266 180.462L221.833 187.26L225.162 185.102C234.461 197.304 239.678 213.595 240.33 228.687Z" fill="#7D9EFF"/>
<path d="M239.496 220.175C239.54 220.461 239.582 220.738 239.624 221.012C239.584 220.738 239.54 220.461 239.496 220.175Z" fill="#3F964F"/>
<path d="M185.72 161.346C182.267 180.202 204.206 220.191 225.599 229.695C228.177 229.743 231.474 229.235 234.409 229.074C233.058 222.044 216.74 177.819 185.72 161.346Z" fill="#8FABFF"/>
<path d="M228.9 228.461C228.9 228.461 226.489 229.842 223.44 231.493C218.999 225.411 183.615 190.671 146.703 188.945C158.346 185.979 170.749 185.611 182.361 188.865C184.675 189.505 186.935 190.274 189.109 191.15L194.9 193.811C209.224 201.244 221.5 214.396 228.9 228.461Z" fill="#7D9EFF"/>
<path d="M224.284 220.74C224.454 220.991 224.619 221.236 224.782 221.477C224.619 221.236 224.454 220.991 224.284 220.74Z" fill="#3F964F"/>
<path d="M146.703 188.947C152.754 204.254 183.098 239.773 207.719 239.199C210.192 238.084 220.719 232.967 223.44 231.495C218.999 225.413 183.613 190.673 146.703 188.947Z" fill="#8FABFF"/>
<path d="M578.389 302.072C578.389 331.393 515.613 356.828 423.723 369.461H423.721C416.398 370.468 408.89 371.393 401.214 372.232C400.851 372.272 400.487 372.312 400.122 372.351C399.207 372.45 398.29 372.548 397.372 372.644C392.97 373.107 388.517 373.54 384.012 373.944C380.233 374.285 376.417 374.605 372.568 374.901C371.225 375.007 369.878 375.108 368.527 375.208C367.999 375.246 367.47 375.285 366.942 375.321C366.496 375.353 366.052 375.386 365.606 375.417C364.158 375.518 362.703 375.618 361.245 375.713C339.052 377.175 315.835 377.95 291.935 377.95C133.733 377.95 5.48486 343.98 5.48486 302.072C5.48486 260.166 133.734 226.194 291.935 226.194C450.14 226.194 578.389 260.166 578.389 302.072Z" fill="#CAE4FD"/>
<path d="M128.508 279.684C139.351 281.285 146.191 266.225 154.553 274.967C138.023 291.988 131.314 299.213 131.314 299.213C129.333 297.267 124.091 291.436 122.608 289.255L128.508 279.684Z" fill="black"/>
<path d="M138.618 290.054C149.461 291.654 156.301 276.595 164.663 285.337C148.133 302.357 141.424 309.583 141.424 309.583C139.443 307.637 134.201 301.806 132.718 299.625L138.618 290.054Z" fill="black"/>
<path d="M50.8066 276.58L56.8271 275.069L79.8354 261.976C86.317 258.288 94.3507 258.177 100.941 261.683L130.59 281.051L120.517 294.604L92.2877 279.247L67.1744 298.196C62.9318 301.396 58.2624 303.983 53.3174 305.914L50.8066 276.58Z" fill="#6985DB"/>
<path d="M23.5176 294.726L24.7309 301.528C26.5833 311.909 36.3948 319.211 47.3334 318.35C58.5668 317.465 69.2815 313.428 78.1419 306.743L103.255 287.794L131.484 303.15L141.558 289.598L111.913 270.229C105.324 266.721 97.2883 266.834 90.8067 270.522L67.7984 283.615L23.5176 294.726Z" fill="#95A6DB"/>
<path d="M85.5057 237.92L82.1203 238.707L80.3062 232.537L84.6445 229.76L85.5057 237.92Z" fill="#DE623C"/>
<path d="M80.3636 230.939L58.7676 237.952C58.7676 237.952 51.5243 240.085 52.4238 252.669C58.4136 254.944 65.3048 254.272 83.4217 240.373C81.8391 237.51 80.3636 230.939 80.3636 230.939Z" fill="#0E6A41"/>
<path d="M86.8894 243.588C85.6933 243.607 84.7078 242.654 84.6867 241.457L84.3997 224.22C84.3806 223.023 85.3336 222.037 86.5296 222.016C87.7257 221.996 88.7112 222.95 88.7323 224.147L89.0193 241.384C89.0384 242.581 88.0854 243.567 86.8894 243.588Z" fill="#C4204A"/>
<path d="M92.9749 215.206C92.9864 215.891 92.9328 216.604 92.8179 217.324C92.173 221.418 89.6106 225.652 86.4262 225.585C83.3127 225.52 80.8153 221.562 80.0804 217.561C79.9484 216.843 79.8738 216.125 79.8623 215.426C79.8604 215.344 79.8604 215.259 79.8623 215.177C79.8891 210.7 82.7251 207.061 86.2808 207.004C89.8498 206.945 92.8141 210.512 92.9691 215.01C92.973 215.074 92.9749 215.139 92.9749 215.206Z" fill="#E62552"/>
<path d="M92.9749 215.206C92.9864 215.891 92.9328 216.604 92.8179 217.324L91.0306 215.439L89.4518 217.395C89.2968 217.586 89.0652 217.703 88.8183 217.711H88.8049C88.5638 217.714 88.3303 217.617 88.1677 217.439L86.386 215.518L84.7575 217.481C84.5987 217.67 84.3671 217.783 84.1202 217.789C83.8753 217.797 83.638 217.693 83.4715 217.511L81.7319 215.598L80.0804 217.563C79.9484 216.845 79.8738 216.127 79.8623 215.428C79.8604 215.346 79.8604 215.261 79.8623 215.179L81.0545 213.758C81.2133 213.568 81.4449 213.459 81.6898 213.454C81.9348 213.452 82.1702 213.551 82.3367 213.733L84.0724 215.642L85.6952 213.685C85.8502 213.498 86.0818 213.385 86.3267 213.379C86.5717 213.371 86.8071 213.471 86.9735 213.651L88.7437 215.564L90.3168 213.618C90.4718 213.429 90.6995 213.314 90.9445 213.304C91.1894 213.293 91.4267 213.39 91.5951 213.568L92.9672 215.016C92.973 215.074 92.9749 215.139 92.9749 215.206Z" fill="#F5A3B7"/>
<path d="M86.966 235.574C87.0827 235.476 87.1325 235.394 87.2645 235.361C87.2645 235.361 87.2492 235.296 87.1822 235.311C86.1986 234.431 85.9421 233.094 86.6215 232.437C86.7382 232.339 86.8531 232.24 86.9698 232.142C86.5775 231.397 86.5832 230.556 87.031 230.097C87.1975 229.917 87.4444 229.787 87.7085 229.722C87.2511 228.994 87.2568 228.151 87.8042 227.527C88.4682 226.805 89.6719 226.861 90.491 227.642C91.31 228.421 91.4516 229.578 90.8546 230.285C90.6881 230.465 90.5063 230.579 90.2422 230.645C91.0115 231.506 91.1531 232.663 90.6058 233.287C90.4891 233.385 90.3742 233.484 90.2575 233.582C90.6498 234.327 90.6441 235.168 90.1963 235.627C90.0298 235.807 89.7829 235.938 89.5839 235.987C90.0087 236.583 90.0049 237.426 89.5571 237.885C89.0098 238.509 88.0032 238.404 87.2989 237.807C86.5928 237.205 86.4837 236.183 86.966 235.574Z" fill="#F37A50"/>
<path d="M86.4453 229.072C86.0415 230.124 85.1229 230.748 84.3938 230.468C83.6647 230.187 83.4025 229.107 83.8063 228.055C84.2101 227.004 85.1286 226.38 85.8578 226.659C86.5888 226.939 86.851 228.019 86.4453 229.072Z" fill="#F37A50"/>
<path d="M42.2333 217.18L40.5703 225.495L55.0531 228.881L55.587 220.15L42.2333 217.18Z" fill="#F37A50"/>
<path d="M29.8303 204.913C35.4508 218.517 54.6183 222.314 59.3413 221.546C70.745 219.691 74.1169 202.519 68.4964 188.915C62.8759 175.311 51.2234 171.301 40.547 175.718C29.8705 180.136 24.2098 191.309 29.8303 204.913Z" fill="#F37A50"/>
<path d="M65.779 195.033C65.8364 196.069 66.7225 196.862 67.7578 196.805C68.7931 196.747 69.5853 195.86 69.5279 194.824C69.4705 193.788 68.5845 192.996 67.5492 193.053C66.5119 193.111 65.7197 193.997 65.779 195.033Z" fill="black"/>
<path d="M53.2061 200.152C54.0214 200.882 55.2748 200.813 56.004 199.995C56.7331 199.179 56.6623 197.927 55.847 197.195C55.0318 196.466 53.7783 196.536 53.0492 197.352C52.3201 198.17 52.3909 199.422 53.2061 200.152Z" fill="black"/>
<path d="M69.6256 209.451C69.8916 209.001 69.6199 208.364 69.1874 208.425C68.087 208.58 66.2671 208.787 64.5333 208.764C62.7995 208.741 60.9854 208.482 59.8888 208.298C59.4582 208.226 59.1693 208.856 59.4219 209.313C60.2007 210.719 61.8178 212.86 64.4759 212.896C67.1321 212.931 68.8104 210.836 69.6256 209.451Z" fill="white"/>
<path d="M63.5898 199.057C63.5898 199.057 66.5867 200.466 68.2956 201.081C69.3768 202.73 66.5541 205.365 64.5314 205.271C65.9437 203.434 65.9896 201.927 65.9896 201.927L63.5898 199.057Z" fill="#DE623C"/>
<path d="M41.127 188.637C47.9455 191.395 68.6898 190.234 63.322 184.137C69.8266 186.793 75.5408 183.467 72.9306 179.547C70.3203 175.627 61.0849 171.5 54.1209 173.241C47.5379 170.041 36.6528 168.687 27.0786 180.299C17.5045 191.912 24.1239 215.311 42.2331 217.178C40.9624 215.361 38.6335 212.385 37.9618 209.135C37.2901 205.886 41.5978 205.313 41.6935 201.448L41.127 188.637Z" fill="black"/>
<path d="M40.5298 199.664C43.4979 201.443 44.7227 204.855 43.2683 207.285C41.8139 209.715 38.2276 210.244 35.2595 208.463C32.2914 206.684 31.0666 203.271 32.521 200.841C33.9773 198.413 37.5636 197.885 40.5298 199.664Z" fill="#F37A50"/>
<path d="M39.8637 207.048C39.9594 206.985 40.0417 206.9 40.101 206.795C40.9737 205.282 40.8818 203.714 39.8561 202.599C38.8055 201.458 37.0697 201.088 35.7263 201.722C35.3493 201.9 35.1867 202.352 35.3647 202.73C35.5426 203.109 35.9943 203.27 36.3713 203.092C37.1061 202.745 38.1491 202.979 38.7423 203.626C39.3126 204.246 39.3298 205.104 38.7901 206.041C38.5816 206.403 38.7059 206.866 39.0676 207.075C39.326 207.22 39.6322 207.199 39.8637 207.048Z" fill="#DE623C"/>
<path d="M49.6468 197.475C49.5262 197.475 49.4038 197.454 49.2851 197.41C48.7378 197.211 48.4565 196.603 48.6574 196.056C49.4363 193.921 51.1682 192.496 53.2847 192.247C53.8627 192.178 54.387 192.592 54.4559 193.172C54.5248 193.75 54.1095 194.275 53.5316 194.344C53.0398 194.401 51.3806 194.748 50.6381 196.782C50.4812 197.211 50.0755 197.475 49.6468 197.475Z" fill="black"/>
<path d="M70.1997 191.448C70.2839 191.37 70.3566 191.276 70.4121 191.165C70.6647 190.665 70.4657 190.056 69.9682 189.801C68.0219 188.811 65.8748 188.945 64.2233 190.16C63.7716 190.491 63.676 191.125 64.007 191.577C64.3381 192.029 64.9715 192.124 65.4232 191.793C65.8059 191.512 67.1991 190.667 69.0515 191.609C69.44 191.81 69.8974 191.732 70.1997 191.448Z" fill="black"/>
<path d="M23.1902 298.064C19.8489 270.787 20.4651 239.706 40.0727 223.463L56.2989 227.632C59.4871 228.544 61.5806 233.697 62.1107 236.847L63.0963 269.538L68.7876 283.686L23.1902 298.064Z" fill="#3F964F"/>
<path d="M99.2248 254.538C97.8469 254.147 97.047 252.715 97.4355 251.336L103.045 231.491C103.435 230.112 104.866 229.312 106.244 229.7C107.622 230.091 108.422 231.524 108.034 232.902L102.424 252.747C102.036 254.126 100.603 254.927 99.2248 254.538Z" fill="#C4204A"/>
<path d="M115.975 224.122C115.753 224.911 115.445 225.71 115.066 226.493C112.917 230.96 108.523 234.926 104.897 233.751C101.353 232.602 99.8544 227.207 100.39 222.37C100.486 221.5 100.647 220.652 100.874 219.848C100.901 219.752 100.93 219.658 100.961 219.562C102.535 214.442 107.036 211.253 111.13 212.412C115.239 213.574 117.405 218.685 116.035 223.892C116.019 223.969 115.998 224.045 115.975 224.122Z" fill="#E62552"/>
<path d="M115.975 224.122C115.753 224.911 115.445 225.71 115.066 226.493L113.667 223.716L111.185 225.411C110.94 225.577 110.636 225.629 110.351 225.554L110.336 225.551C110.058 225.472 109.825 225.279 109.698 225.018L108.321 222.203L105.779 223.89C105.532 224.053 105.228 224.103 104.945 224.022C104.662 223.946 104.426 223.747 104.298 223.481L102.962 220.688L100.394 222.368C100.49 221.499 100.65 220.65 100.878 219.846C100.905 219.75 100.934 219.656 100.964 219.561L102.819 218.345C103.066 218.182 103.368 218.136 103.651 218.214C103.932 218.297 104.168 218.492 104.296 218.756L105.628 221.543L108.162 219.859C108.405 219.698 108.707 219.649 108.99 219.727C109.274 219.804 109.509 219.997 109.639 220.261L111.009 223.063L113.482 221.376C113.725 221.211 114.025 221.16 114.308 221.232C114.594 221.305 114.833 221.497 114.965 221.759L116.038 223.89C116.019 223.969 115.998 224.045 115.975 224.122Z" fill="#F5A3B7"/>
<path d="M92.6379 245.798L96.7447 242.914C96.7447 242.914 96.85 236.734 101.653 236.338L100.752 239.8C100.752 239.8 105.13 237.192 107.012 236.388C109.786 235.198 112.814 243.255 108.137 247.257C104.79 250.122 103.705 249.777 100.652 250.438C98.1876 250.972 97.2078 252.029 97.2078 252.029L92.6379 245.798Z" fill="#F37A50"/>
<path d="M37.4148 229.009C28.7171 239.002 39.5179 264.532 62.4037 273.473C68.2979 268.284 67.0578 257.769 67.0578 257.769C67.0578 257.769 65.4331 255.555 57.3975 240.982C48.6271 225.072 41.2517 224.599 37.4148 229.009Z" fill="#0E6A41"/>
<path d="M93.4665 243.278L69.3158 256.985C69.3158 256.985 59.3321 260.335 62.4055 273.472C69.1129 274.864 81.5002 270.459 98.2871 252.723C96.1304 249.969 93.4665 243.278 93.4665 243.278Z" fill="#0E6A41"/>
<path d="M95.9007 213.731C95.5544 213.731 95.2597 213.465 95.2329 213.113C94.942 209.317 93.4742 206.674 90.8735 205.257C88.9349 204.202 87.0863 204.246 87.0672 204.246C86.6978 204.258 86.3878 203.967 86.3763 203.597C86.3648 203.227 86.6557 202.917 87.025 202.906C87.1112 202.904 95.7802 202.754 96.5686 213.009C96.5973 213.379 96.3218 213.701 95.9524 213.729C95.9352 213.729 95.918 213.731 95.9007 213.731Z" fill="#2C2858"/>
<path d="M97.6461 208.239C97.3475 208.239 97.0758 208.038 96.9973 207.735C95.6539 202.525 91.4534 202.377 91.2735 202.373C90.9041 202.366 90.6094 202.061 90.6171 201.692C90.6228 201.322 90.9252 201.031 91.2945 201.033C91.3481 201.033 96.6892 201.175 98.2948 207.4C98.3867 207.758 98.1723 208.124 97.8145 208.216C97.759 208.233 97.7016 208.239 97.6461 208.239Z" fill="#2C2858"/>
<path d="M118.128 224.972C117.839 224.781 117.742 224.396 117.914 224.088C119.764 220.761 120 217.747 118.61 215.129C117.577 213.178 116.01 212.193 115.994 212.184C115.681 211.99 115.583 211.577 115.776 211.261C115.971 210.947 116.383 210.849 116.699 211.044C116.773 211.09 124.082 215.753 119.083 224.741C118.903 225.064 118.496 225.181 118.172 225.001C118.157 224.989 118.143 224.982 118.128 224.972Z" fill="#2C2858"/>
<path d="M122.614 221.359C122.365 221.194 122.248 220.876 122.352 220.581C124.105 215.495 120.683 213.049 120.537 212.948C120.235 212.737 120.157 212.322 120.365 212.017C120.574 211.713 120.987 211.636 121.293 211.841C121.337 211.872 125.714 214.938 123.618 221.018C123.498 221.368 123.117 221.554 122.767 221.433C122.709 221.414 122.66 221.389 122.614 221.359Z" fill="#2C2858"/>
<path d="M384.988 257.694C384.988 257.694 379.232 257.64 372.98 255.507C369.482 254.314 360.338 250.844 358.285 257.106C357.978 258.04 358.122 259.348 359.837 261.338C362.372 264.278 366.24 267.512 375.315 270.325C386.2 273.699 387.078 275.628 391.236 276.658C395.546 277.725 396.972 271.71 398.639 266.821C397.879 267.853 395.613 270.392 387.516 268.912C385.099 268.47 391.998 260.867 384.988 257.694Z" fill="#2C2858"/>
<path d="M310.571 300.094C314.964 292.727 290.213 288.355 281.021 287.397L279.259 292.175C279.259 292.175 303.478 311.988 310.571 300.094Z" fill="#DE623C"/>
<path d="M280.472 284.071C280.887 285.657 280.51 287.924 282.072 288.257L281.13 291.607L279.259 292.175C274.362 290.316 271.815 283.926 271.627 283.278C271.139 281.601 270.808 280.842 271.009 280.664C271.21 280.486 272.647 279.768 273.434 282.185C274.421 285.22 276.495 282.664 272.886 276.827C271.983 275.365 272.163 272.242 273.529 273.089C275.032 274.023 278.583 276.855 280.472 284.071Z" fill="#DE623C"/>
<path d="M324.812 283.207L307.306 281.792L305.616 264.548L321.044 256.323L324.812 283.207Z" fill="#F37A50"/>
<path d="M293.809 258.931C293.962 260.476 294.224 261.901 294.545 263.171C295.428 266.62 296.76 268.952 297.573 269.598C299.41 271.053 302.836 271.536 306.024 271.629C309.843 271.74 313.323 271.292 313.323 271.292C313.323 271.292 319.439 268.688 324.474 265.116C327.35 263.079 329.872 260.723 330.699 258.356C333.766 249.576 329.679 232.311 320.908 229.241C312.136 226.171 301.622 227.78 297.808 236.261C294.318 244.023 293.292 253.663 293.809 258.931Z" fill="#F37A50"/>
<path d="M345.247 253.127C351.958 247.945 350.329 242.445 345.191 238.1C340.053 233.755 340.388 230.589 339.309 225.815C338.285 221.286 328.913 213.561 321.961 217.605C311.595 223.638 312.57 216.006 303.896 220.191C296.071 223.965 295.02 231.48 296.398 235.604C297.739 239.614 305.555 236.014 303.701 240.018C302.256 243.142 306.981 244.892 307.375 248.739C307.673 251.654 309.375 253.42 308.5 254.887C306.795 257.742 302.855 261.436 307.58 267.954C310.274 271.67 313.554 268.786 316.702 272.543C322.681 279.68 327.231 275.207 332.909 272.204C338.587 269.203 343.788 271.302 342.112 262.342C342.049 262.007 340.273 256.966 345.247 253.127Z" fill="black"/>
<path d="M306.701 246.436C304.003 248.402 303.117 251.788 304.726 253.998C306.334 256.208 309.826 256.407 312.524 254.44C315.223 252.474 316.109 249.088 314.499 246.878C312.892 244.668 309.399 244.469 306.701 246.436Z" fill="#F37A50"/>
<path d="M307.978 253.475C307.88 253.423 307.794 253.349 307.727 253.253C306.759 251.874 306.711 250.359 307.601 249.199C308.511 248.01 310.15 247.506 311.495 247.998C311.874 248.138 312.069 248.557 311.929 248.935C311.79 249.312 311.371 249.509 310.994 249.369C310.257 249.099 309.275 249.415 308.76 250.088C308.265 250.733 308.322 251.558 308.921 252.412C309.153 252.742 309.074 253.197 308.743 253.429C308.51 253.594 308.213 253.602 307.978 253.475Z" fill="#DE623C"/>
<path d="M311.453 327.492L295.912 350.169L277.873 336.672L301.766 313.556L311.453 327.492Z" fill="#293789"/>
<path d="M271.218 316.172L297.586 338.379C312.119 324.074 340.589 338.796 340.589 338.796C340.589 338.796 351.179 361.728 324.973 364.721C275.56 370.365 241.161 321.119 271.218 316.172Z" fill="#4450A8"/>
<path d="M276.963 324.792C269.185 328.401 266.711 303.395 266.711 294.146L272.335 292.805C272.335 292.805 289.518 318.962 276.963 324.792Z" fill="#DE623C"/>
<path d="M264.154 293.173C265.687 293.751 266.814 293.778 266.984 295.366L271.575 294.607L272.335 292.803C270.994 287.736 264.906 284.538 264.284 284.286C262.667 283.627 261.95 283.217 261.751 283.399C261.551 283.581 260.688 284.937 263.012 285.969C265.926 287.265 263.17 289.067 257.743 284.87C256.385 283.818 253.261 283.675 253.96 285.122C254.729 286.718 257.177 290.546 264.154 293.173Z" fill="#DE623C"/>
<path d="M295.546 287.872C295.546 287.872 295.894 285.366 296.028 284.594C302.097 280.756 307.306 278.533 321.079 276.798C327.105 276.04 333.996 278.776 337.952 286.296C348.67 306.674 346.297 325.983 345.664 344.667C323.683 350.97 304.898 350.769 294.352 335.466C297.646 326.839 295.546 287.872 295.546 287.872Z" fill="#0E6A41"/>
<path d="M282.828 298.03C286.531 292.106 292.255 285.567 298.097 286.507C303.94 287.447 303.733 303.141 303.733 303.141C303.733 303.141 280.75 331.19 272.902 323.897C265.052 316.603 277.252 306.952 282.828 298.03Z" fill="#F37A50"/>
<path d="M281.921 297.174C287.409 289.381 298.685 275.509 307.306 281.792C315.636 287.865 312.362 306.678 294.984 316.214C289.937 311.165 281.921 297.174 281.921 297.174Z" fill="#0B5434"/>
<path d="M256.771 339.351C259.502 336.852 266.449 337.831 272.255 342.306C278.061 346.782 282.124 351.021 278.842 357.073C270.106 351.418 256.771 339.351 256.771 339.351Z" fill="#241D26"/>
<path d="M264.483 355.137C271.862 359.601 276.918 359.945 278.225 358.078C280.705 354.534 277.575 350.227 270.739 344.493C263.232 338.197 258.13 337.029 255.326 340.736C252.523 344.442 256.48 350.298 264.483 355.137Z" fill="#E4E2E8"/>
<path d="M268.697 277.271C268.288 277.271 267.949 276.947 267.934 276.534L267.622 268.334C267.607 267.91 267.936 267.556 268.357 267.539C268.778 267.524 269.136 267.853 269.151 268.274L269.463 276.474C269.478 276.898 269.149 277.254 268.728 277.269C268.718 277.271 268.707 277.271 268.697 277.271Z" fill="#2C2858"/>
<path d="M265.507 276.896C265.159 276.896 264.845 276.656 264.763 276.302L261.697 263.094C261.601 262.682 261.858 262.271 262.269 262.175C262.681 262.079 263.092 262.336 263.188 262.748L266.254 275.955C266.349 276.367 266.093 276.779 265.681 276.874C265.624 276.89 265.565 276.896 265.507 276.896Z" fill="#2C2858"/>
<path d="M151.497 298.098C147.103 290.731 171.918 286.103 181.11 285.143L182.809 290.178C182.809 290.178 158.589 309.993 151.497 298.098Z" fill="#DE623C"/>
<path d="M181.594 282.074C181.178 283.659 181.555 285.927 179.994 286.26L180.935 289.609L182.807 290.178C187.704 288.319 190.251 281.928 190.439 281.281C190.927 279.603 191.258 278.847 191.057 278.667C190.856 278.489 189.419 277.771 188.632 280.187C187.645 283.223 185.57 280.666 189.18 274.829C190.083 273.368 189.903 270.245 188.537 271.091C187.034 272.026 183.483 274.858 181.594 282.074Z" fill="#DE623C"/>
<path d="M137.255 281.21L154.762 279.795L156.452 262.552L141.023 254.325L137.255 281.21Z" fill="#F37A50"/>
<path d="M166.862 255.384C166.875 256.937 166.766 258.381 166.581 259.68C166.072 263.203 166.324 265.367 165.586 266.095C163.913 267.738 159.23 268.879 156.071 269.312C152.284 269.829 148.778 269.755 148.778 269.755C148.778 269.755 142.419 267.817 137.033 264.804C133.956 263.085 131.197 261.013 130.123 258.747C126.137 250.344 128.362 232.741 136.756 228.752C145.151 224.764 153.973 226.843 159.395 234.396C164.087 240.936 166.814 250.091 166.862 255.384Z" fill="#F37A50"/>
<path d="M150.615 325.494L166.154 348.172L184.194 334.677L160.302 311.559L150.615 325.494Z" fill="#062440"/>
<path d="M190.85 314.177L164.481 336.381C149.949 322.076 121.479 336.799 121.479 336.799C121.479 336.799 110.889 359.731 137.095 362.724C186.506 368.368 220.904 319.123 190.85 314.177Z" fill="#332E66"/>
<path d="M185.105 322.794C192.883 326.404 195.357 301.398 195.357 292.149L189.733 290.808C189.733 290.808 172.548 316.967 185.105 322.794Z" fill="#DE623C"/>
<path d="M197.914 291.178C196.381 291.754 195.254 291.783 195.083 293.37L190.492 292.612L189.733 290.808C191.074 285.741 197.162 282.543 197.784 282.29C199.401 281.631 200.118 281.222 200.317 281.403C200.516 281.585 201.379 282.941 199.056 283.973C196.142 285.27 198.897 287.072 204.325 282.874C205.683 281.823 208.806 281.679 208.108 283.127C207.337 284.722 204.889 288.55 197.914 291.178Z" fill="#DE623C"/>
<path d="M166.521 285.875C166.521 285.875 166.173 283.368 166.039 282.597C159.971 278.759 154.762 276.536 140.989 274.801C134.963 274.042 128.072 276.779 124.116 284.299C113.397 304.676 115.77 323.985 116.404 342.67C138.384 348.972 157.169 348.771 167.716 333.47C164.422 324.841 166.521 285.875 166.521 285.875Z" fill="#E62552"/>
<path d="M179.24 296.032C175.537 290.109 169.813 283.569 163.97 284.51C158.128 285.45 158.335 301.143 158.335 301.143C158.335 301.143 181.318 329.192 189.166 321.9C197.014 314.606 184.816 304.954 179.24 296.032Z" fill="#F37A50"/>
<path d="M182.399 297.604C176.911 289.812 163.383 273.51 154.762 279.795C146.432 285.867 152.95 308.204 170.328 317.739C175.372 312.691 182.399 297.604 182.399 297.604Z" fill="#C4204A"/>
<path d="M205.295 337.354C202.564 334.853 195.617 335.832 189.811 340.309C184.005 344.784 179.942 349.024 183.224 355.074C191.96 349.42 205.295 337.354 205.295 337.354Z" fill="#241D26"/>
<path d="M197.582 353.141C190.203 357.605 185.147 357.95 183.84 356.083C181.36 352.538 184.491 348.231 191.326 342.498C198.834 336.201 203.936 335.033 206.739 338.741C209.543 342.446 205.585 348.3 197.582 353.141Z" fill="#E4E2E8"/>
<path d="M153.235 221.615C145.775 221.623 136.54 215.897 126.525 224.633C104.541 243.812 133.707 259.119 127.786 264.077C116.635 262.144 82.7765 266.878 96.0824 277.968C88.3722 278.916 82.0551 298.443 100.306 290.033C97.4775 295.657 94.6873 313.595 115.86 302.053C122.931 318.445 140.537 302.495 141.592 284.933C141.887 280.03 141.642 273.638 137.696 269.64C147.966 267.342 153.062 259.804 151.662 244.643C165.743 247.86 175.948 221.59 153.235 221.615Z" fill="#2C2858"/>
<path d="M152.712 244.335C155.606 246.003 156.846 249.274 155.481 251.644C154.119 254.013 150.666 254.582 147.773 252.916C144.879 251.248 143.639 247.977 145.004 245.606C146.368 243.238 149.819 242.669 152.712 244.335Z" fill="#F37A50"/>
<path d="M152.192 251.472C152.282 251.411 152.36 251.327 152.417 251.223C153.233 249.749 153.118 248.238 152.109 247.179C151.076 246.095 149.394 245.767 148.11 246.401C147.748 246.579 147.599 247.018 147.777 247.38C147.955 247.742 148.393 247.891 148.755 247.711C149.459 247.364 150.467 247.573 151.051 248.186C151.612 248.776 151.644 249.603 151.139 250.515C150.944 250.867 151.072 251.311 151.424 251.507C151.675 251.646 151.972 251.623 152.192 251.472Z" fill="#DE623C"/>
<path d="M139.28 269.835C139.663 269.22 139.475 268.412 138.863 268.029L129.939 262.456C129.325 262.073 128.518 262.261 128.135 262.874C127.752 263.489 127.94 264.297 128.552 264.68L137.476 270.252C138.09 270.635 138.897 270.448 139.28 269.835Z" fill="#33BE86"/>
<path d="M192.919 274.68C192.9 274.68 192.883 274.68 192.863 274.678C192.389 274.647 192.029 274.238 192.06 273.763L192.743 263.125C192.773 262.65 193.183 262.29 193.658 262.321C194.132 262.351 194.492 262.761 194.461 263.236L193.778 273.874C193.748 274.33 193.369 274.68 192.919 274.68Z" fill="#2C2858"/>
<path d="M196.182 275.745C196.017 275.745 195.851 275.697 195.703 275.599C195.307 275.335 195.202 274.799 195.468 274.404L206.705 257.612C206.969 257.215 207.505 257.11 207.899 257.376C208.293 257.64 208.401 258.176 208.135 258.571L196.897 275.364C196.733 275.611 196.459 275.745 196.182 275.745Z" fill="#2C2858"/>
<path d="M200.285 279.695C199.973 279.695 199.672 279.527 199.519 279.23C199.301 278.807 199.466 278.288 199.887 278.068L209.985 272.824C210.408 272.604 210.927 272.769 211.147 273.192C211.367 273.615 211.2 274.134 210.779 274.354L200.681 279.598C200.553 279.665 200.417 279.695 200.285 279.695Z" fill="#2C2858"/>
<path d="M237.494 60.7917C238.47 54.792 239.586 48.3729 243.35 47.536C247.115 46.6992 244.885 49.4893 246.837 50.8854C248.789 52.2814 249.905 55.7686 249.905 55.7686L237.494 60.7917Z" fill="#E62552"/>
<path d="M240.143 60.6519C233.728 53.9532 226.338 51.0233 222.853 53.1164C219.366 55.2095 224.108 57.023 222.434 58.8384C220.761 60.6519 220.761 63.8614 223.27 63.5818C225.781 63.3022 240.143 60.6519 240.143 60.6519Z" fill="#E62552"/>
<path d="M258.279 112.117C265.454 109.617 280.7 101.912 273.478 91.5255C266.255 81.1385 263.186 85.4894 265.965 72.9998C268.741 60.5083 259.954 50.5637 251.447 52.9612C242.939 55.3607 240.7 62.2049 230.324 60.3512C219.948 58.4994 211.2 68.1338 215.02 76.6134C218.84 85.093 220.467 89.1739 216.758 93.8044C213.047 98.4348 196.505 103.284 203.259 114.548C210.012 125.812 213.172 125.159 210.72 130.869C208.269 136.578 213.706 143.167 223.274 142.382C232.842 141.595 241.532 138.073 245.155 127.434C248.776 116.792 258.279 112.117 258.279 112.117Z" fill="black"/>
<path d="M237.862 228.094C238.769 224.317 240.799 220.384 243.247 217.105C241.419 206.843 238.604 187.597 241.345 178.846C242.085 176.483 261.806 173.407 260.816 192.086C260.005 207.393 258.369 219.279 255.403 223.862C254.453 226.566 241.915 256.932 241.915 256.932L233.832 254.425C238.604 241.683 235.778 236.772 237.862 228.094Z" fill="#F37A50"/>
<path d="M205.833 204.903C207.941 203.959 210.339 203.3 212.796 202.906C214.138 192.708 217.083 174.569 221.802 166.934C223.104 164.828 242.973 166.739 237.389 184.591C231.805 202.442 228.523 213.647 222.02 215.321C218.155 216.316 185.79 225.631 185.79 225.631L182.53 217.78C195.529 213.785 197.692 208.547 205.833 204.903Z" fill="#F37A50"/>
<path d="M252.469 112.075C253.011 122.278 264.156 123.992 279.879 127.185C284.971 126.899 277.581 115.852 277.581 115.852C277.581 115.852 251.977 103.864 252.469 112.075Z" fill="#F37A50"/>
<path d="M283.655 91.0525C283.655 91.0525 275.992 112.658 276.101 116.185C276.21 119.71 276.851 126.798 280.172 127.116C283.49 127.434 287.407 119.718 287.989 112.947C288.569 106.175 289.564 92.5309 289.564 92.5309L283.655 91.0525Z" fill="#F37A50"/>
<path d="M293.931 89.3922C292.218 90.4857 289.401 90.9031 289.601 92.8737L283.637 91.38C283.97 84.8881 290.81 79.1086 291.501 78.6414C293.294 77.4273 294.061 76.7475 294.348 76.9179C294.635 77.0883 296.031 78.5112 293.476 80.3611C290.272 82.682 294.075 84.1604 299.59 77.6762C300.97 76.0523 304.724 75.0795 304.244 77.0136C303.718 79.145 301.728 84.4189 293.931 89.3922Z" fill="#F37A50"/>
<path d="M231.342 117.556C228.317 129.488 215.705 123.385 200.115 119.601C195.623 117.181 207 110.316 207 110.316C207 110.316 233.897 110.381 231.342 117.556Z" fill="#F37A50"/>
<path d="M212.016 85.2788C212.016 85.2788 209.794 108.096 208.2 111.242C206.606 114.389 203.019 120.534 199.879 119.412C196.739 118.29 197.177 108.46 199.523 102.081C201.869 95.7021 206.039 84.1068 206.039 84.1068L212.016 85.2788Z" fill="#F37A50"/>
<path d="M203.414 79.4131C204.501 81.1309 206.876 82.705 205.859 84.4036L211.893 85.5813C214.345 79.5625 210.601 71.4238 210.175 70.7075C209.065 68.8481 208.659 67.904 208.326 67.9365C207.993 67.9691 206.127 68.6662 207.656 71.4238C209.574 74.8861 205.503 74.6103 203.259 66.3969C202.696 64.3402 199.711 61.8641 199.324 63.8212C198.897 65.9775 198.465 71.598 203.414 79.4131Z" fill="#F37A50"/>
<path d="M229.442 145.337C220.459 151.882 221.95 157.562 217.558 167.061C214.245 174.223 200.304 190.271 200.304 190.271C200.304 190.271 227.207 208.295 245.561 198.478C261.967 189.704 274.978 200.177 274.978 200.177C274.978 200.177 274.922 169.732 260.153 145.337H229.442Z" fill="#062440"/>
<path d="M225.117 112.158C225.13 112.278 225.92 115.984 224.918 122.849C223.886 129.902 226.397 144.249 229.44 145.339H260.149C264.104 142.227 257.713 109.318 257.336 109.257C246.087 107.395 235.091 108.709 225.117 112.158Z" fill="#F5A3B7"/>
<path d="M242.037 104.366C251.105 104.366 258.455 95.2946 258.455 84.1049C258.455 72.9152 251.105 63.8442 242.037 63.8442C232.97 63.8442 225.62 72.9152 225.62 84.1049C225.62 95.2946 232.97 104.366 242.037 104.366Z" fill="#F37A50"/>
<path d="M224.904 85.9605C233.967 84.8001 242.393 79.7464 247.155 73.2162C250.23 80.8494 258.832 85.9605 258.832 85.9605C258.832 85.9605 265.279 71.3587 253.554 63.4823C242.367 55.9697 215.676 61.1038 224.904 85.9605Z" fill="black"/>
<path d="M237.272 90.0203C236.308 90.0203 235.527 89.239 235.527 88.2739C235.527 87.3087 236.308 86.5274 237.272 86.5274C238.237 86.5274 239.018 87.3087 239.018 88.2739C239.016 89.2371 238.235 90.0203 237.272 90.0203Z" fill="black"/>
<path d="M252.442 90.1199C251.478 90.1199 250.697 89.3386 250.697 88.3734C250.697 87.4083 251.478 86.6269 252.442 86.6269C253.407 86.6269 254.188 87.4083 254.188 88.3734C254.186 89.3386 253.405 90.1199 252.442 90.1199Z" fill="black"/>
<path d="M255.516 86.8012C255.229 86.8012 254.951 86.6538 254.794 86.3895C254.364 85.6618 253.841 85.2271 253.242 85.093C252.209 84.8632 251.183 85.5545 251.173 85.5622C250.793 85.8226 250.272 85.7288 250.01 85.3477C249.748 84.9686 249.84 84.4496 250.217 84.1853C250.282 84.1394 251.832 83.0727 253.587 83.4519C254.664 83.6836 255.556 84.3845 256.237 85.5335C256.472 85.9318 256.342 86.4469 255.944 86.6825C255.808 86.7648 255.661 86.8012 255.516 86.8012Z" fill="black"/>
<path d="M233.962 86.7859C233.778 86.7859 233.592 86.7265 233.439 86.6021C233.078 86.3129 233.02 85.7843 233.309 85.4224C234.412 84.0474 235.631 83.2987 236.932 83.1972C238.612 83.067 239.768 84.1049 239.818 84.1489C240.16 84.4611 240.183 84.9915 239.871 85.3343C239.561 85.6752 239.035 85.7001 238.692 85.3918C238.668 85.3707 237.981 84.7905 237.041 84.8709C236.226 84.9417 235.41 85.4818 234.616 86.4718C234.45 86.6786 234.207 86.7859 233.962 86.7859Z" fill="black"/>
<path d="M228.071 83.9862C229.953 86.3703 230.046 89.4343 228.28 90.8304C226.514 92.2264 223.557 91.424 221.676 89.0398C219.795 86.6557 219.701 83.5917 221.467 82.1956C223.234 80.7996 226.19 81.602 228.071 83.9862Z" fill="#F37A50"/>
<path d="M226.422 89.1356C226.349 89.1356 226.276 89.1222 226.206 89.0916C225.92 88.9709 225.788 88.6434 225.909 88.36C226.307 87.414 226.317 86.6538 225.936 86.1003C225.348 85.2443 223.959 84.98 222.95 85.0126C222.642 85.0241 222.384 84.7809 222.374 84.4726C222.365 84.1643 222.606 83.9057 222.914 83.8942C224.267 83.8483 226.014 84.2389 226.858 85.4645C227.277 86.0754 227.633 87.1497 226.94 88.7928C226.847 89.0073 226.638 89.1356 226.422 89.1356Z" fill="#DE623C"/>
<path d="M239.745 97.5214C239.538 97.1269 239.844 96.6309 240.239 96.7209C241.243 96.9507 242.906 97.2916 244.51 97.4352C246.114 97.5788 247.811 97.5386 248.841 97.4888C249.245 97.4697 249.459 98.0135 249.185 98.364C248.345 99.4421 246.667 101.043 244.208 100.825C241.75 100.606 240.38 98.7336 239.745 97.5214Z" fill="white"/>
<path d="M246.349 90.072C246.349 90.072 247.084 92.1192 248.081 93.4328C247.294 94.4823 244.828 94.4823 244.828 94.4823L246.611 93.0116C246.613 93.0116 246.035 91.1214 246.349 90.072Z" fill="#DE623C"/>
<path d="M247.23 102.207L247.846 108.54C247.846 108.54 245.121 114.961 234.836 109.595L234.046 101.152L247.23 102.207Z" fill="#F37A50"/>
<path d="M185.932 221.73C189.536 221.958 190.609 224.342 190.609 224.342C185.086 231.154 192.716 241.817 183.266 244.095C178.226 226.003 175.962 218.53 175.962 218.53C178.113 217.94 183.307 216.841 185.417 216.688L185.507 217.68L185.932 221.73Z" fill="#062440"/>
<path d="M180.465 243.726L173.782 220.334C173.61 219.731 173.958 219.103 174.561 218.93L176.22 218.456L183.527 244.03L181.867 244.505C181.265 244.678 180.637 244.329 180.465 243.726Z" fill="white"/>
<path d="M238.748 255.095C241.165 252.412 243.701 253.052 243.701 253.052C245.601 261.614 258.691 262.261 254.601 271.085C237.303 263.791 230.046 260.924 230.046 260.924C230.921 258.872 233.288 254.117 234.48 252.366L235.313 252.912L238.748 255.095Z" fill="#062440"/>
<path d="M252.571 273.05L230.104 263.753C229.526 263.514 229.25 262.849 229.49 262.271L230.15 260.676L254.712 270.842L254.052 272.437C253.814 273.016 253.15 273.29 252.571 273.05Z" fill="white"/>
<path d="M299.659 95.5815C299.328 95.5815 299.023 95.3651 298.926 95.0319C298.807 94.6259 299.037 94.2008 299.442 94.0801C299.481 94.0686 303.258 92.912 307.61 89.2141C311.625 85.8035 316.968 79.4649 319.628 68.6355C319.73 68.2238 320.145 67.9729 320.554 68.0744C320.966 68.1759 321.216 68.5896 321.115 69.0013C318.346 80.2711 312.746 86.8778 308.534 90.4359C303.945 94.3157 300.04 95.4991 299.877 95.547C299.804 95.57 299.731 95.5815 299.659 95.5815Z" fill="#2C2858"/>
<path d="M303.786 98.5478C303.467 98.5478 303.168 98.3448 303.061 98.0231C302.927 97.6229 303.143 97.1882 303.545 97.0541C303.672 97.012 316.258 92.7128 320.782 83.3983C320.968 83.0172 321.425 82.8602 321.806 83.044C322.187 83.2278 322.344 83.6874 322.16 84.0685C317.351 93.971 304.571 98.3276 304.029 98.5076C303.949 98.5364 303.867 98.5478 303.786 98.5478Z" fill="#2C2858"/>
<path d="M195.987 81.7093C195.803 81.7093 195.617 81.6441 195.472 81.5101C189.865 76.3913 188.041 70.1924 187.499 65.8952C186.912 61.2455 187.641 57.8368 187.672 57.6932C187.762 57.2796 188.171 57.0191 188.583 57.1091C188.996 57.1992 189.256 57.607 189.166 58.0207C189.159 58.0532 188.458 61.3605 189.023 65.7592C189.775 71.6153 192.289 76.5349 196.501 80.3783C196.813 80.6637 196.836 81.1482 196.551 81.4603C196.402 81.625 196.193 81.7093 195.987 81.7093Z" fill="#2C2858"/>
<path d="M193.034 83.1857C192.959 83.1857 192.883 83.1742 192.808 83.1512C185.391 80.8666 181.8 74.1948 181.651 73.9113C181.454 73.5379 181.598 73.0745 181.971 72.8772C182.344 72.68 182.807 72.8236 183.004 73.197C183.039 73.2602 186.462 79.597 193.258 81.6882C193.662 81.8126 193.889 82.2416 193.765 82.6457C193.663 82.975 193.361 83.1857 193.034 83.1857Z" fill="#2C2858"/>
<path d="M74.0445 79.5989C73.5929 79.2389 72.9365 79.3136 72.5786 79.7674C72.326 80.0872 72.282 80.5239 72.4657 80.8877L78.7024 94.2027C78.1972 94.5359 77.759 94.961 77.4107 95.457C76.3582 96.966 76.2433 98.7049 77.1963 99.3138C78.1494 99.9228 79.6803 99.2238 80.708 97.6669C81.7356 96.1081 81.8753 94.4191 80.9223 93.8101L75.9563 83.2087C76.7485 83.5591 81.6648 85.6982 82.4111 87.3681C82.7097 87.8487 83.3259 88.0192 83.8273 87.7587C84.3306 87.4791 84.5124 86.8414 84.233 86.3359C84.233 86.334 84.2311 86.332 84.2311 86.332C83.2053 84.1738 75.4951 80.7364 74.0445 79.5989Z" fill="#BACCFF"/>
<path d="M163.792 112.162C163.785 111.583 163.31 111.124 162.734 111.133C162.329 111.141 161.961 111.384 161.797 111.756L155.455 125.021C154.877 124.841 154.27 124.772 153.665 124.816C151.832 124.958 150.416 125.971 150.548 127.093C150.68 128.215 152.192 128.96 154.046 128.768C155.902 128.577 157.296 127.614 157.163 126.492L162.214 115.93C162.445 116.765 163.907 121.928 163.088 123.562C162.905 124.098 163.165 124.684 163.683 124.906C164.219 125.118 164.826 124.856 165.04 124.318C165.04 124.316 165.042 124.314 165.042 124.314C166.06 122.154 163.833 114.008 163.792 112.162Z" fill="#2C2858"/>
<path d="M111.972 143.816C111.545 143.426 110.887 143.455 110.498 143.88C110.225 144.18 110.15 144.613 110.307 144.99L115.591 158.711C115.062 159.008 114.595 159.403 114.215 159.872C113.059 161.302 112.823 163.028 113.729 163.704C114.636 164.378 116.213 163.79 117.347 162.308C118.482 160.826 118.741 159.152 117.833 158.476L113.625 147.551C114.391 147.957 119.144 150.437 119.77 152.154C120.034 152.656 120.637 152.869 121.156 152.645C121.678 152.401 121.904 151.779 121.659 151.254C121.659 151.252 121.657 151.251 121.657 151.251C120.788 149.025 113.34 145.054 111.972 143.816Z" fill="#2C2858"/>
<path d="M358.172 97.6018V82.3833C358.172 81.9103 357.858 81.4967 357.402 81.3722L347.266 78.651H346.992H346.846H346.699H346.462H346.334L346.15 78.7984L346.041 78.9459C346.004 79.0033 345.974 79.0646 345.949 79.1297C345.945 79.1795 345.945 79.2274 345.949 79.2772C345.947 79.3193 345.947 79.3634 345.949 79.4055V94.1089C345.35 94.1969 344.774 94.3961 344.248 94.6968C342.655 95.616 341.813 97.1422 342.418 98.0978C343.023 99.0534 344.705 99.0725 346.297 98.0978C347.889 97.1231 348.731 95.6523 348.127 94.6968V84.2217L356.178 86.3914V96.8684C355.579 96.9565 355.001 97.1556 354.476 97.4563C352.884 98.3755 352.042 99.9017 352.647 100.857C353.25 101.813 354.934 101.832 356.526 100.857C358.116 99.8807 358.719 98.5574 358.172 97.6018Z" fill="#2C2858"/>
<path d="M146.55 86.2152L139.098 72.9481C138.867 72.5364 138.39 72.3296 137.933 72.4445L127.766 75.0431L127.526 75.1772L127.398 75.2499L127.27 75.3227L127.063 75.4395L126.952 75.5027L126.864 75.721L126.841 75.9029C126.837 75.9719 126.841 76.0408 126.851 76.1078C126.872 76.1519 126.895 76.1959 126.924 76.2362C126.943 76.2745 126.964 76.3128 126.987 76.3491L134.186 89.1681C133.708 89.5377 133.302 89.9954 132.99 90.5144C132.052 92.0962 132.066 93.8388 133.061 94.375C134.056 94.9112 135.531 94.1031 136.442 92.4734C137.353 90.8438 137.367 89.149 136.371 88.6128L131.241 79.4802L139.32 77.4235L144.451 86.5561C143.973 86.9257 143.567 87.3834 143.255 87.9023C142.317 89.4841 142.331 91.2268 143.326 91.763C144.321 92.2992 145.796 91.491 146.707 89.8614C147.618 88.2298 147.498 86.7801 146.55 86.2152Z" fill="#2C2858"/>
<path d="M68.7818 137.652L70.8581 122.575C70.9232 122.108 70.6667 121.654 70.2342 121.468L60.5663 117.389L60.2946 117.351L60.1491 117.332L60.0037 117.313L59.7683 117.28L59.642 117.263L59.4411 117.384L59.3128 117.514C59.2688 117.566 59.2305 117.623 59.198 117.684C59.1884 117.732 59.1808 117.78 59.1789 117.83C59.1712 117.872 59.1636 117.914 59.1617 117.958L57.1542 132.526C56.5495 132.529 55.9505 132.65 55.3879 132.876C53.6847 133.569 52.6436 134.965 53.1106 135.996C53.5775 137.026 55.2424 137.273 56.9533 136.526C58.6622 135.779 59.6975 134.437 59.2306 133.408L60.6601 123.029L68.3397 126.277L66.9102 136.656C66.3055 136.66 65.7065 136.779 65.1438 137.007C63.4407 137.7 62.3996 139.096 62.8666 140.124C63.3335 141.155 64.9984 141.402 66.7092 140.655C68.4162 139.902 69.1951 138.673 68.7818 137.652Z" fill="#BACCFF"/>
<path d="M365.606 375.417C364.158 375.518 362.703 375.618 361.245 375.713C356.926 369.936 355.273 362.136 356.287 352.312C363.084 360.162 366.19 367.864 365.606 375.417Z" fill="#8FABFF"/>
</svg>
