<svg width="343" height="276" viewBox="0 0 343 276" fill="none" xmlns="http://www.w3.org/2000/svg">
<g clip-path="url(#clip0)">
<path d="M196.494 220.712C215.967 180.872 218.43 135.036 217.807 90.7194C217.392 60.5257 215.718 30.3595 212.784 0.303961C216.105 2.61168 220.561 3.2197 224.381 1.90692C227.135 0.953438 230.54 -0.81535 232.588 1.27127C233.488 2.1833 233.709 3.55134 234.359 4.6292C236.657 8.40169 242.345 7.1442 246.483 5.59651C248.13 4.98849 250.054 4.42192 251.548 5.33395C253.167 6.31508 253.458 8.4846 253.597 10.3778C253.929 15.1728 254.261 19.9679 254.593 24.763C254.759 27.0707 256.226 30.2213 258.316 29.254C259.188 28.8533 259.658 27.7754 260.585 27.5129C261.762 27.1674 262.883 28.2867 264.115 28.3144C266.011 28.342 266.855 26.0343 267.395 24.2241C267.934 22.4138 269.567 20.2857 271.256 21.1287C272.543 21.7782 272.681 23.7819 273.996 24.3761C275.283 24.9564 276.653 23.768 277.539 22.6764C280.667 18.8348 283.352 14.6339 285.538 10.1843C286.438 18.8071 288.486 27.2642 289.718 35.8455C292.61 56.0208 291.005 76.5138 289.953 96.8687C288.278 129.108 288.029 161.416 289.192 193.668C289.842 211.646 290.963 229.79 296.07 247.036C284.265 245.157 272.238 247.741 260.281 247.741C243.853 247.741 227.966 243.001 211.746 241.094C206.625 240.486 193.214 242.738 189.492 239.173C185.284 235.111 194.363 225.064 196.494 220.712Z" fill="#995C59"/>
<path d="M290.244 67.366C287.877 67.0619 285.469 67.5871 283.379 68.6649C281.275 69.7428 279.476 71.3457 278.092 73.2389C275.297 77.0528 274.356 81.9032 274.314 86.5739C274.273 91.2861 275.158 95.9568 275.837 100.655C276.584 105.34 276.805 110.135 276.639 114.874C276.279 124.368 274.743 133.778 275.352 143.217C275.643 147.915 276.473 152.627 278.189 157.021C279.061 159.191 279.961 161.457 281.705 163.074C282.563 163.875 283.67 164.414 284.846 164.497C286.009 164.608 287.268 164.249 288.057 163.337C287.282 164.262 286.022 164.649 284.846 164.58C283.642 164.525 282.493 164 281.594 163.198C279.767 161.595 278.812 159.301 277.885 157.146C276.099 152.724 275.241 147.984 274.909 143.244C274.217 133.737 275.684 124.271 275.961 114.847C276.155 110.121 275.975 105.409 275.283 100.724C274.646 96.0397 273.788 91.3413 273.871 86.5601C273.954 81.8341 274.937 76.9008 277.829 73.0316C279.283 71.1384 281.151 69.5355 283.31 68.4991C285.441 67.4765 287.891 67.0067 290.244 67.366Z" fill="#683936"/>
<path d="M289.815 90.6089C287.531 89.8627 285.082 91.1064 283.767 92.9166C282.397 94.7683 281.926 97.1175 281.746 99.3976C281.566 101.705 281.622 104.013 281.968 106.293C282.286 108.573 283.02 110.77 283.629 113.05C284.237 115.317 284.459 117.735 284.32 120.07C284.196 122.419 283.864 124.727 283.601 127.035C283.366 129.343 283.269 131.664 283.725 133.93C283.85 134.483 283.974 135.064 284.168 135.602C284.376 136.128 284.666 136.639 285.026 137.081C285.386 137.523 285.815 137.924 286.341 138.159C286.853 138.408 287.49 138.408 288.016 138.131C287.504 138.421 286.853 138.463 286.313 138.228C285.76 138.007 285.289 137.62 284.902 137.178C284.514 136.736 284.182 136.224 283.947 135.685C283.712 135.133 283.573 134.566 283.421 133.999C282.881 131.692 282.923 129.315 283.089 126.98C283.255 124.644 283.615 122.337 283.712 120.029C283.836 117.721 283.601 115.441 282.992 113.202C282.424 110.964 281.691 108.711 281.387 106.362C281.054 104.027 280.985 101.664 281.248 99.3147C281.497 96.9931 282.037 94.5749 283.532 92.6817C284.971 90.8715 287.573 89.7522 289.815 90.6089Z" fill="#683936"/>
<path d="M289.483 47.6467C289.718 48.0751 289.732 48.6279 289.496 49.0562C289.275 49.4984 288.887 49.8301 288.486 50.1064C287.67 50.6454 286.715 50.9632 285.746 51.1428C283.808 51.4192 281.885 51.7371 280.002 52.2898C276.252 53.34 272.64 54.9844 269.512 57.306C267.962 58.4806 266.509 59.7795 265.277 61.2719C264.059 62.7782 263.049 64.4502 262.288 66.219C260.807 69.8119 260.641 73.8054 261.056 77.647C261.471 81.5163 262.357 85.3302 263.187 89.1442L265.803 100.572C267.478 108.2 268.834 115.994 268.682 123.857C268.363 139.582 263.409 154.797 264.128 170.453C264.474 178.192 266.274 186.068 270.647 192.563C272.778 195.81 275.477 198.712 278.646 200.979C280.238 202.112 281.954 203.051 283.753 203.825C285.566 204.558 287.462 205.055 289.399 205.359C287.462 205.083 285.552 204.613 283.725 203.908C281.912 203.162 280.168 202.25 278.549 201.131C275.325 198.892 272.557 196.018 270.356 192.756C265.9 186.22 264.045 178.274 263.658 170.481C262.855 154.714 267.741 139.43 267.976 123.843C268.17 116.049 266.869 108.311 265.236 100.683L262.675 89.2409C261.859 85.4131 261.001 81.5992 260.585 77.6885C260.184 73.8054 260.364 69.7289 261.9 66.0532C262.675 64.2429 263.727 62.5432 264.973 61.0094C266.232 59.4893 267.713 58.1765 269.291 57.002C272.488 54.7081 276.155 53.1051 279.933 52.0963C281.829 51.5712 283.767 51.281 285.704 51.0323C286.659 50.8665 287.614 50.5763 288.431 50.0512C288.832 49.7886 289.22 49.457 289.441 49.0286C289.718 48.614 289.718 48.0751 289.483 47.6467Z" fill="#683936"/>
<path d="M285.593 241.315C288.043 236.603 288.029 230.868 286.119 225.99C285.178 223.544 283.725 221.278 281.857 219.44C279.988 217.589 277.705 216.22 275.241 215.322C272.792 214.383 270.218 213.705 267.782 212.628C265.346 211.564 263.09 210.085 261.07 208.358C257.029 204.875 253.984 200.398 251.687 195.631C249.375 190.849 247.867 185.723 246.801 180.541C245.736 175.359 245.21 170.052 245.182 164.76C245.14 159.467 245.666 154.161 246.649 148.951C247.659 143.742 249.168 138.67 250.566 133.585C251.977 128.513 253.306 123.401 253.929 118.177C254.579 112.967 254.275 107.675 253.458 102.479C251.839 92.0737 248.365 81.9861 247.272 71.4286C245.943 60.8021 249.209 50.3552 248.642 39.8253C248.268 29.2679 245.625 18.9592 242.981 8.74719C245.722 18.9177 248.503 29.1988 248.988 39.8115C249.597 50.4243 246.372 60.8573 247.728 71.3872C248.836 81.8755 252.351 91.9355 254.025 102.396C254.856 107.62 255.202 112.967 254.551 118.26C253.929 123.539 252.628 128.693 251.216 133.778C249.791 138.864 248.282 143.921 247.258 149.089C246.248 154.244 245.722 159.509 245.736 164.774C245.749 170.039 246.248 175.29 247.286 180.458C248.323 185.612 249.804 190.697 252.074 195.451C254.33 200.191 257.333 204.627 261.305 208.081C263.284 209.795 265.498 211.26 267.906 212.31C270.301 213.388 272.875 214.065 275.338 215.032C277.816 215.972 280.155 217.395 282.023 219.288C283.891 221.181 285.33 223.475 286.258 225.963C288.154 230.868 288.098 236.617 285.593 241.315Z" fill="#683936"/>
<path d="M237.847 5.90057C236.851 19.2079 242.553 31.7967 242.4 45.1179C242.47 51.82 240.158 58.1765 238.276 64.4502C237.335 67.6009 236.491 70.793 236.173 74.0404C235.813 77.2878 236.006 80.5766 236.491 83.8102C237.418 90.3049 239.466 96.6062 240.823 103.087C242.165 109.554 242.899 116.187 242.511 122.806C242.317 126.109 241.833 129.398 241.003 132.604C240.601 134.207 240.075 135.782 239.48 137.33C238.899 138.877 238.207 140.411 237.238 141.779C236.269 143.134 234.955 144.308 233.363 144.875C231.799 145.455 229.945 145.469 228.505 144.543C227.08 143.645 226.097 142.263 225.004 141.033C224.464 140.411 223.883 139.817 223.205 139.361C222.527 138.905 221.696 138.643 220.866 138.739C221.696 138.629 222.541 138.864 223.233 139.32C223.938 139.762 224.52 140.37 225.073 140.978C226.18 142.194 227.191 143.548 228.588 144.391C229.986 145.262 231.772 145.22 233.266 144.626C234.789 144.046 236.034 142.899 236.948 141.572C237.875 140.232 238.553 138.725 239.107 137.192C239.688 135.658 240.186 134.096 240.587 132.493C241.39 129.315 241.861 126.04 242.027 122.765C242.373 116.201 241.612 109.61 240.228 103.184C238.857 96.7582 236.754 90.4707 235.785 83.8931C235.314 80.618 235.135 77.2601 235.522 73.9436C235.882 70.6272 236.754 67.4074 237.709 64.2568C239.646 57.9693 241.957 51.6956 241.93 45.0765C242.041 38.4988 240.684 32.004 239.466 25.5231C238.304 19.0974 237.224 12.4921 237.847 5.90057Z" fill="#683936"/>
<path d="M230.388 0C228.242 8.49847 227.827 17.3148 228.588 25.9929C228.934 30.3458 229.446 34.6848 229.765 39.0515C230.125 43.4182 230.138 47.8125 230.028 52.1792C229.889 56.5459 229.696 60.9126 229.834 65.2655C229.917 69.6184 230.65 73.9298 231.024 78.3103C231.384 82.6356 231.329 87.251 229.253 91.2308C228.27 93.1654 226.692 95.0309 224.506 95.6251C223.426 95.9291 222.25 95.7495 221.281 95.2382C220.312 94.7269 219.51 93.801 219.399 92.6955C219.537 93.801 220.354 94.6992 221.323 95.1691C222.291 95.6527 223.44 95.7771 224.464 95.4731C226.568 94.8374 228.035 92.9995 228.948 91.0788C230.941 87.1819 230.969 82.6494 230.567 78.3518C230.152 74.0265 229.363 69.6875 229.253 65.2931C229.087 60.9126 229.239 56.5321 229.336 52.1654C229.488 47.7987 229.516 43.4459 229.197 39.093C228.907 34.7401 228.436 30.3872 228.132 26.0205C227.827 21.6538 227.703 17.2595 228.062 12.8928C228.436 8.53993 229.211 4.21469 230.388 0Z" fill="#683936"/>
<path d="M222.997 57.4441C223.163 56.3663 222.942 55.2884 222.706 54.2382C222.457 53.188 222.125 52.1516 221.765 51.129C221.073 49.07 220.243 47.0802 219.689 44.9521C218.831 40.6821 218.292 36.3845 217.987 32.0455C217.697 27.7202 217.586 23.3812 217.683 19.0283C217.738 16.8588 217.849 14.6892 218.126 12.5197C218.264 11.4418 218.444 10.3502 218.762 9.28613C218.914 8.7472 219.122 8.2221 219.399 7.71081C219.676 7.22715 220.118 6.66059 220.852 6.5224L221.239 6.45331V6.85405C221.267 15.2972 222.623 23.6852 223.482 32.1007C224.353 40.5301 224.824 49.1391 222.997 57.4441ZM222.997 57.4441C223.8 53.2847 224.021 49.0424 223.924 44.8139C223.841 40.5854 223.454 36.3707 222.956 32.1698C221.987 23.7681 220.631 15.3802 220.548 6.86787L220.935 7.21333C220.561 7.26861 220.229 7.62789 219.98 8.05627C219.745 8.49847 219.537 8.98212 219.399 9.47959C219.094 10.4884 218.914 11.5524 218.776 12.6026C218.485 14.7307 218.375 16.8864 218.306 19.0421C218.181 23.3535 218.319 27.6926 218.513 32.004C218.748 36.3154 219.233 40.6268 220.008 44.8692C220.492 46.9558 221.281 48.9871 221.918 51.0599C222.236 52.0963 222.54 53.1327 222.776 54.1968C222.997 55.2746 223.191 56.3801 222.997 57.4441Z" fill="#683936"/>
<path d="M262.025 28.9639C262.523 31.009 262.509 33.1371 262.371 35.2237C262.232 37.3103 261.969 39.397 262.066 41.4559C262.177 43.5011 262.537 45.5877 263.575 47.3289C264.087 48.1856 264.765 48.9733 265.582 49.526C266.384 50.0926 267.367 50.3137 268.28 50.0373C270.149 49.4846 271.56 47.702 273.401 46.6517C275.2 45.5186 277.11 44.6204 278.992 43.736C280.874 42.8378 282.743 41.8843 284.403 40.6406C286.078 39.4246 287.545 37.8631 288.417 35.9561C287.656 37.9184 286.244 39.5766 284.611 40.917C282.964 42.2436 281.096 43.2662 279.241 44.2335C277.387 45.2008 275.477 46.0852 273.747 47.2045C272.875 47.7572 272.072 48.3929 271.27 49.07C270.453 49.7195 269.581 50.4242 268.474 50.7282C267.367 51.0737 266.108 50.7421 265.222 50.0926C264.308 49.4569 263.603 48.6002 263.049 47.6743C261.956 45.7812 261.582 43.6116 261.554 41.4974C261.471 37.2412 262.8 33.1371 262.025 28.9639Z" fill="#683936"/>
<path d="M274.079 23.9339L273.747 22.9389H273.816C273.567 25.9376 273.235 28.9501 272.93 31.9349C272.875 32.6673 272.847 33.3997 273.055 34.063C273.249 34.7263 273.719 35.2375 274.342 35.5277C275.601 36.0805 277.193 36.0528 278.535 35.6797C279.919 35.3066 280.93 34.1735 281.276 32.764C281.663 31.3683 281.649 29.8345 281.815 28.342C282.065 25.3434 282.355 22.3309 282.687 19.3323C282.604 22.3447 282.494 25.3572 282.341 28.3697C282.258 29.8759 282.272 31.3821 281.885 32.916C281.691 33.676 281.345 34.4361 280.791 35.0441C280.252 35.6659 279.504 36.0805 278.743 36.3292C277.982 36.578 277.179 36.6332 276.39 36.6056C275.615 36.578 274.813 36.4536 274.065 36.0943C273.318 35.7488 272.695 35.0441 272.488 34.2288C272.252 33.4273 272.294 32.6258 272.391 31.8658C272.82 28.8671 273.263 25.8961 273.761 22.9113L273.789 22.7317L273.83 22.8975L274.079 23.9339Z" fill="#683936"/>
<path d="M221.06 220.877C227.024 218.197 232.076 213.65 235.37 208.067C236.172 206.672 236.864 205.166 237.847 203.811C238.331 203.134 238.885 202.485 239.563 201.96C240.241 201.435 241.085 201.048 241.971 201.006C242.857 200.923 243.743 201.2 244.49 201.614C245.237 202.029 245.902 202.568 246.497 203.134C247.701 204.267 248.808 205.511 249.777 206.851C251.728 209.518 253.029 212.655 253.915 215.792C254.399 217.34 254.897 218.887 255.686 220.269C256.461 221.665 257.61 222.784 258.911 223.752C260.198 224.733 261.596 225.631 262.772 226.819C263.948 228.008 264.793 229.514 265.222 231.103C266.08 234.323 265.72 237.653 265.305 240.873C265.595 237.639 265.844 234.309 264.889 231.2C264.433 229.652 263.602 228.243 262.454 227.123C261.305 226.004 259.907 225.147 258.592 224.18C257.264 223.227 255.991 222.052 255.174 220.573C254.33 219.122 253.818 217.533 253.32 215.986C252.42 212.849 251.147 209.878 249.223 207.266C248.296 205.953 247.23 204.737 246.054 203.618C244.919 202.54 243.549 201.517 242.013 201.628C240.476 201.683 239.245 202.886 238.331 204.157C237.39 205.456 236.684 206.921 235.826 208.33C232.394 213.968 227.135 218.431 221.06 220.877Z" fill="#683936"/>
<path d="M285.746 106.293C285.538 104.607 285.4 102.935 285.261 101.249C285.192 100.393 285.123 99.5911 285.109 98.7067C285.109 98.2645 285.164 97.7809 285.4 97.3387C285.663 96.8688 286.106 96.551 286.659 96.4681C287.24 96.3575 287.863 96.8274 287.988 97.3387C288.154 97.8361 288.126 98.2783 288.154 98.6929C288.195 99.5358 288.209 100.393 288.209 101.236C288.182 102.935 288.071 104.635 287.822 106.307L287.808 106.431L287.697 106.404C287.116 106.279 286.659 105.796 286.548 105.257C286.742 105.768 287.227 106.141 287.739 106.196L287.614 106.293C287.656 104.607 287.683 102.921 287.614 101.249C287.6 100.406 287.559 99.5773 287.503 98.7343C287.49 97.8776 287.337 97.0623 286.728 97.1452C286.064 97.2005 285.704 97.9329 285.718 98.7205L285.76 101.236C285.787 102.921 285.801 104.607 285.746 106.293Z" fill="#683936"/>
<path d="M253.098 46.6242C253.223 45.4081 253.486 44.0401 254.524 43.2386C255.022 42.8655 255.686 42.6444 256.323 42.7826C256.973 42.9207 257.444 43.4597 257.707 44.0262C258.689 46.3754 258.8 48.9871 258.634 51.4883C258.454 54.0171 257.997 56.4907 257.707 58.978C257.402 61.4516 257.278 63.9666 257.831 66.371C257.956 66.9652 258.15 67.5456 258.33 68.1812C258.482 68.8169 258.606 69.5631 258.191 70.2679C257.984 70.5857 257.707 70.8482 257.347 71.0002C257.001 71.1661 256.517 71.1661 256.157 70.9312C255.797 70.6962 255.631 70.3231 255.52 70.0053C255.409 69.6737 255.34 69.3835 255.257 69.0795C254.593 66.6474 254.108 64.16 253.707 61.6727C253.306 59.1853 253.07 56.6703 252.932 54.1553C252.78 51.6403 252.821 49.1253 253.098 46.6242ZM253.098 46.6242C252.6 51.6403 253.098 56.6841 254.039 61.6174C254.51 64.0771 255.105 66.523 255.811 68.9136C255.991 69.5078 256.115 70.1849 256.489 70.406C256.821 70.641 257.388 70.3646 257.651 69.9224C258.163 69.0104 257.416 67.7667 257.181 66.523C256.627 63.9942 256.793 61.3963 257.139 58.9089C257.499 56.4078 258.053 53.948 258.302 51.4607C258.551 48.9871 258.537 46.403 257.624 44.0677C257.375 43.515 256.918 43.0037 256.309 42.8517C255.7 42.7135 255.05 42.9069 254.551 43.2662C253.513 44.0401 253.237 45.4081 253.098 46.6242Z" fill="#683936"/>
<path d="M262.468 197.593C262.551 197.952 261.831 198.007 261.886 197.579L261.748 196.695L261.513 194.912C261.361 193.724 261.291 192.535 261.222 191.333C261.084 188.942 261.111 186.552 261.236 184.161L261.264 183.65L261.72 183.899C262.454 184.299 262.911 185.046 263.146 185.764C263.395 186.497 263.464 187.243 263.506 187.975C263.575 189.412 263.713 190.822 263.976 192.231C264.253 193.627 264.599 195.009 265.056 196.363C265.499 197.717 266.08 199.03 266.717 200.315L266.772 200.426L266.689 200.481C265.706 201.089 264.336 200.633 263.907 199.666C264.419 200.605 265.762 200.868 266.55 200.288L266.509 200.453C265.042 197.966 263.962 195.216 263.395 192.356C263.104 190.932 262.938 189.468 262.855 188.03C262.745 186.662 262.551 185.129 261.416 184.465L261.9 184.203C261.734 186.566 261.693 188.942 261.693 191.319C261.693 192.508 261.762 193.696 261.803 194.884L261.9 196.667L261.97 197.551C261.859 197.925 262.495 197.938 262.468 197.593Z" fill="#683936"/>
<path d="M231.038 100.489C230.72 100.918 230.637 101.484 230.803 101.968L230.664 101.94C232.131 100.061 232.187 97.6012 232.436 95.2797C232.505 94.6855 232.588 94.0913 232.699 93.5109C232.754 93.2207 232.823 92.9167 232.906 92.6265C232.989 92.3501 233.045 92.0185 233.308 91.6868C233.584 91.3552 234.069 91.2584 234.415 91.3275C234.775 91.3966 235.121 91.5763 235.356 91.8388C235.854 92.3363 236.062 93.0134 236.131 93.6352C236.242 94.8927 236.062 96.0535 235.979 97.2419C235.868 98.4165 235.716 99.6049 235.494 100.766L235.148 102.507C235.079 102.797 235.01 103.115 234.802 103.405C234.609 103.709 234.152 103.861 233.82 103.723C232.699 103.142 231.827 102.369 231.01 101.498C231.91 102.244 232.892 102.99 233.917 103.405C234.429 103.557 234.664 102.977 234.733 102.424L234.982 100.683C235.245 98.375 235.577 95.9568 235.467 93.7182C235.397 93.1792 235.231 92.6679 234.885 92.3087C234.581 91.9632 234 91.8388 233.792 92.1014C233.667 92.2257 233.584 92.5021 233.515 92.7785C233.432 93.0549 233.363 93.3312 233.308 93.6214C233.183 94.188 233.1 94.7684 233.017 95.3488C232.837 96.5095 232.699 97.6979 232.408 98.8587C232.131 100.019 231.605 101.166 230.789 102.037L230.692 102.148L230.65 102.009C230.498 101.457 230.664 100.876 231.038 100.489Z" fill="#683936"/>
<path d="M179.153 113.576C199.401 112.622 219.094 105.188 239.272 106.943C241.916 107.177 244.698 107.537 246.829 109.112C249.652 111.199 250.704 114.888 251.299 118.329C254.565 137.04 247.327 155.57 244.033 174.281C240.975 191.651 237.806 199.762 235.411 210.016C234.609 213.443 234.678 231.449 231.592 233.148C228.92 234.613 170.005 204.475 157.84 202.098C155.114 201.559 152.014 200.799 150.741 198.339C150.104 197.123 150.049 195.686 150.049 194.318C149.966 173.41 158.006 153.691 164.608 134.207C165.452 131.761 169.23 114.045 179.153 113.576Z" fill="#9A7667"/>
<path d="M234.027 130.904C227.841 134.718 231.259 142.913 230.014 149.159C228.99 154.313 227.301 159.633 221.987 161.734C217.295 163.585 212.258 161.747 207.884 159.896C201.297 157.104 194.861 154.078 188.537 150.72C181.271 146.879 171.971 142.014 162.643 139.955C156.512 157.588 149.98 175.469 150.063 194.332C150.063 195.7 150.118 197.137 150.755 198.353C152.042 200.813 155.128 201.573 157.854 202.112C170.019 204.488 228.92 234.627 231.605 233.162C234.692 231.462 234.622 213.457 235.425 210.03C237.819 199.776 240.989 191.665 244.047 174.295C246.746 158.956 252.088 143.742 252.129 128.444C246.165 127.823 239.189 127.712 234.027 130.904Z" fill="#7F5B4E"/>
<path d="M203.608 71.4839C204.189 71.6774 204.632 72.1196 205.02 72.5756C208.272 76.3481 209.628 81.1846 210.528 85.9106C211.427 90.6366 211.995 95.4731 213.988 99.9089C215.482 103.239 217.78 106.279 220.672 108.753C220.977 109.015 221.309 109.292 221.392 109.665C221.461 109.969 221.35 110.301 221.226 110.591C219.067 115.8 213.268 119.062 207.414 120.761C203.885 121.784 200.12 122.392 196.453 121.881C195.18 121.701 193.906 121.383 192.896 120.665C191.9 119.932 191.235 118.73 191.526 117.597C191.83 116.381 193.104 115.552 193.657 114.405C194.183 113.313 194.017 112.056 193.81 110.867C192.37 102.604 190.004 94.5058 187.277 86.5186C186.419 84.0036 185.52 81.3228 186.35 78.8078C187.305 75.9059 190.571 73.764 193.699 73.004C194.972 72.7 196.245 72.8382 197.519 72.6447C199.318 72.3683 201.781 70.8759 203.608 71.4839Z" fill="#FFB573"/>
<path d="M208.632 93.7182C208.895 86.9609 206.03 80.4246 202.169 74.8695C201.463 73.8608 200.715 72.8935 199.913 71.9538C199.069 72.244 198.238 72.548 197.519 72.6586C196.245 72.852 194.958 72.7138 193.699 73.0178C190.571 73.7779 187.305 75.9059 186.35 78.8217C185.52 81.3367 186.419 84.0313 187.277 86.5325C189.948 94.3538 192.273 102.286 193.713 110.356C195.166 110.287 196.605 110.038 197.975 109.568C204.383 107.343 208.369 100.462 208.632 93.7182Z" fill="#E6A368"/>
<path d="M108.184 116.809C108.184 116.809 127.352 135.824 132.832 142.788L155.363 154.354L159.224 148.634L131.96 120.416C131.96 120.416 125.733 113.949 124.363 113.824C122.992 113.7 108.184 116.809 108.184 116.809Z" fill="#DE6658"/>
<path d="M130.092 124.506C130.092 124.506 131.338 118.661 125.608 117.541C119.879 116.422 108.184 116.795 108.184 116.795L116.28 111.074L119.892 110.95L117.028 109.582L118.522 108.09C118.522 108.09 135.946 110.328 135.074 123.622L130.092 124.506Z" fill="#F6EDEC"/>
<path d="M163.21 108.725L192.218 143.286L191.969 148.26L166.324 126.123L163.584 114.322L163.21 108.725Z" fill="white"/>
<path d="M163.584 114.322L163.21 108.725C163.21 108.725 140.804 107.73 134.202 121.908L135.074 123.649C135.074 123.649 157.481 126.759 158.602 127.878C159.723 128.997 163.584 114.322 163.584 114.322Z" fill="#F6EDEC"/>
<path d="M260.876 118.15C267.228 126.482 266.952 137.979 265.72 148.385C263.616 166.197 259.478 184.051 250.704 199.707C250.247 200.523 249.777 201.338 249.085 201.974C247.867 203.107 246.151 203.507 244.518 203.728C237.307 204.71 230 203.107 222.983 201.158C202.791 195.575 183.208 187.091 166.601 174.336C165.715 173.659 164.802 172.913 164.359 171.89C163.916 170.84 164.027 169.652 164.179 168.519C164.636 165.105 165.328 161.72 166.255 158.389C166.462 157.657 166.684 156.911 167.21 156.358C167.708 155.847 168.386 155.584 169.064 155.363C179.444 151.881 190.917 153.857 201.255 157.491C211.593 161.126 221.336 166.335 231.813 169.541C233.474 170.052 235.951 135.879 236.089 132.949C236.38 126.399 233.681 103.875 245.154 107.813C250.635 109.706 257.361 113.534 260.876 118.15Z" fill="#9A7667"/>
<path d="M232.588 178.053C233.183 177.266 233.086 176.16 232.906 175.193C232.519 173.12 231.91 171.089 231.052 169.154" stroke="#BA9385" stroke-width="0.5" stroke-miterlimit="10"/>
<path d="M237.723 176.699C237.114 174.792 236.034 173.037 234.609 171.628" stroke="#BA9385" stroke-width="0.5" stroke-miterlimit="10"/>
<path d="M240.67 173.383C238.414 171.517 235.868 170.025 233.142 168.961" stroke="#BA9385" stroke-width="0.5" stroke-miterlimit="10"/>
<path d="M163.584 114.322C163.584 114.322 191.72 147.763 191.969 148.26C192.218 148.758 166.822 146.768 159.474 156.966L135.074 123.636C135.074 123.636 139.932 112.829 163.584 114.322Z" fill="#DE6658"/>
<path d="M135.074 123.635L130.092 124.506L154.256 155.46L159.473 156.952L135.074 123.635Z" fill="#EF786F"/>
<path d="M74.6783 218.376C71.0247 216.939 68.0492 214.189 65.475 211.218C63.233 208.634 61.2124 205.774 60.1745 202.526C59.2057 199.5 59.1227 196.239 59.4686 193.074C59.6209 191.706 59.8562 190.297 60.562 189.108C61.5031 187.561 63.1638 186.579 64.8661 186.013C69.2117 184.562 74.1524 185.474 78.069 187.851C81.9856 190.228 84.9335 193.986 86.954 198.09C88.4487 201.13 89.4867 204.447 89.4452 207.833C89.4036 211.149 88.1027 215.143 85.6116 217.478C82.899 220.021 77.8614 219.62 74.6783 218.376Z" fill="#005DBA"/>
<path d="M74.1386 215.612C69.9037 219.288 66.4715 224.028 64.8938 229.417C64.0081 232.43 63.5929 235.843 61.2817 237.971C59.9807 239.159 58.2508 239.767 56.5209 240.154C51.4002 241.301 45.9059 240.749 41.1174 238.593C38.4325 237.391 35.7892 235.442 35.0557 232.596C34.682 231.117 34.8619 229.542 35.2909 228.077C36.7164 223.13 41.588 220.104 45.3108 216.538C50.9712 211.121 55.649 204.862 60.2852 198.546C63.6067 194.014 66.3608 189.094 69.364 184.341C70.485 182.572 71.689 180.762 73.4328 179.601C76.353 177.653 80.4218 177.915 83.425 179.725C86.442 181.536 88.4626 184.686 89.5559 188.03C90.6354 191.375 90.8568 194.926 90.9122 198.436C90.9814 202.595 90.2756 206.313 86.3175 208.15C81.958 210.14 77.7784 212.448 74.1386 215.612Z" fill="#FFB573"/>
<path d="M89.556 188.003C88.4765 184.659 86.4421 181.522 83.4251 179.698C80.408 177.888 76.353 177.625 73.4329 179.573C71.6891 180.734 70.4851 182.544 69.3641 184.313C66.8176 188.362 64.4233 192.508 61.7246 196.446C62.4304 196.764 63.1362 197.178 63.8282 197.759C68.0355 201.255 68.3123 207.722 68.589 212.724C68.7413 215.516 68.8658 218.445 68.8382 221.416C70.3605 219.274 72.1458 217.326 74.1249 215.612C77.7647 212.448 81.9442 210.126 86.3037 208.109C90.2618 206.271 90.9676 202.568 90.8984 198.394C90.8569 194.898 90.6355 191.347 89.556 188.003Z" fill="#E5A368"/>
<path d="M63.2193 230.896C62.5827 231.753 61.5724 232.582 60.5482 232.278C59.7871 232.057 59.3304 231.297 58.929 230.619C56.2165 226.032 52.4659 222.052 48.0373 219.095C46.8609 218.307 45.56 217.575 44.1483 217.589C42.9028 217.602 41.7264 218.197 40.7161 218.943C38.0174 220.933 36.2459 223.89 34.0039 226.363C31.1945 229.459 27.6654 231.78 24.1778 234.06C17.5487 238.413 10.8503 242.78 3.44614 245.64C2.64345 245.958 1.78539 246.276 1.24565 246.953C0.830464 247.478 0.664389 248.169 0.512154 248.819C0.0277686 250.905 -0.428937 253.254 0.733587 255.065C1.82691 256.764 3.99973 257.372 5.99263 257.718C10.7119 258.519 15.5281 258.519 20.3166 258.506C24.2609 258.506 28.2328 258.492 32.0941 257.649C34.6544 257.082 37.1317 256.17 39.692 255.59C44.3006 254.553 49.0752 254.65 53.7668 254.111C57.1991 253.71 60.6036 252.964 63.8974 251.9C64.9077 251.569 65.918 251.209 66.7622 250.574C67.9801 249.662 68.7828 248.28 69.281 246.843C70.3051 243.844 67.7448 233.024 66.6515 230.937C65.2814 228.395 64.8662 228.685 63.2193 230.896Z" fill="#E5BFA1"/>
<path d="M45.1448 248.28C37.3393 248.888 29.6168 249.841 21.7559 249.634C14.6839 249.454 8.51143 247.672 1.70236 246.511C1.53628 246.635 1.38405 246.787 1.24565 246.953C0.830464 247.478 0.664389 248.169 0.512154 248.819C0.0277686 250.905 -0.428937 253.254 0.733587 255.065C1.82691 256.764 3.99973 257.372 5.99263 257.718C10.7119 258.519 15.5281 258.519 20.3166 258.506C24.2609 258.506 28.2328 258.492 32.0941 257.649C34.6544 257.082 37.1317 256.17 39.692 255.59C44.3006 254.553 49.0752 254.65 53.7668 254.111C57.1991 253.71 60.6036 252.964 63.8974 251.9C64.9077 251.569 65.918 251.209 66.7622 250.574C67.9801 249.662 68.7828 248.28 69.281 246.843C69.4194 246.456 69.4886 245.931 69.5163 245.323C62.3059 248.722 52.2306 247.727 45.1448 248.28Z" fill="#7F5B4E"/>
<path d="M21.7007 234.599C21.6868 234.185 22.3096 234.143 22.711 234.254C25.0222 234.959 27.2365 235.995 29.2709 237.308" stroke="white" stroke-miterlimit="10"/>
<path d="M28.5095 231.725C28.6479 231.02 29.6582 230.979 30.3502 231.186C31.8725 231.628 33.298 232.374 34.5159 233.383" stroke="white" stroke-miterlimit="10"/>
<path d="M32.62 227.607C32.5923 227.262 33.1044 227.22 33.4365 227.331C35.2218 227.883 36.9518 228.602 38.6125 229.473" stroke="white" stroke-miterlimit="10"/>
<path d="M35.9553 223.544C36.0522 223.337 36.3567 223.392 36.5643 223.475C38.7232 224.318 40.7992 225.341 42.7782 226.529" stroke="white" stroke-miterlimit="10"/>
<path d="M151.128 144.709C142.091 136.846 132.639 129.08 121.47 124.727C118.425 123.539 114.979 122.627 111.962 123.884C108.35 125.39 106.579 129.508 105.914 133.364C104.655 140.591 105.984 148.067 108.544 154.949C111.104 161.816 114.855 168.187 118.578 174.502C124.141 183.926 129.691 193.364 135.254 202.789C142.894 215.737 151.336 229.431 165.023 235.677C172.469 239.076 180.828 239.919 188.509 242.711C190.502 243.443 192.564 244.314 194.668 244.037C196.342 243.816 197.851 242.89 199.193 241.854C205.172 237.266 209.171 230.191 209.974 222.701C211.33 210.251 203.414 200.329 196.287 191.057C187.845 180.071 178.337 169.942 168.331 160.365C162.754 154.99 156.982 149.808 151.128 144.709Z" fill="#005EBD"/>
<path d="M124.709 184.894C127.739 177.528 129.912 169.914 130.217 161.996C130.535 153.58 128.418 147.417 121.871 142.097C116.931 138.076 111.409 134.925 106.689 130.586C106.662 130.559 106.648 130.531 106.62 130.517C106.316 131.457 106.081 132.41 105.914 133.364C104.655 140.591 105.984 148.067 108.544 154.949C111.104 161.816 114.855 168.187 118.578 174.502C120.626 177.957 122.674 181.425 124.709 184.894Z" fill="#0053A6"/>
<path d="M104.849 129.964C88.269 148.785 73.6544 169.334 61.2957 191.153C70.9557 195.023 79.0241 202.72 83.3421 212.185C83.6466 212.849 84.0064 213.581 84.7122 213.775C85.2658 213.927 85.8471 213.664 86.3453 213.388C89.4453 211.647 91.7427 208.814 93.9847 206.064C105.167 192.383 116.82 179.076 128.943 166.211C130.327 164.746 131.753 163.212 132.445 161.319C133.607 158.127 132.459 154.603 131.241 151.425C128.556 144.419 125.456 137.44 121.027 131.346C119.56 129.315 116.197 123.953 113.54 123.566C110.454 123.124 106.593 127.988 104.849 129.964Z" fill="#005EBD"/>
<path d="M120.972 172.775C121.401 173.258 126.134 166.225 126.494 165.589C127.477 163.834 128.431 162.024 128.957 160.089C129.483 158.154 129.58 156.026 128.86 154.147" stroke="#0080FF" stroke-width="0.5" stroke-miterlimit="10"/>
<path d="M120.501 155.957C120.986 158.845 121.096 161.789 120.833 164.704" stroke="#0080FF" stroke-width="0.5" stroke-miterlimit="10"/>
<path d="M123.74 173.562C127.034 171.959 129.801 169.403 132.085 166.542C134.369 163.682 136.223 160.504 138.064 157.325" stroke="#0080FF" stroke-width="0.5" stroke-miterlimit="10"/>
<path d="M85.5286 217.395C89.1546 214.866 92.4346 211.84 95.2302 208.413C95.5208 208.067 95.8114 207.694 95.8945 207.252C96.0329 206.561 95.6592 205.884 95.2855 205.276C91.8948 199.68 88.2412 194.138 83.4527 189.661C78.6642 185.184 72.6302 181.798 66.0979 181.218C65.4889 181.163 64.797 181.149 64.3264 181.549C64.0358 181.784 63.8697 182.144 63.7036 182.489C62.6795 184.7 61.6554 186.911 60.6312 189.136C58.7491 193.226 62.4027 193.254 65.226 194.76C68.2707 196.377 71.1216 198.367 73.7096 200.647C78.8856 205.207 82.996 210.983 85.5286 217.395Z" fill="#006BD6"/>
<path d="M235.037 224.595C234.581 227.759 233.806 230.924 232.297 233.743C228.685 240.541 221.336 244.645 213.877 246.539C204.203 248.998 193.048 248.017 185.589 241.412C180.136 236.589 177.34 229.514 174.738 222.715C169.064 207.874 163.376 193.033 157.702 178.192C155.031 171.213 152.346 164.166 151.28 156.773C150.215 149.38 150.879 141.503 154.602 135.036C157.37 130.213 162.241 126.178 167.805 126.109C172.192 126.054 176.233 128.431 179.748 131.07C191.886 140.163 200.646 152.931 209.171 165.465C215.925 175.386 222.416 185.363 228.118 195.935C233.155 205.304 236.601 213.65 235.037 224.595Z" fill="#0066CC"/>
<path d="M177.382 155.584C169.258 158.099 165.466 168.781 162.172 175.649C161.189 177.708 159.529 178.551 157.826 178.537C163.459 193.254 169.092 207.985 174.725 222.701C175.25 224.069 175.79 225.451 176.344 226.819C181.215 211.204 186.211 195.562 187.277 179.283C187.72 172.692 189.561 151.798 177.382 155.584Z" fill="#0059B3"/>
<path d="M140.693 215.17C140.499 217.326 140.859 219.606 142.119 221.361C143.489 223.254 145.731 224.304 147.876 225.258C150.533 226.432 153.246 227.607 156.11 228.077C158.436 228.45 160.802 228.367 163.141 228.035C166.393 227.579 169.922 226.391 171.486 223.517C172.593 221.499 172.497 219.053 172.275 216.773C171.971 213.636 171.459 210.417 169.798 207.75C167.86 204.64 164.47 202.595 160.885 201.835C157.301 201.075 153.536 201.531 150.035 202.664C144.084 204.571 141.261 209.049 140.693 215.17Z" fill="#005DBA"/>
<path d="M150.339 190.932C149.841 191.375 149.551 191.996 149.301 192.604C145.177 202.678 147.198 214.576 142.465 224.373C141.025 227.344 139.019 230.012 137.427 232.913C135.836 235.815 134.645 239.09 135.074 242.365C135.6 246.373 138.659 249.869 142.479 251.196C144.181 251.79 146.063 251.983 147.779 251.444C149.647 250.85 151.156 249.454 152.415 247.948C153.744 246.359 154.879 244.618 155.792 242.752C157.37 239.56 158.27 236.078 159.501 232.734C162.975 223.406 169.12 215.17 171.846 205.594C172.4 203.659 172.801 201.573 172.261 199.638C171.915 198.381 171.182 197.247 170.324 196.266C167.625 193.185 164.165 192.204 160.29 191.582C157.495 191.14 152.789 188.763 150.339 190.932Z" fill="#FFB573"/>
<path d="M172.275 199.638C171.929 198.381 171.196 197.247 170.337 196.266C167.639 193.185 164.179 192.204 160.304 191.582C157.508 191.14 152.803 188.763 150.353 190.932C149.855 191.375 149.564 191.996 149.315 192.604C146.879 198.56 146.575 205.166 145.772 211.591C152.401 209.643 159.639 213.94 161.12 221.997C161.494 224.042 161.577 226.101 161.452 228.146C164.94 220.615 169.59 213.567 171.86 205.58C172.413 203.659 172.815 201.573 172.275 199.638Z" fill="#E5A368"/>
<path d="M186.71 156.966C187.111 163.751 185.741 170.508 184.371 177.169C181.451 191.375 178.503 205.691 172.732 218.984C171.901 215.834 170.822 212.738 169.521 209.74C168.261 206.838 166.642 203.88 163.888 202.305C160.539 200.384 156.318 200.992 152.664 202.236C147.737 203.922 142.811 207.155 141.482 212.172C143.862 193.779 146.243 175.373 148.623 156.98C149.343 151.452 150.062 145.911 151.488 140.522C153.633 132.452 165.383 120.443 174.392 129.481C182.323 137.44 186.032 145.538 186.71 156.966Z" fill="#0066CC"/>
<path d="M141.579 204.226C143.157 201.338 145.703 199.058 148.554 197.427C153.758 194.442 160.166 193.53 165.937 195.161C168.372 195.852 170.725 196.999 172.469 198.837C174.586 201.075 175.624 204.157 175.929 207.211C176.469 212.462 174.974 217.893 171.846 222.135C170.905 217.796 169.936 213.36 167.584 209.588C165.245 205.815 161.231 202.775 156.775 202.83C152.969 202.872 149.551 205.11 146.7 207.611C145.551 208.62 142.229 212.213 140.61 215.06C139.877 210.182 140.818 205.608 141.579 204.226Z" fill="#006BD6"/>
<path d="M146.921 242.379C144.831 240.168 142.188 238.496 139.309 237.529C136.472 236.575 133.04 236.437 130.756 238.372C129.234 239.671 128.514 241.633 127.822 243.499C126.909 246.014 125.968 248.529 124.542 250.795C123.2 252.937 121.442 254.802 119.865 256.792C116.031 261.601 113.097 267.474 113.332 273.623C113.346 274.024 113.388 274.452 113.678 274.743C113.969 275.047 114.426 275.088 114.841 275.116C124.598 275.765 134.396 276.401 144.139 275.668C146.879 275.461 149.924 274.991 151.626 272.836C152.651 271.537 153.024 269.782 154.145 268.552C154.616 268.04 155.197 267.626 155.64 267.101C156.761 265.733 156.802 263.812 156.802 262.043C156.775 256.184 156.747 250.325 156.706 244.466C156.692 241.84 155.82 241.191 153.107 240.845C152.028 240.707 150.921 240.762 149.869 241.025C149.052 241.218 147.613 242.379 146.921 242.379Z" fill="#E5BFA1"/>
<path d="M114.841 265.36C113.817 268.013 113.235 270.777 113.346 273.623C113.36 274.024 113.402 274.452 113.692 274.742C113.983 275.046 114.44 275.088 114.855 275.116C124.612 275.765 134.41 276.401 144.153 275.668C146.893 275.461 149.938 274.991 151.64 272.836C152.664 271.537 153.038 269.782 154.159 268.552C154.63 268.04 155.211 267.626 155.654 267.101C156.775 265.733 156.816 263.812 156.816 262.043C156.816 261.117 156.802 260.205 156.802 259.279C147.364 269.961 128.625 270.086 114.841 265.36Z" fill="#7F5B4E"/>
<path d="M125.746 253.932C129.262 252.412 133.317 252.177 136.984 253.268" stroke="white" stroke-miterlimit="10"/>
<path d="M127.629 250.38C131.518 248.874 136.043 249.081 139.78 250.933" stroke="white" stroke-miterlimit="10"/>
<path d="M129.871 246.414C133.469 245.088 137.621 245.336 141.025 247.078C140.873 246.995 140.707 246.912 140.555 246.829" stroke="white" stroke-miterlimit="10"/>
<path d="M130.646 242.683C134.299 240.818 138.908 240.97 142.437 243.056" stroke="white" stroke-miterlimit="10"/>
<path d="M170.919 84.0312C171.265 84.1971 171.652 83.9621 171.985 83.7549C173.258 82.9672 174.808 82.6494 176.289 82.8705" stroke="#FFE1DD" stroke-miterlimit="10"/>
<path d="M178.226 62.2807C177.05 63.6626 176.372 65.4175 175.929 67.1725C174.697 71.9399 174.891 76.9837 175.818 81.8203C176.759 86.6568 178.434 91.3137 180.164 95.9153C180.828 97.6841 181.52 99.4805 182.516 101.083C183.43 102.562 184.592 103.889 185.949 104.967C186.987 105.809 188.177 106.514 189.478 106.804C190.737 107.081 192.052 106.956 193.325 106.749C199.83 105.657 206.224 101.788 208.618 95.6528C209.462 93.497 209.78 91.1755 209.891 88.8678C210.168 83.4923 209.365 78.034 207.331 73.0454C205.407 68.3056 202.293 63.9389 198.003 61.1614C192.301 57.458 183.084 56.6012 178.226 62.2807Z" fill="#FFB573"/>
<path d="M175.444 80.6595C176.925 79.098 179.167 78.2965 181.298 78.5591" stroke="#36323C" stroke-miterlimit="10"/>
<path d="M186.308 77.6332C189.284 75.3117 193.159 74.1786 196.909 74.524" stroke="#36323C" stroke-miterlimit="10"/>
<path d="M176.911 83.4508C178.392 83.3541 179.859 82.9672 181.188 82.3177" stroke="#36323C" stroke-width="0.5" stroke-miterlimit="10"/>
<path d="M188.384 80.9635C188.343 81.1155 188.592 81.157 188.744 81.1293C191.111 80.5489 193.45 79.8442 195.747 79.0151" stroke="#36323C" stroke-width="0.5" stroke-miterlimit="10"/>
<path d="M182.101 81.1017C182.253 83.9207 182.157 86.7535 181.797 89.5587C181.755 89.9042 181.741 90.3187 182.018 90.5122C182.198 90.6366 182.447 90.6089 182.655 90.5951C183.513 90.526 184.399 90.6504 185.201 90.9544" stroke="#D35A57" stroke-width="0.25" stroke-miterlimit="10"/>
<path d="M187.25 89.1027C187.817 89.3652 188.398 89.5863 188.993 89.766" stroke="#D35A57" stroke-width="0.25" stroke-miterlimit="10"/>
<path d="M182.655 97.5735C184.094 97.0346 185.713 97.1451 187.18 96.6891C188.523 96.2884 189.685 95.4455 190.82 94.6302C191.457 94.1741 192.093 93.7043 192.73 93.2483" stroke="#D35A57" stroke-width="0.25" stroke-miterlimit="10"/>
<path d="M188.896 100.185C189.367 99.674 190.211 99.5634 190.806 99.9365" stroke="#D35A57" stroke-width="0.25" stroke-miterlimit="10"/>
<path d="M197.339 75.9197C200.854 75.6572 204.355 75.3808 207.871 75.1182C208.742 75.0491 209.725 75.0353 210.334 75.6572" stroke="#FFE1DD" stroke-miterlimit="10"/>
<path d="M206.929 81.5715C205.227 81.1984 204.009 79.6507 203.373 78.0339C202.736 76.4172 202.542 74.6622 202.016 73.004C201.878 72.5618 201.698 72.0919 201.324 71.8017C200.715 71.3181 199.844 71.4563 199.069 71.3457C197.643 71.1384 196.536 69.9777 195.802 68.734C195.069 67.4903 194.585 66.1084 193.768 64.92C193.034 63.856 192.024 62.9854 190.931 62.2807C189.741 61.5207 188.246 60.9265 186.931 61.4516C186.046 61.797 185.423 62.5847 184.897 63.3724C183.444 65.5557 182.475 68.0569 182.074 70.641C182.004 71.1108 181.935 71.5944 181.686 71.9952C181.091 72.9349 179.79 72.9901 178.697 73.156C177.603 73.3356 176.316 74.1233 176.579 75.2011C176.69 75.6571 177.091 76.127 176.856 76.5554C176.759 76.7212 176.593 76.8179 176.427 76.9146C174.531 77.951 172.317 78.5452 170.172 78.1998C168.026 77.8543 166.006 76.4724 165.217 74.4549C164.829 73.46 164.816 72.1748 165.632 71.4563C166.407 70.7792 167.597 70.8759 168.483 70.3646C167.348 69.0933 166.31 67.5318 166.435 65.8321C166.601 63.7178 168.857 62.0319 170.933 62.4741C169.992 60.277 171.057 57.4303 173.202 56.3801C174.573 55.703 176.164 55.7306 177.659 55.4681C181.34 54.8324 184.537 52.4971 188.191 51.7647C190.294 51.3501 192.453 51.4745 194.585 51.3225C196.467 51.1843 198.349 50.8388 200.245 50.9217C202.141 51.0047 204.106 51.6127 205.352 53.036C206.431 54.2935 206.819 56.007 206.916 57.6652C206.943 58.0384 206.957 58.4529 207.206 58.7431C207.4 58.978 207.704 59.0886 207.995 59.1991C211.026 60.3599 213.448 62.8611 214.776 65.8044C216.105 68.7478 216.396 72.1196 215.884 75.3117C215.524 77.5779 214.569 80.0238 212.465 80.9911C211.081 81.6268 210.555 80.5075 209.462 80.6595C208.507 80.7839 208.3 81.8755 206.929 81.5715Z" fill="#36323C"/>
<path d="M210.984 74.4688C211.663 74.6899 212.216 75.1735 212.687 75.6986C214.264 77.4951 214.915 80.0792 214.389 82.4145C213.863 84.7499 212.161 86.795 209.96 87.7347C209.241 88.0387 208.452 88.246 207.663 88.1631C204.314 87.8176 203.193 83.1054 203.926 80.3693C204.618 77.7576 207.884 73.4462 210.984 74.4688Z" fill="#FFB573"/>
<path d="M210.459 77.1496C210.389 77.0667 210.32 76.9838 210.237 76.9147C208.217 77.9649 206.819 80.1206 206.708 82.4007" stroke="#D35A57" stroke-width="0.25" stroke-miterlimit="10"/>
<path d="M210.791 79.4987C210.888 79.4158 210.832 79.25 210.722 79.1947C210.611 79.1394 210.486 79.1532 210.362 79.1809C209.587 79.3467 208.839 79.6783 208.175 80.1205" stroke="#D35A57" stroke-width="0.25" stroke-miterlimit="10"/>
<path d="M178.664 85.2243C179.33 85.0839 179.778 84.5403 179.666 84.0102C179.554 83.48 178.923 83.164 178.258 83.3044C177.592 83.4448 177.144 83.9884 177.256 84.5186C177.368 85.0487 177.998 85.3647 178.664 85.2243Z" fill="#36323C"/>
<path d="M190.625 83.2562C191.433 83.0858 191.976 82.4211 191.839 81.7715C191.701 81.1218 190.935 80.7333 190.128 80.9037C189.32 81.074 188.777 81.7388 188.914 82.3884C189.052 83.038 189.818 83.4266 190.625 83.2562Z" fill="#36323C"/>
<path d="M177.431 90.7293C180.417 90.2838 182.431 87.2058 181.929 83.8546C181.428 80.5033 178.601 78.1478 175.615 78.5933C172.629 79.0389 170.615 82.1168 171.116 85.4681C171.618 88.8193 174.445 91.1749 177.431 90.7293Z" stroke="#FFE1DD" stroke-miterlimit="10"/>
<path d="M192.724 86.1844C196.209 85.6644 198.559 82.0672 197.973 78.1498C197.386 74.2325 194.086 71.4784 190.601 71.9984C187.116 72.5184 184.767 76.1156 185.353 80.0329C185.939 83.9503 189.239 86.7044 192.724 86.1844Z" stroke="#FFE1DD" stroke-miterlimit="10"/>
<path d="M180.344 80.5213C181.534 79.1671 183.374 78.3932 185.174 78.4761" stroke="#FFE1DD" stroke-miterlimit="10"/>
<path d="M226.083 213.858C226.305 212.6 227.024 211.025 228.284 211.246C228.893 211.356 229.336 211.881 229.695 212.379C235.536 220.338 237.819 230.785 235.854 240.445C235.965 231.988 239.466 223.613 245.403 217.589C245.957 217.022 246.607 216.442 247.41 216.386C249.085 216.276 249.929 218.362 250.109 220.034C250.898 227.096 249.182 234.42 245.348 240.417C247.922 234.765 251.853 229.735 256.696 225.838C257.693 225.037 259.008 224.249 260.184 224.76C261.568 225.368 261.679 227.275 261.485 228.782C260.862 233.646 259.464 238.413 257.319 242.821C259.561 238.013 263.159 233.839 267.588 230.91C268.432 230.343 269.456 229.818 270.425 230.094C272.072 230.578 272.266 232.803 271.975 234.489C271.422 237.805 270.301 241.039 268.681 243.982C271.643 241.218 275.158 239.035 278.95 237.598C280.279 237.1 281.843 236.7 283.061 237.418C284.251 238.109 284.694 239.657 284.5 241.011C284.293 242.365 283.573 243.581 282.867 244.756C290.894 246.622 299.308 243.043 307.488 244.093C307.834 244.134 308.207 244.203 308.47 244.424C309.439 245.24 308.166 246.691 307.003 247.216C298.589 251.016 289.178 251.817 279.961 252.37C264.433 253.296 247.285 255.244 231.744 255.617C221.835 255.852 213.503 254.512 203.594 254.747C200.176 254.83 196.384 254.775 193.865 252.453C194.584 251.306 196.19 251.237 197.546 251.278C202.722 251.417 207.912 251.223 213.06 250.684C216.534 250.325 220.118 249.772 223.066 247.879C219.634 243.747 216.188 239.574 213.545 234.889C210.901 230.205 209.13 224.912 209.296 219.551C209.324 218.68 209.628 217.575 210.486 217.506C210.998 217.464 211.441 217.837 211.815 218.183C215.454 221.596 218.831 225.272 221.918 229.182C224.173 232.043 228.685 236.603 229.031 240.293C225.502 232.098 224.547 222.632 226.083 213.858Z" fill="#8FABFF"/>
<path d="M280.002 268.676C279.075 268.579 277.954 268.317 277.691 267.419C284.126 267.211 290.576 267.018 297.011 266.811C297.385 266.797 297.8 266.769 298.063 266.493C298.298 266.244 298.326 265.857 298.326 265.498C298.326 261.256 297.398 256.267 300.526 253.393C302.256 257.276 303.737 261.269 304.969 265.332C305.329 260.122 307.086 255.01 310.02 250.684C310.366 250.187 310.878 249.62 311.459 249.786C311.944 249.91 312.165 250.477 312.304 250.961C313.245 254.374 313.314 258.008 312.525 261.449C313.452 261.753 314.338 260.772 315.321 260.758C316.677 260.73 315.75 264.033 315.694 265.387C315.653 266.742 316.94 266.7 317.826 267.723C319.653 265.595 321.493 263.48 323.32 261.352C324.247 260.288 325.23 259.169 326.558 258.685C327.887 258.202 329.659 258.589 330.212 259.887C331.015 261.781 328.953 264.296 330.295 265.843C330.766 266.396 331.527 266.59 332.233 266.783C336.122 267.875 339.637 269.975 343 272.214C332.537 272.78 322.476 270.832 312.11 270.611C301.37 270.403 290.686 269.865 280.002 268.676Z" fill="#8FABFF"/>
<path d="M79.3146 235.594C81.3075 243.264 82.0825 251.237 81.5981 259.141C81.7642 255.438 83.2589 251.817 85.7361 249.054C85.9576 252.08 86.179 255.106 86.4004 258.119C87.7152 247.976 89.805 237.93 92.6698 228.105C93.2649 226.046 94.0399 223.821 95.8805 222.715C94.2475 235.677 92.6144 248.653 90.9813 261.615C91.5072 258.768 93.1126 256.129 95.3962 254.346C95.3131 255.286 95.4654 256.239 95.8252 257.124C96.5033 254.484 97.8043 251.997 99.5619 249.91C99.2159 251.361 98.8837 252.923 99.4927 254.291C100.102 255.645 102.081 256.447 103.119 255.369C103.492 257.566 101.084 259.155 99.0083 259.984C87.6183 264.558 74.4292 266.244 62.3196 263.867C67.8969 263.301 75.0658 262.776 77.0034 256.612C77.8891 253.821 77.2802 250.505 77.3632 247.644C77.5016 244.563 80.0204 238.275 79.3146 235.594Z" fill="#8FABFF"/>
</g>
<defs>
<clipPath id="clip0">
<rect width="343" height="276" fill="white"/>
</clipPath>
</defs>
</svg>
