<svg width="332" height="365" viewBox="0 0 332 365" fill="none" xmlns="http://www.w3.org/2000/svg">
<g clip-path="url(#clip0)">
<path opacity="0.1" d="M-346.435 274.807C-366.073 241.467 -372.768 150.664 -289.079 133.771C-210.377 117.883 -302.205 61.9528 -194.512 17.6267C-155.179 1.43733 -88.0399 32.1354 -54.7519 19.7391C0.664856 -0.899559 76.8852 -14.5525 123.054 27.0894C178.081 76.7186 230.448 -1.24684 290.044 47.895C332.725 83.0903 310.111 120.728 300.482 148.044C293.744 167.159 302.797 185.912 316.824 201.347C339.445 226.239 326.256 257.133 311.803 283C311.801 282.998 -346.435 274.807 -346.435 274.807Z" fill="#0066CC"/>
<path d="M126.487 240.845C126.487 240.845 129.338 242.061 132.928 243.493C137.058 236.18 171.742 193.096 212.402 186.384C199.121 184.613 185.335 185.817 172.896 190.932C170.415 191.943 168.014 193.088 165.719 194.339L162.548 201.689L159.651 198.041C144.745 208.135 132.854 224.301 126.487 240.845Z" fill="#7D9EFF"/>
<path d="M130.595 231.691C130.438 231.992 130.289 232.285 130.142 232.574C130.287 232.283 130.438 231.992 130.595 231.691Z" fill="#3F964F"/>
<path d="M212.402 186.382C209.194 208.646 169.845 244.914 142.497 247.48C139.613 246.569 136.134 244.77 132.928 243.493C137.058 236.178 171.74 193.094 212.402 186.382Z" fill="#8FABFF"/>
<path d="M136.679 244.049C136.679 244.049 138.271 245.841 140.308 248.028C145.608 244.278 184.068 225.619 214.708 234.359C206.008 228.732 195.973 225.021 185.589 224.487C183.522 224.374 181.465 224.382 179.448 224.498L173.985 225.082C160.235 227.214 146.59 234.588 136.679 244.049Z" fill="#7D9EFF"/>
<path d="M142.573 239.006C142.365 239.165 142.164 239.32 141.965 239.474C142.162 239.32 142.365 239.165 142.573 239.006Z" fill="#3F964F"/>
<path d="M214.71 234.361C212.654 236.796 209.315 239.73 205.149 242.731L196.633 240.908L199.523 246.5C185.023 255.55 164.646 263.582 151.041 258.649C149.325 257.057 142.127 249.979 140.309 248.028C145.608 244.28 184.07 225.619 214.71 234.361Z" fill="#8FABFF"/>
<path d="M6.86804 156.566C6.86804 156.566 4.25776 162.661 10.3509 172.429C16.5628 182.384 16.3427 189.787 16.3427 189.787L21.4618 193.322C21.4618 193.322 21.2437 182.117 15.872 174.356C9.13577 164.653 6.86804 156.566 6.86804 156.566Z" fill="#8FABFF"/>
<path d="M-6.75953 161.2C-6.75953 161.2 -7.13463 166.074 -0.744834 172.161C5.78083 178.356 7.31369 183.791 7.31369 183.791L11.5563 186.533C11.5563 186.533 8.90781 177.385 3.45763 172.64C-3.35317 166.7 -6.75953 161.2 -6.75953 161.2Z" fill="#8FABFF"/>
<path d="M18.2102 166.495C18.2102 166.495 22.7973 169.036 26.7549 180.817C29.9814 190.417 28.2629 195.791 30.278 201.672L23.5456 195.745C22.7399 191.511 25.1952 188.412 22.6921 179.565C20.3516 171.282 18.2102 166.495 18.2102 166.495Z" fill="#8FABFF"/>
<path d="M60.3555 198.992C60.3555 198.992 62.7515 203.677 59.4714 215.653C56.7999 225.425 52.0271 227.177 51.3057 229.443L48.7107 224.914C50.9459 220.956 53.9466 221.095 56.798 212.353C59.4637 204.15 60.3555 198.992 60.3555 198.992Z" fill="#8FABFF"/>
<path d="M28.9709 172.998C28.9709 172.998 32.7906 181.21 34.0211 186.572C35.7855 194.19 33.1638 198.634 34.4077 206.543L39.1996 211.275C39.1996 211.275 42.093 202.543 39.5402 193.232C35.2574 177.608 28.9709 172.998 28.9709 172.998Z" fill="#8FABFF"/>
<path d="M44.1255 175.463C43.7926 180.534 44.2021 185.626 45.3407 190.578C48.9021 205.559 42.0798 217.899 42.0798 217.899L45.5665 220.605C45.5665 220.605 54.5436 211.568 51.2004 199.069C47.6544 185.865 44.1255 175.463 44.1255 175.463Z" fill="#8FABFF"/>
<path d="M23.9859 196.788C23.9859 196.788 20.2696 195.896 5.5858 199.37C-3.82382 201.599 -1.4164 197.686 -10.1313 201.369C-3.21718 201.248 -0.352391 206.005 8.51948 204.441C15.6155 203.184 22.7975 202.485 30.0026 202.353L23.9859 196.788Z" fill="#8FABFF"/>
<path d="M-3.86011 209.533C-3.86011 209.533 2.7651 216.277 15.87 213.933C23.9381 212.51 32.1861 212.426 40.283 213.682L35.5944 207.447C35.5944 207.447 29.7022 204.052 16.3102 207.799C7.10724 210.371 -3.86011 209.533 -3.86011 209.533Z" fill="#8FABFF"/>
<path d="M5.34082 221.258C5.34082 221.258 11.966 228.003 25.0709 225.659C33.139 224.236 41.387 224.152 49.4838 225.408L44.7953 219.173C44.7953 219.173 38.9031 215.777 25.5111 219.525C16.3101 222.095 5.34082 221.258 5.34082 221.258Z" fill="#8FABFF"/>
<path d="M-15.75 186.33C-15.75 186.33 -11.1323 189.705 -2.90532 187.91C5.43645 186.089 11.8339 187.25 11.8339 187.25L9.19493 185.015C9.19493 185.015 5.47088 182.868 -2.99528 185.235C-8.81672 186.859 -15.75 186.33 -15.75 186.33Z" fill="#8FABFF"/>
<path d="M15.8469 190.944C15.8469 190.944 9.27723 190.974 -0.187864 192.828C-6.16239 193.979 -14.5635 191.196 -14.5635 191.196C-14.5635 191.196 -7.46754 199.184 1.40623 196.897C11.5813 194.272 21.9401 194.586 21.9401 194.586L15.8469 190.944Z" fill="#8FABFF"/>
<path d="M9.9317 185.946C9.9317 185.946 3.63758 178.042 -5.60551 177.322C-11.0806 176.849 -16.437 175.465 -21.4565 173.224C-21.4565 173.224 -15.5165 181.441 -6.9623 181.187C0.935469 180.974 6.91957 185.57 6.91957 185.57L9.9317 185.946Z" fill="#8FABFF"/>
<path d="M50.5899 229.673L51.8912 228.96C47.4955 220.931 28.8064 195.31 7.48596 183.805L6.78174 185.112C27.8055 196.459 46.2477 221.746 50.5899 229.673Z" fill="#8FABFF"/>
<path d="M329 289C329 318.368 253.721 343.844 143.532 356.497H143.529C134.747 357.506 125.745 358.432 116.54 359.273C116.104 359.313 115.668 359.353 115.23 359.392C114.133 359.491 113.034 359.589 111.932 359.685C106.654 360.149 101.314 360.583 95.9122 360.987C91.38 361.329 86.8041 361.649 82.1893 361.946C80.5783 362.052 78.9628 362.154 77.3427 362.253C76.7093 362.292 76.0759 362.33 75.4425 362.366C74.9078 362.399 74.3755 362.432 73.8408 362.462C72.1036 362.564 70.3595 362.664 68.6109 362.76C41.998 364.223 14.1575 365 -14.5023 365C-204.211 365 -358 330.975 -358 289C-358 247.027 -204.209 213 -14.5023 213C175.209 213 329 247.027 329 289Z" fill="#CAE4FD"/>
<path d="M138.233 293.27C136.105 293.27 134.378 291.542 134.378 289.413V221.069H142.089V289.413C142.087 291.542 140.361 293.27 138.233 293.27Z" fill="#6985DB"/>
<path d="M168.919 293.27C166.791 293.27 165.064 291.542 165.064 289.413V221.069H172.775V289.413C172.775 291.542 171.049 293.27 168.919 293.27Z" fill="#6985DB"/>
<path d="M204.986 293.27C202.858 293.27 201.132 291.542 201.132 289.413V221.069H208.842V289.413C208.842 291.542 207.116 293.27 204.986 293.27Z" fill="#6985DB"/>
<path d="M232.036 293.27C229.908 293.27 228.182 291.542 228.182 289.413V221.069H235.892V289.413C235.89 291.542 234.164 293.27 232.036 293.27Z" fill="#6985DB"/>
<path d="M189.383 119.638V200.97C189.383 201.895 188.633 202.646 187.709 202.646H137.316C132.231 202.646 128.111 206.771 128.111 211.857C128.111 216.945 132.233 221.068 137.316 221.068H189.383H198.59C203.675 221.068 207.795 216.943 207.795 211.857V202.646V119.638C207.795 114.55 203.673 110.427 198.59 110.427C193.506 110.425 189.383 114.55 189.383 119.638Z" fill="#95A6DB"/>
<path d="M238.433 110.424H198.59V204.136H238.433V110.424Z" fill="#95A6DB"/>
<path d="M229.227 119.637V200.969C229.227 201.894 228.476 202.644 227.552 202.644H177.159C172.074 202.644 167.954 206.769 167.954 211.855C167.954 216.944 172.076 221.067 177.159 221.067H229.227H238.433C243.518 221.067 247.638 216.942 247.638 211.855V202.644V119.637C247.638 114.549 243.516 110.426 238.433 110.426C233.349 110.424 229.227 114.549 229.227 119.637Z" fill="#6985DB"/>
<path d="M164.649 82.9626C160.642 72.4856 160.891 62.0872 167.979 54.6953C175.163 47.2038 187.443 48.7319 187.443 48.7319C187.445 48.7319 195.638 42.7035 206.708 49.3658C217.781 56.0281 213.915 65.988 219.327 71.6487C222.533 75.0019 233.022 72.7326 234.252 86.4249C234.608 90.3736 230.89 94.2228 227.179 95.6111C220.659 98.0508 213.691 97.3423 211.768 100.728C205.432 111.883 184.822 114.744 179.733 107.817C178.156 105.669 161.844 115.655 158.686 98.7441C157.086 90.1745 168.232 92.325 164.649 82.9626Z" fill="#2C2858"/>
<path d="M192.145 108.02C199.991 119.231 182.414 137.837 168.463 154.191C162.856 158.098 162.276 138.729 162.276 138.729L171.483 124.009C171.483 124.009 183.149 104.918 192.145 108.02Z" fill="#C4204A"/>
<path d="M112.773 246.982L107.42 254.476C107.42 254.476 102.638 260.573 96.939 257.71C91.24 254.847 93.7661 245.686 93.7661 245.686L100.315 237.059L112.773 246.982Z" fill="#F37A50"/>
<path d="M93.9882 244.694C93.9882 244.694 88.2319 244.64 81.9799 242.507C78.4816 241.314 69.338 237.844 67.2847 244.106C66.9785 245.04 67.122 246.348 68.8367 248.338C71.3723 251.278 75.2399 254.512 84.3145 257.325C95.1996 260.699 96.078 262.628 100.236 263.658C104.546 264.725 105.972 258.71 107.639 253.821C106.879 254.853 104.613 257.392 96.5162 255.912C94.0992 255.47 100.998 247.867 93.9882 244.694Z" fill="#2C2858"/>
<path d="M158.112 272.745V277.827C158.112 277.827 157.768 285.571 151.466 286.56C145.166 287.548 141.896 278.624 141.896 278.624L142.127 270.619L158.112 272.745Z" fill="#F37A50"/>
<path d="M192.17 94.3185C192.17 94.3185 193.37 105.32 193.753 109.378L208.555 109.815C204.033 102.808 206.073 82.8323 206.073 82.8323L192.17 94.3185Z" fill="#F37A50"/>
<path d="M191.384 103.184C201.749 102.589 209.539 91.4017 208.783 78.1951C208.026 64.9886 199.011 54.7643 188.645 55.3585C178.28 55.9528 170.49 67.1406 171.246 80.3471C172.003 93.5537 181.018 103.778 191.384 103.184Z" fill="#F37A50"/>
<path d="M177.614 84.4256C177.446 85.4099 176.512 86.0687 175.53 85.9021C174.549 85.7336 173.888 84.799 174.057 83.8166C174.225 82.8323 175.159 82.1717 176.141 82.3421C177.122 82.5087 177.783 83.4432 177.614 84.4256Z" fill="black"/>
<path d="M190.796 81.2333C190.614 82.2981 189.604 83.0124 188.54 82.8304C187.476 82.6485 186.762 81.6374 186.944 80.5726C187.125 79.5079 188.136 78.7936 189.2 78.9755C190.264 79.1575 190.979 80.1686 190.796 81.2333Z" fill="black"/>
<path d="M192.38 79.3432C192.233 79.3183 192.093 79.2436 191.988 79.1249C190.442 77.3823 187.788 77.7499 187.763 77.7538C187.391 77.8093 187.047 77.5527 186.99 77.1831C186.934 76.8116 187.189 76.4669 187.558 76.4094C187.696 76.3884 190.96 75.9173 193.004 78.221C193.253 78.5025 193.228 78.9315 192.947 79.1804C192.786 79.326 192.578 79.3777 192.38 79.3432Z" fill="#2C2858"/>
<path d="M172.342 82.6102C172.269 82.5987 172.199 82.5738 172.132 82.5374C171.802 82.3574 171.68 81.9438 171.86 81.6144C173.255 79.054 175.947 79.1306 176.06 79.1364C176.435 79.1517 176.728 79.4677 176.713 79.843C176.698 80.2165 176.384 80.5094 176.011 80.496C175.923 80.4941 174.036 80.4654 173.054 82.2674C172.91 82.5279 172.62 82.6581 172.342 82.6102Z" fill="#2C2858"/>
<path d="M180.877 85.2395C180.223 86.5015 179.693 87.7577 178.96 88.6022C178.713 88.8857 178.736 89.3223 179.008 89.5827C180.129 90.6609 182.588 91.086 184.064 91.2488C184.28 91.2718 184.36 90.9749 184.163 90.8849C182.492 90.1228 181.668 89.4391 181.287 89.0427C181.097 88.8455 181.019 88.5697 181.067 88.3016C181.176 87.685 181.388 86.4287 181.48 85.4138C181.516 85.0652 181.04 84.9274 180.877 85.2395Z" fill="#DE623C"/>
<path d="M204.134 79.6764C202.335 82.2138 202.557 85.4636 204.632 86.9381C206.706 88.4127 209.847 87.5509 211.645 85.0135C213.444 82.4781 213.222 79.2264 211.148 77.7519C209.073 76.2773 205.933 77.1391 204.134 79.6764Z" fill="#F37A50"/>
<path d="M207.347 85.5095C207.246 85.4923 207.148 85.4521 207.06 85.387C205.797 84.4582 205.305 83.133 205.748 81.8461C206.199 80.5267 207.495 79.596 208.829 79.6324C209.204 79.642 209.5 79.956 209.489 80.3314C209.479 80.7067 209.167 81.0035 208.792 80.9939C208.061 80.9748 207.29 81.5436 207.034 82.2904C206.787 83.0066 207.083 83.719 207.866 84.2954C208.168 84.5176 208.233 84.9427 208.011 85.2453C207.853 85.4578 207.592 85.5516 207.347 85.5095Z" fill="#DE623C"/>
<path d="M191.45 92.369C191.359 91.8749 191.095 91.469 190.647 91.6969C189.508 92.2771 187.61 93.1944 185.73 93.8857C183.851 94.577 181.811 95.1056 180.569 95.4024C180.081 95.5192 180.129 96.0075 180.391 96.4365C181.474 98.2136 184.418 99.5752 187.298 98.5162C190.178 97.4572 191.795 94.2093 191.45 92.369Z" fill="white"/>
<path d="M208.674 77.0356C196.667 78.964 176.983 72.0605 173.843 66.4208C173.894 58.4946 184.691 51.2693 192.417 52.6079C200.144 53.9446 210.819 66.4361 208.674 77.0356Z" fill="#2C2858"/>
<path d="M203.642 199.601L142.494 196.987C142.494 196.987 139.478 181.715 141.746 175.66C144.016 169.605 200.196 170.853 200.196 170.853L203.642 199.601Z" fill="#2C2858"/>
<path d="M221.625 160.39C223.283 164.222 229.739 175.626 229.116 184.871C228.473 194.414 221.744 202.721 210.358 202.539C210.358 202.539 188.895 190.331 193.542 165.325C193.544 165.325 204.779 160.934 221.625 160.39Z" fill="#332E66"/>
<path d="M212.055 204.716L158.192 209.801C158.192 209.801 139.716 201.999 139.821 195.373C139.926 188.747 194.197 170.616 194.197 170.616C226.029 161.326 236.638 200.86 212.055 204.716Z" fill="#332E66"/>
<path d="M139.821 195.373L140.9 271.4C140.9 271.4 154.346 277.071 159.058 271.444C161.281 245.64 171.87 222.782 160.049 207.051C144.219 185.982 139.821 195.373 139.821 195.373Z" fill="#332E66"/>
<path d="M141.876 175.482L97.054 237.08C97.054 237.08 107.059 250.46 114.044 248.893C126.096 233.633 150.482 215.739 150.639 196.534C150.848 170.811 141.876 175.482 141.876 175.482Z" fill="#2C2858"/>
<path d="M207.014 103.773L191.452 106.161C184.502 115.816 177.459 124.087 177.446 129.729C177.429 137.155 193.155 169.59 193.155 169.59C206.555 171.357 217.471 169.66 225.746 164.287C219.283 145.999 233.157 122.961 221.185 110.623C218.2 107.542 209.194 107.614 207.014 103.773Z" fill="#E62552"/>
<path d="M141.501 277.685C141.501 277.685 136.788 280.991 130.461 282.896C126.923 283.963 117.467 286.462 119.436 292.749C119.731 293.687 120.608 294.668 123.16 295.288C126.93 296.204 131.958 296.583 140.975 293.591C151.791 290.001 153.626 291.06 157.607 289.476C161.733 287.835 159.396 282.111 157.911 277.167C157.892 278.448 157.524 281.833 150.078 285.34C147.855 286.387 149.047 276.188 141.501 277.685Z" fill="#2C2858"/>
<path d="M180.47 132.486C175.09 128.361 167.112 125.252 158.411 128.664C136.845 137.123 141.807 163.676 157.907 170.721C159.517 171.426 161.162 171.924 162.818 172.23C167.235 173.046 171.127 175.564 173.64 179.291C176.571 183.642 180.749 187.229 185.935 189.454C199.999 195.482 210.421 187.196 216.744 173.255C223.275 158.86 222.818 143.842 208.388 137.529C203.206 135.261 197.714 134.671 192.518 135.524C188.253 136.223 183.901 135.118 180.47 132.486Z" fill="#0059B3"/>
<path d="M165.064 140.001L157.986 156.673L96.6672 126.663L100.916 116.661L165.064 140.001Z" fill="#00468C"/>
<path d="M110.163 116.418L111.535 119.372C111.883 120.123 111.896 120.987 111.573 121.749L107.621 131.06C107.279 131.866 106.594 132.475 105.755 132.722L102.827 133.582C102.073 133.804 101.26 133.712 100.573 133.327L79.712 121.632C78.4107 120.903 77.8671 119.309 78.4508 117.936L81.8361 109.966C82.4122 108.608 83.9087 107.892 85.3267 108.296L108.314 114.834C109.129 115.068 109.805 115.646 110.163 116.418Z" fill="#0059B2"/>
<path d="M178.858 143.913C184.085 146.135 186.421 152.408 184.079 157.927C181.736 163.444 175.601 166.116 170.375 163.894C165.149 161.673 162.812 155.397 165.154 149.88C167.497 144.361 173.632 141.69 178.858 143.913Z" fill="#003973"/>
<path d="M98.0509 130.123L96.2004 133.024C95.6358 133.909 94.1757 134.085 92.9394 133.421C91.7032 132.754 91.1578 131.498 91.7223 130.614L93.5729 127.712C94.1374 126.828 95.5976 126.651 96.8338 127.316C98.0701 127.98 98.6155 129.239 98.0509 130.123Z" fill="#0059B2"/>
<path d="M89.3627 124.957L87.5121 127.858C86.9476 128.743 85.4874 128.921 84.2512 128.254C83.0149 127.588 82.4695 126.332 83.0341 125.447L84.8846 122.546C85.4491 121.661 86.9093 121.483 88.1455 122.149C89.3818 122.816 89.9272 124.072 89.3627 124.957Z" fill="#0059B2"/>
<path d="M104.343 115.307L105.145 111.96C105.39 110.939 104.504 109.763 103.166 109.336C101.829 108.907 100.546 109.386 100.302 110.406L99.4997 113.754C99.2547 114.775 100.141 115.948 101.478 116.377C102.816 116.808 104.098 116.328 104.343 115.307Z" fill="#0059B2"/>
<path d="M94.5948 112.634L95.3966 109.286C95.6415 108.265 94.7555 107.09 93.4178 106.661C92.0801 106.232 90.798 106.71 90.553 107.731L89.7511 111.079C89.5062 112.099 90.3922 113.275 91.7299 113.704C93.0676 114.135 94.3517 113.654 94.5948 112.634Z" fill="#0059B2"/>
<path d="M199.784 159.649C199.652 159.959 199.295 160.103 198.986 159.972L91.4946 114.267C91.1846 114.135 91.0411 113.777 91.1731 113.468C91.3051 113.158 91.663 113.015 91.9711 113.147L199.463 158.852C199.771 158.982 199.917 159.339 199.784 159.649Z" fill="#0080FF"/>
<path d="M197.823 164.268C197.691 164.578 197.333 164.722 197.025 164.591L89.533 118.886C89.223 118.754 89.0795 118.396 89.2096 118.088C89.3416 117.777 89.6995 117.634 90.0076 117.766L197.499 163.471C197.809 163.599 197.955 163.957 197.823 164.268Z" fill="#0080FF"/>
<path d="M195.861 168.887C195.729 169.197 195.371 169.341 195.063 169.208L87.5715 123.503C87.2615 123.371 87.118 123.013 87.25 122.703C87.382 122.392 87.7399 122.249 88.048 122.381L195.54 168.086C195.85 168.218 195.993 168.576 195.861 168.887Z" fill="#0080FF"/>
<path d="M209.406 153.544L198.506 179.212C194.908 177.682 193.23 173.523 194.759 169.923L200.121 157.293C201.652 153.691 205.809 152.014 209.406 153.544Z" fill="#00468C"/>
<path d="M219.205 109.638C232.587 112.469 232.44 138.071 233.404 159.553C231.973 166.238 218.334 152.483 218.334 152.483L215.016 135.437C215.018 135.437 210.515 113.518 219.205 109.638Z" fill="#C4204A"/>
<path d="M161.599 153.944C165.246 154.923 170.865 155.867 171.236 153.94C171.833 150.847 168.967 150.602 169.122 148.243C169.259 146.152 174.788 147.05 178.637 155.351L180.116 155.219L181.674 163.423L180.192 163.322C175.448 167.414 163.578 167.311 157.195 162.431C150.735 157.491 156.732 152.64 161.599 153.944Z" fill="#F37A50"/>
<path d="M122.102 142.274C122.031 142.004 121.934 141.856 121.986 141.613C121.986 141.613 121.863 141.588 121.838 141.709C119.607 142.645 117.192 142.014 116.642 140.37C116.572 140.1 116.501 139.83 116.428 139.562C114.888 139.624 113.5 138.951 113.093 137.846C112.924 137.429 112.905 136.916 113.006 136.427C111.441 136.611 110.052 135.939 109.453 134.539C108.781 132.871 109.824 130.922 111.761 130.179C113.697 129.436 115.722 130.114 116.417 131.659C116.585 132.077 116.631 132.467 116.528 132.956C118.562 132.36 120.585 133.038 121.184 134.436C121.255 134.706 121.325 134.976 121.398 135.244C122.939 135.183 124.326 135.855 124.734 136.96C124.902 137.377 124.921 137.89 124.845 138.256C126.167 138.023 127.554 138.695 127.962 139.798C128.561 141.198 127.596 142.78 126.05 143.477C124.508 144.177 122.728 143.551 122.102 142.274Z" fill="#F37A50"/>
<path d="M179.714 155.112C179.714 155.112 215.094 150.706 219.735 151.581C224.376 152.456 233.617 154.773 233.347 159.235C233.079 163.695 222.961 169.021 213.885 168.387C204.808 167.753 180.921 163.927 180.921 163.927L179.714 155.112Z" fill="#C4204A"/>
<path d="M26.6632 37.1558C26.5904 36.5813 26.0699 36.1772 25.4977 36.25C25.0939 36.3017 24.7571 36.5832 24.6347 36.972L19.793 50.8557C19.1979 50.7408 18.5874 50.7389 17.9923 50.85C16.1877 51.1927 14.8902 52.3551 15.1447 53.4563C15.3992 54.5574 16.9838 55.13 18.8075 54.7355C20.6312 54.341 21.9096 53.2303 21.6551 52.1292L25.5111 41.0758C25.8326 41.8801 27.8535 46.8495 27.2201 48.5654C27.0976 49.1188 27.4191 49.6722 27.9587 49.835C28.5137 49.9882 29.0897 49.6588 29.2428 49.1016C29.2428 49.0996 29.2428 49.0977 29.2447 49.0958C30.0179 46.8361 26.9081 38.9846 26.6632 37.1558Z" fill="#2C2858"/>
<path d="M257.64 47.0184L263.278 32.8838C263.452 32.4452 263.314 31.9435 262.939 31.6601L254.532 25.3731L254.278 25.2716L254.142 25.218L254.006 25.1644L253.786 25.0763L253.667 25.0284L253.443 25.0974L253.286 25.1931C253.231 25.2333 253.179 25.2793 253.133 25.3291C253.112 25.3731 253.093 25.4191 253.08 25.465C253.061 25.5033 253.045 25.5436 253.032 25.5838L247.585 39.2396C246.996 39.0979 246.388 39.0692 245.787 39.1554C243.969 39.4177 242.621 40.5227 242.828 41.6353C243.035 42.746 244.591 43.3875 246.432 43.0735C248.271 42.7594 249.597 41.7061 249.39 40.5935L253.271 30.8634L259.944 35.8635L256.063 45.5936C255.474 45.4519 254.865 45.4232 254.264 45.5093C252.446 45.7717 251.099 46.8766 251.306 47.9893C251.512 49.1019 253.068 49.7434 254.909 49.4274C256.75 49.1114 257.795 48.1099 257.64 47.0184Z" fill="#2C2858"/>
<path d="M91.3249 23.5248L84.9886 14.1202C84.7915 13.8292 84.426 13.7028 84.093 13.8158L76.6966 16.3608L76.5263 16.4757L76.4364 16.537L76.3464 16.5983L76.1991 16.6978L76.1206 16.7515L76.0689 16.9181L76.0613 17.054C76.0632 17.1057 76.0689 17.1555 76.0823 17.2053C76.0995 17.2379 76.1206 17.2685 76.1436 17.2953C76.1589 17.324 76.178 17.3489 76.1971 17.3757L82.319 26.4624C81.9861 26.7669 81.7124 27.1308 81.5134 27.5348C80.9125 28.7662 81.0273 30.0607 81.7985 30.3997C82.5697 30.7386 83.6165 30.0473 84.1964 28.7834C84.7743 27.5176 84.6825 26.2575 83.9113 25.9186L79.5499 19.4439L85.4269 17.4274L89.7882 23.9021C89.4552 24.2065 89.1816 24.5704 88.9825 24.9745C88.3816 26.2058 88.4965 27.5003 89.2677 27.8393C90.0389 28.1783 91.0857 27.4869 91.6655 26.223C92.2397 24.9553 92.0617 23.8867 91.3249 23.5248Z" fill="#BACCFF"/>
<path d="M33.0167 357.861C30.3107 346.788 34.0329 335.572 44.183 324.21C45.5016 339.4 41.7814 350.616 33.0167 357.861Z" fill="#8FABFF"/>
<path d="M49.3825 343.127C48.4716 332.776 53.3707 323.186 64.0817 314.356C63.1822 328.23 58.2831 337.818 49.3825 343.127Z" fill="#8FABFF"/>
<path d="M66.5178 328.946C67.1072 319.094 73.0493 310.765 84.3458 303.965C81.5862 316.884 75.6423 325.21 66.5178 328.946Z" fill="#8FABFF"/>
<path d="M103.796 300.189C99.2303 310.38 92.8425 316.225 84.6289 317.72C86.8737 309.653 93.2615 303.808 103.796 300.189Z" fill="#8FABFF"/>
<path d="M118.806 302.276C113.533 309.993 107.41 313.86 100.436 313.873C103.463 307.575 109.587 303.708 118.806 302.276Z" fill="#8FABFF"/>
<path d="M106.891 317.313C111.966 312.514 119.068 311.095 128.198 313.057C120.507 318.373 113.405 319.793 106.891 317.313Z" fill="#8FABFF"/>
<path d="M64.8184 336.244C73.8758 333.745 83.2146 336.558 92.8347 344.684C80.3518 346.133 71.013 343.32 64.8184 336.244Z" fill="#8FABFF"/>
<path d="M102.637 335.463C91.7709 336.735 83.6454 334.287 78.2603 328.123C86.1389 325.942 94.2644 328.387 102.637 335.463Z" fill="#8FABFF"/>
<path d="M93.3113 322.598C101.19 320.436 109.315 322.883 117.688 329.938C106.818 331.206 98.6926 328.76 93.3113 322.598Z" fill="#8FABFF"/>
<path d="M49.2466 348.238C58.4763 343.569 69.1738 344.559 81.341 351.21C68.1768 355.528 57.4793 354.538 49.2466 348.238Z" fill="#8FABFF"/>
<path d="M37.0068 359.194C45.6988 353.585 56.4403 353.451 69.2352 358.791C56.5953 364.462 45.8538 364.598 37.0068 359.194Z" fill="#8FABFF"/>
<path d="M104.407 317.97C104.407 318.172 104.323 318.368 104.173 318.506L103.854 318.801C103.659 318.887 103.448 318.935 103.236 318.938L103.197 319.027L102.732 319.009C97.5405 319.379 90.5326 321.685 81.7086 325.924C73.9792 329.542 66.6708 333.996 59.9098 339.207C56.4881 341.79 53.2004 344.55 50.0619 347.472L49.2467 348.238C43.3085 353.824 40.4744 355.99 37.1216 359.351C36.2068 359.45 35.2902 359.548 34.3716 359.644C38.863 354.835 41.745 352.843 48.8831 346.208C52.1804 343.138 55.491 340.312 58.8151 337.728C65.6929 332.523 73.1142 328.079 80.9489 324.475C90.0446 320.065 97.2535 317.726 102.574 317.464L103.199 317.177C103.343 317.029 103.572 317.006 103.743 317.123C103.946 317.123 104.139 317.207 104.279 317.355C104.369 317.548 104.413 317.759 104.407 317.97Z" fill="#8FABFF"/>
<path d="M2.60635 362.417C1.1577 362.518 -0.296696 362.618 -1.75491 362.713C-6.07407 356.936 -7.72746 349.136 -6.71321 339.312C0.0841413 347.162 3.19002 354.864 2.60635 362.417Z" fill="#8FABFF"/>
<path d="M3.89423 346.995C-1.86025 340.417 -3.28977 331.466 -0.394343 320.149C5.89598 330.009 7.32549 338.958 3.89423 346.995Z" fill="#8FABFF"/>
<path d="M9.52055 305.658C12.9767 314.925 12.5824 322.587 8.33407 328.642C4.73252 322.159 5.12865 314.498 9.52055 305.658Z" fill="#8FABFF"/>
<path d="M20.2813 297.63C21.7548 305.779 20.2966 312.027 15.9105 316.376C13.9011 310.522 15.3593 304.273 20.2813 297.63Z" fill="#8FABFF"/>
<path d="M22.1145 314.528C22.3307 308.343 25.9266 303.027 32.902 298.582C31.3595 306.721 27.7637 312.037 22.1145 314.528Z" fill="#8FABFF"/>
<path d="M7.35986 352.652C11.5183 345.438 19.1539 341.398 30.2686 340.532C23.299 349.218 15.6614 353.257 7.35986 352.652Z" fill="#8FABFF"/>
<path d="M30.7164 328.619C24.6558 336.183 18.0114 339.699 10.7834 339.165C14.3965 332.885 21.0389 329.369 30.7164 328.619Z" fill="#8FABFF"/>
<path d="M16.8384 326.313C20.461 320.047 27.1053 316.531 36.7714 315.767C30.7069 323.333 24.0626 326.849 16.8384 326.313Z" fill="#8FABFF"/>
<path d="M21.1251 317.357C21.0562 317.533 20.9529 317.692 20.8209 317.828L20.8515 317.908L20.5472 318.186C17.5044 321.65 14.5191 327.466 11.5912 335.632C8.96941 342.725 7.12844 350.082 6.10653 357.576C5.88072 359.115 5.68743 360.661 5.52668 362.208C4.9985 362.246 4.47032 362.285 3.94214 362.321C4.09523 360.626 4.28087 358.962 4.49711 357.325C5.59748 349.762 7.51308 342.342 10.2114 335.191C13.2044 326.748 16.2969 320.788 19.487 317.311L19.7033 316.74C19.7013 316.556 19.8334 316.399 20.0133 316.367C20.1396 316.24 20.3156 316.173 20.4936 316.181C20.6716 316.246 20.8304 316.351 20.9587 316.489C21.085 316.617 21.1519 316.792 21.1443 316.972L21.1251 317.357Z" fill="#8FABFF"/>
<path d="M27.0786 351.804C25.2434 355.371 23.2206 358.418 21.0122 360.944C17.2327 361.285 13.4168 361.605 9.56836 361.901C13.4876 357.39 19.3243 354.023 27.0786 351.804Z" fill="#8FABFF"/>
</g>
<defs>
<clipPath id="clip0">
<rect width="688" height="365" fill="white" transform="translate(-356)"/>
</clipPath>
</defs>
</svg>
