<svg width="343" height="238" viewBox="0 0 343 238" fill="none" xmlns="http://www.w3.org/2000/svg">
<path opacity="0.1" d="M5.99473 185.109C-3.37437 169.276 -6.56851 126.152 33.3587 118.129C70.9069 110.584 27.0967 84.0221 78.476 62.9711C97.2414 55.2826 129.273 69.8615 145.155 63.9743C171.593 54.1728 207.958 47.6888 229.985 67.465C256.237 91.0345 281.221 54.0078 309.654 77.3459C330.017 94.0606 319.228 111.935 314.634 124.908C311.419 133.986 315.739 142.892 322.431 150.222C333.223 162.044 326.931 176.715 320.035 189C320.034 188.999 5.99473 185.109 5.99473 185.109Z" fill="#0066CC"/>
<path d="M257.157 100.496C257.157 100.496 255.323 104.763 259.605 111.601C263.971 118.569 263.817 123.751 263.817 123.751L267.415 126.225C267.415 126.225 267.261 118.382 263.486 112.949C258.751 106.157 257.157 100.496 257.157 100.496Z" fill="#8FABFF"/>
<path d="M247.579 103.74C247.579 103.74 247.315 107.152 251.806 111.413C256.393 115.749 257.47 119.554 257.47 119.554L260.452 121.473C260.452 121.473 258.591 115.07 254.76 111.748C249.973 107.59 247.579 103.74 247.579 103.74Z" fill="#8FABFF"/>
<path d="M265.129 107.446C265.129 107.446 268.354 109.225 271.135 117.472C273.403 124.192 272.195 127.953 273.611 132.07L268.879 127.921C268.313 124.957 270.039 122.788 268.28 116.595C266.635 110.798 265.129 107.446 265.129 107.446Z" fill="#8FABFF"/>
<path d="M294.752 130.195C294.752 130.195 296.436 133.474 294.131 141.857C292.253 148.698 288.898 149.924 288.391 151.51L286.567 148.34C288.138 145.569 290.247 145.667 292.251 139.547C294.125 133.805 294.752 130.195 294.752 130.195Z" fill="#8FABFF"/>
<path d="M272.693 111.999C272.693 111.999 275.378 117.747 276.242 121.5C277.483 126.833 275.64 129.944 276.514 135.48L279.882 138.793C279.882 138.793 281.916 132.68 280.122 126.162C277.111 115.225 272.693 111.999 272.693 111.999Z" fill="#8FABFF"/>
<path d="M283.344 113.724C283.11 117.274 283.398 120.838 284.198 124.305C286.702 134.791 281.906 143.43 281.906 143.43L284.357 145.324C284.357 145.324 290.667 138.998 288.317 130.248C285.825 121.006 283.344 113.724 283.344 113.724Z" fill="#8FABFF"/>
<path d="M269.189 128.652C269.189 128.652 266.577 128.027 256.256 130.459C249.642 132.019 251.334 129.28 245.209 131.858C250.069 131.774 252.082 135.104 258.318 134.008C263.306 133.129 268.354 132.64 273.418 132.547L269.189 128.652Z" fill="#8FABFF"/>
<path d="M249.617 137.573C249.617 137.573 254.273 142.294 263.484 140.653C269.155 139.657 274.953 139.598 280.644 140.478L277.348 136.113C277.348 136.113 273.207 133.736 263.794 136.36C257.325 138.16 249.617 137.573 249.617 137.573Z" fill="#8FABFF"/>
<path d="M256.084 145.781C256.084 145.781 260.74 150.502 269.951 148.861C275.622 147.865 281.42 147.806 287.111 148.686L283.815 144.321C283.815 144.321 279.674 141.944 270.261 144.568C263.794 146.366 256.084 145.781 256.084 145.781Z" fill="#8FABFF"/>
<path d="M241.26 121.331C241.26 121.331 244.505 123.693 250.288 122.437C256.151 121.162 260.648 121.975 260.648 121.975L258.793 120.41C258.793 120.41 256.175 118.908 250.225 120.565C246.133 121.701 241.26 121.331 241.26 121.331Z" fill="#8FABFF"/>
<path d="M263.468 124.561C263.468 124.561 258.851 124.582 252.198 125.88C247.999 126.685 242.094 124.738 242.094 124.738C242.094 124.738 247.081 130.329 253.318 128.728C260.47 126.89 267.751 127.11 267.751 127.11L263.468 124.561Z" fill="#8FABFF"/>
<path d="M259.311 121.062C259.311 121.062 254.887 115.53 248.39 115.026C244.542 114.694 240.777 113.725 237.249 112.157C237.249 112.157 241.424 117.909 247.436 117.731C252.987 117.582 257.193 120.799 257.193 120.799L259.311 121.062Z" fill="#8FABFF"/>
<path d="M287.888 151.671L288.803 151.172C285.713 145.551 272.577 127.617 257.592 119.563L257.097 120.479C271.874 128.421 284.836 146.123 287.888 151.671Z" fill="#8FABFF"/>
<path d="M183.878 111.233C181.687 105.405 182.986 99.0816 187.776 92.2652C189.479 100.417 188.179 106.739 183.878 111.233Z" fill="#8FABFF"/>
<path d="M191.832 102.186C190.666 96.6326 192.712 91.1164 197.971 85.6365C198.38 93.217 196.334 98.7331 191.832 102.186Z" fill="#8FABFF"/>
<path d="M200.243 93.3899C199.926 88.0091 202.621 83.1096 208.331 78.6926C207.665 85.8764 204.969 90.7746 200.243 93.3899Z" fill="#8FABFF"/>
<path d="M218.676 75.3883C216.851 81.2088 213.75 84.7906 209.376 86.1324C210.076 81.6136 213.175 78.0318 218.676 75.3883Z" fill="#8FABFF"/>
<path d="M226.983 75.5505C224.612 80.0761 221.529 82.568 217.735 83.0265C218.973 79.4139 222.056 76.9219 226.983 75.5505Z" fill="#8FABFF"/>
<path d="M221.47 84.4729C223.922 81.5426 227.697 80.3147 232.794 80.7892C228.952 84.1686 225.177 85.3965 221.47 84.4729Z" fill="#8FABFF"/>
<path d="M204.46 109.551C197.429 114.18 190.995 115.308 185.157 112.938C189.823 108.739 196.258 107.609 204.46 109.551Z" fill="#8FABFF"/>
<path d="M199.791 97.457C204.561 95.5173 209.828 96.4382 215.592 100.222C208.888 101.815 203.622 100.893 199.791 97.457Z" fill="#8FABFF"/>
<path d="M220.331 94.5896C214.497 95.9811 209.914 95.1795 206.583 92.1848C210.731 90.4931 215.313 91.2947 220.331 94.5896Z" fill="#8FABFF"/>
<path d="M214.419 88.2155C218.569 86.5345 223.151 87.3362 228.167 90.6204C222.331 92.0118 217.748 91.2102 214.419 88.2155Z" fill="#8FABFF"/>
<path d="M178.145 122.366C185.837 109.602 185.846 110.835 191.761 103.89C193.358 102.012 194.977 100.265 196.62 98.65C200.027 95.3832 203.779 92.4944 207.811 90.0333C212.478 87.0533 216.251 85.3201 219.129 84.8348L219.451 84.6391C219.519 84.5493 219.643 84.5225 219.744 84.5747C219.854 84.5613 219.966 84.5949 220.051 84.6659C220.113 84.7638 220.15 84.8764 220.161 84.9916C220.174 85.1016 220.141 85.2128 220.07 85.2973L219.914 85.4782C219.813 85.5372 219.701 85.5761 219.585 85.5922L219.571 85.6431L219.316 85.6632C216.513 86.1994 212.848 87.9019 208.318 90.7719C204.344 93.233 200.653 96.1205 197.311 99.3832C195.615 101.005 194.003 102.713 192.485 104.501L192.091 104.969C196.812 101.842 202.701 101.688 209.756 104.508C202.869 107.7 196.98 107.854 192.091 104.969C186.32 111.826 186.482 110.39 178.987 122.837L178.145 122.366Z" fill="#8FABFF"/>
<path d="M219.336 122.632L209.143 121.806L215.334 126.485C215.334 126.485 207.745 141.254 184.52 143.802C182.055 143.069 178.805 141.89 176.061 140.852C172.986 139.687 170.546 138.697 170.546 138.697C170.546 138.697 172.733 101.827 227.506 108.036C223.858 117.039 219.336 122.632 219.336 122.632Z" fill="#8FABFF"/>
<path d="M227.507 108.035C193.014 114.279 179.474 134.598 176.062 140.852C172.987 139.687 170.547 138.697 170.547 138.697C170.547 138.697 168.407 128.168 177.198 119.343C184.955 111.556 201.832 105.125 227.507 108.035Z" fill="#7D9EFF"/>
<path d="M166.109 141.881C166.109 141.881 164.258 142.026 161.947 142.153C160.997 137.232 149.528 106.275 127.724 94.7425C135.602 96.268 143.198 99.5723 149.285 104.831C150.499 105.874 151.645 106.98 152.709 108.123L153.107 112.882L155.448 111.371C161.983 119.913 165.65 131.317 166.109 141.881Z" fill="#7D9EFF"/>
<path d="M165.523 135.923C165.554 136.122 165.583 136.317 165.613 136.508C165.585 136.317 165.554 136.122 165.523 135.923Z" fill="#3F964F"/>
<path d="M127.725 94.7425C125.299 107.941 140.719 135.933 155.755 142.586C157.567 142.62 159.884 142.265 161.948 142.152C160.998 137.231 149.529 106.273 127.725 94.7425Z" fill="#8FABFF"/>
<path d="M158.075 141.723C158.075 141.723 156.38 142.689 154.238 143.845C151.116 139.588 126.245 115.27 100.302 114.062C108.485 111.985 117.203 111.728 125.364 114.005C126.991 114.453 128.579 114.992 130.107 115.605L134.177 117.468C144.245 122.67 152.874 131.877 158.075 141.723Z" fill="#7D9EFF"/>
<path d="M154.831 136.318C154.951 136.494 155.066 136.665 155.181 136.834C155.066 136.665 154.951 136.494 154.831 136.318Z" fill="#3F964F"/>
<path d="M100.302 114.063C104.555 124.778 125.882 149.641 143.188 149.239C144.926 148.459 152.325 144.877 154.238 143.846C151.116 139.589 126.244 115.271 100.302 114.063Z" fill="#8FABFF"/>
<path d="M328.24 193.2C328.24 207.266 292.349 219.467 239.815 225.528H239.814C235.627 226.011 231.335 226.455 226.946 226.857C226.738 226.876 226.531 226.895 226.322 226.914C225.799 226.962 225.275 227.008 224.749 227.054C222.233 227.277 219.687 227.484 217.112 227.678C214.951 227.842 212.769 227.995 210.569 228.137C209.801 228.188 209.031 228.237 208.258 228.284C207.956 228.303 207.654 228.321 207.352 228.339C207.098 228.354 206.844 228.37 206.589 228.385C205.761 228.433 204.929 228.481 204.095 228.527C191.407 229.228 178.134 229.6 164.47 229.6C74.0235 229.6 0.702637 213.304 0.702637 193.2C0.702637 173.097 74.0246 156.8 164.47 156.8C254.918 156.8 328.24 173.097 328.24 193.2Z" fill="#CAE4FD"/>
<path d="M87.5128 177.579C95.134 178.699 99.9413 168.158 105.819 174.277C94.2005 186.191 89.4847 191.249 89.4847 191.249C88.0925 189.887 84.4084 185.805 83.366 184.279L87.5128 177.579Z" fill="black"/>
<path d="M94.6188 184.838C102.24 185.958 107.047 175.417 112.925 181.536C101.306 193.45 96.5907 198.508 96.5907 198.508C95.1985 197.146 91.5144 193.064 90.4719 191.537L94.6188 184.838Z" fill="black"/>
<path d="M32.8989 175.406L37.1305 174.348L53.3023 165.183C57.8581 162.601 63.5047 162.524 68.1371 164.978L88.9763 178.536L81.8958 188.023L62.0547 177.273L44.4033 190.537C41.4213 192.777 38.1393 194.588 34.6637 195.939L32.8989 175.406Z" fill="#6985DB"/>
<path d="M13.7183 188.108L14.571 192.87C15.8731 200.137 22.7692 205.248 30.4577 204.645C38.3532 204.025 45.8843 201.2 52.112 196.52L69.7633 183.256L89.6045 194.005L96.6849 184.518L75.8484 170.961C71.2174 168.505 65.5694 168.584 61.0137 171.166L44.8419 180.331L13.7183 188.108Z" fill="#95A6DB"/>
<path d="M57.2876 148.344L54.9082 148.895L53.6331 144.576L56.6823 142.632L57.2876 148.344Z" fill="#DE623C"/>
<path d="M53.6734 143.458L38.4942 148.367C38.4942 148.367 33.4031 149.86 34.0353 158.668C38.2454 160.261 43.089 159.79 55.8228 150.061C54.7104 148.057 53.6734 143.458 53.6734 143.458Z" fill="#0E6A41"/>
<path d="M58.2599 152.312C57.4192 152.325 56.7265 151.657 56.7117 150.82L56.51 138.754C56.4965 137.916 57.1664 137.226 58.007 137.211C58.8477 137.197 59.5404 137.865 59.5552 138.703L59.757 150.769C59.7704 151.607 59.1006 152.297 58.2599 152.312Z" fill="#C4204A"/>
<path d="M62.5373 132.444C62.5453 132.924 62.5077 133.423 62.427 133.927C61.9737 136.793 60.1726 139.756 57.9344 139.71C55.746 139.664 53.9907 136.893 53.4742 134.093C53.3814 133.59 53.3289 133.088 53.3208 132.598C53.3195 132.541 53.3195 132.482 53.3208 132.424C53.3397 129.29 55.3331 126.743 57.8322 126.703C60.3408 126.661 62.4243 129.159 62.5332 132.307C62.5359 132.352 62.5373 132.397 62.5373 132.444Z" fill="#E62552"/>
<path d="M62.5373 132.444C62.5453 132.924 62.5077 133.423 62.427 133.927L61.1707 132.608L60.061 133.976C59.952 134.11 59.7893 134.192 59.6158 134.197H59.6064C59.4369 134.2 59.2728 134.132 59.1585 134.007L57.9062 132.663L56.7615 134.037C56.6499 134.169 56.4871 134.248 56.3136 134.252C56.1415 134.258 55.9747 134.185 55.8576 134.058L54.635 132.719L53.4742 134.094C53.3814 133.592 53.3289 133.089 53.3208 132.6C53.3195 132.542 53.3195 132.483 53.3208 132.425L54.1588 131.431C54.2705 131.298 54.4332 131.222 54.6054 131.218C54.7775 131.216 54.943 131.286 55.06 131.413L56.28 132.75L57.4206 131.38C57.5296 131.248 57.6923 131.169 57.8645 131.165C58.0367 131.16 58.2021 131.23 58.3191 131.356L59.5633 132.695L60.669 131.333C60.7779 131.2 60.938 131.12 61.1102 131.113C61.2823 131.105 61.4491 131.173 61.5675 131.298L62.5319 132.311C62.5359 132.352 62.5373 132.397 62.5373 132.444Z" fill="#F5A3B7"/>
<path d="M58.3138 146.702C58.3958 146.633 58.4308 146.576 58.5236 146.553C58.5236 146.553 58.5128 146.507 58.4658 146.518C57.7744 145.901 57.5942 144.966 58.0717 144.506C58.1537 144.438 58.2344 144.368 58.3165 144.299C58.0407 143.778 58.0448 143.19 58.3595 142.868C58.4765 142.742 58.65 142.651 58.8357 142.605C58.5142 142.096 58.5182 141.506 58.9029 141.069C59.3697 140.563 60.2157 140.602 60.7914 141.149C61.3671 141.695 61.4666 142.505 61.047 142.999C60.9299 143.125 60.8022 143.206 60.6165 143.251C61.1573 143.854 61.2568 144.664 60.8721 145.101C60.7901 145.169 60.7093 145.239 60.6273 145.308C60.903 145.829 60.899 146.417 60.5843 146.739C60.4672 146.865 60.2937 146.956 60.1538 146.991C60.4524 147.408 60.4498 147.998 60.135 148.32C59.7503 148.757 59.0428 148.683 58.5478 148.265C58.0515 147.844 57.9748 147.128 58.3138 146.702Z" fill="#F37A50"/>
<path d="M57.9481 142.151C57.6643 142.887 57.0186 143.324 56.5061 143.128C55.9937 142.931 55.8094 142.175 56.0932 141.439C56.377 140.703 57.0227 140.266 57.5351 140.462C58.0489 140.657 58.2332 141.413 57.9481 142.151Z" fill="#F37A50"/>
<path d="M26.873 133.826L25.7041 139.647L35.8836 142.017L36.2589 135.905L26.873 133.826Z" fill="#F37A50"/>
<path d="M18.1555 125.239C22.106 134.762 35.5782 137.42 38.8978 136.882C46.9131 135.583 49.2831 123.563 45.3327 114.04C41.3822 104.517 33.192 101.71 25.6879 104.803C18.1837 107.895 14.205 115.716 18.1555 125.239Z" fill="#F37A50"/>
<path d="M43.4226 118.323C43.463 119.048 44.0857 119.603 44.8134 119.563C45.5411 119.523 46.098 118.902 46.0576 118.177C46.0173 117.452 45.3945 116.897 44.6668 116.937C43.9378 116.977 43.3809 117.598 43.4226 118.323Z" fill="black"/>
<path d="M34.5855 121.906C35.1585 122.417 36.0395 122.369 36.552 121.796C37.0645 121.225 37.0147 120.349 36.4417 119.837C35.8687 119.326 34.9877 119.376 34.4752 119.947C33.9627 120.519 34.0125 121.396 34.5855 121.906Z" fill="black"/>
<path d="M46.1263 128.416C46.3133 128.101 46.1223 127.654 45.8183 127.697C45.0449 127.806 43.7657 127.951 42.5471 127.935C41.3285 127.919 40.0533 127.738 39.2826 127.609C38.98 127.558 38.7769 127.999 38.9544 128.319C39.5019 129.303 40.6385 130.802 42.5068 130.827C44.3737 130.852 45.5533 129.385 46.1263 128.416Z" fill="white"/>
<path d="M41.8838 121.14C41.8838 121.14 43.9902 122.126 45.1913 122.557C45.9513 123.711 43.9673 125.555 42.5456 125.49C43.5382 124.204 43.5705 123.149 43.5705 123.149L41.8838 121.14Z" fill="#DE623C"/>
<path d="M26.0956 113.846C30.8881 115.776 45.4686 114.964 41.6957 110.696C46.2676 112.555 50.284 110.227 48.4493 107.483C46.6146 104.739 40.1233 101.85 35.2286 103.068C30.6016 100.828 22.9508 99.8807 16.2214 108.009C9.49201 116.138 14.1446 132.518 26.873 133.825C25.9799 132.553 24.3429 130.469 23.8708 128.195C23.3987 125.92 26.4265 125.519 26.4937 122.814L26.0956 113.846Z" fill="black"/>
<path d="M25.6757 121.565C27.7619 122.81 28.6228 125.199 27.6005 126.9C26.5783 128.601 24.0576 128.971 21.9714 127.724C19.8852 126.479 19.0243 124.09 20.0466 122.389C21.0702 120.689 23.5909 120.319 25.6757 121.565Z" fill="#F37A50"/>
<path d="M25.2076 126.733C25.2749 126.689 25.3327 126.63 25.3744 126.557C25.9878 125.498 25.9232 124.4 25.2022 123.619C24.4638 122.821 23.2438 122.562 22.2996 123.006C22.0346 123.13 21.9203 123.447 22.0454 123.711C22.1704 123.976 22.4879 124.089 22.7529 123.964C23.2694 123.721 24.0024 123.885 24.4194 124.338C24.8202 124.772 24.8323 125.373 24.453 126.028C24.3064 126.282 24.3939 126.606 24.6481 126.752C24.8297 126.854 25.0449 126.839 25.2076 126.733Z" fill="#DE623C"/>
<path d="M32.0838 120.032C31.9991 120.032 31.913 120.018 31.8296 119.987C31.4449 119.847 31.2472 119.422 31.3884 119.039C31.9358 117.544 33.1531 116.547 34.6408 116.373C35.047 116.325 35.4155 116.614 35.464 117.02C35.5124 117.425 35.2205 117.792 34.8143 117.841C34.4686 117.881 33.3024 118.123 32.7805 119.547C32.6702 119.847 32.3851 120.032 32.0838 120.032Z" fill="black"/>
<path d="M46.5297 115.814C46.5889 115.759 46.64 115.693 46.679 115.615C46.8565 115.266 46.7166 114.839 46.3669 114.661C44.999 113.968 43.4898 114.062 42.329 114.912C42.0116 115.144 41.9443 115.587 42.177 115.904C42.4097 116.22 42.8549 116.287 43.1724 116.055C43.4414 115.858 44.4206 115.267 45.7226 115.926C45.9957 116.067 46.3172 116.012 46.5297 115.814Z" fill="black"/>
<path d="M13.4881 190.445C11.1396 171.351 11.5727 149.594 25.3543 138.224L36.7592 141.143C39 141.781 40.4716 145.388 40.8441 147.593L41.5369 170.477L45.5371 180.38L13.4881 190.445Z" fill="#3F964F"/>
<path d="M66.9306 159.977C65.9621 159.703 65.3999 158.7 65.6729 157.735L69.6154 143.844C69.8898 142.879 70.8959 142.318 71.8643 142.59C72.8328 142.864 73.395 143.866 73.122 144.832L69.1796 158.723C68.9065 159.688 67.8991 160.249 66.9306 159.977Z" fill="#C4204A"/>
<path d="M78.7039 138.685C78.5479 139.238 78.3314 139.797 78.065 140.345C76.5545 143.472 73.4662 146.249 70.9173 145.425C68.4262 144.621 67.3731 140.845 67.7497 137.459C67.8169 136.85 67.9299 136.256 68.09 135.693C68.1088 135.626 68.129 135.561 68.1505 135.494C69.2575 131.909 72.4211 129.677 75.2982 130.488C78.1861 131.302 79.7087 134.88 78.7456 138.525C78.7349 138.578 78.7201 138.632 78.7039 138.685Z" fill="#E62552"/>
<path d="M78.704 138.685C78.548 139.238 78.3314 139.797 78.0651 140.345L77.0819 138.401L75.3373 139.588C75.1651 139.704 74.9513 139.74 74.7509 139.688L74.7401 139.685C74.5451 139.631 74.381 139.495 74.2922 139.313L73.3237 137.342L71.5375 138.523C71.364 138.637 71.1501 138.672 70.951 138.616C70.752 138.562 70.5865 138.423 70.4964 138.236L69.5575 136.282L67.7524 137.458C67.8197 136.849 67.9327 136.255 68.0927 135.692C68.1116 135.625 68.1318 135.559 68.1533 135.492L69.4567 134.641C69.6302 134.527 69.8427 134.495 70.0418 134.55C70.2395 134.608 70.4049 134.744 70.495 134.929L71.4312 136.88L73.2121 135.702C73.3829 135.589 73.5954 135.554 73.7945 135.609C73.9936 135.663 74.159 135.798 74.2505 135.983L75.2136 137.944L76.9514 136.763C77.1222 136.648 77.3334 136.612 77.5325 136.663C77.7329 136.714 77.901 136.848 77.9938 137.031L78.7484 138.523C78.7349 138.578 78.7202 138.632 78.704 138.685Z" fill="#F5A3B7"/>
<path d="M62.3008 153.859L65.1873 151.84C65.1873 151.84 65.2613 147.514 68.6374 147.236L68.0039 149.66C68.0039 149.66 71.0814 147.834 72.4036 147.271C74.354 146.439 76.4819 152.078 73.1945 154.88C70.842 156.885 70.0793 156.644 67.9339 157.107C66.2015 157.481 65.5128 158.221 65.5128 158.221L62.3008 153.859Z" fill="#F37A50"/>
<path d="M23.486 142.106C17.3726 149.101 24.9642 166.973 41.0499 173.231C45.1927 169.599 44.3211 162.238 44.3211 162.238C44.3211 162.238 43.1792 160.688 37.5312 150.487C31.3668 139.35 26.1828 139.019 23.486 142.106Z" fill="#0E6A41"/>
<path d="M62.883 152.094L45.9082 161.69C45.9082 161.69 38.891 164.034 41.0512 173.23C45.7657 174.205 54.4723 171.122 66.2713 158.706C64.7554 156.778 62.883 152.094 62.883 152.094Z" fill="#0E6A41"/>
<path d="M64.5941 131.412C64.3506 131.412 64.1435 131.226 64.1247 130.979C63.9202 128.322 62.8885 126.472 61.0606 125.48C59.698 124.742 58.3987 124.772 58.3852 124.772C58.1256 124.78 57.9077 124.577 57.8996 124.318C57.8916 124.059 58.096 123.842 58.3556 123.834C58.4162 123.833 64.5093 123.728 65.0635 130.907C65.0837 131.165 64.89 131.39 64.6304 131.411C64.6183 131.411 64.6062 131.412 64.5941 131.412Z" fill="#2C2858"/>
<path d="M65.8209 127.567C65.6111 127.567 65.4201 127.427 65.3649 127.215C64.4207 123.567 61.4683 123.464 61.3418 123.461C61.0822 123.456 60.8751 123.243 60.8805 122.984C60.8845 122.725 61.097 122.522 61.3566 122.523C61.3943 122.523 65.1484 122.622 66.2769 126.98C66.3415 127.231 66.1908 127.487 65.9393 127.551C65.9003 127.563 65.8599 127.567 65.8209 127.567Z" fill="#2C2858"/>
<path d="M80.217 139.281C80.0139 139.147 79.9453 138.877 80.0663 138.661C81.367 136.333 81.5325 134.223 80.5559 132.39C79.8296 131.024 78.728 130.335 78.7172 130.329C78.4966 130.193 78.428 129.904 78.5639 129.683C78.7011 129.463 78.9903 129.394 79.2122 129.531C79.2647 129.563 84.4015 132.827 80.8882 139.118C80.7617 139.345 80.4752 139.427 80.2479 139.301C80.2372 139.293 80.2278 139.287 80.217 139.281Z" fill="#2C2858"/>
<path d="M83.3699 136.751C83.195 136.636 83.113 136.413 83.1856 136.207C84.4177 132.647 82.0127 130.935 81.9105 130.864C81.698 130.716 81.6428 130.425 81.7894 130.212C81.9361 129.999 82.2266 129.945 82.4418 130.089C82.4727 130.11 85.5489 132.256 84.0761 136.513C83.9913 136.758 83.7237 136.888 83.4775 136.803C83.4372 136.79 83.4022 136.773 83.3699 136.751Z" fill="#2C2858"/>
<path d="M215.479 191.866C218.567 186.709 201.17 183.648 194.71 182.978L193.471 186.323C193.471 186.323 210.494 200.192 215.479 191.866Z" fill="#DE623C"/>
<path d="M194.324 180.65C194.616 181.76 194.351 183.347 195.448 183.58L194.786 185.925L193.471 186.323C190.029 185.021 188.239 180.548 188.107 180.095C187.764 178.921 187.531 178.39 187.672 178.265C187.814 178.14 188.824 177.638 189.377 179.329C190.071 181.454 191.529 179.664 188.992 175.579C188.357 174.556 188.483 172.369 189.444 172.962C190.5 173.616 192.996 175.599 194.324 180.65Z" fill="#DE623C"/>
<path d="M225.489 180.045L213.184 179.055L211.997 166.983L222.841 161.226L225.489 180.045Z" fill="#F37A50"/>
<path d="M203.698 163.052C203.805 164.133 203.989 165.131 204.215 166.02C204.835 168.434 205.772 170.066 206.343 170.518C207.635 171.537 210.042 171.875 212.283 171.941C214.968 172.018 217.413 171.705 217.413 171.705C217.413 171.705 221.712 169.882 225.251 167.381C227.273 165.955 229.045 164.306 229.626 162.65C231.783 156.503 228.91 144.417 222.745 142.269C216.579 140.12 209.189 141.246 206.509 147.183C204.055 152.616 203.334 159.364 203.698 163.052Z" fill="#F37A50"/>
<path d="M239.852 158.989C244.569 155.361 243.424 151.511 239.813 148.47C236.201 145.428 236.436 143.212 235.678 139.87C234.958 136.7 228.371 131.293 223.485 134.124C216.199 138.346 216.885 133.004 210.787 135.933C205.287 138.575 204.549 143.836 205.517 146.723C206.46 149.53 211.953 147.01 210.65 149.813C209.635 151.999 212.956 153.224 213.233 155.918C213.442 157.958 214.638 159.194 214.024 160.221C212.825 162.219 210.056 164.805 213.377 169.368C215.27 171.969 217.576 169.95 219.789 172.58C223.991 177.576 227.189 174.445 231.18 172.343C235.171 170.242 238.827 171.711 237.648 165.439C237.604 165.205 236.356 161.676 239.852 158.989Z" fill="black"/>
<path d="M212.759 154.305C210.863 155.682 210.24 158.052 211.371 159.599C212.501 161.145 214.956 161.285 216.852 159.908C218.749 158.532 219.372 156.162 218.24 154.615C217.11 153.068 214.656 152.928 212.759 154.305Z" fill="#F37A50"/>
<path d="M213.656 159.233C213.588 159.196 213.527 159.144 213.48 159.077C212.799 158.112 212.766 157.052 213.391 156.239C214.032 155.407 215.183 155.054 216.128 155.399C216.395 155.497 216.532 155.79 216.434 156.054C216.336 156.318 216.041 156.456 215.776 156.359C215.258 156.17 214.568 156.391 214.206 156.861C213.858 157.313 213.898 157.891 214.319 158.489C214.482 158.719 214.427 159.038 214.194 159.2C214.03 159.316 213.822 159.321 213.656 159.233Z" fill="#DE623C"/>
<path d="M216.099 211.044L205.176 226.918L192.497 217.471L209.29 201.289L216.099 211.044Z" fill="#293789"/>
<path d="M187.819 203.121L206.353 218.665C216.567 208.651 236.578 218.957 236.578 218.957C236.578 218.957 244.021 235.01 225.602 237.105C190.871 241.055 166.693 206.583 187.819 203.121Z" fill="#4450A8"/>
<path d="M191.857 209.154C186.391 211.681 184.651 194.177 184.651 187.702L188.605 186.764C188.605 186.764 200.682 205.074 191.857 209.154Z" fill="#DE623C"/>
<path d="M182.854 187.021C183.932 187.426 184.724 187.445 184.844 188.556L188.07 188.025L188.604 186.762C187.662 183.215 183.383 180.977 182.946 180.8C181.809 180.339 181.305 180.052 181.165 180.179C181.025 180.307 180.418 181.256 182.051 181.978C184.1 182.886 182.163 184.147 178.348 181.209C177.393 180.473 175.198 180.372 175.689 181.386C176.23 182.502 177.95 185.182 182.854 187.021Z" fill="#DE623C"/>
<path d="M204.919 183.311C204.919 183.311 205.163 181.556 205.258 181.016C209.523 178.329 213.184 176.773 222.865 175.559C227.1 175.028 231.944 176.943 234.724 182.207C242.258 196.472 240.59 209.988 240.145 223.067C224.695 227.479 211.492 227.338 204.079 216.626C206.394 210.587 204.919 183.311 204.919 183.311Z" fill="#0E6A41"/>
<path d="M195.979 190.421C198.582 186.274 202.605 181.697 206.712 182.355C210.818 183.013 210.673 193.998 210.673 193.998C210.673 193.998 194.519 213.633 189.003 208.528C183.485 203.422 192.06 196.666 195.979 190.421Z" fill="#F37A50"/>
<path d="M195.342 189.821C199.2 184.367 207.125 174.656 213.184 179.055C219.039 183.305 216.738 196.474 204.523 203.15C200.977 199.615 195.342 189.821 195.342 189.821Z" fill="#0B5434"/>
<path d="M177.665 219.346C179.584 217.597 184.467 218.282 188.548 221.414C192.629 224.547 195.485 227.515 193.178 231.751C187.038 227.792 177.665 219.346 177.665 219.346Z" fill="#241D26"/>
<path d="M183.086 230.396C188.272 233.52 191.826 233.762 192.745 232.455C194.488 229.973 192.287 226.959 187.483 222.945C182.206 218.538 178.62 217.72 176.65 220.315C174.679 222.909 177.461 227.008 183.086 230.396Z" fill="#E4E2E8"/>
<path d="M186.048 175.89C185.76 175.89 185.522 175.663 185.511 175.374L185.292 169.634C185.281 169.337 185.512 169.089 185.808 169.077C186.104 169.066 186.356 169.297 186.366 169.592L186.586 175.332C186.596 175.628 186.365 175.878 186.069 175.888C186.062 175.89 186.054 175.89 186.048 175.89Z" fill="#2C2858"/>
<path d="M183.805 175.627C183.56 175.627 183.34 175.459 183.282 175.211L181.127 165.966C181.06 165.678 181.24 165.39 181.529 165.322C181.818 165.255 182.108 165.435 182.175 165.723L184.33 174.969C184.397 175.257 184.217 175.545 183.928 175.612C183.887 175.623 183.846 175.627 183.805 175.627Z" fill="#2C2858"/>
<path d="M103.671 190.469C100.583 185.312 118.025 182.072 124.485 181.4L125.679 184.925C125.679 184.925 108.656 198.795 103.671 190.469Z" fill="#DE623C"/>
<path d="M124.825 179.252C124.533 180.362 124.798 181.949 123.701 182.182L124.362 184.526L125.678 184.925C129.12 183.623 130.91 179.15 131.042 178.697C131.385 177.522 131.618 176.993 131.477 176.867C131.335 176.742 130.325 176.24 129.772 177.931C129.078 180.056 127.62 178.266 130.157 174.181C130.792 173.158 130.665 170.971 129.705 171.564C128.649 172.218 126.153 174.201 124.825 179.252Z" fill="#DE623C"/>
<path d="M93.6611 178.647L105.966 177.656L107.154 165.587L96.3096 159.828L93.6611 178.647Z" fill="#F37A50"/>
<path d="M114.471 160.569C114.48 161.656 114.403 162.667 114.273 163.576C113.915 166.042 114.093 167.557 113.574 168.066C112.398 169.217 109.107 170.016 106.886 170.319C104.224 170.68 101.76 170.628 101.76 170.628C101.76 170.628 97.2901 169.272 93.5051 167.163C91.3422 165.959 89.4026 164.509 88.6481 162.923C85.8463 157.041 87.4106 144.719 93.3101 141.927C99.2109 139.134 105.412 140.59 109.222 145.877C112.52 150.455 114.437 156.864 114.471 160.569Z" fill="#F37A50"/>
<path d="M103.051 209.646L113.973 225.52L126.653 216.074L109.86 199.891L103.051 209.646Z" fill="#062440"/>
<path d="M131.331 201.724L112.797 217.267C102.583 207.253 82.5723 217.559 82.5723 217.559C82.5723 217.559 75.1287 233.612 93.5481 235.707C128.278 239.657 152.456 205.186 131.331 201.724Z" fill="#332E66"/>
<path d="M127.293 207.756C132.76 210.283 134.499 192.779 134.499 186.304L130.546 185.366C130.546 185.366 118.467 203.677 127.293 207.756Z" fill="#DE623C"/>
<path d="M136.296 185.624C135.218 186.028 134.426 186.048 134.306 187.159L131.08 186.628L130.546 185.366C131.489 181.819 135.767 179.58 136.204 179.403C137.341 178.942 137.845 178.655 137.985 178.782C138.125 178.91 138.732 179.859 137.099 180.581C135.05 181.489 136.987 182.75 140.802 179.812C141.757 179.076 143.952 178.975 143.461 179.989C142.919 181.106 141.199 183.785 136.296 185.624Z" fill="#DE623C"/>
<path d="M114.231 181.913C114.231 181.913 113.986 180.158 113.892 179.618C109.627 176.931 105.966 175.375 96.2853 174.16C92.0497 173.63 87.2061 175.545 84.4258 180.809C76.8921 195.074 78.56 208.59 79.0052 221.669C94.4547 226.081 107.658 225.94 115.071 215.229C112.756 209.189 114.231 181.913 114.231 181.913Z" fill="#E62552"/>
<path d="M123.171 189.023C120.568 184.876 116.545 180.299 112.438 180.957C108.332 181.615 108.477 192.6 108.477 192.6C108.477 192.6 124.631 212.235 130.148 207.13C135.664 202.024 127.09 195.268 123.171 189.023Z" fill="#F37A50"/>
<path d="M125.391 190.123C121.534 184.669 112.025 173.257 105.966 177.656C100.111 181.907 104.692 197.543 116.907 204.217C120.452 200.684 125.391 190.123 125.391 190.123Z" fill="#C4204A"/>
<path d="M141.484 217.948C139.565 216.197 134.682 216.882 130.601 220.016C126.52 223.149 123.664 226.117 125.971 230.352C132.112 226.394 141.484 217.948 141.484 217.948Z" fill="#241D26"/>
<path d="M136.063 228.999C130.877 232.124 127.323 232.365 126.404 231.058C124.661 228.577 126.862 225.562 131.666 221.548C136.943 217.141 140.529 216.323 142.499 218.918C144.47 221.512 141.688 225.61 136.063 228.999Z" fill="#E4E2E8"/>
<path d="M104.893 136.931C99.6494 136.936 93.1581 132.928 86.1194 139.043C70.6672 152.468 91.1674 163.183 87.0058 166.654C79.168 165.301 55.3697 168.615 64.722 176.378C59.3027 177.041 54.8626 190.71 67.6905 184.823C65.7025 188.76 63.7414 201.316 78.6233 193.237C83.5933 204.712 95.968 193.547 96.7091 181.253C96.9163 177.821 96.7441 173.347 93.9706 170.548C101.19 168.939 104.771 163.663 103.787 153.05C113.684 155.302 120.857 136.913 104.893 136.931Z" fill="#2C2858"/>
<path d="M104.525 152.834C106.559 154.002 107.431 156.292 106.472 157.951C105.514 159.609 103.087 160.007 101.054 158.841C99.0199 157.674 98.1483 155.384 99.1073 153.724C100.066 152.066 102.492 151.668 104.525 152.834Z" fill="#F37A50"/>
<path d="M104.159 157.83C104.223 157.788 104.278 157.729 104.318 157.656C104.891 156.624 104.81 155.566 104.102 154.825C103.375 154.066 102.193 153.837 101.29 154.281C101.036 154.405 100.931 154.712 101.056 154.966C101.182 155.219 101.49 155.324 101.744 155.198C102.239 154.955 102.948 155.101 103.358 155.53C103.752 155.943 103.775 156.522 103.42 157.16C103.283 157.407 103.373 157.718 103.62 157.855C103.796 157.952 104.005 157.936 104.159 157.83Z" fill="#DE623C"/>
<path d="M95.0843 170.684C95.3534 170.254 95.2215 169.688 94.7911 169.42L88.519 165.52C88.0873 165.251 87.5196 165.383 87.2506 165.812C86.9816 166.242 87.1134 166.808 87.5439 167.076L93.8159 170.977C94.2477 171.245 94.8153 171.113 95.0843 170.684Z" fill="#33BE86"/>
<path d="M132.785 174.076C132.772 174.076 132.76 174.076 132.746 174.075C132.413 174.053 132.16 173.766 132.181 173.434L132.661 165.987C132.683 165.655 132.971 165.403 133.304 165.424C133.638 165.446 133.891 165.733 133.869 166.065L133.389 173.512C133.368 173.831 133.101 174.076 132.785 174.076Z" fill="#2C2858"/>
<path d="M135.079 174.821C134.963 174.821 134.846 174.788 134.742 174.719C134.464 174.534 134.39 174.159 134.577 173.883L142.475 162.128C142.661 161.851 143.037 161.777 143.314 161.963C143.592 162.148 143.667 162.524 143.48 162.8L135.582 174.555C135.466 174.727 135.274 174.821 135.079 174.821Z" fill="#2C2858"/>
<path d="M137.962 177.587C137.743 177.587 137.532 177.469 137.424 177.261C137.271 176.965 137.387 176.601 137.683 176.447L144.781 172.777C145.078 172.623 145.442 172.738 145.597 173.034C145.752 173.331 145.635 173.694 145.339 173.848L138.241 177.518C138.151 177.565 138.055 177.587 137.962 177.587Z" fill="#2C2858"/>
<path d="M164.116 24.3542C164.802 20.1544 165.586 15.6611 168.232 15.0753C170.878 14.4895 169.311 16.4426 170.683 17.4198C172.055 18.397 172.839 20.8381 172.839 20.8381L164.116 24.3542Z" fill="#E62552"/>
<path d="M165.978 24.2563C161.469 19.5673 156.274 17.5163 153.825 18.9815C151.374 20.4467 154.707 21.7161 153.53 22.9869C152.355 24.2563 152.355 26.503 154.118 26.3073C155.883 26.1116 165.978 24.2563 165.978 24.2563Z" fill="#E62552"/>
<path d="M178.725 60.2823C183.767 58.5316 194.484 53.1388 189.407 45.8679C184.331 38.597 182.173 41.6426 184.126 32.8999C186.078 24.1558 179.902 17.1946 173.923 18.8729C167.943 20.5525 166.369 25.3435 159.076 24.0459C151.783 22.7496 145.635 29.4937 148.319 35.4294C151.004 41.3652 152.147 44.2218 149.541 47.4631C146.933 50.7044 135.306 54.0986 140.052 61.9834C144.799 69.8682 147.02 69.4111 145.297 73.4085C143.574 77.4045 147.395 82.0172 154.121 81.4676C160.846 80.9166 166.954 78.4514 169.5 71.0036C172.045 63.5545 178.725 60.2823 178.725 60.2823Z" fill="black"/>
<path d="M164.374 141.466C165.012 138.822 166.439 136.069 168.159 133.774C166.875 126.59 164.896 113.118 166.822 106.992C167.343 105.338 181.204 103.185 180.508 116.26C179.938 126.975 178.788 135.295 176.703 138.503C176.036 140.396 167.223 161.652 167.223 161.652L161.542 159.897C164.896 150.978 162.909 147.541 164.374 141.466Z" fill="#FFB573"/>
<path d="M141.862 125.232C143.344 124.571 145.029 124.11 146.756 123.834C147.699 116.696 149.769 103.999 153.086 98.6541C154.001 97.1796 167.967 98.5174 164.042 111.014C160.117 123.51 157.81 131.353 153.24 132.525C150.523 133.222 127.775 139.742 127.775 139.742L125.483 134.246C134.62 131.449 136.14 127.783 141.862 125.232Z" fill="#FFB573"/>
<path d="M174.641 60.2528C175.022 67.395 182.856 68.5947 193.907 70.8293C197.486 70.6296 192.291 62.8963 192.291 62.8963C192.291 62.8963 174.295 54.5048 174.641 60.2528Z" fill="#FFB573"/>
<path d="M196.56 45.5368C196.56 45.5368 191.175 60.6603 191.251 63.1295C191.328 65.5974 191.779 70.5586 194.112 70.7811C196.445 71.0036 199.198 65.6027 199.607 60.8627C200.014 56.1227 200.714 46.5717 200.714 46.5717L196.56 45.5368Z" fill="#FFB573"/>
<path d="M203.783 44.3746C202.58 45.14 200.6 45.4322 200.74 46.8116L196.548 45.766C196.782 41.2217 201.59 37.1761 202.075 36.849C203.336 35.9991 203.875 35.5232 204.077 35.6426C204.278 35.7619 205.259 36.7579 203.463 38.0528C201.212 39.6775 203.884 40.7123 207.761 36.1734C208.731 35.0366 211.37 34.3557 211.032 35.7096C210.662 37.2016 209.263 40.8933 203.783 44.3746Z" fill="#FFB573"/>
<path d="M159.792 64.0894C157.665 72.442 148.801 68.1698 137.843 65.521C134.686 63.8266 142.682 59.0209 142.682 59.0209C142.682 59.0209 161.587 59.0665 159.792 64.0894Z" fill="#FFB573"/>
<path d="M146.208 41.4952C146.208 41.4952 144.646 57.4672 143.526 59.6697C142.405 61.8721 139.885 66.1738 137.677 65.3883C135.47 64.6027 135.778 57.7219 137.427 53.2567C139.076 48.7915 142.007 40.6748 142.007 40.6748L146.208 41.4952Z" fill="#FFB573"/>
<path d="M140.162 37.3893C140.926 38.5917 142.595 39.6936 141.881 40.8826L146.122 41.707C147.845 37.4938 145.214 31.7967 144.914 31.2954C144.134 29.9937 143.849 29.3329 143.614 29.3557C143.38 29.3784 142.069 29.8664 143.144 31.7967C144.491 34.2203 141.63 34.0273 140.053 28.2779C139.657 26.8382 137.559 25.1049 137.287 26.4749C136.987 27.9843 136.683 31.9187 140.162 37.3893Z" fill="#FFB573"/>
<path d="M158.456 83.5359C152.142 88.1178 153.19 92.0937 150.103 98.7426C147.775 103.756 137.976 114.989 137.976 114.989C137.976 114.989 156.885 127.606 169.785 120.735C181.317 114.593 190.462 121.924 190.462 121.924C190.462 121.924 190.423 100.613 180.042 83.5359H158.456Z" fill="#062440"/>
<path d="M155.416 60.3104C155.425 60.3949 155.981 62.9888 155.276 67.7944C154.551 72.7315 156.316 82.7745 158.455 83.5373H180.039C182.819 81.359 178.327 58.3225 178.062 58.2796C170.155 56.9766 162.427 57.8962 155.416 60.3104Z" fill="#F5A3B7"/>
<path d="M167.309 54.8559C173.682 54.8559 178.848 48.5062 178.848 40.6735C178.848 32.8407 173.682 26.491 167.309 26.491C160.936 26.491 155.77 32.8407 155.77 40.6735C155.77 48.5062 160.936 54.8559 167.309 54.8559Z" fill="#FFB573"/>
<path d="M155.267 41.9724C161.637 41.1601 167.559 37.6225 170.906 33.0514C173.067 38.3946 179.113 41.9724 179.113 41.9724C179.113 41.9724 183.645 31.7511 175.404 26.2376C167.54 20.9788 148.781 24.5727 155.267 41.9724Z" fill="black"/>
<path d="M163.96 44.8143C163.282 44.8143 162.733 44.2674 162.733 43.5917C162.733 42.9161 163.282 42.3692 163.96 42.3692C164.638 42.3692 165.187 42.9161 165.187 43.5917C165.185 44.266 164.636 44.8143 163.96 44.8143Z" fill="black"/>
<path d="M174.622 44.884C173.944 44.884 173.396 44.3371 173.396 43.6614C173.396 42.9858 173.944 42.4389 174.622 42.4389C175.3 42.4389 175.849 42.9858 175.849 43.6614C175.848 44.3371 175.299 44.884 174.622 44.884Z" fill="black"/>
<path d="M176.782 42.5609C176.581 42.5609 176.386 42.4576 176.275 42.2726C175.973 41.7633 175.605 41.459 175.184 41.3651C174.458 41.2043 173.737 41.6882 173.73 41.6935C173.463 41.8759 173.097 41.8102 172.913 41.5434C172.728 41.278 172.793 40.9147 173.058 40.7297C173.104 40.6976 174.193 39.9509 175.427 40.2163C176.184 40.3785 176.811 40.8691 177.289 41.6734C177.455 41.9523 177.363 42.3129 177.084 42.4777C176.988 42.5354 176.885 42.5609 176.782 42.5609Z" fill="black"/>
<path d="M161.633 42.5501C161.504 42.5501 161.373 42.5086 161.266 42.4215C161.011 42.219 160.971 41.8491 161.174 41.5957C161.949 40.6332 162.806 40.1091 163.72 40.0381C164.901 39.9469 165.714 40.6735 165.749 40.7043C165.99 40.9228 166.006 41.2941 165.786 41.534C165.569 41.7727 165.199 41.7901 164.958 41.5743C164.94 41.5595 164.458 41.1533 163.797 41.2097C163.224 41.2592 162.651 41.6373 162.093 42.3303C161.976 42.4751 161.805 42.5501 161.633 42.5501Z" fill="black"/>
<path d="M157.493 40.5904C158.815 42.2593 158.881 44.4041 157.639 45.3813C156.398 46.3585 154.32 45.7969 152.998 44.1279C151.675 42.459 151.609 40.3142 152.851 39.337C154.092 38.3598 156.171 38.9214 157.493 40.5904Z" fill="#FFB573"/>
<path d="M156.333 44.1949C156.282 44.1949 156.231 44.1856 156.181 44.1641C155.981 44.0797 155.888 43.8504 155.973 43.652C156.253 42.9898 156.259 42.4577 155.992 42.0703C155.579 41.4711 154.602 41.2861 153.893 41.3089C153.677 41.3169 153.495 41.1466 153.488 40.9308C153.482 40.715 153.651 40.534 153.868 40.526C154.819 40.4938 156.047 40.7673 156.64 41.6252C156.935 42.0528 157.185 42.8049 156.698 43.955C156.632 44.1051 156.485 44.1949 156.333 44.1949Z" fill="#DE623C"/>
<path d="M165.698 50.065C165.552 49.7889 165.768 49.4417 166.045 49.5047C166.751 49.6655 167.92 49.9042 169.047 50.0047C170.174 50.1052 171.367 50.0771 172.091 50.0422C172.375 50.0288 172.525 50.4095 172.333 50.6548C171.742 51.4096 170.563 52.5302 168.834 52.3774C167.107 52.2246 166.144 50.9136 165.698 50.065Z" fill="white"/>
<path d="M170.34 44.8505C170.34 44.8505 170.856 46.2835 171.557 47.203C171.004 47.9376 169.27 47.9376 169.27 47.9376L170.524 46.9081C170.525 46.9081 170.119 45.5851 170.34 44.8505Z" fill="#DE623C"/>
<path d="M170.958 53.3452L171.391 57.7782C171.391 57.7782 169.476 62.2729 162.248 58.5168L161.692 52.6066L170.958 53.3452Z" fill="#FFB573"/>
<path d="M127.874 137.011C130.407 137.171 131.162 138.84 131.162 138.84C127.28 143.608 132.642 151.072 126.001 152.667C122.458 140.002 120.866 134.771 120.866 134.771C122.378 134.358 126.029 133.589 127.512 133.482L127.576 134.176L127.874 137.011Z" fill="#062440"/>
<path d="M124.031 152.408L119.334 136.034C119.213 135.612 119.458 135.172 119.882 135.051L121.048 134.719L126.184 152.621L125.017 152.954C124.594 153.074 124.152 152.83 124.031 152.408Z" fill="white"/>
<path d="M164.997 160.367C166.696 158.489 168.478 158.936 168.478 158.936C169.814 164.93 179.014 165.383 176.139 171.56C163.981 166.454 158.881 164.447 158.881 164.447C159.496 163.01 161.159 159.682 161.997 158.456L162.583 158.839L164.997 160.367Z" fill="#062440"/>
<path d="M174.712 172.935L158.921 166.427C158.515 166.26 158.321 165.794 158.489 165.39L158.953 164.273L176.217 171.39L175.753 172.506C175.587 172.911 175.12 173.103 174.712 172.935Z" fill="white"/>
<path d="M207.809 48.707C207.576 48.707 207.363 48.5556 207.294 48.3223C207.211 48.0381 207.372 47.7405 207.657 47.6561C207.684 47.6481 210.339 46.8384 213.398 44.2499C216.22 41.8625 219.975 37.4254 221.845 29.8449C221.916 29.5567 222.208 29.3811 222.496 29.4521C222.785 29.5232 222.961 29.8127 222.89 30.1009C220.944 37.9898 217.008 42.6145 214.048 45.1051C210.822 47.821 208.077 48.6494 207.962 48.6829C207.911 48.699 207.86 48.707 207.809 48.707Z" fill="#2C2858"/>
<path d="M210.711 50.7835C210.486 50.7835 210.276 50.6414 210.201 50.4162C210.107 50.136 210.259 49.8317 210.541 49.7379C210.63 49.7084 219.476 46.699 222.656 40.1788C222.787 39.912 223.108 39.8021 223.376 39.9308C223.643 40.0595 223.754 40.3812 223.625 40.648C220.244 47.5797 211.262 50.6293 210.881 50.7553C210.825 50.7755 210.767 50.7835 210.711 50.7835Z" fill="#2C2858"/>
<path d="M134.941 38.9965C134.812 38.9965 134.682 38.9509 134.58 38.8571C130.639 35.2739 129.357 30.9347 128.976 27.9266C128.563 24.6719 129.076 22.2858 129.097 22.1853C129.16 21.8957 129.448 21.7134 129.737 21.7764C130.028 21.8394 130.211 22.125 130.148 22.4145C130.142 22.4373 129.65 24.7523 130.047 27.8315C130.575 31.9307 132.343 35.3745 135.303 38.0648C135.523 38.2646 135.539 38.6037 135.338 38.8222C135.233 38.9375 135.087 38.9965 134.941 38.9965Z" fill="#2C2858"/>
<path d="M132.866 40.03C132.813 40.03 132.76 40.022 132.707 40.0059C127.494 38.4067 124.97 33.7364 124.865 33.538C124.727 33.2766 124.828 32.9522 125.09 32.8141C125.352 32.676 125.678 32.7766 125.816 33.038C125.841 33.0822 128.247 37.5179 133.023 38.9817C133.307 39.0689 133.467 39.3691 133.38 39.652C133.308 39.8826 133.096 40.03 132.866 40.03Z" fill="#2C2858"/>
<path d="M271.071 16.9091C271.019 16.5069 270.654 16.2241 270.251 16.275C269.968 16.3112 269.731 16.5083 269.645 16.7804L266.242 26.499C265.823 26.4186 265.394 26.4173 264.976 26.495C263.708 26.735 262.796 27.5486 262.975 28.3194C263.153 29.0902 264.267 29.491 265.549 29.2149C266.831 28.9387 267.729 28.1613 267.551 27.3905L270.261 19.6531C270.487 20.2161 271.907 23.6947 271.462 24.8958C271.376 25.2832 271.602 25.6706 271.981 25.7845C272.371 25.8918 272.776 25.6612 272.884 25.2711C272.884 25.2698 272.884 25.2685 272.885 25.2671C273.428 23.6853 271.243 18.1893 271.071 16.9091Z" fill="#2C2858"/>
<path d="M49.2322 37.5192C48.9147 37.2672 48.4534 37.3195 48.2018 37.6372C48.0243 37.861 47.9934 38.1667 48.1225 38.4214L52.5061 47.7419C52.151 47.9751 51.843 48.2727 51.5982 48.6199C50.8584 49.6762 50.7777 50.8934 51.4475 51.3197C52.1174 51.7459 53.1934 51.2567 53.9157 50.1668C54.638 49.0757 54.7362 47.8933 54.0664 47.4671L50.5759 40.0461C51.1328 40.2914 54.5882 41.7887 55.1128 42.9576C55.3227 43.2941 55.7558 43.4134 56.1082 43.2311C56.4619 43.0354 56.5897 42.589 56.3933 42.2351C56.3933 42.2338 56.392 42.2324 56.392 42.2324C55.671 40.7217 50.2517 38.3155 49.2322 37.5192Z" fill="#BACCFF"/>
<path d="M112.313 60.3131C112.308 59.9083 111.974 59.5865 111.569 59.5932C111.284 59.5986 111.026 59.7688 110.91 60.0289L106.453 69.3146C106.047 69.1886 105.62 69.1403 105.195 69.1711C103.907 69.2703 102.911 69.9795 103.004 70.765C103.097 71.5505 104.159 72.072 105.463 71.9379C106.768 71.8039 107.747 71.1296 107.654 70.3441L111.204 62.9512C111.366 63.5357 112.394 67.1497 111.818 68.2931C111.689 68.6684 111.872 69.0786 112.237 69.2341C112.613 69.3829 113.04 69.1993 113.19 68.8226C113.19 68.8213 113.192 68.8199 113.192 68.8199C113.907 67.3078 112.342 61.6053 112.313 60.3131Z" fill="#2C2858"/>
<path d="M75.89 82.4715C75.5901 82.1981 75.1274 82.2182 74.8543 82.5158C74.662 82.7262 74.6095 83.0292 74.7198 83.2932L78.4336 92.8979C78.0623 93.1057 77.7341 93.3818 77.4665 93.7103C76.654 94.7116 76.4886 95.9194 77.1248 96.3926C77.7624 96.8645 78.8707 96.4529 79.6684 95.4154C80.466 94.3778 80.6476 93.2062 80.01 92.733L77.0522 85.0855C77.5902 85.3697 80.9314 87.1056 81.3712 88.308C81.5568 88.6593 81.9805 88.8081 82.345 88.6512C82.7123 88.481 82.871 88.0453 82.6988 87.678C82.6988 87.6767 82.6975 87.6753 82.6975 87.6753C82.0868 86.1177 76.8518 83.3375 75.89 82.4715Z" fill="#2C2858"/>
<path d="M248.936 50.1212V39.4683C248.936 39.1372 248.716 38.8476 248.395 38.7605L241.271 36.8557H241.078H240.976H240.872H240.706H240.615L240.486 36.9589L240.41 37.0621C240.384 37.1023 240.363 37.1452 240.345 37.1908C240.342 37.2256 240.342 37.2591 240.345 37.294C240.344 37.3235 240.344 37.3543 240.345 37.3838V47.6762C239.924 47.7378 239.519 47.8772 239.149 48.0877C238.03 48.7311 237.438 49.7995 237.863 50.4684C238.288 51.1373 239.471 51.1507 240.59 50.4684C241.709 49.7861 242.301 48.7566 241.876 48.0877V40.7552L247.535 42.274V49.6078C247.114 49.6695 246.707 49.8089 246.339 50.0194C245.22 50.6628 244.628 51.7312 245.053 52.4001C245.477 53.069 246.66 53.0824 247.779 52.4001C248.897 51.7164 249.321 50.7902 248.936 50.1212Z" fill="#2C2858"/>
<path d="M316.519 7.36736L312.066 0.784162C311.927 0.580406 311.67 0.491934 311.436 0.571023L306.238 2.35255L306.118 2.43298L306.055 2.47587L305.991 2.51877L305.888 2.58848L305.833 2.62601L305.796 2.74263L305.791 2.83781C305.792 2.874 305.796 2.90885 305.806 2.94371C305.818 2.9665 305.833 2.98794 305.849 3.00671C305.86 3.02682 305.873 3.04424 305.887 3.06301L310.189 9.42368C309.955 9.63682 309.763 9.89152 309.623 10.1744C309.201 11.0363 309.281 11.9425 309.824 12.1798C310.366 12.417 311.101 11.9331 311.509 11.0484C311.915 10.1623 311.851 9.28025 311.309 9.04298L308.243 4.51075L312.374 3.09921L315.439 7.63143C315.205 7.84457 315.013 8.09927 314.873 8.38212C314.451 9.24406 314.531 10.1502 315.073 10.3875C315.615 10.6248 316.351 10.1409 316.759 9.25612C317.162 8.36871 317.037 7.62071 316.519 7.36736Z" fill="#BACCFF"/>
<path d="M100.194 42.1506L94.9563 32.8637C94.7936 32.5755 94.4586 32.4307 94.1372 32.5111L86.9908 34.3302L86.8227 34.424L86.7325 34.4749L86.6424 34.5259L86.4971 34.6077L86.4191 34.6519L86.3573 34.8047L86.3411 34.932C86.3384 34.9803 86.3411 35.0286 86.3478 35.0755C86.3626 35.1063 86.3788 35.1371 86.399 35.1653C86.4124 35.1921 86.4272 35.2189 86.4433 35.2444L91.5035 44.2177C91.1672 44.4764 90.8821 44.7968 90.6628 45.1601C90.0038 46.2673 90.0132 47.4872 90.7126 47.8625C91.412 48.2378 92.4491 47.6722 93.0893 46.5314C93.7296 45.3906 93.739 44.2043 93.0396 43.8289L89.4334 37.4361L95.1123 35.9964L98.7185 42.3892C98.3822 42.648 98.0971 42.9683 97.8778 43.3316C97.2187 44.4389 97.2281 45.6587 97.9276 46.0341C98.627 46.4094 99.6641 45.8437 100.304 44.7029C100.945 43.5608 100.86 42.5461 100.194 42.1506Z" fill="#2C2858"/>
<path d="M45.5333 78.1565L46.9927 67.6027C47.0384 67.2756 46.8582 66.9579 46.5542 66.8279L39.7589 63.9726L39.5679 63.9458L39.4657 63.9324L39.3635 63.919L39.198 63.8962L39.1092 63.8842L38.968 63.9686L38.8779 64.0598C38.847 64.096 38.8201 64.1362 38.7972 64.1791C38.7905 64.2126 38.7851 64.2461 38.7837 64.2809C38.7784 64.3104 38.773 64.3399 38.7716 64.3707L37.3607 74.5679C36.9356 74.5706 36.5146 74.6551 36.1192 74.8133C34.922 75.2985 34.1903 76.2757 34.5185 76.9969C34.8467 77.7181 36.0169 77.891 37.2194 77.3682C38.4206 76.8454 39.1483 75.9058 38.8201 75.1859L39.8248 67.9204L45.2226 70.1939L44.2178 77.4594C43.7928 77.4621 43.3718 77.5452 42.9763 77.7047C41.7792 78.19 41.0475 79.1672 41.3757 79.887C41.7039 80.6082 42.8741 80.7812 44.0766 80.2584C45.2764 79.7315 45.8238 78.8709 45.5333 78.1565Z" fill="#BACCFF"/>
<path d="M275.536 219.961C273.634 212.211 276.251 204.359 283.385 196.406C284.312 207.039 281.697 214.89 275.536 219.961Z" fill="#8FABFF"/>
<path d="M287.039 209.648C286.399 202.402 289.842 195.689 297.371 189.508C296.739 199.22 293.295 205.932 287.039 209.648Z" fill="#8FABFF"/>
<path d="M299.083 199.721C299.497 192.824 303.674 186.994 311.614 182.234C309.674 191.277 305.496 197.106 299.083 199.721Z" fill="#8FABFF"/>
<path d="M325.285 179.591C322.076 186.725 317.586 190.816 311.813 191.863C313.391 186.216 317.881 182.124 325.285 179.591Z" fill="#8FABFF"/>
<path d="M335.835 181.052C332.129 186.454 327.825 189.161 322.923 189.17C325.051 184.761 329.355 182.055 335.835 181.052Z" fill="#8FABFF"/>
<path d="M327.46 191.578C331.027 188.218 336.019 187.225 342.436 188.599C337.03 192.32 332.039 193.313 327.46 191.578Z" fill="#8FABFF"/>
<path d="M297.889 204.83C304.255 203.081 310.819 205.05 317.581 210.737C308.807 211.752 302.243 209.783 297.889 204.83Z" fill="#8FABFF"/>
<path d="M324.47 204.283C316.833 205.173 311.122 203.46 307.337 199.145C312.874 197.618 318.585 199.33 324.47 204.283Z" fill="#8FABFF"/>
<path d="M317.916 195.277C323.453 193.764 329.164 195.477 335.049 200.416C327.409 201.303 321.698 199.591 317.916 195.277Z" fill="#8FABFF"/>
<path d="M286.944 213.225C293.431 209.957 300.95 210.65 309.502 215.306C300.249 218.329 292.73 217.636 286.944 213.225Z" fill="#8FABFF"/>
<path d="M278.341 220.894C284.45 216.968 292 216.874 300.993 220.613C292.109 224.582 284.559 224.677 278.341 220.894Z" fill="#8FABFF"/>
<path d="M325.714 192.037C325.714 192.18 325.655 192.316 325.55 192.413L325.325 192.619C325.188 192.68 325.04 192.713 324.891 192.716L324.864 192.777L324.537 192.765C320.888 193.024 315.962 194.638 309.76 197.606C304.327 200.138 299.191 203.256 294.439 206.904C292.034 208.712 289.723 210.644 287.517 212.689L286.944 213.225C282.77 217.136 280.778 218.652 278.421 221.004C277.778 221.074 277.134 221.142 276.489 221.209C279.645 217.843 281.671 216.449 286.688 211.804C289.006 209.656 291.333 207.677 293.669 205.869C298.503 202.225 303.72 199.114 309.226 196.591C315.619 193.504 320.686 191.867 324.426 191.684L324.865 191.482C324.966 191.379 325.128 191.363 325.247 191.445C325.39 191.445 325.526 191.504 325.624 191.607C325.687 191.743 325.718 191.89 325.714 192.037Z" fill="#8FABFF"/>
<path d="M254.162 223.15C253.143 223.222 252.121 223.291 251.096 223.358C248.06 219.314 246.898 213.854 247.611 206.977C252.389 212.472 254.572 217.864 254.162 223.15Z" fill="#8FABFF"/>
<path d="M255.067 212.355C251.022 207.751 250.017 201.485 252.053 193.563C256.474 200.465 257.479 206.729 255.067 212.355Z" fill="#8FABFF"/>
<path d="M259.021 183.419C261.451 189.906 261.173 195.269 258.187 199.508C255.656 194.971 255.934 189.607 259.021 183.419Z" fill="#8FABFF"/>
<path d="M266.585 177.8C267.62 183.504 266.595 187.878 263.513 190.922C262.1 186.824 263.125 182.45 266.585 177.8Z" fill="#8FABFF"/>
<path d="M267.873 189.629C268.025 185.299 270.553 181.578 275.455 178.466C274.371 184.163 271.844 187.885 267.873 189.629Z" fill="#8FABFF"/>
<path d="M257.503 216.315C260.426 211.266 265.793 208.437 273.605 207.831C268.706 213.912 263.338 216.739 257.503 216.315Z" fill="#8FABFF"/>
<path d="M273.919 199.492C269.66 204.787 264.99 207.248 259.909 206.874C262.449 202.479 267.117 200.017 273.919 199.492Z" fill="#8FABFF"/>
<path d="M264.165 197.878C266.711 193.492 271.381 191.031 278.175 190.496C273.913 195.792 269.243 198.253 264.165 197.878Z" fill="#8FABFF"/>
<path d="M267.178 191.609C267.13 191.732 267.057 191.843 266.964 191.938L266.986 191.995L266.772 192.189C264.633 194.614 262.535 198.685 260.477 204.401C258.634 209.366 257.34 214.516 256.622 219.762C256.463 220.839 256.327 221.921 256.214 223.004C255.843 223.031 255.472 223.058 255.101 223.083C255.208 221.897 255.339 220.732 255.491 219.586C256.264 214.292 257.61 209.098 259.507 204.093C261.611 198.182 263.784 194.011 266.027 191.576L266.179 191.177C266.177 191.048 266.27 190.938 266.397 190.915C266.485 190.827 266.609 190.78 266.734 190.785C266.859 190.831 266.971 190.905 267.061 191.001C267.15 191.091 267.197 191.213 267.191 191.339L267.178 191.609Z" fill="#8FABFF"/>
<path d="M271.362 215.721C270.073 218.219 268.651 220.351 267.099 222.12C264.442 222.358 261.76 222.582 259.055 222.79C261.81 219.632 265.912 217.275 271.362 215.721Z" fill="#8FABFF"/>
</svg>
