<svg width="224" height="383" viewBox="0 0 224 383" fill="none" xmlns="http://www.w3.org/2000/svg">
<path opacity="0.1" d="M-345.062 287.576C-361.537 254.299 -367.153 163.667 -296.944 146.806C-230.918 130.948 -307.955 75.1235 -217.608 30.8813C-184.61 14.7225 -128.285 45.3625 -100.358 32.9897C-53.8673 12.3901 10.0766 -1.23708 48.8097 40.3261C94.9735 89.8614 138.906 12.0434 188.903 61.0923C224.71 96.2211 205.738 133.788 197.66 161.051C192.007 180.131 199.602 198.848 211.37 214.254C230.348 239.099 219.283 269.935 207.158 295.753C207.156 295.751 -345.062 287.576 -345.062 287.576Z" fill="#0066CC"/>
<path d="M129.487 253.845C129.487 253.845 132.338 255.061 135.928 256.493C140.058 249.18 174.742 206.096 215.402 199.384C202.121 197.613 188.335 198.817 175.896 203.932C173.415 204.943 171.014 206.088 168.719 207.339L165.548 214.689L162.651 211.041C147.745 221.135 135.854 237.301 129.487 253.845Z" fill="#7D9EFF"/>
<path d="M133.595 244.691C133.438 244.992 133.289 245.285 133.142 245.574C133.287 245.283 133.438 244.992 133.595 244.691Z" fill="#3F964F"/>
<path d="M215.402 199.382C212.194 221.646 172.845 257.914 145.497 260.48C142.613 259.569 139.134 257.77 135.928 256.493C140.058 249.178 174.74 206.094 215.402 199.382Z" fill="#8FABFF"/>
<path d="M139.679 257.049C139.679 257.049 141.271 258.841 143.308 261.028C148.608 257.278 187.068 238.619 217.708 247.359C209.008 241.732 198.973 238.021 188.589 237.487C186.522 237.374 184.465 237.382 182.448 237.498L176.985 238.082C163.235 240.214 149.59 247.588 139.679 257.049Z" fill="#7D9EFF"/>
<path d="M145.573 252.006C145.365 252.165 145.164 252.32 144.965 252.474C145.162 252.32 145.365 252.165 145.573 252.006Z" fill="#3F964F"/>
<path d="M217.71 247.361C215.654 249.796 212.315 252.73 208.149 255.731L199.633 253.908L202.523 259.5C188.023 268.55 167.646 276.582 154.041 271.649C152.325 270.057 145.127 262.979 143.309 261.028C148.608 257.28 187.07 238.619 217.71 247.361Z" fill="#8FABFF"/>
<path d="M9.86804 169.566C9.86804 169.566 7.25776 175.661 13.3509 185.429C19.5628 195.384 19.3427 202.787 19.3427 202.787L24.4618 206.322C24.4618 206.322 24.2437 195.117 18.872 187.356C12.1358 177.653 9.86804 169.566 9.86804 169.566Z" fill="#8FABFF"/>
<path d="M-3.75953 174.2C-3.75953 174.2 -4.13463 179.074 2.25517 185.161C8.78083 191.356 10.3137 196.791 10.3137 196.791L14.5563 199.533C14.5563 199.533 11.9078 190.385 6.45763 185.64C-0.35317 179.7 -3.75953 174.2 -3.75953 174.2Z" fill="#8FABFF"/>
<path d="M21.2102 179.495C21.2102 179.495 25.7973 182.036 29.7549 193.817C32.9814 203.417 31.2629 208.791 33.278 214.672L26.5456 208.745C25.7399 204.511 28.1952 201.412 25.6921 192.565C23.3516 184.282 21.2102 179.495 21.2102 179.495Z" fill="#8FABFF"/>
<path d="M63.3555 211.992C63.3555 211.992 65.7515 216.677 62.4714 228.653C59.7999 238.425 55.0271 240.177 54.3057 242.443L51.7107 237.914C53.9459 233.956 56.9466 234.095 59.798 225.353C62.4637 217.15 63.3555 211.992 63.3555 211.992Z" fill="#8FABFF"/>
<path d="M31.9709 185.998C31.9709 185.998 35.7906 194.21 37.0211 199.572C38.7855 207.19 36.1638 211.634 37.4077 219.543L42.1996 224.275C42.1996 224.275 45.093 215.543 42.5402 206.232C38.2574 190.608 31.9709 185.998 31.9709 185.998Z" fill="#8FABFF"/>
<path d="M47.1255 188.463C46.7926 193.534 47.2021 198.626 48.3407 203.578C51.9021 218.559 45.0798 230.899 45.0798 230.899L48.5665 233.605C48.5665 233.605 57.5436 224.568 54.2004 212.069C50.6544 198.865 47.1255 188.463 47.1255 188.463Z" fill="#8FABFF"/>
<path d="M26.9859 209.788C26.9859 209.788 23.2696 208.896 8.5858 212.37C-0.823819 214.599 1.5836 210.686 -7.13135 214.369C-0.21718 214.248 2.64761 219.005 11.5195 217.441C18.6155 216.184 25.7975 215.485 33.0026 215.353L26.9859 209.788Z" fill="#8FABFF"/>
<path d="M-0.860107 222.533C-0.860107 222.533 5.7651 229.277 18.87 226.933C26.9381 225.51 35.1861 225.426 43.283 226.682L38.5944 220.447C38.5944 220.447 32.7022 217.052 19.3102 220.799C10.1072 223.371 -0.860107 222.533 -0.860107 222.533Z" fill="#8FABFF"/>
<path d="M8.34082 234.258C8.34082 234.258 14.966 241.003 28.0709 238.659C36.139 237.236 44.387 237.152 52.4838 238.408L47.7953 232.173C47.7953 232.173 41.9031 228.777 28.5111 232.525C19.3101 235.095 8.34082 234.258 8.34082 234.258Z" fill="#8FABFF"/>
<path d="M-12.75 199.33C-12.75 199.33 -8.13227 202.705 0.0946798 200.91C8.43645 199.089 14.8339 200.25 14.8339 200.25L12.1949 198.015C12.1949 198.015 8.47088 195.868 0.00471878 198.235C-5.81672 199.859 -12.75 199.33 -12.75 199.33Z" fill="#8FABFF"/>
<path d="M18.8469 203.944C18.8469 203.944 12.2772 203.974 2.81214 205.828C-3.16239 206.979 -11.5635 204.196 -11.5635 204.196C-11.5635 204.196 -4.46754 212.184 4.40623 209.897C14.5813 207.272 24.9401 207.586 24.9401 207.586L18.8469 203.944Z" fill="#8FABFF"/>
<path d="M12.9317 198.946C12.9317 198.946 6.63758 191.042 -2.60551 190.322C-8.08056 189.849 -13.437 188.465 -18.4565 186.224C-18.4565 186.224 -12.5165 194.441 -3.9623 194.187C3.93547 193.974 9.91957 198.57 9.91957 198.57L12.9317 198.946Z" fill="#8FABFF"/>
<path d="M53.5899 242.673L54.8912 241.96C50.4955 233.931 31.8064 208.31 10.486 196.805L9.78174 198.112C30.8055 209.459 49.2477 234.746 53.5899 242.673Z" fill="#8FABFF"/>
<path d="M218.389 302.072C218.389 331.393 155.612 356.828 63.723 369.461H63.721C56.3974 370.468 48.89 371.393 41.2142 372.232C40.8506 372.272 40.487 372.312 40.1215 372.351C39.2067 372.45 38.29 372.548 37.3715 372.644C32.97 373.107 28.5168 373.54 24.012 373.944C20.2325 374.285 16.4166 374.605 12.5682 374.901C11.2248 375.007 9.87753 375.108 8.52646 375.208C7.99829 375.246 7.47009 375.285 6.94193 375.321C6.49603 375.353 6.05206 375.386 5.60617 375.417C4.1575 375.518 2.70309 375.618 1.24487 375.713C-20.9482 377.175 -44.165 377.95 -68.0651 377.95C-226.268 377.95 -354.515 343.98 -354.515 302.072C-354.515 260.166 -226.266 226.194 -68.0651 226.194C90.1395 226.194 218.389 260.166 218.389 302.072Z" fill="#CAE4FD"/>
<path d="M69.2326 306.27C67.1046 306.27 65.3784 304.542 65.3784 302.413V234.069H73.0887V302.413C73.0868 304.542 71.3606 306.27 69.2326 306.27Z" fill="#6985DB"/>
<path d="M99.9186 306.27C97.7906 306.27 96.0645 304.542 96.0645 302.413V234.069H103.775V302.413C103.775 304.542 102.049 306.27 99.9186 306.27Z" fill="#6985DB"/>
<path d="M135.986 306.27C133.858 306.27 132.132 304.542 132.132 302.413V234.069H139.842V302.413C139.842 304.542 138.116 306.27 135.986 306.27Z" fill="#6985DB"/>
<path d="M163.036 306.27C160.908 306.27 159.182 304.542 159.182 302.413V234.069H166.892V302.413C166.89 304.542 165.164 306.27 163.036 306.27Z" fill="#6985DB"/>
<path d="M120.383 132.638V213.97C120.383 214.895 119.633 215.646 118.709 215.646H68.3159C63.2312 215.646 59.1111 219.771 59.1111 224.857C59.1111 229.945 63.2331 234.068 68.3159 234.068H120.383H129.59C134.675 234.068 138.795 229.943 138.795 224.857V215.646V132.638C138.795 127.55 134.673 123.427 129.59 123.427C124.506 123.425 120.383 127.55 120.383 132.638Z" fill="#95A6DB"/>
<path d="M169.433 123.424H129.59V217.136H169.433V123.424Z" fill="#95A6DB"/>
<path d="M160.227 132.637V213.969C160.227 214.894 159.476 215.644 158.552 215.644H108.159C103.074 215.644 98.9541 219.769 98.9541 224.855C98.9541 229.944 103.076 234.067 108.159 234.067H160.227H169.433C174.518 234.067 178.638 229.942 178.638 224.855V215.644V132.637C178.638 127.549 174.516 123.426 169.433 123.426C164.349 123.424 160.227 127.549 160.227 132.637Z" fill="#6985DB"/>
<path d="M95.6493 95.9626C91.6421 85.4856 91.8908 75.0872 98.9791 67.6953C106.163 60.2038 118.443 61.7319 118.443 61.7319C118.445 61.7319 126.638 55.7035 137.708 62.3658C148.781 69.0281 144.915 78.988 150.327 84.6487C153.533 88.0019 164.022 85.7326 165.252 99.4249C165.608 103.374 161.89 107.223 158.179 108.611C151.659 111.051 144.691 110.342 142.768 113.728C136.432 124.883 115.822 127.744 110.733 120.817C109.156 118.669 92.8439 128.655 89.6863 111.744C88.0864 103.174 99.2317 105.325 95.6493 95.9626Z" fill="#2C2858"/>
<path d="M123.145 121.02C130.991 132.231 113.414 150.837 99.4633 167.191C93.8562 171.098 93.2764 151.729 93.2764 151.729L102.483 137.009C102.483 137.009 114.149 117.918 123.145 121.02Z" fill="#C4204A"/>
<path d="M43.7728 259.982L38.4202 267.476C38.4202 267.476 33.6379 273.573 27.939 270.71C22.24 267.847 24.7661 258.686 24.7661 258.686L31.3147 250.059L43.7728 259.982Z" fill="#F37A50"/>
<path d="M24.9882 257.694C24.9882 257.694 19.2319 257.64 12.9799 255.507C9.48164 254.314 0.338049 250.844 -1.71533 257.106C-2.02152 258.04 -1.878 259.348 -0.163339 261.338C2.37229 264.278 6.23985 267.512 15.3145 270.325C26.1996 273.699 27.078 275.628 31.2364 276.658C35.546 277.725 36.9717 271.71 38.6385 266.821C37.8788 267.853 35.613 270.392 27.5162 268.912C25.0992 268.47 31.9981 260.867 24.9882 257.694Z" fill="#2C2858"/>
<path d="M89.1121 285.745V290.827C89.1121 290.827 88.7676 298.571 82.4659 299.56C76.166 300.548 72.8955 291.624 72.8955 291.624L73.1271 283.619L89.1121 285.745Z" fill="#F37A50"/>
<path d="M123.17 107.318C123.17 107.318 124.37 118.32 124.753 122.378L139.555 122.815C135.033 115.808 137.073 95.8323 137.073 95.8323L123.17 107.318Z" fill="#F37A50"/>
<path d="M122.384 116.184C132.749 115.589 140.539 104.402 139.783 91.1951C139.026 77.9886 130.011 67.7643 119.645 68.3585C109.28 68.9528 101.49 80.1406 102.246 93.3471C103.003 106.554 112.018 116.778 122.384 116.184Z" fill="#F37A50"/>
<path d="M108.614 97.4256C108.446 98.4099 107.512 99.0687 106.53 98.9021C105.549 98.7336 104.888 97.799 105.057 96.8166C105.225 95.8323 106.159 95.1717 107.141 95.3421C108.122 95.5087 108.783 96.4432 108.614 97.4256Z" fill="black"/>
<path d="M121.796 94.2333C121.614 95.2981 120.604 96.0124 119.54 95.8304C118.476 95.6485 117.762 94.6374 117.944 93.5726C118.125 92.5079 119.136 91.7936 120.2 91.9755C121.264 92.1575 121.979 93.1686 121.796 94.2333Z" fill="black"/>
<path d="M123.38 92.3432C123.233 92.3183 123.093 92.2436 122.988 92.1249C121.442 90.3823 118.788 90.7499 118.763 90.7538C118.391 90.8093 118.047 90.5527 117.99 90.1831C117.934 89.8116 118.189 89.4669 118.558 89.4094C118.696 89.3884 121.96 88.9173 124.004 91.221C124.253 91.5025 124.228 91.9315 123.947 92.1804C123.786 92.326 123.578 92.3777 123.38 92.3432Z" fill="#2C2858"/>
<path d="M103.342 95.6102C103.269 95.5987 103.199 95.5738 103.132 95.5374C102.802 95.3574 102.68 94.9438 102.86 94.6144C104.255 92.054 106.947 92.1306 107.06 92.1364C107.435 92.1517 107.728 92.4677 107.713 92.843C107.698 93.2165 107.384 93.5094 107.011 93.496C106.923 93.4941 105.036 93.4654 104.054 95.2674C103.91 95.5279 103.62 95.6581 103.342 95.6102Z" fill="#2C2858"/>
<path d="M111.877 98.2395C111.223 99.5015 110.693 100.758 109.96 101.602C109.713 101.886 109.736 102.322 110.008 102.583C111.129 103.661 113.588 104.086 115.064 104.249C115.28 104.272 115.36 103.975 115.163 103.885C113.492 103.123 112.668 102.439 112.287 102.043C112.097 101.845 112.019 101.57 112.067 101.302C112.176 100.685 112.388 99.4287 112.48 98.4138C112.516 98.0652 112.04 97.9274 111.877 98.2395Z" fill="#DE623C"/>
<path d="M135.134 92.6764C133.335 95.2138 133.557 98.4636 135.632 99.9381C137.706 101.413 140.847 100.551 142.645 98.0135C144.444 95.4781 144.222 92.2264 142.148 90.7519C140.073 89.2773 136.933 90.1391 135.134 92.6764Z" fill="#F37A50"/>
<path d="M138.347 98.5095C138.246 98.4923 138.148 98.4521 138.06 98.387C136.797 97.4582 136.305 96.133 136.748 94.8461C137.199 93.5267 138.495 92.596 139.829 92.6324C140.204 92.642 140.5 92.956 140.489 93.3314C140.479 93.7067 140.167 94.0035 139.792 93.9939C139.061 93.9748 138.29 94.5436 138.034 95.2904C137.787 96.0066 138.083 96.719 138.866 97.2954C139.168 97.5176 139.233 97.9427 139.011 98.2453C138.853 98.4578 138.592 98.5516 138.347 98.5095Z" fill="#DE623C"/>
<path d="M122.45 105.369C122.359 104.875 122.095 104.469 121.647 104.697C120.508 105.277 118.61 106.194 116.73 106.886C114.851 107.577 112.811 108.106 111.569 108.402C111.081 108.519 111.129 109.008 111.391 109.436C112.474 111.214 115.418 112.575 118.298 111.516C121.178 110.457 122.795 107.209 122.45 105.369Z" fill="white"/>
<path d="M139.674 90.0356C127.667 91.964 107.983 85.0605 104.843 79.4208C104.894 71.4946 115.691 64.2693 123.417 65.6079C131.144 66.9446 141.819 79.4361 139.674 90.0356Z" fill="#2C2858"/>
<path d="M134.642 212.601L73.4944 209.987C73.4944 209.987 70.4784 194.715 72.7461 188.66C75.0158 182.605 131.196 183.853 131.196 183.853L134.642 212.601Z" fill="#2C2858"/>
<path d="M152.625 173.39C154.283 177.222 160.739 188.626 160.116 197.871C159.473 207.414 152.744 215.721 141.358 215.539C141.358 215.539 119.895 203.331 124.542 178.325C124.544 178.325 135.779 173.934 152.625 173.39Z" fill="#332E66"/>
<path d="M143.055 217.716L89.1924 222.801C89.1924 222.801 70.7158 214.999 70.821 208.373C70.9263 201.747 125.197 183.616 125.197 183.616C157.029 174.326 167.638 213.86 143.055 217.716Z" fill="#332E66"/>
<path d="M70.821 208.373L71.9003 284.4C71.9003 284.4 85.346 290.071 90.0575 284.444C92.2812 258.64 102.87 235.782 91.0488 220.051C75.2187 198.982 70.821 208.373 70.821 208.373Z" fill="#332E66"/>
<path d="M72.8764 188.482L28.054 250.08C28.054 250.08 38.0587 263.46 45.0437 261.893C57.0961 246.633 81.4823 228.739 81.6392 209.534C81.8478 183.811 72.8764 188.482 72.8764 188.482Z" fill="#2C2858"/>
<path d="M138.014 116.773L122.452 119.161C115.502 128.816 108.459 137.087 108.446 142.729C108.429 150.155 124.155 182.59 124.155 182.59C137.555 184.357 148.471 182.66 156.746 177.287C150.283 158.999 164.157 135.961 152.185 123.623C149.2 120.542 140.194 120.614 138.014 116.773Z" fill="#E62552"/>
<path d="M72.5011 290.685C72.5011 290.685 67.7878 293.991 61.4611 295.896C57.9227 296.963 48.4672 299.462 50.4363 305.749C50.7311 306.687 51.6075 307.668 54.1604 308.288C57.9303 309.204 62.9576 309.583 71.9749 306.591C82.791 303.001 84.6262 304.06 88.6067 302.476C92.7326 300.835 90.396 295.111 88.911 290.167C88.8919 291.448 88.5244 294.833 81.0783 298.34C78.8546 299.387 80.0468 289.188 72.5011 290.685Z" fill="#2C2858"/>
<path d="M111.47 145.486C106.09 141.361 98.1121 138.252 89.4105 141.664C67.8452 150.123 72.8074 176.676 88.9073 183.721C90.5167 184.426 92.1624 184.924 93.8178 185.23C98.2346 186.046 102.127 188.564 104.64 192.291C107.571 196.642 111.749 200.229 116.935 202.454C130.999 208.482 141.421 200.196 147.744 186.255C154.275 171.86 153.818 156.842 139.388 150.529C134.206 148.261 128.714 147.671 123.518 148.524C119.253 149.223 114.901 148.118 111.47 145.486Z" fill="#3F964F"/>
<path d="M96.0644 153.001L88.9857 169.673L27.6672 139.663L31.9156 129.661L96.0644 153.001Z" fill="#0E6A41"/>
<path d="M41.1626 129.418L42.5347 132.372C42.883 133.123 42.8963 133.987 42.5729 134.749L38.6212 144.06C38.2786 144.866 37.5935 145.475 36.7553 145.722L33.8274 146.582C33.0734 146.804 32.2601 146.712 31.5731 146.327L10.712 134.632C9.41065 133.903 8.86715 132.309 9.45082 130.936L12.8361 122.966C13.4122 121.608 14.9087 120.892 16.3267 121.296L39.314 127.834C40.1292 128.068 40.8047 128.646 41.1626 129.418Z" fill="#3F964F"/>
<path d="M109.858 156.913C115.085 159.135 117.421 165.408 115.079 170.927C112.736 176.444 106.601 179.116 101.375 176.894C96.1486 174.673 93.812 168.397 96.1544 162.88C98.4967 157.361 104.632 154.69 109.858 156.913Z" fill="#0E6A41"/>
<path d="M29.0509 143.123L27.2004 146.024C26.6358 146.909 25.1757 147.085 23.9394 146.421C22.7032 145.754 22.1578 144.498 22.7223 143.614L24.5729 140.712C25.1374 139.828 26.5976 139.651 27.8338 140.316C29.0701 140.98 29.6155 142.239 29.0509 143.123Z" fill="#3F964F"/>
<path d="M20.3627 137.957L18.5121 140.858C17.9476 141.743 16.4874 141.921 15.2512 141.254C14.0149 140.588 13.4695 139.332 14.0341 138.447L15.8846 135.546C16.4491 134.661 17.9093 134.483 19.1455 135.149C20.3818 135.816 20.9272 137.072 20.3627 137.957Z" fill="#3F964F"/>
<path d="M35.3433 128.307L36.1451 124.96C36.39 123.939 35.504 122.763 34.1663 122.336C32.8286 121.907 31.5465 122.386 31.3015 123.406L30.4997 126.754C30.2547 127.775 31.1407 128.948 32.4784 129.377C33.8161 129.808 35.0983 129.328 35.3433 128.307Z" fill="#3F964F"/>
<path d="M25.5948 125.634L26.3966 122.286C26.6415 121.265 25.7555 120.09 24.4178 119.661C23.0801 119.232 21.798 119.71 21.553 120.731L20.7511 124.079C20.5062 125.099 21.3922 126.275 22.7299 126.704C24.0676 127.135 25.3517 126.654 25.5948 125.634Z" fill="#3F964F"/>
<path d="M130.784 172.649C130.652 172.959 130.295 173.103 129.986 172.972L22.4946 127.267C22.1846 127.135 22.0411 126.777 22.1731 126.468C22.3051 126.158 22.663 126.015 22.9711 126.147L130.463 171.852C130.771 171.982 130.917 172.339 130.784 172.649Z" fill="#AFE3B8"/>
<path d="M128.823 177.268C128.691 177.578 128.333 177.722 128.025 177.591L20.533 131.886C20.223 131.754 20.0795 131.396 20.2096 131.088C20.3416 130.777 20.6995 130.634 21.0076 130.766L128.499 176.471C128.809 176.599 128.955 176.957 128.823 177.268Z" fill="#AFE3B8"/>
<path d="M126.861 181.887C126.729 182.197 126.371 182.341 126.063 182.208L18.5715 136.503C18.2615 136.371 18.118 136.013 18.25 135.703C18.382 135.392 18.7399 135.249 19.048 135.381L126.54 181.086C126.85 181.218 126.993 181.576 126.861 181.887Z" fill="#AFE3B8"/>
<path d="M140.406 166.544L129.506 192.212C125.908 190.682 124.23 186.523 125.759 182.923L131.121 170.293C132.652 166.691 136.809 165.014 140.406 166.544Z" fill="#0E6A41"/>
<path d="M150.205 122.638C163.587 125.469 163.44 151.071 164.404 172.553C162.973 179.238 149.334 165.483 149.334 165.483L146.016 148.437C146.018 148.437 141.515 126.518 150.205 122.638Z" fill="#C4204A"/>
<path d="M92.5989 166.944C96.2464 167.923 101.865 168.867 102.236 166.94C102.833 163.847 99.9666 163.602 100.122 161.243C100.259 159.152 105.788 160.05 109.637 168.351L111.116 168.219L112.674 176.423L111.192 176.322C106.448 180.414 94.5776 180.311 88.1955 175.431C81.7348 170.491 87.7324 165.64 92.5989 166.944Z" fill="#F37A50"/>
<path d="M53.1022 155.274C53.0314 155.004 52.9339 154.856 52.9855 154.613C52.9855 154.613 52.863 154.588 52.8382 154.709C50.6068 155.645 48.1917 155.014 47.6425 153.37C47.5717 153.1 47.5009 152.83 47.4282 152.562C45.8877 152.624 44.5002 151.951 44.0926 150.846C43.9242 150.429 43.905 149.916 44.0065 149.427C42.4411 149.611 41.0518 148.939 40.4528 147.539C39.7811 145.871 40.824 143.922 42.7607 143.179C44.6973 142.436 46.722 143.114 47.4167 144.659C47.5851 145.077 47.631 145.467 47.5277 145.956C49.5619 145.36 51.5847 146.038 52.1837 147.436C52.2545 147.706 52.3253 147.976 52.398 148.244C53.9385 148.183 55.3259 148.855 55.7336 149.96C55.902 150.377 55.9211 150.89 55.8446 151.256C57.1669 151.023 58.5544 151.695 58.962 152.798C59.561 154.198 58.5965 155.78 57.0502 156.477C55.5078 157.177 53.728 156.551 53.1022 155.274Z" fill="#F37A50"/>
<path d="M110.714 168.112C110.714 168.112 146.094 163.706 150.735 164.581C155.376 165.456 164.617 167.773 164.347 172.235C164.079 176.695 153.961 182.021 144.885 181.387C135.808 180.753 111.921 176.927 111.921 176.927L110.714 168.112Z" fill="#C4204A"/>
<path d="M29.6632 50.1558C29.5904 49.5813 29.0699 49.1772 28.4977 49.25C28.0939 49.3017 27.7571 49.5832 27.6347 49.972L22.793 63.8557C22.1979 63.7408 21.5874 63.7389 20.9923 63.85C19.1877 64.1927 17.8902 65.3551 18.1447 66.4563C18.3992 67.5574 19.9838 68.13 21.8075 67.7355C23.6312 67.341 24.9096 66.2303 24.6551 65.1292L28.5111 54.0758C28.8326 54.8801 30.8535 59.8495 30.2201 61.5654C30.0976 62.1188 30.4191 62.6722 30.9587 62.835C31.5137 62.9882 32.0897 62.6588 32.2428 62.1016C32.2428 62.0996 32.2428 62.0977 32.2447 62.0958C33.0179 59.8361 29.9081 51.9846 29.6632 50.1558Z" fill="#2C2858"/>
<path d="M196.64 116.018L202.278 101.884C202.452 101.445 202.314 100.943 201.939 100.66L193.532 94.3731L193.278 94.2716L193.142 94.218L193.006 94.1644L192.786 94.0763L192.667 94.0284L192.443 94.0974L192.286 94.1931C192.231 94.2333 192.179 94.2793 192.133 94.3291C192.112 94.3731 192.093 94.4191 192.08 94.465C192.061 94.5033 192.045 94.5436 192.032 94.5838L186.585 108.24C185.996 108.098 185.388 108.069 184.787 108.155C182.969 108.418 181.621 109.523 181.828 110.635C182.035 111.746 183.591 112.388 185.432 112.073C187.271 111.759 188.597 110.706 188.39 109.594L192.271 99.8634L198.944 104.863L195.063 114.594C194.474 114.452 193.865 114.423 193.264 114.509C191.446 114.772 190.099 115.877 190.306 116.989C190.512 118.102 192.068 118.743 193.909 118.427C195.75 118.111 196.795 117.11 196.64 116.018Z" fill="#2C2858"/>
<path d="M94.3249 36.5248L87.9886 27.1202C87.7915 26.8292 87.426 26.7028 87.093 26.8158L79.6966 29.3608L79.5263 29.4757L79.4364 29.537L79.3464 29.5983L79.1991 29.6978L79.1206 29.7515L79.0689 29.9181L79.0613 30.054C79.0632 30.1057 79.0689 30.1555 79.0823 30.2053C79.0995 30.2379 79.1206 30.2685 79.1436 30.2953C79.1589 30.324 79.178 30.3489 79.1971 30.3757L85.319 39.4624C84.9861 39.7669 84.7124 40.1308 84.5134 40.5348C83.9125 41.7662 84.0273 43.0607 84.7985 43.3997C85.5697 43.7386 86.6165 43.0473 87.1964 41.7834C87.7743 40.5176 87.6825 39.2575 86.9113 38.9186L82.5499 32.4439L88.4269 30.4274L92.7882 36.9021C92.4552 37.2065 92.1816 37.5704 91.9825 37.9745C91.3816 39.2058 91.4965 40.5003 92.2677 40.8393C93.0389 41.1783 94.0857 40.4869 94.6655 39.223C95.2397 37.9553 95.0617 36.8867 94.3249 36.5248Z" fill="#BACCFF"/>
<path d="M36.0167 370.861C33.3107 359.788 37.0329 348.572 47.183 337.21C48.5016 352.4 44.7814 363.616 36.0167 370.861Z" fill="#8FABFF"/>
<path d="M52.3825 356.127C51.4716 345.776 56.3707 336.186 67.0817 327.356C66.1822 341.23 61.2831 350.818 52.3825 356.127Z" fill="#8FABFF"/>
<path d="M69.5178 341.946C70.1072 332.094 76.0493 323.765 87.3458 316.965C84.5862 329.884 78.6423 338.21 69.5178 341.946Z" fill="#8FABFF"/>
<path d="M106.796 313.189C102.23 323.38 95.8425 329.225 87.6289 330.72C89.8737 322.653 96.2615 316.808 106.796 313.189Z" fill="#8FABFF"/>
<path d="M121.806 315.276C116.533 322.993 110.41 326.86 103.436 326.873C106.463 320.575 112.587 316.708 121.806 315.276Z" fill="#8FABFF"/>
<path d="M109.891 330.313C114.966 325.514 122.068 324.095 131.198 326.057C123.507 331.373 116.405 332.793 109.891 330.313Z" fill="#8FABFF"/>
<path d="M67.8184 349.244C76.8758 346.745 86.2146 349.558 95.8347 357.684C83.3518 359.133 74.013 356.32 67.8184 349.244Z" fill="#8FABFF"/>
<path d="M105.637 348.463C94.7709 349.735 86.6454 347.287 81.2603 341.123C89.1389 338.942 97.2644 341.387 105.637 348.463Z" fill="#8FABFF"/>
<path d="M96.3113 335.598C104.19 333.436 112.315 335.883 120.688 342.938C109.818 344.206 101.693 341.76 96.3113 335.598Z" fill="#8FABFF"/>
<path d="M52.2466 361.238C61.4763 356.569 72.1738 357.559 84.341 364.21C71.1768 368.528 60.4793 367.538 52.2466 361.238Z" fill="#8FABFF"/>
<path d="M40.0068 372.194C48.6988 366.585 59.4403 366.451 72.2352 371.791C59.5953 377.462 48.8538 377.598 40.0068 372.194Z" fill="#8FABFF"/>
<path d="M107.407 330.97C107.407 331.172 107.323 331.368 107.173 331.506L106.854 331.801C106.659 331.887 106.448 331.935 106.236 331.938L106.197 332.027L105.732 332.009C100.541 332.379 93.5326 334.685 84.7086 338.924C76.9792 342.542 69.6708 346.996 62.9098 352.207C59.4881 354.79 56.2004 357.55 53.0619 360.472L52.2467 361.238C46.3085 366.824 43.4744 368.99 40.1216 372.351C39.2068 372.45 38.2902 372.548 37.3716 372.644C41.863 367.835 44.745 365.843 51.8831 359.208C55.1804 356.138 58.491 353.312 61.8151 350.728C68.6929 345.523 76.1142 341.079 83.9489 337.475C93.0446 333.065 100.254 330.726 105.574 330.464L106.199 330.177C106.343 330.029 106.572 330.006 106.743 330.123C106.946 330.123 107.139 330.207 107.279 330.355C107.369 330.548 107.413 330.759 107.407 330.97Z" fill="#8FABFF"/>
<path d="M5.60635 375.417C4.1577 375.518 2.7033 375.618 1.24509 375.713C-3.07407 369.936 -4.72746 362.136 -3.71321 352.312C3.08414 360.162 6.19002 367.864 5.60635 375.417Z" fill="#8FABFF"/>
<path d="M6.89423 359.995C1.13975 353.417 -0.289766 344.466 2.60566 333.149C8.89598 343.009 10.3255 351.958 6.89423 359.995Z" fill="#8FABFF"/>
<path d="M12.5205 318.658C15.9767 327.925 15.5824 335.587 11.3341 341.642C7.73252 335.159 8.12865 327.498 12.5205 318.658Z" fill="#8FABFF"/>
<path d="M23.2813 310.63C24.7548 318.779 23.2966 325.027 18.9105 329.376C16.9011 323.522 18.3593 317.273 23.2813 310.63Z" fill="#8FABFF"/>
<path d="M25.1145 327.528C25.3307 321.343 28.9266 316.027 35.902 311.582C34.3595 319.721 30.7637 325.037 25.1145 327.528Z" fill="#8FABFF"/>
<path d="M10.3599 365.652C14.5183 358.438 22.1539 354.398 33.2686 353.532C26.299 362.218 18.6614 366.257 10.3599 365.652Z" fill="#8FABFF"/>
<path d="M33.7164 341.619C27.6558 349.183 21.0114 352.699 13.7834 352.165C17.3965 345.885 24.0389 342.369 33.7164 341.619Z" fill="#8FABFF"/>
<path d="M19.8384 339.313C23.461 333.047 30.1053 329.531 39.7714 328.767C33.7069 336.333 27.0626 339.849 19.8384 339.313Z" fill="#8FABFF"/>
<path d="M24.1251 330.357C24.0562 330.533 23.9529 330.692 23.8209 330.828L23.8515 330.908L23.5472 331.186C20.5044 334.65 17.5191 340.466 14.5912 348.632C11.9694 355.725 10.1284 363.082 9.10653 370.576C8.88072 372.115 8.68743 373.661 8.52668 375.208C7.9985 375.246 7.47032 375.285 6.94214 375.321C7.09523 373.626 7.28087 371.962 7.49711 370.325C8.59748 362.762 10.5131 355.342 13.2114 348.191C16.2044 339.748 19.2969 333.788 22.487 330.311L22.7033 329.74C22.7013 329.556 22.8334 329.399 23.0133 329.367C23.1396 329.24 23.3156 329.173 23.4936 329.181C23.6716 329.246 23.8304 329.351 23.9587 329.489C24.085 329.617 24.1519 329.792 24.1443 329.972L24.1251 330.357Z" fill="#8FABFF"/>
<path d="M30.0786 364.804C28.2434 368.371 26.2206 371.418 24.0122 373.944C20.2327 374.285 16.4168 374.605 12.5684 374.901C16.4876 370.39 22.3243 367.023 30.0786 364.804Z" fill="#8FABFF"/>
</svg>
