<svg width="319" height="348" viewBox="0 0 319 348" fill="none" xmlns="http://www.w3.org/2000/svg">
<g clip-path="url(#clip0)">
<path d="M245.291 171.402L202.052 228.615C205.076 229.943 205.732 233.876 205.812 237.17C206.452 262.723 197.907 287.796 198.115 313.365C198.115 314.228 198.163 315.14 198.659 315.827C199.315 316.723 200.531 316.963 201.619 317.138C207.765 318.098 213.91 319.057 220.039 320.017C222.839 307.208 225.64 294.4 229.192 281.784C237.658 251.69 250.428 222.267 251.74 191.022C252.044 183.842 251.18 175.543 245.291 171.402Z" fill="#685F65"/>
<path d="M54.9537 207.716L319 288.308L297.492 306.217L275.984 302.027L290.323 310.982L250.3 335.463L184.592 321.136L238.346 342.02L227 348L0 248.316L27.4768 234.58L52.5692 247.708L34.054 229.799L54.9537 207.716Z" fill="#D6E7F7"/>
<path d="M298.084 297.854C298.084 299.645 150.538 242.335 150.538 242.335L298.084 297.854Z" fill="#A1C3E6"/>
<path d="M236.474 168.411C213.478 164.925 190.433 172.617 168.446 180.196C156.7 184.242 144.937 188.303 133.447 193.021C110.868 202.295 92.2402 228.855 104.13 253.401C104.866 254.936 105.811 256.503 107.331 257.254C108.611 257.878 110.115 257.814 111.54 257.718C140.809 255.639 168.126 242.911 194.418 229.943C196.803 228.759 199.587 227.56 202.035 228.631L245.275 171.418C242.731 169.595 239.562 168.875 236.474 168.411Z" fill="#685F65"/>
<path d="M188.241 137.966C191.586 138.637 194.466 141.004 196.098 143.994C197.683 146.872 198.723 150.774 201.923 151.525C203.204 151.829 204.548 151.493 205.812 151.126C215.654 148.311 224.903 143.418 232.777 136.846C236.553 133.696 240.986 129.906 245.739 131.202C250.028 132.385 252.204 137.55 251.452 141.947C250.7 146.345 247.819 150.022 244.859 153.332C244.315 153.94 243.755 154.564 243.051 154.979C241.642 155.811 239.914 155.731 238.282 155.907C232.153 156.594 227.32 161.184 222.647 165.197C212.229 174.088 200.259 181.156 187.425 185.953C185.28 186.752 182.816 187.472 180.816 186.401C179.599 185.745 178.783 184.546 178.047 183.394C173.838 176.854 170.03 170.074 166.621 163.087C165.661 161.12 164.733 159.073 164.573 156.898C164.317 153.14 166.477 149.543 169.374 147.128C172.366 144.634 176.223 143.578 179.183 141.228C182.016 138.941 184.272 137.166 188.241 137.966Z" fill="#E07D69"/>
<path d="M197.682 145.689C197.89 146.488 198.082 147.336 197.89 148.135C197.602 149.287 196.545 150.054 195.569 150.726C186.864 156.642 177.678 161.839 168.124 166.269C163.884 157.826 159.643 149.367 155.402 140.924C149.417 128.995 143.272 116.33 144.2 103.01C144.648 96.6942 146.697 90.5859 149.369 84.8613C151.625 80.0322 155.818 71.5732 162.363 73.1403C168.252 74.5474 172.829 82.7345 175.854 87.4357C183.103 98.677 187.936 111.262 191.793 123.99C193.969 131.17 195.841 138.429 197.682 145.689Z" fill="#0066CC"/>
<path d="M197.331 144.298C195.986 145.289 194.722 146.408 193.522 147.704C190.513 150.982 187.889 153.812 182.96 152.965C172.734 151.222 175.055 139.117 172.094 132.193C169.678 126.532 171.758 122.871 173.326 116.442C174.943 109.854 173.118 104.977 170.862 98.0374C168.045 89.3866 159.052 82.6066 157.996 73.572C153.899 75.4749 151.082 81.1835 149.37 84.8453C146.698 90.5699 144.649 96.6782 144.201 102.994C143.257 116.298 149.402 128.979 155.403 140.908C159.644 149.351 163.885 157.81 168.125 166.253C177.679 161.823 186.865 156.61 195.57 150.71C196.546 150.038 197.603 149.271 197.891 148.119C198.099 147.32 197.891 146.472 197.683 145.673C197.571 145.225 197.443 144.761 197.331 144.298Z" fill="#0059B3"/>
<path d="M110.275 62.2828C104.802 62.9864 99.1854 63.8978 94.4006 66.6642C89.8718 69.2706 86.3992 73.3642 83.3587 77.6176C69.7403 96.6942 63.5952 119.928 56.57 142.283C51.6571 157.906 46.1521 173.464 43.7197 189.663C41.2713 205.861 42.0714 223.019 49.3047 237.73C49.6407 238.417 50.0408 239.153 50.7129 239.521C52.3132 240.4 54.1215 238.833 55.2737 237.426C61.4668 229.815 115.796 207.492 127.766 209.251C131.735 209.827 150.17 189.95 152.379 186.592C153.195 185.361 160.284 176.167 161.052 155.955C161.564 142.251 176.239 114.955 174.815 101.315C173.55 89.1787 168.75 72.5806 157.596 65.6408C145.017 57.8054 124.102 60.4918 110.275 62.2828Z" fill="#0066CC"/>
<path d="M161.917 102.994C155.019 100.5 146.698 97.3178 141.177 92.5367C136.792 88.731 134.28 83.2942 129.863 79.5524C125.686 76.0186 120.405 74.1317 114.996 73.7159C103.842 72.8524 90.9921 78.4011 85.9672 88.8429C80.5742 100.036 84.4949 113.66 79.9181 125.301C77.2777 131.985 73.533 137.662 72.0767 144.825C70.8925 150.646 70.1564 156.147 67.5159 161.583C62.8911 171.114 54.5377 178.293 49.1607 187.296C48.0885 189.823 46.9203 192.317 45.6081 194.764C44.936 196.027 43.9438 196.842 42.8236 197.338C41.6874 211.186 43.1917 225.337 49.2887 237.746C49.6248 238.433 50.0249 239.169 50.697 239.537C52.2973 240.416 54.1056 238.849 55.2578 237.442C61.4509 229.831 115.78 207.508 127.751 209.267C131.719 209.843 150.154 189.966 152.363 186.608C153.179 185.377 160.268 176.183 161.036 155.971C161.484 143.818 173.07 121 174.703 106.464C170.286 106.161 165.581 104.322 161.917 102.994Z" fill="#0059B3"/>
<path d="M48.1684 169.483C47.4962 171.897 46.8561 174.328 46.28 176.774C47.1762 174.696 47.8483 172.457 48.1524 169.707C48.1524 169.627 48.1524 169.547 48.1684 169.483Z" fill="#BF493A"/>
<path d="M167.101 34.4594C165.901 33.3241 164.461 32.2527 162.813 32.1728C160.364 32.0768 158.428 34.1236 156.86 35.9945C148.362 46.1804 144.665 49.9541 136.168 60.1241C132.199 74.7073 150.475 91.5932 151.579 90.9376C156.988 87.7395 158.332 87.5477 163.229 83.614C168.494 79.3925 170.862 78.4171 176.207 74.2756C177.247 73.4761 178.271 72.5806 178.751 71.3653C179.216 70.198 179.088 68.8868 178.928 67.6236C177.583 57.1978 175.119 42.0549 167.101 34.4594Z" fill="#E07D69"/>
<path d="M178.751 71.3813C179.215 70.214 179.087 68.9028 178.927 67.6396C177.919 59.7563 176.271 49.2346 172.094 41.2713C169.31 45.9885 166.717 50.8176 164.333 55.7427C161.884 60.8276 159.596 66.3603 160.396 71.941C160.908 75.5229 163.165 79.2326 165.277 82.1589C169.118 79.6964 172.606 77.0579 176.207 74.2756C177.231 73.5081 178.271 72.5966 178.751 71.3813Z" fill="#C96657"/>
<path d="M197.362 23.474C198.499 30.142 198.835 36.9379 198.371 43.6859C198.275 45.0771 198.067 46.6121 196.994 47.5076C196.274 48.0993 195.25 48.3551 194.77 49.1546C194.354 49.8422 194.514 50.7217 194.674 51.5212C195.458 55.3109 196.242 59.0847 197.026 62.8744C193.762 65.1611 192.098 63.562 191.377 64.2496C190.689 64.9052 190.673 66.0086 190.273 66.872C189.873 67.7355 188.993 68.551 188.065 68.3112C188.273 69.0627 188.465 69.7983 188.673 70.5498C186.753 70.7097 185.776 72.9164 185.328 74.8033C184.88 76.6902 184.304 78.9128 182.48 79.5685C181.744 79.8243 180.944 79.7763 180.175 79.6804C171.742 78.7529 163.212 74.4515 159.372 66.888C157.419 63.0503 156.795 58.6689 156.683 54.3675C156.427 44.1496 158.956 33.9957 163.132 24.6733C166.077 18.1172 171.822 10.01 180.175 12.2807C183.504 13.1921 186.737 14.3754 190.113 15.2389C194.722 16.4222 196.578 18.8687 197.362 23.474Z" fill="#F6947A"/>
<path d="M190.529 63.578C191.441 63.1143 192.546 63.0023 193.538 63.2582" stroke="#D36853" stroke-width="0.5" stroke-miterlimit="10"/>
<path d="M188.033 68.535C188.065 68.6949 187.857 68.7749 187.697 68.8069C185.889 69.0467 184.048 69.1267 182.224 69.0627" stroke="#D36853" stroke-width="0.5" stroke-miterlimit="10"/>
<path d="M182.8 49.3945C183.408 48.9148 184.016 48.4351 184.752 48.1792C185.328 47.9713 185.937 47.9234 186.545 47.9234C188.913 47.9234 191.266 48.7549 193.634 48.531" stroke="#864041" stroke-miterlimit="10"/>
<path d="M184.272 52.2568C184.208 52.5286 184.56 52.6885 184.848 52.7365C186.513 52.9923 188.209 52.9444 189.841 52.6245" stroke="#864041" stroke-width="0.5" stroke-miterlimit="10"/>
<path d="M203.988 25.8246C203.78 24.9131 203.268 24.0976 202.595 23.442C203.396 23.1382 203.94 22.3067 204.02 21.4432C204.1 20.4997 203.748 19.5883 203.252 18.7728C202.579 17.6694 201.587 16.694 200.355 16.3103H200.339C200.499 16.1024 200.643 15.8625 200.739 15.6067C201.299 14.1196 200.659 12.3446 199.475 11.2893C198.291 10.2179 196.642 9.78615 195.042 9.75417C194.658 9.73818 194.258 9.77016 193.874 9.83412C194.05 8.98663 194.002 8.10715 193.682 7.30763C192.898 5.34081 190.737 4.09355 188.625 4.22148C186.977 4.31742 185.44 5.21288 184.4 6.49212C184.864 5.22887 184.592 3.64582 183.632 2.63842C182.352 1.29523 180.192 0.991408 178.479 1.72697C177.167 2.28663 176.143 3.38997 175.503 4.66921C175.679 3.61384 175.311 2.44654 174.527 1.71098C173.422 0.655609 171.694 0.399761 170.254 0.879475C169.374 1.1673 168.541 1.74296 168.141 2.57446C168.109 2.62243 168.109 2.68639 168.093 2.73437C167.373 1.21527 165.853 0.0479718 164.173 4.24683e-07C162.108 -0.0639613 160.204 1.53508 159.66 3.50191C158.652 2.78234 157.228 2.60644 156.027 2.99021C154.411 3.5179 153.179 4.8451 152.363 6.34821C151.723 7.5315 151.418 9.08257 151.851 10.2659C150.858 9.54629 149.338 9.43436 148.218 10.026C146.602 10.8735 145.689 12.6644 145.161 14.4074C144.745 15.7826 144.665 17.5255 145.321 18.6928C144.121 18.1651 142.505 18.421 141.609 19.4444C140.313 20.9155 140.473 23.2821 141.577 24.8971C141.897 25.3608 142.409 25.7606 142.937 25.9365C142.921 26.0005 142.921 26.0484 142.905 26.1124C140.697 27.1358 139.16 29.6463 139.528 32.0768C139.704 33.2121 140.249 34.3155 141.177 34.9871C141.497 35.211 141.865 35.3549 142.249 35.4508C142.249 35.7866 142.233 36.1224 142.249 36.4422C142.249 36.6661 142.281 36.8899 142.281 37.1298C141.385 38.2491 140.761 39.5923 140.505 40.9995C140.233 42.4706 140.377 44.0856 141.273 45.2689C141.721 45.8606 142.377 46.2923 143.097 46.4842C143.193 47.2518 143.289 48.0193 143.401 48.7708C143.225 49.0907 143.049 49.4265 142.921 49.7782C142.409 51.1055 142.361 52.6725 143.129 53.8718C143.897 55.0551 145.641 55.6307 146.826 54.8632C146.874 54.8312 146.922 54.7833 146.97 54.7513C147.866 55.151 148.762 55.5508 149.658 55.9506C149.658 56.7821 149.978 57.9014 150.81 57.8694C151.114 57.8534 151.37 57.6935 151.627 57.5176C153.291 56.3183 154.699 54.7513 155.691 52.9763C155.595 54.0477 155.707 55.1191 155.995 56.1584C156.107 56.5742 156.331 57.0539 156.747 57.1339C157.227 57.2298 157.628 56.798 157.9 56.3983C159.212 54.4634 160.076 52.2248 160.46 49.9222C160.476 49.9381 160.492 49.9382 160.508 49.9541C160.428 50.7377 160.428 51.5372 160.732 52.2568C161.116 53.1682 162.188 53.8878 163.101 53.52C163.645 53.3121 163.965 52.8004 164.173 52.2408C164.397 52.3207 164.621 52.4007 164.861 52.4487C165.213 52.8484 165.725 53.1203 166.269 53.1203C167.341 53.1203 168.285 52.3047 168.718 51.3293C168.766 51.2014 168.798 51.0735 168.846 50.9455C168.878 50.8496 168.91 50.7537 168.942 50.6577C168.974 50.5618 168.99 50.4498 169.006 50.3539C169.022 50.3059 169.022 50.242 169.038 50.194C169.134 49.6823 169.166 49.1546 169.15 48.6269C169.358 49.4105 170.686 49.8422 171.406 49.2506C172.27 48.547 172.318 47.2518 172.094 46.1644C171.934 45.3649 171.662 44.5973 171.31 43.8618C171.95 44.1496 172.766 44.1656 173.342 43.7339C173.87 43.3341 174.158 42.7425 174.287 42.1028C174.943 41.7191 175.519 41.2873 175.983 40.7596C176.303 40.6957 176.623 40.5518 176.831 40.3759C178.239 39.2086 176.623 37.0499 177.599 36.1704C178.511 35.3549 180.64 36.746 181.84 36.0265C182.832 35.4348 183.424 33.7718 183.312 32.4446C183.408 32.4286 183.52 32.4286 183.616 32.4126C184.08 33.2122 184.608 33.9637 185.248 34.6353C185.777 35.195 186.529 35.7226 187.265 35.5148C187.681 35.3868 187.985 35.0511 188.257 34.6993C188.737 34.0756 189.137 33.388 189.457 32.6685C189.953 32.7164 190.449 32.7484 190.929 32.7644C191.858 34.0596 193.522 34.8752 195.09 34.5074C196.882 34.0756 198.067 32.2207 198.067 30.4298C198.227 30.2699 198.403 30.126 198.547 29.9501C199.475 30.6857 200.851 30.9255 201.955 30.4138C203.572 29.5983 204.388 27.5675 203.988 25.8246Z" fill="#864041"/>
<path d="M158.028 44.6293C156.843 43.3501 155.211 42.1828 153.483 42.4386C152.315 42.5985 151.306 43.3981 150.682 44.3895C150.058 45.3809 149.77 46.5482 149.642 47.7155C149.178 51.7451 150.49 55.9665 153.179 59.0207C154.475 60.4918 156.283 61.7711 158.236 61.4992C159.724 61.2914 160.988 60.172 161.612 58.7969C163.645 54.1436 161.244 48.0993 158.028 44.6293Z" fill="#F6947A"/>
<path d="M152.555 47.1078C152.683 46.836 153.083 46.9799 153.323 47.1558C155.259 48.6429 156.779 50.6417 157.724 52.8964" stroke="#D36853" stroke-width="0.5" stroke-miterlimit="10"/>
<path d="M151.834 50.4818C153.419 50.0341 155.163 50.178 156.667 50.8656" stroke="#D36853" stroke-width="0.5" stroke-miterlimit="10"/>
<path d="M201.331 245.086C200.739 246.701 199.811 248.252 199.811 249.963C199.827 253.081 202.836 255.303 205.748 256.455C212.037 258.949 218.999 258.869 225.752 259.301C240.57 260.228 255.725 263.666 270 259.605C272.8 258.805 276.033 257.014 275.921 254.12C275.841 252.025 273.984 250.474 272.224 249.339C262.542 243.119 250.844 240.848 240.666 235.491C233.305 231.622 226.888 226.217 220.727 220.636C218.326 218.461 215.862 216.191 212.805 215.135C208.309 213.6 202.932 215.215 200.019 218.957C193.058 227.896 204.708 235.827 201.331 245.086Z" fill="#7CA2A5"/>
<path d="M273.968 250.634C264.575 257.158 253.501 256.071 242.347 254.536C234.297 253.432 226.2 253.528 218.15 252.489C211.605 251.642 206.484 249.227 200.851 246.285C200.339 247.484 199.811 248.683 199.827 249.979C199.843 253.097 202.852 255.319 205.764 256.471C212.053 258.965 219.015 258.885 225.768 259.317C240.586 260.244 255.741 263.682 270.016 259.621C272.816 258.821 276.049 257.03 275.937 254.136C275.857 252.729 275.024 251.594 273.968 250.634Z" fill="#450200"/>
<path d="M147.05 117.05C145.562 111.469 142.105 106.161 136.856 103.746C128.055 99.7004 117.797 104.865 110.371 111.086C89.6798 128.451 77.9978 153.988 66.9558 178.645C59.4985 195.307 53.1774 209.299 50.761 227.4L50.809 227.288C50.633 241.903 60.3147 256.039 73.853 261.62C87.6315 267.312 104.45 264.178 115.716 254.424C129.815 242.207 134.28 222.507 137.768 204.166C142.169 181.012 146.298 157.746 147.914 134.24C148.298 128.499 148.522 122.631 147.05 117.05Z" fill="#797276"/>
<path d="M137.144 111.309C129.815 107.504 122.198 120.504 119.349 125.445C115.316 132.449 110.707 141.563 110.755 149.894C110.82 161.615 118.325 174.664 124.998 183.81C128.823 189.039 133.528 194.092 138.92 198.09C142.873 176.95 146.442 155.715 147.914 134.272C148.314 128.515 148.538 122.647 147.05 117.066C146.442 114.763 145.466 112.525 144.201 110.494C142.425 112.061 139.849 112.717 137.144 111.309Z" fill="#685F65"/>
<path d="M137.992 103.938C144.938 107.008 150.106 113.004 154.699 119.065C178.687 150.758 193.474 189.279 221.303 217.662C214.998 226.537 206.772 234.052 197.363 239.521C179.456 226.169 162.621 211.378 147.082 195.323C136.056 183.938 125.478 171.577 119.925 156.738C116.661 147.992 115.252 138.669 114.484 129.363C113.94 122.791 112.516 111.901 117.493 106.704C122.63 101.347 131.559 101.092 137.992 103.938Z" fill="#797276"/>
<path d="M228.856 238.449C230.985 235.667 233.433 233.125 236.137 230.87" stroke="white" stroke-miterlimit="10"/>
<path d="M236.794 241.296C237.002 241.472 236.409 241.456 236.505 241.2C236.602 240.944 236.938 240.88 237.098 240.672C238.506 238.689 240.25 236.93 242.219 235.507" stroke="white" stroke-miterlimit="10"/>
<path d="M243.947 244.558C245.899 242.671 247.851 240.784 249.804 238.897C250.156 238.561 250.892 238.338 250.956 238.817" stroke="white" stroke-miterlimit="10"/>
<path d="M251.948 246.381C252.06 246.733 252.572 246.78 252.876 246.573C253.18 246.365 253.324 245.997 253.485 245.661C254.157 244.222 255.325 243.039 256.749 242.351" stroke="white" stroke-miterlimit="10"/>
<path d="M287.842 88.8749C287.842 88.8749 284.434 87.8355 273.44 103.01L282.61 104.577L287.842 88.8749Z" fill="#CCD8DB"/>
<path d="M282.61 104.562C282.61 104.562 284.706 95.1431 291.251 92.5207L287.842 88.8589C287.842 88.8749 278.417 91.4813 282.61 104.562Z" fill="#E4ECEF"/>
<path d="M226.056 139.101L224.487 134.384L262.974 95.415L264.014 100.644L261.134 112.413L226.056 139.101Z" fill="#CCD8DB"/>
<path d="M282.61 104.562C282.61 104.562 280.769 92.7925 262.974 95.399L264.014 100.628L272.4 106.384L282.61 104.562Z" fill="#E4ECEF"/>
<path d="M226.056 139.101C225.208 139.501 264.014 100.644 264.014 100.644C264.014 100.644 278.417 98.8049 282.61 104.562L242.283 139.884C242.283 139.884 230.504 137.006 226.056 139.101Z" fill="#161E00"/>
<path d="M240.65 148.295C241.226 146.552 241.53 144.713 241.53 142.875C241.53 139.996 240.874 136.894 242.347 134.416C242.635 133.92 243.051 133.456 243.595 133.312C244.379 133.104 245.227 133.648 245.611 134.368C246.011 135.087 246.075 135.935 246.123 136.75C246.219 133.984 246.523 130.834 248.732 129.155C249.116 128.851 249.596 128.611 250.076 128.643C250.988 128.707 251.548 129.666 251.788 130.546C252.012 131.425 252.108 132.417 252.716 133.088C253.533 128.595 256.093 124.438 259.742 121.687C259.742 123.302 259.742 124.901 259.742 126.516C259.838 124.486 260.798 122.519 262.334 121.192C262.43 123.59 261.822 125.957 261.23 128.291C259.79 133.904 258.365 139.533 256.925 145.145C256.717 145.961 256.493 146.824 255.917 147.448C255.341 148.071 254.301 148.359 253.645 147.832C253.933 149.223 253.373 150.774 252.252 151.653C251.132 152.533 249.5 152.709 248.204 152.085C248.044 154.212 245.595 155.731 243.515 155.235C241.434 154.739 239.978 152.613 239.914 150.47C239.85 148.327 240.986 146.281 242.587 144.873" fill="#F6947A"/>
<path d="M247.148 146.153C247.26 142.587 246.924 139.005 246.171 135.503" stroke="#D36853" stroke-width="0.5" stroke-miterlimit="10"/>
<path d="M252.492 143.386C253.261 139.884 253.309 136.239 252.604 132.721" stroke="#D36853" stroke-width="0.5" stroke-miterlimit="10"/>
<path d="M258.109 135.727C259.038 132.529 259.502 129.203 259.486 125.877" stroke="#D36853" stroke-width="0.5" stroke-miterlimit="10"/>
<path d="M98.6252 125.109C100.978 125.685 103.458 125.237 105.746 124.47C114.228 121.639 120.677 114.779 126.166 107.728C128.086 105.249 130.007 102.547 130.279 99.4286C130.599 95.7987 128.63 92.3768 126.518 89.4185C124.374 86.4283 121.877 83.5021 118.517 81.983C114.564 80.2081 109.955 80.6238 105.762 81.7591C101.746 82.8465 97.889 84.5734 94.3844 86.8281C92.176 88.2512 90.0317 89.9942 88.9115 92.3608C88.0473 94.1837 87.8393 96.2625 87.7913 98.2773C87.6793 103.794 88.7354 109.311 90.8158 114.428C92.3841 118.265 94.1444 124.006 98.6252 125.109Z" fill="#004D99"/>
<path d="M257.437 113.484C256.829 111.086 253.388 110.99 251.116 111.933C248.844 112.877 246.699 113.308 244.219 113.308L245.099 110.686C241.546 112.621 236.937 111.629 233.017 110.606C229.096 109.567 225.159 108.111 221.111 108.463C217.606 108.767 214.389 110.382 211.077 111.565C199.459 115.691 186.577 114.316 174.654 111.166C162.732 108.015 151.306 103.17 139.288 100.372C136.088 99.6205 132.839 99.0128 129.799 97.7656C125.174 95.8627 121.285 92.5687 117.252 89.6264C113.22 86.6842 108.739 83.9658 103.762 83.5181C99.5693 83.1503 94.9765 84.8453 92.6401 88.2033L92.8001 87.8835C92.6881 88.0754 92.5761 88.2513 92.464 88.4431C92.368 88.5871 92.288 88.731 92.208 88.8909C90.0316 92.5687 87.9993 96.2465 87.9993 100.452C87.9993 103.218 88.8954 105.889 89.9516 108.447C92.6081 114.875 96.4808 121.032 102.194 125.013C106.707 128.147 112.099 129.746 117.428 131.074C132.407 134.799 147.818 136.782 163.26 136.974C179.391 137.166 195.746 135.423 211.493 138.941C218.87 140.588 227 143.274 233.593 139.581C235.257 138.653 236.825 136.558 235.737 135.007C237.786 134.671 239.93 134.288 241.61 133.072C243.291 131.857 244.331 129.475 243.387 127.62C246.619 126.996 249.708 125.701 252.412 123.83C253.356 123.174 254.3 122.407 254.701 121.319C255.101 120.232 254.717 118.809 253.644 118.393C255.613 117.37 257.981 115.659 257.437 113.484Z" fill="#F6947A"/>
<path d="M80.334 90.6498C81.9663 82.7505 86.351 75.363 92.8802 70.6138C99.3933 65.8646 108.051 63.9618 115.828 66.0725C118.469 66.7921 121.013 67.9594 123.077 69.7663C125.718 72.0689 127.43 75.267 128.662 78.5291C130.967 84.5894 131.879 91.1775 131.319 97.6376C127.766 94.9033 123.366 93.5441 119.029 92.4248C112.164 90.6338 104.226 89.4186 98.4972 93.6081C94.5125 96.5183 92.5281 101.539 92.1601 106.464C91.792 111.373 92.8482 116.283 93.8884 121.096C85.5029 111.613 80.9581 98.8369 81.4702 86.1885" fill="#0066CC"/>
<path d="M244.475 112.845C244.779 112.861 244.443 113.308 244.139 113.34C236.825 113.9 229.416 113.308 222.263 111.597" stroke="#D36853" stroke-width="0.5" stroke-miterlimit="10"/>
<path d="M253.852 118.137C249.26 118.185 244.875 119.848 240.394 120.872C235.929 121.895 230.936 122.215 227.032 119.816" stroke="#D36853" stroke-width="0.5" stroke-miterlimit="10"/>
<path d="M243.627 127.524C243.419 127.987 242.794 128.019 242.282 128.003C239.114 127.94 236.041 128.947 232.905 129.443C229.768 129.938 226.28 129.794 223.847 127.78" stroke="#D36853" stroke-width="0.5" stroke-miterlimit="10"/>
<path d="M235.561 135.215C233.081 135.247 230.6 135.279 228.136 135.327C226.6 135.343 225.063 135.375 223.559 135.087C222.055 134.799 220.567 134.192 219.494 133.12" stroke="#D36853" stroke-width="0.5" stroke-miterlimit="10"/>
</g>
<defs>
<clipPath id="clip0">
<rect width="319" height="348" fill="white"/>
</clipPath>
</defs>
</svg>
