<svg width="391" height="336" viewBox="0 0 391 336" fill="none" xmlns="http://www.w3.org/2000/svg">
<g filter="url(#filter0_d)">
<rect x="24" y="16" width="343" height="288" rx="16" fill="#0066CC"/>
<g clip-path="url(#clip0)">
<path d="M340.195 265.365C337.361 261.407 338.825 255.156 338.825 255.156C338.825 255.156 337.986 227.656 333.577 221.198C333.577 221.198 327.275 206.197 326.228 205.571C325.181 204.945 318.882 200.572 319.509 198.175C319.509 198.175 318.558 198.5 317.207 198.995C317.172 198.905 317.139 198.815 317.103 198.722C316.714 197.653 316.281 196.396 315.87 195.114C315.913 195.091 315.953 195.063 315.988 195.029C316.019 195.098 316.055 195.164 316.095 195.228C316.519 195.874 317.322 196.171 318.095 196.251C318.479 196.311 318.872 196.26 319.227 196.103C319.48 195.966 319.684 195.754 319.81 195.496C319.761 195.518 319.709 195.532 319.657 195.551C319.956 195.088 320.092 194.539 320.046 193.99C320 193.209 319.775 192.448 319.387 191.768C318.999 191.087 318.46 190.505 317.81 190.065C318.072 189.972 318.31 189.825 318.512 189.633L318.618 189.707C318.711 189.61 318.796 189.505 318.871 189.393C318.789 189.444 318.703 189.489 318.616 189.53C318.856 189.279 319.032 188.974 319.13 188.641C319.228 188.308 319.244 187.957 319.177 187.616C319.076 187.958 318.668 188.086 318.317 188.163C318.111 188.207 317.931 188.242 317.769 188.269C318.196 187.462 318.548 186.618 318.821 185.747C319.336 183.891 319.062 181.92 318.627 180.045C318.038 177.517 317.067 174.915 314.99 173.266C314.05 172.58 313.03 172.007 311.954 171.561C310.981 171.072 309.961 170.683 308.91 170.399C307.841 170.15 306.718 170.126 305.644 169.981C303.528 169.708 301.481 168.989 299.341 168.871C297.201 168.754 294.831 169.393 293.738 171.159C293.389 171.689 293.225 172.32 293.272 172.952C293.275 173 293.282 173.047 293.291 173.094C293.291 173.094 293.291 173.094 293.291 173.108C293.406 174.22 294.335 175.133 295.398 175.584C295.577 175.659 295.76 175.723 295.946 175.776C294.323 177.14 293.068 178.888 292.297 180.861C291.525 182.833 291.261 184.967 291.529 187.067C291.797 189.167 292.588 191.167 293.83 192.884C295.072 194.601 296.726 195.98 298.64 196.896C298.769 197.169 298.914 197.426 299.037 197.716C300.681 201.105 302.769 205.779 303.438 208.991C303.438 209.048 303.457 209.103 303.468 209.157C303.405 209.313 295.568 223.253 296.678 224.073L296.354 224.423C294.269 226.702 292.11 229.343 292.222 230.406C292.222 230.406 291.545 230.133 290.496 229.657L290.567 228.895L290.049 228.925V228.895L288.931 228.957C285.257 227.287 279.68 224.584 278.573 223.07C277.288 221.312 270.83 216.51 267.887 214.348V205.104H256.871L253.876 207.001L256.874 205.104H219.703L217.196 203.655L216.388 203.185C216.425 202.975 216.425 202.761 216.388 202.551C216.388 202.551 203.632 190.524 203.002 188.177C203.002 188.177 201.72 186.446 200.262 184.262L218.114 185.52C217.341 185.069 217.018 184.153 216.941 183.073H224.937C224.937 183.073 243.203 171.301 242.047 167.551C240.89 163.801 221.578 177.664 221.578 177.664H217.815C217.985 177.118 218.111 176.779 218.111 176.779C218.111 176.779 208.504 176.623 208.047 175.959C207.589 175.295 202.84 174.116 202.84 174.116L205.276 162.976C206.153 161.636 207.849 158.982 208.589 157.397C208.885 156.763 208.965 155.484 208.926 153.983V153.958C211.866 151.466 210.647 141.659 210.642 141.609C212.151 139.631 213.941 137.882 215.955 136.416C216.133 136.293 216.314 136.173 216.503 136.055C218.389 137.008 220.46 137.538 222.573 137.61C224.686 137.681 226.788 137.291 228.734 136.468C230.68 135.645 232.423 134.408 233.84 132.843C235.257 131.279 236.315 129.424 236.939 127.41C236.997 127.221 237.051 127.03 237.101 126.839C237.246 126.893 237.389 126.953 237.531 127.005C237.721 127.075 237.921 127.117 238.123 127.128C238.277 127.153 238.435 127.135 238.58 127.076C238.724 127.018 238.851 126.922 238.945 126.798C239.142 126.497 239.055 126.114 239.041 125.751H239.027C239.027 125.693 239.027 125.633 239.027 125.579C239.05 125.257 239.17 124.949 239.37 124.696V124.715C239.633 124.372 239.969 124.092 240.353 123.895C241.014 123.542 241.756 123.348 242.392 122.952C242.917 122.6 243.356 122.135 243.677 121.591C243.998 121.048 244.193 120.44 244.247 119.811L244.231 119.844C244.247 119.688 244.258 119.533 244.261 119.377C244.239 118.176 243.858 117.008 243.165 116.026C242.244 114.659 241.299 115.096 240.085 114.386C239.381 113.978 239.167 113.156 238.759 112.497C238.048 111.394 237.106 110.459 235.997 109.756C234.352 108.662 232.473 107.957 230.757 106.97C228.401 105.604 226.332 103.737 223.784 102.788C222.458 102.343 221.091 102.03 219.703 101.854C218.917 101.728 218.106 101.602 217.33 101.774C216.267 102.012 215.412 102.772 214.456 103.286C212.157 104.521 209.211 104.357 207.123 105.918C204.958 107.533 204.383 110.458 203.95 113.109C203.207 117.644 202.377 122.296 199.966 126.229C199.824 126.404 199.754 126.625 199.769 126.85C199.827 127.026 199.94 127.179 200.092 127.287C200.412 127.564 200.748 127.822 201.1 128.058H200.791C200.04 127.598 199.393 126.988 198.889 126.267C198.737 126.054 198.541 125.877 198.313 125.747C198.085 125.618 197.831 125.54 197.57 125.52C197.309 125.499 197.046 125.535 196.801 125.627C196.555 125.718 196.332 125.862 196.149 126.049C196.119 126.081 196.086 126.117 196.061 126.15C195.587 126.776 176.85 133.661 172.915 137.63C169.04 141.549 164.859 147.213 164.73 147.39C164.73 147.39 164.47 147.664 164.004 148.167C162.034 150.263 156.315 156.167 150.802 160.316C150.528 160.521 150.254 160.721 149.979 160.915L149.878 160.983C148.378 162.007 146.823 162.948 145.22 163.801C145.107 163.85 144.995 163.908 144.883 163.954C144.744 164.013 144.61 164.082 144.483 164.162L144.45 164.178C143.45 164.637 142.562 164.924 142.052 164.81C140.32 164.419 128.198 178.637 127.093 184.888C125.989 191.139 124.731 191.448 124.731 191.448C124.731 191.448 122.685 197.229 123 198.323C123.233 199.129 121.583 202.149 121.139 205.109C114.497 205.156 89.1804 205.437 67.1986 206.968C66.3267 208.77 65.5636 210.623 64.9133 212.517C64.853 212.686 64.801 212.856 64.7434 213.028C64.359 214.213 64.0407 215.418 63.7898 216.638C63.1117 219.814 63.0512 223.091 63.6117 226.29C64.5763 231.644 67.4233 236.455 70.2156 241.137C71.8597 243.889 73.5038 246.65 75.2109 249.378C75.4849 249.821 75.7589 250.261 76.0494 250.703C76.8879 252.029 77.7346 253.349 78.606 254.65L78.9458 255.156L79.1129 255.399C79.2499 255.602 79.3869 255.804 79.5212 256.003C81.3818 258.715 83.3301 261.361 85.4181 263.886L86.7197 265.428C88.1637 267.098 89.6736 268.708 91.2629 270.249L91.315 270.301L91.3698 270.353L91.4355 270.416C91.4515 270.434 91.4689 270.45 91.4876 270.465C91.5424 270.523 91.6027 270.577 91.663 270.632C93.8193 272.682 96.0949 274.605 98.4778 276.388C100.601 273.909 103.791 270.982 103.791 270.982L119.221 257.862C120.1 257.071 121.044 256.355 122.043 255.722L123.575 255.757C125.625 257.687 128.801 259.311 132.546 260.647C132.805 261.751 133.128 262.839 133.514 263.905H136.254C136.254 263.905 137.624 271.717 136.722 273.803C135.821 275.888 136.881 285.99 144.231 288.699C144.231 288.699 147.908 289.325 148.642 285.364C149.377 281.404 149.481 272.865 149.481 272.865L150.432 264.939C160.357 266.537 168.98 267.032 168.98 267.032L170.007 276.755H179.719C179.831 276.82 179.943 276.883 180.053 276.951L180.275 277.085C180.535 277.247 180.79 277.411 181.039 277.58L181.081 277.607C185.076 280.291 187.868 283.73 189.685 286.551C194.053 284.829 198.478 283.339 203.018 282.432C209.003 281.237 215.075 281.065 221.178 281.45L223.986 277.607L224.611 276.755H230.508L230.859 282.407C233.958 282.806 237.049 283.276 240.123 283.744L243.121 284.206V276.705L259.836 276.2C259.82 277.184 259.944 278.166 260.206 279.116C260.609 280.756 260.647 284.036 260.54 287.455C262.464 287.92 264.373 288.438 266.267 289.011C270.816 290.394 275.244 292.116 279.648 293.901C279.478 293.009 279.294 292.28 279.1 292.031C278.472 291.211 283.059 290.262 283.059 290.262C283.059 290.262 283.503 290.181 284.243 290.052V295.776C285.547 296.306 286.852 296.831 288.159 297.35L288.112 296.243L288.893 297.637C289.115 297.727 289.342 297.815 289.567 297.91H289.6C291.016 298.457 292.438 298.988 293.866 299.504L329.511 299.157V301.89H329.541C330.825 301.435 332.077 300.895 333.289 300.275L333.24 299.102L335.397 299.08H336.512V292.845L337.983 292.878V290.588L332.029 284.599C335.153 282.314 339 277.965 338.52 270.605C338.52 270.531 338.52 270.452 338.501 270.378C338.501 270.238 338.479 270.104 338.466 269.96C339.784 270.482 342.636 268.773 340.195 265.365ZM302.271 246.262C302.271 247.161 302.169 248.06 301.881 248.593C301.144 249.96 300.936 252.967 302.509 253.699C304.082 254.432 304.304 257.343 304.246 257.761H304.23C303.986 257.843 301.542 258.696 300.52 260.169C298.138 260.248 295.116 260.295 294.74 260.046C294.113 259.63 281.127 260.568 280.218 260.672C279.897 260.707 278.538 260.798 276.91 260.896L287.476 246.926C287.532 247.011 287.575 247.103 287.605 247.199C288.024 248.889 295.793 247.746 296.842 245.505C297.126 244.986 297.52 244.536 297.996 244.185L302.271 246.262ZM247.135 211.276L238.526 216.726L247.133 211.278L247.135 211.276ZM154.641 205.104L155.241 204.248L156.011 204.497L157.868 205.104H154.641ZM205.775 205.104H200.824C199.574 201.551 196.952 196.084 192.444 195.051C185.673 193.487 177.647 190.989 177.647 190.989C177.647 190.989 175.151 188.321 173.682 187.786C173.493 187.703 173.284 187.676 173.079 187.706L175.515 182.786C176.662 181.809 177.9 180.943 179.212 180.201C179.71 179.927 180.338 179.619 181.015 179.282C181.415 179.08 181.837 178.872 182.259 178.665C182.278 180.318 182.39 181.652 182.675 182.076C183.621 183.483 184.41 184.577 185.668 185.67C186.635 186.509 199.643 199.143 205.775 205.104ZM208.06 145.28L208.304 144.9C209 143.807 209.778 142.714 210.631 141.62L208.06 145.28ZM241.918 225.39V259.472L242.263 259.141L241.918 259.472V272.228V225.39ZM288.775 289.3L288.846 289.53L288.775 289.3Z" fill="url(#paint0_linear)"/>
<path opacity="0.1" d="M353.315 267.915C350.552 279.668 345.124 291.695 335.268 298.397C334.909 298.645 334.539 298.883 334.172 299.116C333.624 299.449 333.076 299.772 332.528 300.075C332.385 300.154 332.254 300.228 332.1 300.302C330.901 300.919 329.661 301.456 328.39 301.909C318.991 305.29 308.2 304.189 298.492 301.297C296.672 300.75 294.869 300.157 293.085 299.515C291.669 299.009 290.263 298.476 288.86 297.929H288.827C288.605 297.845 288.381 297.757 288.161 297.656L287.432 297.383C286.139 296.869 284.848 296.346 283.561 295.814C282.043 295.193 280.527 294.567 279.012 293.95C274.652 292.173 270.271 290.462 265.769 289.087C263.897 288.516 262.004 287.994 260.102 287.54C254.427 286.154 248.651 285.192 242.869 284.293L239.874 283.834C236.832 283.366 233.771 282.902 230.705 282.503C227.516 282.087 224.318 281.743 221.115 281.551C215.086 281.182 209.058 281.341 203.144 282.527C198.651 283.429 194.272 284.911 189.948 286.627C176.039 292.143 162.702 300.042 148.023 298.708C140.707 298.044 133.821 295.081 127.151 292.012C117.58 287.611 108.03 282.839 99.689 276.528C97.3344 274.757 95.0872 272.848 92.9591 270.812C92.8988 270.76 92.8412 270.703 92.7837 270.648L92.7344 270.599L92.6686 270.536L92.5618 270.432C90.9889 268.902 89.4955 267.297 88.0651 265.635L86.7772 264.105C84.7111 261.59 82.782 258.958 80.9434 256.26L80.3542 255.407L80.0172 254.904C78.87 253.177 77.7502 251.429 76.6577 249.659C74.9753 246.945 73.3421 244.193 71.7254 241.459C68.9606 236.813 66.1437 232.013 65.1901 226.7C64.6356 223.517 64.6951 220.258 65.3655 217.097C65.6152 215.884 65.9299 214.686 66.3081 213.506C66.3656 213.334 66.4177 213.167 66.478 212.998C67.1196 211.113 67.8755 209.269 68.7414 207.476C74.6958 194.971 85.2866 182.991 84.9084 169.169C84.6097 158.509 77.8141 149.334 72.6626 139.991C67.511 130.649 63.9817 118.611 69.9224 109.742C74.9479 102.214 84.8536 99.9019 93.8469 98.7512C103.002 97.5573 112.224 96.9492 121.457 96.9308C128.453 96.9062 135.098 98.5079 141.953 98.7348C150.344 99.0081 159.641 95.1186 167.711 93.0987C177.064 90.7626 186.407 88.4284 195.738 86.096C211.691 82.1108 227.828 78.1148 244.272 78C260.716 77.8852 277.754 82.0999 290.203 92.8172C294.466 96.4935 298.196 101.003 299.917 106.358C303.495 117.496 297.848 129.993 301.287 141.172C304.26 150.801 313.155 157.118 320.657 163.858C349.054 189.401 362.045 230.794 353.315 267.915Z" fill="black"/>
<path d="M286.279 279.026L285.065 279.819L287.361 296.273L293.058 299.52L335.271 299.105L334.506 289.415L286.279 279.026Z" fill="#013D79"/>
<path d="M287.405 297.374C286.112 296.861 284.821 296.338 283.533 295.805V287.849L287.068 289.459V289.513L287.356 296.273L287.405 297.374Z" fill="#013D79"/>
<path opacity="0.1" d="M287.405 297.374C286.112 296.861 284.821 296.338 283.533 295.805V287.849L287.068 289.459V289.513L287.356 296.273L287.405 297.374Z" fill="black"/>
<path d="M332.073 300.305C330.873 300.922 329.634 301.459 328.363 301.912H328.332V293.941L331.864 295.551V295.609L332.015 299.14L332.073 300.305Z" fill="#013D79"/>
<path opacity="0.1" d="M332.073 300.305C330.873 300.922 329.634 301.459 328.363 301.912H328.332V293.941L331.864 295.551V295.609L332.015 299.14L332.073 300.305Z" fill="black"/>
<path d="M335.268 291.995V299.102H334.172L293.069 299.501C291.652 298.995 290.247 298.462 288.844 297.916H288.811L288.115 289.604L335.268 291.995Z" fill="#013D79"/>
<path d="M288.833 297.932H288.8C288.578 297.847 288.353 297.76 288.134 297.659L287.358 296.273L283.895 290.049L283.533 289.399L282.495 287.537L285.062 279.832L288.027 289.38L288.104 289.623L288.296 291.809L288.833 297.932Z" fill="#013D79"/>
<path d="M283.533 274.896H321.142L336.726 290.648L288.107 289.612L283.533 274.896Z" fill="#013D79"/>
<path d="M336.726 290.648V292.927L288.296 291.788L288.107 289.612L336.726 290.648Z" fill="#013D79"/>
<path opacity="0.1" d="M336.726 290.648V292.927L288.296 291.788L288.107 289.612L336.726 290.648Z" fill="black"/>
<path d="M302.545 260.27C302.545 260.27 294.546 260.685 293.921 260.27C293.296 259.855 280.448 260.787 279.549 260.89C278.65 260.994 269.509 261.519 269.509 261.519L268.78 276.131L301.402 271.053L302.545 260.27Z" fill="#3C2928"/>
<path opacity="0.1" d="M302.545 260.27C302.545 260.27 294.546 260.685 293.921 260.27C293.296 259.855 280.448 260.787 279.549 260.89C278.65 260.994 269.509 261.519 269.509 261.519L268.78 276.131L301.402 271.053L302.545 260.27Z" fill="black"/>
<path d="M228.154 245.185L264.99 253.787L266.481 276.364L223.049 276.533L228.154 245.185Z" fill="#013D79"/>
<path d="M256.309 205.609L229.779 220.995L236.24 240.199L237.709 264.99L256.874 260.901L266.481 241.246L275.05 229.277L267.172 214.785L256.309 205.609Z" fill="#013D79"/>
<path d="M102.632 223.573C102.632 223.573 93.6276 204.893 98.1435 189.33C100.081 182.814 99.8462 175.847 97.4749 169.475C96.3295 166.459 94.9096 163.555 93.2331 160.797" stroke="#535461" stroke-width="2" stroke-miterlimit="10"/>
<path d="M96.0089 150.971C96.4035 153.376 93.1783 161.062 93.1783 161.062C93.1783 161.062 87.6733 154.798 87.2787 152.392C87.0897 151.237 87.3684 150.055 88.0534 149.105C88.7384 148.155 89.7736 147.516 90.9313 147.327C92.089 147.139 93.2744 147.417 94.2266 148.1C95.1788 148.783 95.8199 149.816 96.0089 150.971Z" fill="#0059B3"/>
<path d="M105.405 163.12C104.427 165.353 97.5324 170.057 97.5324 170.057C97.5324 170.057 96.3213 161.814 97.3022 159.581C97.7728 158.509 98.6509 157.668 99.7435 157.242C100.836 156.816 102.053 156.84 103.128 157.309C104.202 157.779 105.046 158.655 105.473 159.744C105.9 160.834 105.876 162.049 105.405 163.12Z" fill="#0059B3"/>
<path d="M108.816 185.935C106.841 187.367 98.5079 187.958 98.5079 187.958C98.5079 187.958 101.637 180.231 103.613 178.799C104.562 178.11 105.746 177.825 106.905 178.008C108.064 178.19 109.103 178.824 109.793 179.77C110.484 180.717 110.769 181.898 110.586 183.054C110.404 184.21 109.768 185.247 108.819 185.935H108.816Z" fill="#0059B3"/>
<path d="M107.498 203.778C105.794 205.525 97.6831 207.506 97.6831 207.506C97.6831 207.506 99.456 199.367 101.16 197.62C101.566 197.205 102.049 196.873 102.583 196.645C103.117 196.416 103.69 196.294 104.271 196.287C104.852 196.279 105.429 196.386 105.969 196.6C106.508 196.815 107 197.134 107.416 197.538C107.832 197.942 108.165 198.425 108.394 198.957C108.623 199.489 108.745 200.062 108.753 200.641C108.761 201.221 108.654 201.796 108.439 202.334C108.223 202.872 107.904 203.363 107.498 203.778Z" fill="#0059B3"/>
<path d="M88.4405 172.012C90.4463 173.406 98.7874 173.829 98.7874 173.829C98.7874 173.829 95.4992 166.176 93.5044 164.774C93.0287 164.426 92.488 164.176 91.9142 164.039C91.3403 163.903 90.7448 163.882 90.1628 163.978C89.5807 164.074 89.0238 164.285 88.5248 164.6C88.0258 164.914 87.5948 165.324 87.2572 165.807C86.9195 166.289 86.682 166.834 86.5586 167.41C86.4353 167.985 86.4285 168.58 86.5388 169.158C86.649 169.736 86.8741 170.286 87.2007 170.776C87.5273 171.266 87.9488 171.687 88.4405 172.012Z" fill="#0059B3"/>
<path d="M87.1663 192.913C89.4955 193.646 97.579 191.56 97.579 191.56C97.579 191.56 92.1535 185.227 89.8216 184.495C88.7113 184.174 87.5192 184.299 86.5003 184.844C85.4814 185.388 84.7166 186.309 84.3694 187.409C84.0221 188.508 84.1201 189.7 84.6423 190.729C85.1644 191.757 86.0694 192.542 87.1636 192.913H87.1663Z" fill="#0059B3"/>
<path d="M88.72 213.369C90.893 214.484 99.2149 213.793 99.2149 213.793C99.2149 213.793 94.9375 206.637 92.7645 205.522C92.2479 205.257 91.6841 205.096 91.1053 205.049C90.5264 205.001 89.9438 205.068 89.3908 205.245C88.8377 205.422 88.3251 205.706 87.882 206.08C87.439 206.455 87.0743 206.913 86.8087 207.428C86.5432 207.944 86.3819 208.506 86.3343 209.084C86.2866 209.661 86.3534 210.242 86.5309 210.794C86.7084 211.345 86.993 211.857 87.3686 212.299C87.7442 212.741 88.2034 213.104 88.72 213.369Z" fill="#6964BC"/>
<path opacity="0.25" d="M96.0089 150.971C96.4035 153.376 93.1783 161.062 93.1783 161.062C93.1783 161.062 87.6733 154.798 87.2787 152.392C87.0897 151.237 87.3684 150.055 88.0534 149.105C88.7384 148.155 89.7736 147.516 90.9313 147.327C92.089 147.139 93.2744 147.417 94.2266 148.1C95.1788 148.783 95.8199 149.816 96.0089 150.971Z" fill="black"/>
<path opacity="0.25" d="M105.405 163.12C104.427 165.353 97.5324 170.057 97.5324 170.057C97.5324 170.057 96.3213 161.814 97.3022 159.581C97.7728 158.509 98.6509 157.668 99.7435 157.242C100.836 156.816 102.053 156.84 103.128 157.309C104.202 157.779 105.046 158.655 105.473 159.744C105.9 160.834 105.876 162.049 105.405 163.12Z" fill="black"/>
<path opacity="0.25" d="M108.816 185.935C106.841 187.367 98.5079 187.958 98.5079 187.958C98.5079 187.958 101.637 180.231 103.613 178.799C104.562 178.11 105.746 177.825 106.905 178.008C108.064 178.19 109.103 178.824 109.793 179.77C110.484 180.717 110.769 181.898 110.586 183.054C110.404 184.21 109.768 185.247 108.819 185.935H108.816Z" fill="black"/>
<path opacity="0.25" d="M107.498 203.778C105.794 205.525 97.6831 207.506 97.6831 207.506C97.6831 207.506 99.456 199.367 101.16 197.62C101.566 197.205 102.049 196.873 102.583 196.645C103.117 196.416 103.69 196.294 104.271 196.287C104.852 196.279 105.429 196.386 105.969 196.6C106.508 196.815 107 197.134 107.416 197.538C107.832 197.942 108.165 198.425 108.394 198.957C108.623 199.489 108.745 200.062 108.753 200.641C108.761 201.221 108.654 201.796 108.439 202.334C108.223 202.872 107.904 203.363 107.498 203.778Z" fill="black"/>
<path opacity="0.25" d="M88.4405 172.012C90.4463 173.406 98.7874 173.829 98.7874 173.829C98.7874 173.829 95.4992 166.176 93.5044 164.774C93.0287 164.426 92.488 164.176 91.9142 164.039C91.3403 163.903 90.7448 163.882 90.1628 163.978C89.5807 164.074 89.0238 164.285 88.5248 164.6C88.0258 164.914 87.5948 165.324 87.2572 165.807C86.9195 166.289 86.682 166.834 86.5586 167.41C86.4353 167.985 86.4285 168.58 86.5388 169.158C86.649 169.736 86.8741 170.286 87.2007 170.776C87.5273 171.266 87.9488 171.687 88.4405 172.012Z" fill="black"/>
<path opacity="0.25" d="M87.1663 192.913C89.4955 193.646 97.579 191.56 97.579 191.56C97.579 191.56 92.1535 185.227 89.8216 184.495C88.7113 184.174 87.5192 184.299 86.5003 184.844C85.4814 185.388 84.7166 186.309 84.3694 187.409C84.0221 188.508 84.1201 189.7 84.6423 190.729C85.1644 191.757 86.0694 192.542 87.1636 192.913H87.1663Z" fill="black"/>
<path opacity="0.25" d="M88.72 213.369C90.893 214.484 99.2149 213.793 99.2149 213.793C99.2149 213.793 94.9375 206.637 92.7645 205.522C92.2479 205.257 91.6841 205.096 91.1053 205.049C90.5264 205.001 89.9438 205.068 89.3908 205.245C88.8377 205.422 88.3251 205.706 87.882 206.08C87.439 206.455 87.0743 206.913 86.8087 207.428C86.5432 207.944 86.3819 208.506 86.3343 209.084C86.2866 209.661 86.3534 210.242 86.5309 210.794C86.7084 211.345 86.993 211.857 87.3686 212.299C87.7442 212.741 88.2034 213.104 88.72 213.369Z" fill="black"/>
<path d="M102.673 222.887C102.673 222.887 86.8512 209.45 84.659 193.394C83.7785 186.653 80.7295 180.379 75.9699 175.513C73.6989 173.221 71.2225 171.142 68.5714 169.3" stroke="#535461" stroke-width="2" stroke-miterlimit="10"/>
<path d="M67.1246 159.19C68.4618 161.229 68.6345 169.56 68.6345 169.56C68.6345 169.56 61.0579 166.059 59.7206 164.02C59.3838 163.535 59.1476 162.989 59.026 162.412C58.9045 161.835 58.9 161.24 59.013 160.661C59.1259 160.083 59.3539 159.533 59.6836 159.043C60.0132 158.554 60.4378 158.136 60.9322 157.813C61.4267 157.49 61.9809 157.27 62.5623 157.164C63.1437 157.059 63.7403 157.07 64.317 157.199C64.8938 157.327 65.4389 157.569 65.9202 157.911C66.4014 158.253 66.8091 158.688 67.1191 159.19H67.1246Z" fill="#0059B3"/>
<path d="M80.6502 166.496C80.6502 168.934 76.2659 176.019 76.2659 176.019C76.2659 176.019 71.8103 168.972 71.7994 166.537C71.7822 165.948 71.8833 165.362 72.0965 164.813C72.3098 164.264 72.6311 163.764 73.0413 163.34C73.4516 162.917 73.9426 162.58 74.4855 162.349C75.0284 162.118 75.6121 161.997 76.2024 161.994C76.7926 161.992 77.3774 162.107 77.9224 162.333C78.4674 162.559 78.9616 162.891 79.3758 163.311C79.79 163.73 80.1158 164.228 80.3342 164.775C80.5526 165.322 80.6591 165.907 80.6474 166.496H80.6502Z" fill="#0059B3"/>
<path d="M93.0358 185.979C91.8109 188.086 84.4344 191.992 84.4344 191.992C84.4344 191.992 84.1603 183.667 85.3797 181.556C85.9677 180.544 86.9348 179.805 88.0685 179.504C89.2021 179.203 90.4093 179.363 91.4246 179.949C92.4398 180.536 93.1799 181.5 93.4821 182.631C93.7843 183.762 93.6237 184.966 93.0358 185.979Z" fill="#0059B3"/>
<path d="M99.0806 202.824C98.2312 205.107 91.6219 210.204 91.6219 210.204C91.6219 210.204 89.9449 202.04 90.7834 199.747C91.2053 198.668 92.0352 197.798 93.0942 197.324C94.1532 196.85 95.3565 196.81 96.4448 197.212C97.5331 197.615 98.4192 198.428 98.9123 199.476C99.4053 200.524 99.4658 201.724 99.0806 202.816V202.824Z" fill="#0059B3"/>
<path d="M68.7523 181.485C71.1527 181.95 78.9485 178.965 78.9485 178.965C78.9485 178.965 72.8379 173.285 70.4403 172.821C69.2995 172.624 68.1269 172.881 67.1739 173.537C66.221 174.193 65.5636 175.195 65.3428 176.329C65.122 177.462 65.3553 178.637 65.9926 179.601C66.63 180.565 67.6207 181.241 68.7523 181.485Z" fill="#0059B3"/>
<path d="M76.0713 201.094C78.4991 200.821 85.0454 195.649 85.0454 195.649C85.0454 195.649 77.5127 192.052 75.0849 192.326C74.5077 192.39 73.9489 192.568 73.4404 192.848C72.932 193.128 72.4838 193.505 72.1214 193.958C71.3896 194.872 71.052 196.039 71.1828 197.202C71.2476 197.778 71.4254 198.335 71.7062 198.842C71.9869 199.349 72.365 199.796 72.819 200.158C73.7357 200.888 74.9056 201.225 76.0713 201.094Z" fill="#0059B3"/>
<path d="M85.8072 219.183C88.246 219.322 95.5759 215.326 95.5759 215.326C95.5759 215.326 88.7584 210.513 86.3196 210.371C85.1614 210.326 84.0316 210.736 83.1732 211.513C82.3149 212.29 81.7964 213.372 81.7293 214.526C81.6621 215.681 82.0517 216.815 82.8143 217.686C83.5768 218.557 84.6515 219.094 85.8072 219.183Z" fill="#6964BC"/>
<path d="M242.847 272.624V284.285L239.852 283.826C236.81 283.358 233.75 282.893 230.683 282.494L230.335 276.869L230.308 276.364L229.913 269.992L241.644 272.373L241.984 272.441L242.847 272.624Z" fill="#013D79"/>
<path opacity="0.1" d="M242.847 272.624V284.285L239.852 283.826C236.81 283.358 233.75 282.893 230.683 282.494L230.335 276.869L230.308 276.364L229.913 269.992L241.644 272.373L241.984 272.441L242.847 272.624Z" fill="black"/>
<path d="M228.376 271.528L224.86 276.364L224.488 276.869L223.871 277.719L221.09 281.546C215.062 281.177 209.033 281.336 203.12 282.522C198.626 283.424 194.247 284.905 189.923 286.622C188.126 283.815 185.361 280.395 181.409 277.725C180.979 277.432 180.533 277.151 180.072 276.875C179.779 276.703 179.483 276.533 179.179 276.369C177.309 275.36 175.32 274.591 173.257 274.079L228.376 271.528Z" fill="#013D79"/>
<path d="M88.0514 265.619L94.7566 256.088L95.343 255.268L95.6938 254.768L98.7573 250.411H98.6614C97.5653 250.362 87.4951 249.954 76.6632 249.67C77.7593 251.436 78.8791 253.184 80.0227 254.915L80.3597 255.418L80.9297 256.26C82.7683 258.958 84.6974 261.59 86.7635 264.105L88.0514 265.619Z" fill="#013D79"/>
<path d="M256.447 205.607L253.479 207.493L246.807 211.738L236.062 218.571L235.268 219.074L235.523 226.981L188.317 229.266H136.268L122.227 225.765L121.934 225.691L121.641 225.617L118.865 224.923L106.66 221.886L65.36 217.089C65.6097 215.876 65.9244 214.677 66.3026 213.498C66.3602 213.326 66.4122 213.159 66.4725 212.989C67.1142 211.105 67.87 209.261 68.7359 207.468C90.4902 205.946 115.544 205.667 122.117 205.62L123.761 205.607H256.447Z" fill="#013D79"/>
<path opacity="0.1" d="M228.379 271.528L173.263 274.07C176.176 274.797 178.936 276.033 181.418 277.719H223.89L228.379 271.528Z" fill="black"/>
<path opacity="0.1" d="M98.7573 250.403L95.6993 254.76L95.3485 255.26L94.7621 256.08H94.4251H93.677L80.9352 256.233L80.3542 255.407L80.0172 254.905C78.87 253.177 77.7502 251.429 76.6577 249.659C87.4897 249.933 97.5681 250.351 98.6559 250.4L98.7573 250.403Z" fill="black"/>
<path d="M241.644 219.096V276.869H170.457L169.438 267.199C169.438 267.199 160.905 266.707 151.078 265.116C150.514 265.02 149.944 264.927 149.368 264.826C147.028 264.422 144.639 263.954 142.296 263.413L141.827 263.304C140.951 263.1 140.084 262.884 139.227 262.656C138.386 262.437 137.558 262.202 136.747 261.962C135.594 261.615 134.478 261.251 133.407 260.868C129.699 259.529 126.556 257.925 124.526 256.006L123.011 255.968L106.074 255.541H105.767H105.671H105.364L95.343 255.284L94.4196 255.263L80.3707 255.432L80.0336 254.929C78.8864 253.202 77.7666 251.453 76.6742 249.684C74.9917 246.97 73.3585 244.217 71.7418 241.484C68.977 236.837 66.1601 232.038 65.2065 226.724C64.652 223.541 64.7115 220.282 65.3819 217.122C65.6316 215.909 65.9463 214.71 66.3245 213.531H122.232L122.572 213.632L124.427 214.178L124.721 214.266L125.014 214.353C130.069 215.857 140.471 218.855 143.145 218.855H147.831L172.093 218.915L194.538 218.978C210.792 219.016 226.729 219.06 235.259 219.082L241.644 219.096Z" fill="#013D79"/>
<path opacity="0.1" d="M241.644 218.59V276.364H170.457L169.438 266.693C169.438 266.693 160.943 266.201 151.139 264.616C150.813 264.558 150.481 264.507 150.149 264.452C147.722 264.039 145.217 263.564 142.778 263.014L142.441 262.938L142.219 262.886L141.625 262.744C140.819 262.558 140.019 262.358 139.23 262.148C138.364 261.922 137.513 261.682 136.676 261.429C135.506 261.082 134.374 260.707 133.289 260.314C129.634 258.983 126.537 257.392 124.52 255.495L123.835 255.476L106.507 255.038H106.205H106.112H105.808L95.6965 254.765L94.8471 254.743H94.4223L80.0254 254.918C78.8782 253.191 77.7584 251.442 76.666 249.673C74.9835 246.959 73.3503 244.206 71.7336 241.473C68.9688 236.826 66.1519 232.027 65.1983 226.713C64.6438 223.531 64.7033 220.272 65.3737 217.111C65.6234 215.898 65.9381 214.699 66.3163 213.52C66.3738 213.347 66.4259 213.181 66.4862 213.011H122.232L122.627 213.134C123.019 213.252 123.682 213.454 124.545 213.708L124.836 213.796C124.929 213.823 125.025 213.856 125.126 213.883C130.226 215.378 140.498 218.333 143.154 218.333H148.086L172.616 218.396L195.001 218.453L236.057 218.563L241.644 218.59Z" fill="black"/>
<path opacity="0.1" d="M241.644 219.096V276.869H170.457L169.438 267.199C169.438 267.199 160.905 266.707 151.078 265.116C150.514 265.02 149.944 264.927 149.368 264.826C147.028 264.422 144.639 263.954 142.296 263.413L141.827 263.304C140.951 263.1 140.084 262.884 139.227 262.656C138.386 262.437 137.558 262.202 136.747 261.962C135.594 261.615 134.478 261.251 133.407 260.868C129.699 259.529 126.556 257.925 124.526 256.006L123.011 255.968L106.074 255.541H105.767H105.671H105.364L95.343 255.284L94.4196 255.263L80.3707 255.432L80.0336 254.929C78.8864 253.202 77.7666 251.453 76.6742 249.684C74.9917 246.97 73.3585 244.217 71.7418 241.484C68.977 236.837 66.1601 232.038 65.2065 226.724C64.652 223.541 64.7115 220.282 65.3819 217.122C65.6316 215.909 65.9463 214.71 66.3245 213.531H122.232L122.572 213.632L124.427 214.178L124.721 214.266L125.014 214.353C130.069 215.857 140.471 218.855 143.145 218.855H147.831L172.093 218.915L194.538 218.978C210.792 219.016 226.729 219.06 235.259 219.082L241.644 219.096Z" fill="black"/>
<path d="M256.446 205.609V214.761L241.647 225.789L235.268 219.079L256.446 205.609Z" fill="#013D79"/>
<path opacity="0.1" d="M256.446 205.609V214.761L241.647 225.789L235.268 219.079L256.446 205.609Z" fill="black"/>
<path d="M264.105 215.698L256.446 214.76L241.647 225.789V231.559L264.105 215.698Z" fill="#013D79"/>
<path d="M267.339 205.609V224.773L272.271 230.201L241.647 259.693V231.559L264.105 215.698L256.446 214.761V205.609H267.339Z" fill="#013D79"/>
<path opacity="0.1" d="M267.339 205.609V224.773L272.271 230.201L241.647 259.693V231.559L264.105 215.698L256.446 214.761V205.609H267.339Z" fill="black"/>
<path opacity="0.1" d="M269.21 230.37L289.282 229.277L287.75 245.185L264.445 276.164L265.127 253.787H247.267L269.21 230.37Z" fill="black"/>
<path d="M269.72 230.37L289.792 229.277L288.263 245.185L264.958 276.164L265.637 253.787H247.779L269.72 230.37Z" fill="#013D79"/>
<path opacity="0.1" d="M282.818 239.535H272.611L259.683 253.787H265.977L265.84 258.354L282.818 239.535Z" fill="black"/>
<path opacity="0.1" d="M282.138 239.535H271.931L259.003 253.787H265.297L265.158 258.354L282.138 239.535Z" fill="black"/>
<path d="M282.478 239.535H272.271L259.343 253.787H265.637L265.497 258.354L282.478 239.535Z" fill="#4E698A"/>
<path opacity="0.1" d="M265.297 275.825L241.987 276.533V259.354L248.119 253.448H265.977L265.297 275.825Z" fill="black"/>
<path d="M264.957 276.164L241.647 276.872V259.693L247.779 253.787H265.637L264.957 276.164Z" fill="#013D79"/>
<path opacity="0.1" d="M264.957 276.164L241.647 276.872V259.693L247.779 253.787H265.637L264.957 276.164Z" fill="black"/>
<path d="M330.831 284.689C329.684 285.555 328.426 286.264 327.091 286.797C327.091 286.797 300.572 288.352 296.831 288.352C294.913 288.352 291.211 288.86 288.027 289.366L287.071 289.513C285.835 289.713 284.725 289.902 283.895 290.06L283.533 290.126C282.799 290.251 282.36 290.333 282.36 290.333C282.36 290.333 277.82 291.266 278.442 292.094C278.634 292.342 278.817 293.067 278.99 293.952C274.63 292.176 270.249 290.465 265.747 289.09C263.875 288.519 261.982 287.997 260.08 287.543C260.184 284.134 260.148 280.874 259.748 279.244C259.488 278.3 259.365 277.324 259.384 276.344C259.384 276.23 259.384 276.12 259.409 276.014C259.562 274.562 260.231 274.013 260.37 272.925C260.475 272.105 262.426 271.496 264.609 270.952L265.122 270.826L265.459 270.744C266.777 270.427 268.103 270.121 269.101 269.785C269.177 269.76 269.249 269.735 269.317 269.708C269.571 269.619 269.82 269.515 270.062 269.396C270.123 269.361 270.183 269.331 270.238 269.295C272.318 268.052 293.409 264.736 295.069 264.22C296.73 263.703 299.223 261.421 299.223 261.421C299.284 261.053 299.428 260.704 299.645 260.401C300.657 258.936 303.076 258.089 303.317 258.007H303.334L305.353 256.452C305.353 256.452 313.415 255.254 321.408 256.452C322.014 256.542 322.614 256.646 323.214 256.766C325.413 257.176 327.55 257.866 329.574 258.819C331.864 259.939 333.829 261.462 335.172 263.52C335.906 264.651 336.434 265.903 336.731 267.218C336.954 268.177 337.114 269.149 337.211 270.129C337.232 270.348 337.252 270.561 337.263 270.774C337.731 278.088 333.922 282.418 330.831 284.689Z" fill="#3C2928"/>
<path d="M224.836 183.688H214.757L216.402 178.298H221.509C221.509 178.298 240.625 164.517 241.767 168.248C242.91 171.979 224.836 183.688 224.836 183.688Z" fill="#FFE9EA"/>
<path d="M241.249 211.773C239.485 214.78 216.837 210.737 216.837 210.737L210.916 204.83L214.752 202.756L217.174 204.164L219.739 205.656C219.739 205.656 243.017 208.766 241.249 211.773Z" fill="#FFE9EA"/>
<path d="M173.827 240.787C173.827 240.787 172.134 241.839 169.958 243.187C166.749 245.16 162.505 247.735 161.14 248.353C158.855 249.389 156.572 253.016 153.66 255.919C151.983 257.589 151.067 260.191 150.591 262.099C150.387 262.895 150.233 263.704 150.13 264.52L145.765 266.278L139.222 265.657V254.686C139.222 254.686 140.156 250.124 141.923 249.919C142.087 249.897 142.246 249.852 142.397 249.785C144.283 248.992 147.554 245.119 150.13 243.594C152.435 242.227 154.216 238.103 154.775 236.679C154.895 236.367 154.958 236.187 154.958 236.187L162.905 232.087L173.827 240.787Z" fill="#FFE9EA"/>
<path opacity="0.1" d="M173.827 240.787C173.827 240.787 172.134 241.839 169.958 243.187C167.147 241.38 164.028 239.207 162.812 237.72C160.776 235.244 156.205 236.261 154.775 236.657C154.895 236.345 154.958 236.165 154.958 236.165L162.905 232.065L173.827 240.787Z" fill="black"/>
<path d="M201.876 208.663C201.876 208.663 200.629 210.849 200.629 211.773C200.629 212.697 194.875 218.606 194.875 218.606L183.659 231.357C183.659 231.357 179.593 234.459 179.905 237.575C180.217 240.691 175.926 245.814 175.926 245.814C175.926 245.814 165.878 240.074 163.445 237.108C161.058 234.208 155.189 236.105 154.978 236.173C155.32 235.818 171.835 218.891 175.23 215.969C178.625 213.047 175.23 213.017 175.23 211.926C175.23 211.202 164.061 207.433 156.63 205.003C152.92 203.792 150.141 202.912 150.141 202.912L156.216 189.543L166.355 186.9C166.355 186.9 172.306 188.584 173.523 188.299C173.725 188.27 173.931 188.298 174.118 188.379C175.573 188.912 178.042 191.563 178.042 191.563C178.042 191.563 185.988 194.05 192.691 195.606C199.393 197.161 201.876 208.663 201.876 208.663Z" fill="#4E698A"/>
<path opacity="0.1" d="M150.601 262.099C150.398 262.895 150.244 263.704 150.141 264.52L145.776 266.278L139.232 265.657V254.686C139.232 254.686 140.167 250.124 141.934 249.919C142.098 249.897 142.257 249.852 142.408 249.785C137.627 251.857 142.296 263.08 142.296 263.08C146.853 258.963 149.407 260.546 150.601 262.099Z" fill="black"/>
<path d="M151.177 264.312L150.141 273.015C150.141 273.015 150.037 281.513 149.319 285.452C148.601 289.39 144.951 288.767 144.951 288.767C137.682 286.072 136.643 276.022 137.523 273.947C138.402 271.873 137.057 264.107 137.057 264.107H134.336C134.336 264.107 132.675 259.652 132.779 255.612C132.815 254.207 133.936 253.087 135.377 252.229C138.079 250.619 141.923 249.913 141.923 249.913C137.142 251.983 141.973 263.695 141.973 263.695C148.889 257.471 151.177 264.312 151.177 264.312Z" fill="#4E698A"/>
<path opacity="0.1" d="M217.547 183.688H214.757L216.401 178.298H218.41C218.029 179.537 217.418 181.849 217.547 183.688Z" fill="black"/>
<path d="M208.123 146.117L210.699 142.435C210.699 142.435 211.919 152.236 209 154.735L205.38 163.694L202.966 174.778C202.966 174.778 207.669 175.959 208.123 176.612C208.578 177.265 218.084 177.418 218.084 177.418C218.084 177.418 215.434 184.569 218.084 186.124L196.11 184.569L190.814 180.838L194.864 157.834L200.922 148.937L208.123 146.117Z" fill="#4E698A"/>
<path opacity="0.1" d="M208.123 146.117L210.699 142.435C210.699 142.435 211.919 152.236 209 154.735L205.38 163.694L202.966 174.778C202.966 174.778 207.669 175.959 208.123 176.612C208.578 177.265 218.084 177.418 218.084 177.418C218.084 177.418 215.434 184.569 218.084 186.124L196.11 184.569L190.814 180.838L194.864 157.834L200.922 148.937L208.123 146.117Z" fill="black"/>
<path d="M303.328 247.497L277.924 235.197C277.924 235.197 268.988 244.933 267.533 238.833C266.078 232.732 272.107 228.572 272.107 228.572L315.221 238.625L303.328 247.497Z" fill="#FFE9EA"/>
<path opacity="0.05" d="M303.328 247.497L277.924 235.197C277.924 235.197 268.988 244.933 267.533 238.833C266.078 232.732 272.107 228.572 272.107 228.572L315.221 238.625L303.328 247.497Z" fill="black"/>
<path d="M194.864 167.16L191.058 172.058L190.594 172.654L187.131 177.109C187.131 177.109 183.889 178.659 181.376 179.925C180.708 180.261 180.089 180.578 179.595 180.838C178.297 181.577 177.072 182.438 175.937 183.41C175.137 184.071 174.608 184.569 174.608 184.569L169.933 185.503C169.933 185.503 137.988 167.936 145.623 164.673C147.406 163.91 149.426 162.606 151.476 161.054C156.931 156.927 162.59 151.053 164.541 148.967C165.004 148.475 165.259 148.197 165.259 148.197L169.917 145.556L184.87 158.515L194.864 167.16Z" fill="#FFE9EA"/>
<path d="M221.2 134.984C219.305 135.362 217.516 136.149 215.958 137.288C212.88 139.445 210.313 142.689 208.378 145.715C206.796 148.182 205.429 150.78 204.293 153.48C204.293 153.48 183.489 126.122 195.954 128.454C197.818 128.817 199.714 128.982 201.613 128.946C203.936 128.926 206.23 128.431 208.354 127.492C211.414 126.09 212.628 124.185 212.628 124.185C212.628 124.185 231.486 133.117 221.2 134.984Z" fill="#FFE9EA"/>
<path d="M317.194 202.237C317.194 202.237 302.545 216.124 302.753 211.461C302.764 210.791 302.693 210.122 302.542 209.469C301.881 206.271 299.821 201.624 298.188 198.262C296.976 195.764 295.995 193.96 295.995 193.96C295.995 193.96 314.281 185.878 313.552 188.674C313.313 189.587 313.62 191.344 314.135 193.301C314.667 195.316 315.426 197.543 316.054 199.274C316.681 201.004 317.194 202.237 317.194 202.237Z" fill="#FFE9EA"/>
<path opacity="0.1" d="M221.2 134.984C219.305 135.362 217.516 136.149 215.958 137.288C212.483 135.552 212.286 132.078 211.132 128.315C211.012 127.926 211.343 126.057 211.258 125.655C214.319 124.253 212.628 124.185 212.628 124.185C212.628 124.185 231.486 133.117 221.2 134.984Z" fill="black"/>
<path d="M237.331 124.185C237.331 127.013 236.49 129.778 234.915 132.13C233.34 134.481 231.1 136.314 228.481 137.397C225.861 138.479 222.978 138.762 220.197 138.21C217.416 137.659 214.862 136.297 212.857 134.297C210.852 132.297 209.486 129.749 208.933 126.974C208.38 124.2 208.664 121.325 209.749 118.712C210.834 116.099 212.672 113.865 215.029 112.294C217.387 110.723 220.159 109.884 222.994 109.884C224.88 109.872 226.75 110.234 228.494 110.949C230.239 111.663 231.824 112.716 233.158 114.047C234.491 115.377 235.547 116.958 236.263 118.698C236.98 120.439 237.343 122.303 237.331 124.185Z" fill="#FFE9EA"/>
<path opacity="0.1" d="M194.864 167.16L191.058 172.058L190.594 172.654C190.436 172.668 190.279 172.679 190.123 172.681C188.391 172.714 186.983 171.976 186.287 169.948C185.764 168.572 185.037 167.282 184.13 166.122C183.67 165.496 183.155 164.861 182.601 164.208C176.688 157.375 166.16 150.074 164.533 148.956C164.996 148.464 165.251 148.186 165.251 148.186L169.909 145.545L184.862 158.504L194.864 167.16Z" fill="black"/>
<path opacity="0.1" d="M208.378 145.715C206.796 148.182 205.429 150.78 204.293 153.48C204.293 153.48 183.489 126.122 195.954 128.454C197.818 128.817 199.714 128.982 201.613 128.946C202.876 130.296 204.676 134.743 205.764 137.649C206.221 138.922 206.549 140.238 206.742 141.577C207.022 143.394 208.118 145.286 208.378 145.715Z" fill="black"/>
<path d="M208.658 158.143C207.649 160.33 204.838 164.517 204.838 164.517C202.939 166.152 200.924 167.648 198.81 168.994C198.07 169.462 197.294 169.913 196.516 170.32C194.62 171.32 192.702 172.031 191.058 172.058C189.326 172.094 187.917 171.353 187.221 169.325C186.698 167.944 185.97 166.65 185.062 165.485C184.602 164.861 184.087 164.227 183.533 163.585C177.11 156.17 165.248 148.186 165.248 148.186C165.377 148.008 169.514 142.375 173.348 138.477C177.244 134.519 195.787 127.669 196.256 127.049C196.282 127.012 196.312 126.978 196.343 126.945C196.524 126.761 196.744 126.618 196.987 126.528C197.229 126.437 197.489 126.401 197.747 126.422C198.005 126.443 198.256 126.52 198.48 126.648C198.705 126.776 198.899 126.952 199.048 127.164C199.546 127.879 200.187 128.485 200.93 128.943C202.194 129.703 204.246 134.76 205.441 137.949C205.899 139.223 206.227 140.54 206.419 141.88C206.737 143.943 208.112 146.108 208.112 146.108C208.112 146.108 209.669 155.967 208.658 158.143Z" fill="#4E698A"/>
<path opacity="0.1" d="M217.18 204.164C216.667 205.399 214.988 206.484 213.368 207.277L210.916 204.83L214.752 202.756L217.18 204.164Z" fill="black"/>
<path opacity="0.1" d="M199.851 155.194C199.851 155.194 197.908 163.94 196.519 170.323C194.62 171.32 192.702 172.031 191.058 172.058L187.131 177.109C187.131 177.109 183.889 178.659 181.376 179.925C181.376 179.517 181.363 179.083 181.363 178.632C181.383 173.864 182.033 169.119 183.295 164.52C183.377 164.219 183.459 163.91 183.544 163.596C183.974 162.019 184.437 160.275 184.887 158.512C185.613 155.686 186.306 152.816 186.764 150.528C188.167 143.534 194.401 144.621 194.401 144.621C201.566 143.842 199.851 155.194 199.851 155.194Z" fill="black"/>
<path opacity="0.1" d="M201.72 155.812C201.72 155.812 200.144 162.918 198.812 168.994C198.072 169.462 197.297 169.913 196.519 170.32C194.62 171.32 192.702 172.031 191.058 172.058C189.326 172.094 187.917 171.353 187.221 169.325C186.698 167.944 185.97 166.65 185.062 165.485C185.095 165.356 185.131 165.225 185.166 165.094C186.314 160.882 187.821 155.128 188.622 151.138C190.024 144.143 196.258 145.231 196.258 145.231C203.435 144.466 201.72 155.812 201.72 155.812Z" fill="black"/>
<path d="M195.642 144.621C195.642 144.621 189.411 143.528 188.008 150.528C187.208 154.516 185.698 160.272 184.55 164.484C183.269 169.141 182.614 173.948 182.604 178.777C182.604 180.665 182.708 182.237 183.021 182.704C183.955 184.104 184.736 185.192 185.983 186.28C187.23 187.367 209 208.663 209 208.663C209 208.663 216.993 206.175 216.369 203.067C216.369 203.067 203.747 191.098 203.123 188.767C203.123 188.767 195.954 179.066 196.423 176.612C196.891 174.157 201.098 155.194 201.098 155.194C201.098 155.194 202.81 143.842 195.642 144.621Z" fill="#4E698A"/>
<path opacity="0.1" d="M176.239 182.8L175.934 183.418C175.134 184.079 174.605 184.577 174.605 184.577L169.931 185.511C169.931 185.511 137.986 167.945 145.62 164.681C147.404 163.918 149.423 162.615 151.473 161.062C156.816 161.483 164.322 167.168 164.322 167.168C170.802 171.173 176.239 182.8 176.239 182.8Z" fill="black"/>
<path opacity="0.1" d="M174.11 188.379L167.125 190.019L156.63 205.011C152.92 203.8 150.141 202.92 150.141 202.92L156.216 189.551L166.355 186.908C166.355 186.908 172.306 188.592 173.523 188.308C173.721 188.277 173.924 188.302 174.11 188.379Z" fill="black"/>
<path d="M88.0514 265.619C89.4818 267.281 90.9752 268.899 92.548 270.416L92.6549 270.52L92.7207 270.583L92.77 270.632C92.8275 270.687 92.8851 270.744 92.9454 270.796C95.0776 272.836 97.3294 274.748 99.689 276.522C101.791 274.062 104.947 271.146 104.947 271.146L120.218 258.089C121.087 257.301 122.021 256.588 123.011 255.957C123.285 255.787 123.559 255.623 123.833 255.47C124.171 255.287 124.52 255.123 124.877 254.978C127.22 254.046 129.403 248.145 129.403 248.145L140.934 232.601L142.611 229.266L147.839 218.839L148.092 218.333L152.476 209.586L155.268 205.599L155.865 204.746L166.19 190.002L173.52 188.3L175.932 183.415C175.932 183.415 170.495 171.796 164.015 167.781C164.015 167.781 156.038 161.737 150.676 161.65L150.574 161.718C149.076 162.745 147.52 163.686 145.916 164.539C145.675 164.665 145.434 164.782 145.203 164.889C144.211 165.345 143.332 165.632 142.83 165.518C141.118 165.127 129.129 179.274 128.033 185.49C126.937 191.705 125.696 192.02 125.696 192.02C125.696 192.02 123.668 197.76 123.981 198.853C124.211 199.656 122.578 202.649 122.139 205.604C121.958 206.615 122.002 207.654 122.268 208.646C122.688 210.09 122.817 211.602 122.649 213.096C122.649 213.26 122.616 213.421 122.594 213.583C122.397 215.116 121.916 216.598 121.175 217.956C120.435 219.221 119.766 222.496 118.876 224.901C118.459 226.044 117.988 226.987 117.437 227.438C115.722 228.837 113.228 235.211 113.228 235.211C113.228 235.211 107.775 242.206 106.378 242.67C105.443 242.982 101.328 247.432 98.6888 250.367C97.3598 251.838 96.4035 252.931 96.4035 252.931L94.8717 254.705L94.4086 255.233L93.6715 256.091L86.7635 264.088L88.0514 265.619Z" fill="#4E698A"/>
<path d="M149.621 165.643C149.593 165.671 147.837 167.283 145.919 168.989C144.548 170.2 143.096 171.449 142.132 172.187C139.885 173.901 132.829 186.4 132.522 186.96L129.403 199.066C129.288 199.626 128.549 203.144 127.831 205.607C127.472 206.831 127.124 207.793 126.858 208.007C126.499 208.296 125.762 211.013 125.123 213.864C125.088 214.023 125.049 214.181 125.016 214.34C124.742 215.581 124.468 216.822 124.263 217.866L122.221 225.776L117.722 243.206C117.648 243.376 116.1 246.874 113.724 247.667C113.045 247.894 110.228 250.859 106.512 255.033L106.074 255.531C102.152 259.958 97.316 265.619 92.9591 270.812C92.8988 270.76 92.8412 270.703 92.7837 270.648L92.7344 270.599C96.6391 265.966 101.571 260.174 105.684 255.536L106.123 255.038C109.885 250.805 112.886 247.637 113.639 247.385C115.881 246.639 117.423 243.151 117.44 243.116L121.923 225.713L123.964 217.786C124.038 217.417 124.337 215.947 124.721 214.233C124.753 214.077 124.792 213.919 124.827 213.758C125.43 211.12 126.197 208.121 126.669 207.744C126.874 207.58 127.178 206.744 127.515 205.588C128.064 203.715 128.683 201.009 129.105 198.976L132.24 186.807C132.538 186.261 139.605 173.687 141.943 171.919C142.902 171.189 144.348 169.943 145.716 168.729C147.291 167.341 148.755 165.996 149.242 165.548C149.344 165.452 149.404 165.4 149.41 165.395L149.621 165.643Z" fill="#4E698A"/>
<path d="M149.311 165.643C149.281 165.668 147.634 167.193 145.784 168.833C144.365 170.09 142.828 171.419 141.822 172.187C139.572 173.901 132.505 186.4 132.209 186.96L129.099 199.066C128.984 199.626 128.242 203.144 127.524 205.607C127.165 206.831 126.817 207.793 126.551 208.007C126.197 208.28 125.485 210.964 124.838 213.777C124.8 213.935 124.767 214.094 124.729 214.252C124.441 215.523 124.181 216.794 123.956 217.866L121.934 225.713L117.41 243.206C117.336 243.375 115.788 246.874 113.412 247.667C112.732 247.894 109.918 250.854 106.211 255.022L105.767 255.52C101.887 259.893 97.1077 265.491 92.77 270.632L92.7207 270.583L92.6549 270.52L92.548 270.416C96.4364 265.81 101.3 260.095 105.364 255.511L105.805 255.014C109.567 250.785 112.562 247.62 113.313 247.361C115.557 246.614 117.1 243.127 117.114 243.091L121.63 225.612L123.649 217.786C123.72 217.412 124.027 215.898 124.422 214.151C124.457 213.995 124.493 213.837 124.531 213.675C125.132 211.06 125.888 208.121 126.351 207.752C126.556 207.588 126.861 206.752 127.198 205.596C127.746 203.724 128.368 201.018 128.787 198.984L131.922 186.815C132.223 186.269 139.287 173.696 141.625 171.927C142.628 171.162 144.165 169.836 145.584 168.579C147.423 166.939 149.064 165.43 149.092 165.403L149.237 165.556L149.311 165.643Z" fill="#4E698A"/>
<path opacity="0.1" d="M161.672 174.466C161.672 174.466 158.14 182.549 160.85 185.503L161.672 174.466Z" fill="black"/>
<path opacity="0.1" d="M166.969 179.025C166.969 179.025 164.892 184.724 166.034 185.503L166.969 179.025Z" fill="black"/>
<path opacity="0.1" d="M169.654 182.253C169.654 182.253 168.805 185.129 169.654 186.113V182.253Z" fill="black"/>
<path opacity="0.1" d="M121.778 242.859C121.778 242.859 129.258 240.27 129.05 241.719C128.842 243.168 121.778 242.859 121.778 242.859Z" fill="black"/>
<path opacity="0.1" d="M120.323 249.908C120.323 249.908 124.381 251.772 125.417 249.908C126.452 248.044 120.323 249.908 120.323 249.908Z" fill="black"/>
<path opacity="0.1" d="M180.371 229.181C180.371 229.181 172.06 230.633 171.956 232.084C171.852 233.536 180.371 229.181 180.371 229.181Z" fill="black"/>
<path opacity="0.1" d="M176.165 192.498C176.165 192.498 172.789 196.324 173.307 197.781C173.825 199.238 176.165 192.498 176.165 192.498Z" fill="black"/>
<path opacity="0.1" d="M237.331 124.185C237.333 125.588 237.126 126.985 236.717 128.328C236.442 128.212 236.136 128.189 235.846 128.263C235.78 128.745 235.527 129.181 235.142 129.479L233.24 127.158C233.187 127.08 233.114 127.018 233.029 126.978C232.837 126.907 232.648 127.068 232.481 127.18C231.842 127.596 230.966 127.383 230.322 126.975C229.678 126.568 229.149 125.986 228.483 125.609C227.847 125.263 227.122 125.114 226.4 125.181C225.679 125.248 224.994 125.529 224.433 125.986C223.912 126.482 223.452 127.038 223.063 127.642C222.523 128.447 221.818 129.129 220.994 129.643C220.581 129.898 220.115 130.055 219.631 130.102C219.148 130.15 218.66 130.086 218.205 129.916C217.928 129.761 217.638 129.63 217.339 129.525C216.401 129.296 215.56 130.119 214.957 130.873C214.355 131.627 213.587 132.48 212.62 132.338C210.844 132.065 211.003 128.946 209.299 128.38H209.283C208.679 126.414 208.508 124.34 208.781 122.302C209.054 120.263 209.765 118.307 210.865 116.568C211.965 114.828 213.428 113.345 215.154 112.221C216.881 111.097 218.83 110.357 220.869 110.053C222.908 109.748 224.989 109.886 226.97 110.457C228.951 111.028 230.785 112.018 232.348 113.36C233.91 114.702 235.164 116.365 236.023 118.234C236.883 120.104 237.328 122.136 237.328 124.193L237.331 124.185Z" fill="black"/>
<path opacity="0.1" d="M311.998 192.186C309.77 195.813 307.904 199.336 303.331 199.336C301.558 199.337 299.806 198.965 298.188 198.243C296.976 195.745 295.995 193.941 295.995 193.941C295.995 193.941 314.281 185.859 313.552 188.655C313.319 189.576 311.48 190.232 311.998 192.186Z" fill="black"/>
<path d="M303.331 198.713C310.33 198.713 316.004 193.054 316.004 186.072C316.004 179.09 310.33 173.43 303.331 173.43C296.332 173.43 290.658 179.09 290.658 186.072C290.658 193.054 296.332 198.713 303.331 198.713Z" fill="#FFE9EA"/>
<path opacity="0.1" d="M337.257 270.769C337.143 270.733 337.037 270.675 336.946 270.598C336.855 270.521 336.78 270.426 336.726 270.32C335.997 268.872 322.49 266.797 322.49 266.797L319.572 261.41C319.572 261.41 312.508 261.926 311.261 260.59C310.014 259.253 303.26 259.035 303.315 258.622C303.327 258.416 303.32 258.209 303.295 258.004H303.315L305.334 256.449C305.334 256.449 333.284 252.302 336.709 267.226C336.988 268.39 337.171 269.575 337.257 270.769Z" fill="black"/>
<path opacity="0.1" d="M317.194 202.237C317.194 202.237 302.545 216.124 302.753 211.461C302.764 210.791 302.693 210.122 302.542 209.469L302.583 209.313C302.583 209.313 306.293 205.446 307.228 203.683C307.874 202.469 312.982 200.403 316.067 199.257C316.695 201.004 317.194 202.237 317.194 202.237Z" fill="black"/>
<path d="M318.44 198.713C318.44 198.713 308.154 202.239 307.206 204C306.257 205.76 302.583 209.63 302.583 209.63L299.229 223.999L301.202 243.794C301.202 243.794 301.722 247.525 300.994 248.869C300.265 250.214 300.059 253.223 301.618 253.948C303.178 254.672 303.394 257.575 303.336 257.99C303.279 258.406 310.033 258.611 311.283 259.958C312.532 261.306 319.594 260.778 319.594 260.778L322.49 266.166C322.49 266.166 335.997 268.238 336.726 269.689C337.454 271.14 341.71 269.481 338.918 265.542C336.125 261.604 337.567 255.388 337.567 255.388C337.567 255.388 336.745 228.031 332.36 221.605C332.36 221.605 326.127 206.684 325.088 206.06C324.049 205.437 317.816 201.097 318.44 198.713Z" fill="#4E698A"/>
<path opacity="0.1" d="M318.44 245.813C318.44 245.813 336.931 260.573 335.684 263.274C334.438 265.974 318.44 245.813 318.44 245.813Z" fill="black"/>
<path opacity="0.1" d="M319.536 254.669C319.536 254.669 330.33 260.04 328.828 263.523L319.536 254.669Z" fill="black"/>
<path opacity="0.1" d="M306.597 241.293C306.597 241.293 312.415 241.019 312.626 242.096L306.597 241.293Z" fill="black"/>
<path opacity="0.1" d="M305.35 245.813C305.35 245.813 313.87 247.937 313.87 249.181L305.35 245.813Z" fill="black"/>
<path d="M313.048 232.379L303.331 241.246C303.331 241.246 297.029 243.583 296.001 245.814C294.973 248.044 287.274 249.181 286.86 247.497C286.446 245.814 275.017 236.54 275.017 236.54C275.017 236.54 268.783 230.944 267.328 226.806C265.873 222.668 260.477 219.186 260.477 219.186C260.477 219.186 244.064 214.785 246.557 208.671C249.051 202.556 265.864 213.741 265.864 213.741C265.864 213.741 276.255 221.2 277.921 223.483C279.587 225.765 291.425 230.78 291.425 230.78C291.315 229.72 293.45 227.096 295.513 224.83C297.396 222.761 299.218 221.003 299.218 221.003L312.938 232.3L313.048 232.379Z" fill="#FFE9EA"/>
<path opacity="0.1" d="M320.101 268.975C320.101 268.975 328.828 279.441 328.321 281.513C327.814 283.585 320.101 268.975 320.101 268.975Z" fill="black"/>
<path opacity="0.1" d="M268.78 279.026C268.988 279.337 269.819 282.852 273.767 284.933L268.78 279.026Z" fill="black"/>
<path opacity="0.1" d="M277.716 281.981C277.716 281.981 277.508 286.081 280.522 287.108C283.536 288.136 277.716 281.981 277.716 281.981Z" fill="black"/>
<path d="M318.969 194.553C318.925 193.777 318.703 193.021 318.32 192.344C317.936 191.668 317.402 191.088 316.758 190.65C317.233 190.464 317.627 190.119 317.875 189.674C318.122 189.229 318.205 188.712 318.112 188.212C318.01 188.551 317.605 188.679 317.259 188.759C317.057 188.805 316.878 188.838 316.711 188.865C317.135 188.062 317.483 187.223 317.753 186.356C318.262 184.511 317.991 182.549 317.558 180.685C316.977 178.167 316.018 175.579 313.963 173.939C313.029 173.257 312.017 172.688 310.949 172.244C309.986 171.756 308.976 171.369 307.935 171.088C306.877 170.842 305.781 170.815 304.701 170.672C302.608 170.399 300.591 169.686 298.473 169.579C296.354 169.473 294.012 170.098 292.927 171.853C292.583 172.383 292.421 173.011 292.466 173.641C292.581 174.748 293.502 175.652 294.551 176.101C295.601 176.549 296.722 176.557 297.782 176.896C299.029 177.295 300.248 177.801 301.495 178.233C302.161 178.462 302.851 178.711 303.345 179.203C304.131 179.985 304.227 181.174 304.416 182.251C304.705 183.891 305.305 185.462 306.184 186.878C306.493 187.378 306.847 187.881 306.926 188.458C307.025 189.16 306.759 190.03 307.326 190.481C307.767 190.828 308.422 190.656 308.915 190.36C309.409 190.065 309.825 189.658 310.381 189.54C311.05 189.398 311.752 189.724 312.245 190.175C312.635 190.529 312.944 190.964 313.15 191.449C313.357 191.934 313.455 192.458 313.44 192.984C313.412 193.638 313.209 194.315 313.44 194.93C313.656 195.496 314.514 195.835 314.914 195.444C314.945 195.513 314.981 195.58 315.021 195.644C315.44 196.283 316.234 196.581 316.999 196.658C317.378 196.719 317.766 196.669 318.117 196.513C318.799 196.158 319.005 195.302 318.969 194.553Z" fill="#17181A"/>
<path opacity="0.1" d="M137.049 264.102H134.336C134.336 264.102 132.675 259.647 132.779 255.607C132.815 254.202 133.936 253.081 135.377 252.223L137.049 264.102Z" fill="black"/>
<g opacity="0.1">
<path opacity="0.1" d="M204.394 112.847C204.495 112.226 204.605 111.587 204.742 110.955C204.459 111.986 204.239 113.033 204.082 114.09C203.783 115.933 203.468 117.791 203.038 119.612C203.605 117.381 204.058 115.123 204.394 112.847Z" fill="black"/>
<path opacity="0.1" d="M242.422 122.651C241.795 123.045 241.052 123.239 240.405 123.589C239.759 123.938 239.145 124.529 239.107 125.27C239.098 125.398 239.098 125.527 239.107 125.655C239.366 125.312 239.699 125.032 240.082 124.835C240.734 124.485 241.469 124.288 242.096 123.897C242.617 123.547 243.052 123.084 243.37 122.544C243.688 122.003 243.88 121.398 243.932 120.773C243.638 121.541 243.11 122.198 242.422 122.651Z" fill="black"/>
<path opacity="0.1" d="M237.641 126.68C237.167 126.505 236.668 126.245 236.186 126.407C236.119 126.889 235.865 127.326 235.479 127.623L233.58 125.302C233.526 125.225 233.453 125.163 233.369 125.122C233.177 125.054 232.988 125.212 232.821 125.324C232.182 125.742 231.308 125.529 230.661 125.122C230.015 124.715 229.489 124.133 228.823 123.755C228.186 123.406 227.459 123.255 226.736 123.32C226.012 123.386 225.325 123.666 224.762 124.124C224.242 124.616 223.782 125.166 223.392 125.764C222.853 126.572 222.148 127.255 221.323 127.768C220.482 128.243 219.421 128.418 218.536 128.041C218.258 127.888 217.967 127.758 217.667 127.653C216.728 127.423 215.889 128.246 215.286 129.001C214.683 129.755 213.916 130.605 212.949 130.463C211.17 130.19 211.332 127.071 209.625 126.508C208.885 126.265 208.082 126.631 207.463 127.104C206.844 127.577 206.301 128.17 205.589 128.47C203.895 129.214 201.969 128.137 200.577 126.923C200.502 126.861 200.433 126.791 200.371 126.716C200.295 126.849 200.221 126.989 200.141 127.115C200 127.288 199.93 127.509 199.947 127.732C200.003 127.907 200.114 128.06 200.265 128.167C201.657 129.38 203.583 130.457 205.276 129.714C205.989 129.4 206.531 128.806 207.151 128.334C207.77 127.861 208.573 127.495 209.313 127.738C211.02 128.301 210.858 131.425 212.636 131.693C213.593 131.835 214.374 130.985 214.974 130.231C215.574 129.476 216.418 128.653 217.355 128.883C217.655 128.987 217.946 129.117 218.224 129.271C219.109 129.659 220.169 129.484 221.013 128.998C221.836 128.484 222.541 127.801 223.079 126.994C223.469 126.391 223.929 125.836 224.449 125.341C225.01 124.883 225.694 124.603 226.415 124.535C227.136 124.467 227.861 124.616 228.497 124.961C229.162 125.338 229.691 125.917 230.335 126.327C230.979 126.737 231.856 126.948 232.495 126.53C232.667 126.418 232.856 126.256 233.043 126.327C233.127 126.368 233.2 126.431 233.254 126.508L235.153 128.828C235.539 128.531 235.793 128.094 235.859 127.612C236.342 127.462 236.843 127.721 237.317 127.885C237.791 128.049 238.413 128.101 238.687 127.678C238.879 127.38 238.794 127.003 238.781 126.639C238.604 126.724 238.411 126.772 238.215 126.779C238.019 126.786 237.823 126.752 237.641 126.68Z" fill="black"/>
</g>
<path opacity="0.1" d="M312.941 232.292C312.776 232.434 312.604 232.567 312.426 232.691C312.426 232.691 297.903 224.969 295.516 224.83C297.398 222.761 299.221 221.003 299.221 221.003L312.941 232.292Z" fill="black"/>
<path opacity="0.1" d="M313.672 206.285C313.672 206.285 326.551 214.684 321.972 222.452C317.394 230.22 313.672 232.691 313.672 232.691C313.672 232.691 298.495 224.62 296.623 224.83C294.752 225.041 303.199 209.942 303.199 209.942L313.672 206.285Z" fill="black"/>
<path d="M313.048 205.973C313.048 205.973 325.927 214.372 321.348 222.14C316.769 229.909 313.048 232.379 313.048 232.379C313.048 232.379 297.87 224.311 296.006 224.518C294.143 224.726 302.583 209.63 302.583 209.63L313.048 205.973Z" fill="#4E698A"/>
<g opacity="0.1">
<path opacity="0.1" d="M317.654 196.193C316.892 196.114 316.097 195.816 315.676 195.176C315.634 195.111 315.602 195.042 315.569 194.977C315.169 195.368 314.311 195.029 314.094 194.463C313.859 193.848 314.064 193.17 314.094 192.517C314.111 191.99 314.012 191.466 313.806 190.981C313.6 190.496 313.291 190.061 312.9 189.707C312.401 189.256 311.708 188.931 311.036 189.073C310.488 189.191 310.05 189.598 309.57 189.893C309.091 190.188 308.422 190.36 307.981 190.013C307.417 189.562 307.68 188.693 307.581 187.991C307.502 187.414 307.148 186.911 306.838 186.411C305.961 184.994 305.361 183.424 305.071 181.783C304.882 180.706 304.797 179.517 304.002 178.736C303.509 178.244 302.819 177.995 302.153 177.765C300.914 177.333 299.687 176.828 298.437 176.429C297.379 176.09 296.245 176.071 295.209 175.633C294.173 175.196 293.236 174.267 293.121 173.173C293.076 172.543 293.238 171.915 293.584 171.386C293.667 171.25 293.758 171.121 293.858 170.998C293.502 171.281 293.197 171.623 292.957 172.009C292.611 172.537 292.449 173.165 292.496 173.794C292.611 174.901 293.532 175.806 294.582 176.254C295.631 176.702 296.752 176.71 297.812 177.049C299.059 177.448 300.278 177.954 301.525 178.386C302.191 178.618 302.895 178.864 303.375 179.356C304.161 180.141 304.257 181.33 304.446 182.406C304.735 184.046 305.335 185.616 306.214 187.031C306.523 187.531 306.874 188.034 306.956 188.614C307.055 189.316 306.789 190.185 307.356 190.634C307.795 190.984 308.452 190.811 308.946 190.516C309.439 190.221 309.855 189.811 310.412 189.696C311.08 189.554 311.782 189.879 312.275 190.333C312.666 190.688 312.975 191.122 313.181 191.607C313.387 192.092 313.486 192.616 313.47 193.143C313.442 193.796 313.239 194.474 313.47 195.086C313.686 195.652 314.541 195.994 314.944 195.6C314.974 195.669 315.01 195.736 315.051 195.8C315.47 196.439 316.265 196.737 317.026 196.816C317.406 196.877 317.796 196.826 318.147 196.669C318.399 196.533 318.603 196.322 318.728 196.065C318.388 196.202 318.017 196.247 317.654 196.193Z" fill="black"/>
<path opacity="0.1" d="M317.402 190.18L317.558 190.289C317.649 190.193 317.732 190.088 317.805 189.978C317.679 190.06 317.543 190.128 317.402 190.18Z" fill="black"/>
</g>
<path opacity="0.1" d="M116.067 115.288C116.067 115.288 126.069 114.686 124.89 121.678C124.89 121.678 125.123 122.914 124.003 123.474C124.003 123.474 123.983 122.957 122.975 123.132C122.613 123.193 122.245 123.211 121.879 123.184C121.389 123.152 120.923 122.96 120.553 122.637C120.553 122.637 117.739 121.479 116.645 116.898C116.645 116.898 115.823 115.897 115.87 115.64L117.558 116.359C117.558 116.359 116.979 117.573 117.434 118.584C117.434 118.584 117.489 116.397 117.813 116.455C117.878 116.455 118.689 116.876 118.689 116.876C118.689 116.876 117.697 118.991 118.445 120.53C118.445 120.53 118.171 117.923 118.994 117.029L120.183 117.72C120.183 117.72 119.024 119.907 119.81 121.689C119.81 121.689 119.607 118.956 120.432 117.89L121.509 118.726C121.509 118.726 120.413 120.88 121.084 122.359C121.084 122.359 121.172 119.174 121.742 118.934C121.742 118.934 122.685 119.754 122.838 120.104C122.838 120.104 122.09 121.667 122.564 122.493C122.564 122.493 122.838 120.372 123.082 120.363C123.082 120.363 124.019 121.768 124.118 122.73C124.071 121.84 123.793 120.977 123.309 120.227C123.85 120.329 124.35 120.588 124.745 120.97C124.745 120.97 124.6 119.975 123.076 119.877C123.076 119.877 122.301 118.811 122.093 118.748C122.093 118.748 123.608 118.619 124.526 119.021C124.526 119.021 123.718 118.084 121.816 118.51L120.753 117.644C120.753 117.644 122.748 117.37 123.592 117.674C123.592 117.674 122.619 116.854 120.468 117.447L119.309 116.758C119.309 116.758 121.01 116.392 122.021 116.523C122.021 116.523 120.953 115.949 118.969 116.572L118.147 116.201C118.147 116.201 119.394 115.957 119.758 115.927C120.122 115.897 120.142 115.788 120.142 115.788C119.353 115.656 118.542 115.746 117.802 116.047C117.802 116.047 116.037 115.383 116.067 115.288Z" fill="black"/>
<path opacity="0.1" d="M322.586 105.795C322.586 105.795 332.591 105.194 331.412 112.185C331.412 112.185 331.645 113.421 330.522 113.984C330.522 113.984 330.505 113.465 329.497 113.64C329.135 113.7 328.767 113.719 328.401 113.694C327.91 113.661 327.443 113.469 327.072 113.148C327.072 113.148 324.26 111.989 323.167 107.408C323.167 107.408 322.359 106.407 322.392 106.15L324.08 106.869C324.08 106.869 323.501 108.085 323.956 109.094C323.956 109.094 324.011 106.907 324.334 106.965C324.4 106.965 325.211 107.386 325.211 107.386C325.211 107.386 324.219 109.504 324.967 111.04C324.967 111.04 324.693 108.433 325.515 107.539L326.705 108.23C326.705 108.23 325.546 110.417 326.332 112.202C326.332 112.202 326.129 109.468 326.954 108.4L328.031 109.239C328.031 109.239 326.935 111.393 327.606 112.871C327.606 112.871 327.694 109.687 328.264 109.447C328.264 109.447 329.207 110.267 329.36 110.616C329.36 110.616 328.612 112.18 329.086 113.005C329.086 113.005 329.36 110.882 329.604 110.873C329.604 110.873 330.541 112.278 330.64 113.243C330.589 112.351 330.306 111.488 329.818 110.739C330.359 110.841 330.858 111.098 331.253 111.48C331.253 111.48 331.108 110.488 329.585 110.387C329.585 110.387 328.809 109.321 328.601 109.255C328.601 109.255 330.116 109.13 331.034 109.529C331.034 109.529 330.226 108.591 328.324 109.017L327.272 108.181C327.272 108.181 329.267 107.908 330.111 108.208C330.111 108.208 329.138 107.388 326.987 107.984L325.828 107.293C325.828 107.293 327.527 106.927 328.541 107.06C328.541 107.06 327.472 106.484 325.488 107.107L324.666 106.738C324.666 106.738 325.913 106.492 326.277 106.465C326.642 106.437 326.661 106.325 326.661 106.325C325.872 106.194 325.062 106.284 324.321 106.585C324.321 106.585 322.559 105.907 322.586 105.795Z" fill="black"/>
<path opacity="0.1" d="M163.795 96.2229C163.795 96.2229 171.246 102.911 165.426 106.978C165.426 106.978 164.705 108.012 163.508 107.61C163.508 107.61 163.864 107.233 163.031 106.64C162.737 106.426 162.468 106.179 162.231 105.904C161.908 105.533 161.715 105.066 161.683 104.576C161.683 104.576 160.535 101.763 163.053 97.7699C163.053 97.7699 163.201 96.4935 163.406 96.335L164.078 98.0405C164.078 98.0405 162.806 98.4833 162.403 99.5138C162.403 99.5138 163.998 98.0214 164.187 98.2893C164.228 98.3439 164.502 99.2077 164.502 99.2077C164.502 99.2077 162.305 99.9812 161.738 101.599C161.738 101.599 163.398 99.5657 164.626 99.5357L164.966 100.864C164.966 100.864 162.59 101.575 161.869 103.384C161.869 103.384 163.68 101.323 165.02 101.162L165.177 102.529C165.177 102.529 162.875 103.264 162.283 104.775C162.283 104.775 164.62 102.589 165.193 102.84C165.193 102.84 165.261 104.089 165.119 104.431C165.119 104.431 163.475 105 163.215 105.907C163.215 105.907 164.93 104.62 165.1 104.778C165.1 104.778 164.755 106.432 164.135 107.178C164.738 106.52 165.159 105.716 165.355 104.846C165.662 105.303 165.829 105.839 165.834 106.388C165.834 106.388 166.44 105.587 165.434 104.445C165.434 104.445 165.651 103.144 165.552 102.952C165.552 102.952 166.706 103.939 167.059 104.866C167.059 104.866 167.163 103.633 165.522 102.581L165.396 101.214C165.396 101.214 166.988 102.441 167.366 103.253C167.366 103.253 167.275 101.979 165.333 100.872L165.015 99.5657C165.015 99.5657 166.47 100.517 167.086 101.331C167.086 101.331 166.747 100.167 164.908 99.194L164.587 98.3412C164.587 98.3412 165.637 99.0546 165.919 99.2869C166.201 99.5193 166.289 99.4619 166.289 99.4619C165.829 98.8094 165.196 98.2974 164.461 97.9831C164.461 97.9831 163.697 96.2803 163.795 96.2229Z" fill="black"/>
<path opacity="0.1" d="M267.9 136.698C267.9 136.698 275.351 143.383 269.528 147.453C269.528 147.453 268.81 148.486 267.61 148.082C267.61 148.082 267.969 147.705 267.136 147.111C266.84 146.9 266.571 146.653 266.336 146.376C266.013 146.005 265.82 145.538 265.788 145.048C265.788 145.048 264.642 142.238 267.158 138.242C267.158 138.242 267.303 136.965 267.509 136.807L268.18 138.512C268.18 138.512 266.909 138.955 266.506 139.986C266.506 139.986 268.1 138.496 268.292 138.761C268.331 138.816 268.607 139.68 268.607 139.68C268.607 139.68 266.413 140.459 265.834 142.074C265.834 142.074 267.498 140.043 268.722 140.01L269.062 141.341C269.062 141.341 266.689 142.049 265.966 143.861C265.966 143.861 267.777 141.798 269.117 141.637L269.276 142.99C269.276 142.99 266.972 143.728 266.382 145.236C266.382 145.236 268.717 143.063 269.29 143.301C269.29 143.301 269.361 144.553 269.218 144.895C269.218 144.895 267.574 145.46 267.3 146.368C267.3 146.368 269.016 145.081 269.186 145.242C269.186 145.242 268.84 146.882 268.221 147.639C268.825 146.981 269.246 146.177 269.443 145.307C269.75 145.764 269.916 146.3 269.92 146.849C269.92 146.849 270.528 146.048 269.52 144.906C269.52 144.906 269.739 143.607 269.638 143.413C269.638 143.413 270.791 144.4 271.148 145.327C271.148 145.327 271.249 144.094 269.61 143.041L269.482 141.675C269.482 141.675 271.076 142.899 271.454 143.711C271.454 143.711 271.364 142.437 269.421 141.333L269.101 140.024C269.101 140.024 270.556 140.978 271.172 141.79C271.172 141.79 270.832 140.625 268.997 139.655L268.681 138.805C268.681 138.805 269.728 139.518 270.013 139.753C270.298 139.988 270.38 139.928 270.38 139.928C269.92 139.275 269.287 138.763 268.553 138.447C268.553 138.447 267.799 136.752 267.9 136.698Z" fill="black"/>
<path opacity="0.1" d="M348.796 96.991C348.796 96.991 356.244 103.677 350.424 107.746C350.424 107.746 349.706 108.78 348.506 108.375C348.506 108.375 348.862 107.998 348.029 107.405C347.734 107.192 347.465 106.945 347.229 106.67C346.905 106.299 346.712 105.832 346.681 105.341C346.681 105.341 345.533 102.531 348.051 98.5353C348.051 98.5353 348.199 97.2588 348.404 97.103L349.076 98.8059C349.076 98.8059 347.804 99.2487 347.401 100.279C347.401 100.279 348.996 98.7895 349.188 99.0546C349.226 99.1093 349.503 99.973 349.503 99.973C349.503 99.973 347.294 100.755 346.722 102.365C346.722 102.365 348.382 100.334 349.61 100.301L349.95 101.632C349.95 101.632 347.574 102.343 346.853 104.152C346.853 104.152 348.665 102.089 350.005 101.927L350.161 103.28C350.161 103.28 347.859 104.018 347.27 105.527C347.27 105.527 349.604 103.354 350.177 103.592C350.177 103.592 350.246 104.844 350.103 105.185C350.103 105.185 348.459 105.751 348.185 106.661C348.185 106.661 349.9 105.374 350.07 105.533C350.07 105.533 349.725 107.186 349.106 107.93C349.71 107.272 350.13 106.468 350.325 105.598C350.632 106.055 350.798 106.59 350.805 107.14C350.805 107.14 351.41 106.339 350.405 105.196C350.405 105.196 350.621 103.898 350.522 103.704C350.522 103.704 351.676 104.691 352.029 105.617C352.029 105.617 352.134 104.385 350.492 103.329L350.366 101.963C350.366 101.963 351.958 103.187 352.336 103.999C352.336 103.999 352.246 102.725 350.306 101.621L349.985 100.315C349.985 100.315 351.44 101.266 352.057 102.078C352.057 102.078 351.717 100.916 349.865 99.9429L349.55 99.0929C349.55 99.0929 350.599 99.809 350.881 100.041C351.164 100.274 351.251 100.216 351.251 100.216C350.791 99.5634 350.158 99.0506 349.424 98.7348C349.424 98.7348 348.695 97.0456 348.796 96.991Z" fill="black"/>
<path opacity="0.1" d="M153.495 126.59C153.495 126.59 152.777 136.561 145.982 134.475C145.982 134.475 144.724 134.546 144.313 133.36C144.313 133.36 144.831 133.412 144.79 132.393C144.776 132.026 144.806 131.659 144.88 131.299C144.977 130.819 145.229 130.383 145.598 130.058C145.598 130.058 147.119 127.429 151.821 126.951C151.821 126.951 152.917 126.281 153.172 126.347L152.235 127.921C152.235 127.921 151.103 127.191 150.043 127.508C150.043 127.508 152.202 127.847 152.109 128.161C152.089 128.227 151.561 128.981 151.561 128.981C151.561 128.981 149.588 127.724 147.963 128.263C147.963 128.263 150.591 128.323 151.369 129.268L150.525 130.362C150.525 130.362 148.505 128.927 146.628 129.471C146.628 129.471 149.368 129.629 150.325 130.586L149.349 131.54C149.349 131.54 147.352 130.173 145.787 130.643C145.787 130.643 148.941 131.146 149.105 131.737C149.105 131.737 148.157 132.557 147.798 132.655C147.798 132.655 146.343 131.712 145.464 132.062C145.464 132.062 147.533 132.622 147.513 132.852C147.513 132.852 145.993 133.595 145.023 133.565C145.914 133.638 146.809 133.476 147.617 133.095C147.445 133.617 147.123 134.076 146.691 134.418C146.691 134.418 147.697 134.404 147.985 132.912C147.985 132.912 149.144 132.283 149.237 132.092C149.237 132.092 149.163 133.606 148.64 134.462C148.64 134.462 149.678 133.787 149.503 131.849L150.503 130.911C150.503 130.911 150.503 132.92 150.103 133.716C150.103 133.716 151.054 132.863 150.736 130.654L151.574 129.599C151.574 129.599 151.714 131.329 151.451 132.313C151.451 132.313 152.161 131.332 151.804 129.29L152.281 128.52C152.281 128.52 152.361 129.782 152.35 130.16C152.339 130.537 152.437 130.559 152.437 130.559C152.671 129.795 152.688 128.983 152.487 128.211C152.487 128.211 153.388 126.546 153.495 126.59Z" fill="black"/>
<path opacity="0.1" d="M268.558 115.394C268.558 115.394 267.84 125.365 261.047 123.28C261.047 123.28 259.787 123.348 259.378 122.165C259.378 122.165 259.894 122.214 259.852 121.194C259.84 120.828 259.87 120.461 259.943 120.101C260.04 119.62 260.292 119.185 260.661 118.86C260.661 118.86 262.184 116.231 266.884 115.752C266.884 115.752 267.98 115.085 268.235 115.148L267.298 116.725C267.298 116.725 266.166 115.996 265.105 116.31C265.105 116.31 267.265 116.652 267.172 116.966C267.152 117.029 266.64 117.786 266.64 117.786C266.64 117.786 264.667 116.526 263.039 117.064C263.039 117.064 265.667 117.124 266.445 118.073L265.601 119.166C265.601 119.166 263.582 117.731 261.708 118.275C261.708 118.275 264.448 118.436 265.401 119.39L264.429 120.347C264.429 120.347 262.431 118.98 260.866 119.448C260.866 119.448 264.02 119.953 264.185 120.541C264.185 120.541 263.237 121.361 262.88 121.462C262.88 121.462 261.423 120.519 260.543 120.866C260.543 120.866 262.615 121.427 262.593 121.659C262.593 121.659 261.072 122.402 260.102 122.372C260.993 122.444 261.888 122.281 262.697 121.902C262.523 122.423 262.201 122.883 261.771 123.225C261.771 123.225 262.776 123.225 263.064 121.716C263.064 121.716 264.226 121.09 264.316 120.896C264.316 120.896 264.242 122.411 263.719 123.263C263.719 123.263 264.757 122.588 264.582 120.65L265.582 119.713C265.582 119.713 265.582 121.722 265.182 122.517C265.182 122.517 266.133 121.664 265.815 119.456L266.654 118.404C266.654 118.404 266.793 120.131 266.53 121.115C266.53 121.115 267.243 120.134 266.884 118.092L267.361 117.321C267.361 117.321 267.44 118.587 267.429 118.961C267.418 119.336 267.517 119.36 267.517 119.36C267.752 118.597 267.769 117.784 267.566 117.012C267.566 117.012 268.451 115.348 268.558 115.394Z" fill="black"/>
<path opacity="0.1" d="M334.643 78.2378C334.643 78.2378 333.928 88.2089 327.132 86.1234C327.132 86.1234 325.874 86.1917 325.463 85.0082C325.463 85.0082 325.981 85.0574 325.937 84.0379C325.924 83.6711 325.956 83.304 326.031 82.9446C326.128 82.464 326.38 82.0282 326.749 81.7037C326.749 81.7037 328.269 79.0742 332.969 78.5959C332.969 78.5959 334.065 77.929 334.32 77.9919L333.385 79.569C333.385 79.569 332.254 78.8392 331.193 79.1535C331.193 79.1535 333.352 79.4952 333.259 79.8095C333.24 79.8724 332.711 80.6295 332.711 80.6295C332.711 80.6295 330.738 79.3694 329.111 79.9079C329.111 79.9079 331.738 79.968 332.517 80.9165L331.675 82.0098C331.675 82.0098 329.675 80.5748 327.793 81.1215C327.793 81.1215 330.533 81.2827 331.486 82.2367L330.514 83.1933C330.514 83.1933 328.516 81.8267 326.951 82.2941C326.951 82.2941 330.103 82.7997 330.267 83.3874C330.267 83.3874 329.319 84.2074 328.963 84.3085C328.963 84.3085 327.508 83.3655 326.625 83.7126C326.625 83.7126 328.697 84.273 328.675 84.5053C328.675 84.5053 327.154 85.2488 326.184 85.2187C327.075 85.2899 327.97 85.1278 328.779 84.7486C328.607 85.2704 328.285 85.7304 327.853 86.0715C327.853 86.0715 328.861 86.0715 329.146 84.5627C329.146 84.5627 330.308 83.9368 330.398 83.7427C330.398 83.7427 330.327 85.257 329.801 86.1097C329.801 86.1097 330.84 85.4346 330.667 83.4967L331.667 82.5592C331.667 82.5592 331.667 84.5682 331.264 85.3636C331.264 85.3636 332.218 84.5108 331.9 82.3023L332.739 81.2499C332.739 81.2499 332.878 82.9774 332.613 83.9614C332.613 83.9614 333.325 82.9801 332.966 80.9383L333.443 80.1676C333.443 80.1676 333.522 81.4331 333.514 81.8075C333.506 82.182 333.602 82.2066 333.602 82.2066C333.835 81.4435 333.852 80.6309 333.651 79.8587C333.651 79.8587 334.55 78.1914 334.643 78.2378Z" fill="black"/>
<path opacity="0.1" d="M270.821 241.246L280.659 241.664" stroke="black" stroke-miterlimit="10"/>
<path opacity="0.1" d="M269.221 242.998L279.058 243.417" stroke="black" stroke-miterlimit="10"/>
<path opacity="0.1" d="M267.621 244.748L277.458 245.166" stroke="black" stroke-miterlimit="10"/>
<path opacity="0.1" d="M266.018 246.5L275.855 246.918" stroke="black" stroke-miterlimit="10"/>
<path opacity="0.1" d="M264.418 248.249L274.255 248.67" stroke="black" stroke-miterlimit="10"/>
<path opacity="0.1" d="M262.817 250.001L272.655 250.419" stroke="black" stroke-miterlimit="10"/>
<path opacity="0.1" d="M261.214 251.753L271.052 252.171" stroke="black" stroke-miterlimit="10"/>
<path opacity="0.1" d="M259.614 253.502L269.451 253.921" stroke="black" stroke-miterlimit="10"/>
</g>
<g filter="url(#filter1_b)">
<path d="M24 32C24 23.1634 31.1634 16 40 16H351C359.837 16 367 23.1634 367 32V110H24V32Z" fill="black" fill-opacity="0.4"/>
</g>
<path d="M41.106 35.662H44.382C47.3687 35.662 48.862 37.216 48.862 40.324C48.862 43.4413 47.3687 45 44.382 45H41.106V35.662ZM44.228 43.698C45.2733 43.698 46.0433 43.4273 46.538 42.886C47.0327 42.3447 47.28 41.4907 47.28 40.324C47.28 39.1573 47.0327 38.3033 46.538 37.762C46.0433 37.2207 45.2733 36.95 44.228 36.95H42.646V43.698H44.228ZM53.6717 37.818C54.437 37.818 55.0857 38.0047 55.6177 38.378C56.159 38.742 56.425 39.3347 56.4157 40.156V43.516C56.4157 44.1507 56.1357 44.594 55.5757 44.846C55.0157 45.0887 54.2177 45.21 53.1817 45.21C52.351 45.21 51.665 45.0373 51.1237 44.692C50.5823 44.3467 50.3117 43.768 50.3117 42.956C50.3117 42.1907 50.531 41.6167 50.9697 41.234C51.4177 40.8513 52.0477 40.66 52.8597 40.66C53.6997 40.66 54.3997 40.828 54.9597 41.164V40.492C54.9597 39.54 54.3857 39.064 53.2377 39.064C52.827 39.064 52.4163 39.1293 52.0057 39.26C51.595 39.3813 51.2543 39.554 50.9837 39.778V38.406C51.245 38.238 51.623 38.098 52.1177 37.986C52.6217 37.874 53.1397 37.818 53.6717 37.818ZM53.3497 44.062C53.9377 44.062 54.353 44.02 54.5957 43.936C54.8383 43.852 54.9597 43.684 54.9597 43.432V42.074C54.4837 41.8687 53.961 41.766 53.3917 41.766C52.8597 41.766 52.4537 41.8593 52.1737 42.046C51.903 42.2327 51.7677 42.5127 51.7677 42.886C51.7677 43.278 51.9217 43.572 52.2297 43.768C52.547 43.964 52.9203 44.062 53.3497 44.062ZM58.495 35.522H60.063V36.852H58.495V35.522ZM58.537 38.014H60.007L60.021 45H58.537V38.014ZM62.1317 45V35.312H63.5877V45H62.1317ZM72.071 37.972L69.173 45.434C68.5757 46.9553 67.7684 47.716 66.751 47.716C66.387 47.716 66.079 47.66 65.827 47.548V46.288C66.0604 46.3813 66.2937 46.428 66.527 46.428C66.891 46.428 67.1757 46.3067 67.381 46.064C67.5957 45.8213 67.7777 45.4527 67.927 44.958L65.057 37.972H66.723L68.641 43.222L70.545 37.972H72.071ZM79.1362 45H77.5962V35.662H81.2922C82.3656 35.662 83.1916 35.914 83.7702 36.418C84.3489 36.9127 84.6382 37.6453 84.6382 38.616C84.6382 39.5867 84.3442 40.338 83.7562 40.87C83.1776 41.3927 82.3562 41.654 81.2922 41.654H79.1362V45ZM81.0962 40.338C81.8336 40.338 82.3376 40.1887 82.6082 39.89C82.8882 39.582 83.0282 39.176 83.0282 38.672C83.0282 38.1493 82.8882 37.734 82.6082 37.426C82.3376 37.118 81.8336 36.964 81.0962 36.964H79.1362V40.338H81.0962ZM86.413 45V35.312H87.869V45H86.413ZM92.9783 37.818C93.7436 37.818 94.3923 38.0047 94.9243 38.378C95.4656 38.742 95.7316 39.3347 95.7223 40.156V43.516C95.7223 44.1507 95.4423 44.594 94.8823 44.846C94.3223 45.0887 93.5243 45.21 92.4883 45.21C91.6576 45.21 90.9716 45.0373 90.4303 44.692C89.889 44.3467 89.6183 43.768 89.6183 42.956C89.6183 42.1907 89.8376 41.6167 90.2763 41.234C90.7243 40.8513 91.3543 40.66 92.1663 40.66C93.0063 40.66 93.7063 40.828 94.2663 41.164V40.492C94.2663 39.54 93.6923 39.064 92.5443 39.064C92.1336 39.064 91.723 39.1293 91.3123 39.26C90.9016 39.3813 90.561 39.554 90.2903 39.778V38.406C90.5516 38.238 90.9296 38.098 91.4243 37.986C91.9283 37.874 92.4463 37.818 92.9783 37.818ZM92.6563 44.062C93.2443 44.062 93.6596 44.02 93.9023 43.936C94.145 43.852 94.2663 43.684 94.2663 43.432V42.074C93.7903 41.8687 93.2676 41.766 92.6983 41.766C92.1663 41.766 91.7603 41.8593 91.4803 42.046C91.2096 42.2327 91.0743 42.5127 91.0743 42.886C91.0743 43.278 91.2283 43.572 91.5363 43.768C91.8536 43.964 92.227 44.062 92.6563 44.062ZM103.858 37.972L100.96 45.434C100.363 46.9553 99.5555 47.716 98.5382 47.716C98.1742 47.716 97.8662 47.66 97.6142 47.548V46.288C97.8475 46.3813 98.0808 46.428 98.3142 46.428C98.6782 46.428 98.9628 46.3067 99.1682 46.064C99.3828 45.8213 99.5648 45.4527 99.7142 44.958L96.8442 37.972H98.5102L100.428 43.222L102.332 37.972H103.858ZM105.335 45V35.312H106.791V45H105.335ZM108.862 35.522H110.43V36.852H108.862V35.522ZM108.904 38.014H110.374L110.388 45H108.904V38.014ZM114.529 45.21C114.062 45.21 113.656 45.1633 113.311 45.07C112.975 44.9767 112.611 44.8367 112.219 44.65V43.264C112.639 43.5253 113.022 43.7213 113.367 43.852C113.712 43.9733 114.1 44.034 114.529 44.034C114.93 44.034 115.243 43.9547 115.467 43.796C115.7 43.628 115.817 43.4133 115.817 43.152C115.817 42.9 115.724 42.7133 115.537 42.592C115.35 42.4707 115.061 42.34 114.669 42.2L114.347 42.088C113.694 41.9293 113.171 41.7007 112.779 41.402C112.396 41.1033 112.205 40.6367 112.205 40.002C112.205 39.5073 112.336 39.0967 112.597 38.77C112.858 38.4433 113.185 38.2053 113.577 38.056C113.978 37.9067 114.398 37.832 114.837 37.832C115.285 37.8413 115.663 37.8973 115.971 38C116.279 38.0933 116.615 38.2333 116.979 38.42V39.68C116.494 39.428 116.125 39.2553 115.873 39.162C115.63 39.0687 115.336 39.022 114.991 39.022C114.608 39.022 114.3 39.092 114.067 39.232C113.834 39.372 113.717 39.568 113.717 39.82C113.717 40.1187 113.834 40.338 114.067 40.478C114.3 40.6087 114.664 40.744 115.159 40.884C115.626 41.0147 115.994 41.1407 116.265 41.262C116.545 41.3833 116.788 41.584 116.993 41.864C117.208 42.1347 117.315 42.508 117.315 42.984C117.306 43.7307 117.03 44.2907 116.489 44.664C115.957 45.028 115.304 45.21 114.529 45.21ZM121.54 45.182C120.896 45.182 120.392 45.0093 120.028 44.664C119.664 44.3187 119.482 43.8287 119.482 43.194V39.19H118.348V37.972H119.482V36.012H120.994V37.972H122.702V39.19H120.994V42.9C120.994 43.2453 121.055 43.4973 121.176 43.656C121.297 43.8053 121.512 43.88 121.82 43.88C121.969 43.88 122.123 43.8613 122.282 43.824C122.45 43.7773 122.59 43.7213 122.702 43.656V44.958C122.375 45.1073 121.988 45.182 121.54 45.182Z" fill="white" fill-opacity="0.6"/>
<path d="M71.968 65.656L66.368 87H60.064L56.416 74.84L52.704 87H46.4L40.8 65.656H47.84L50.208 79.096L54.016 65.656H58.752L62.56 79.128L64.928 65.656H71.968ZM80.6915 70.072C83.3582 70.072 85.3102 70.936 86.5475 72.664C87.8062 74.3707 88.4248 76.9733 88.4035 80.472H78.2595C78.7715 81.9653 80.1262 82.712 82.3235 82.712C83.1982 82.712 84.4035 82.424 85.9395 81.848L86.7395 81.592V86.424C84.9048 87.128 82.9102 87.48 80.7555 87.48C79.0702 87.48 77.5768 87.1387 76.2755 86.456C74.9742 85.7733 73.9608 84.8027 73.2355 83.544C72.5102 82.2853 72.1475 80.8347 72.1475 79.192C72.1475 76.312 72.8835 74.072 74.3555 72.472C75.8275 70.872 77.9395 70.072 80.6915 70.072ZM80.4035 74.36C79.8488 74.36 79.3475 74.584 78.8995 75.032C78.4728 75.4587 78.1848 76.1307 78.0355 77.048H82.6755C82.5475 76.0667 82.3022 75.3733 81.9395 74.968C81.5982 74.5627 81.0862 74.36 80.4035 74.36ZM98.879 70.072C101.546 70.072 103.498 70.936 104.735 72.664C105.994 74.3707 106.612 76.9733 106.591 80.472H96.447C96.959 81.9653 98.3137 82.712 100.511 82.712C101.386 82.712 102.591 82.424 104.127 81.848L104.927 81.592V86.424C103.092 87.128 101.098 87.48 98.943 87.48C97.2577 87.48 95.7643 87.1387 94.463 86.456C93.1617 85.7733 92.1483 84.8027 91.423 83.544C90.6977 82.2853 90.335 80.8347 90.335 79.192C90.335 76.312 91.071 74.072 92.543 72.472C94.015 70.872 96.127 70.072 98.879 70.072ZM98.591 74.36C98.0363 74.36 97.535 74.584 97.087 75.032C96.6603 75.4587 96.3723 76.1307 96.223 77.048H100.863C100.735 76.0667 100.49 75.3733 100.127 74.968C99.7857 74.5627 99.2737 74.36 98.591 74.36ZM119.339 87L115.275 80.728L115.243 87H109.483V64.6H115.339L115.275 76.568L119.531 70.712H126.571L120.267 77.816L126.635 87H119.339ZM135.348 70.072C138.014 70.072 139.966 70.936 141.204 72.664C142.462 74.3707 143.081 76.9733 143.06 80.472H132.916C133.428 81.9653 134.782 82.712 136.98 82.712C137.854 82.712 139.06 82.424 140.596 81.848L141.396 81.592V86.424C139.561 87.128 137.566 87.48 135.412 87.48C133.726 87.48 132.233 87.1387 130.932 86.456C129.63 85.7733 128.617 84.8027 127.892 83.544C127.166 82.2853 126.804 80.8347 126.804 79.192C126.804 76.312 127.54 74.072 129.012 72.472C130.484 70.872 132.596 70.072 135.348 70.072ZM135.06 74.36C134.505 74.36 134.004 74.584 133.556 75.032C133.129 75.4587 132.841 76.1307 132.692 77.048H137.332C137.204 76.0667 136.958 75.3733 136.596 74.968C136.254 74.5627 135.742 74.36 135.06 74.36ZM145.951 72.12C146.698 71.7147 148.053 71.2987 150.015 70.872C151.978 70.424 153.653 70.2 155.039 70.2C157.343 70.2 159.103 70.6267 160.319 71.48C161.535 72.312 162.143 73.784 162.143 75.896V87H156.319V77.304C156.319 76.472 156.095 75.8747 155.647 75.512C155.199 75.128 154.538 74.936 153.663 74.936C153.258 74.936 152.853 75 152.447 75.128C152.063 75.2347 151.839 75.3413 151.775 75.448V87H145.951V72.12ZM182.175 64.088V82.168C182.175 83.2773 181.812 84.2373 181.087 85.048C180.383 85.8373 179.423 86.4453 178.207 86.872C176.991 87.2773 175.657 87.48 174.207 87.48C171.113 87.48 168.809 86.8187 167.295 85.496C165.78 84.152 165.023 81.9013 165.023 78.744C165.023 76.0133 165.695 73.8907 167.039 72.376C168.383 70.84 170.356 70.072 172.959 70.072C173.599 70.072 174.196 70.1147 174.751 70.2C175.305 70.264 175.86 70.4773 176.415 70.84V64.088H182.175ZM176.415 75.16C175.775 74.84 175.188 74.68 174.655 74.68C173.78 74.68 173.065 74.7973 172.51 75.032C171.977 75.2453 171.561 75.672 171.263 76.312C170.985 76.9307 170.847 77.816 170.847 78.968C170.847 80.248 171.135 81.1867 171.711 81.784C172.287 82.3813 173.204 82.68 174.463 82.68C175.764 82.68 176.415 82.296 176.415 81.528V75.16ZM201.199 87H194.799V65.656H205.263C207.887 65.656 209.924 66.2427 211.375 67.416C212.825 68.5893 213.551 70.3707 213.551 72.76C213.551 75.2133 212.815 77.1227 211.343 78.488C209.871 79.832 207.844 80.504 205.263 80.504H201.199V87ZM204.463 75.704C205.06 75.704 205.561 75.4907 205.967 75.064C206.372 74.6373 206.575 74.0293 206.575 73.24C206.575 72.3227 206.372 71.6293 205.967 71.16C205.561 70.6907 205.06 70.456 204.463 70.456H201.199V75.704H204.463ZM216.576 72.6C216.918 72.28 217.483 71.928 218.272 71.544C219.062 71.16 219.947 70.84 220.928 70.584C221.931 70.3067 222.87 70.168 223.744 70.168C226.134 70.168 227.744 70.5093 228.576 71.192V75.32C228.15 75.192 227.435 75.0853 226.432 75C225.451 74.9147 224.544 74.872 223.712 74.872C223.03 74.872 222.592 74.8933 222.4 74.936V87H216.576V72.6ZM238.183 70.168C239.996 70.168 241.703 70.5627 243.303 71.352C244.903 72.12 245.692 73.688 245.671 76.056L245.639 83.64C245.596 86.2 242.897 87.48 237.543 87.48C235.132 87.48 233.276 87.0427 231.975 86.168C230.673 85.272 230.023 83.768 230.023 81.656C230.023 80.248 230.492 79.1067 231.431 78.232C232.369 77.336 233.809 76.888 235.751 76.888C236.455 76.888 237.18 76.9947 237.927 77.208C238.695 77.4 239.367 77.656 239.943 77.976V77.336C239.943 75.6933 238.823 74.872 236.583 74.872C235.644 74.872 234.684 75.0533 233.703 75.416C232.743 75.7787 231.985 76.1947 231.431 76.664V71.608C231.985 71.2453 232.871 70.9147 234.087 70.616C235.324 70.3173 236.689 70.168 238.183 70.168ZM237.543 83.544C238.503 83.544 239.143 83.4907 239.463 83.384C239.783 83.256 239.943 83.0213 239.943 82.68V80.696C239.473 80.5467 238.929 80.472 238.311 80.472C237.393 80.472 236.743 80.5893 236.359 80.824C235.975 81.0373 235.783 81.4107 235.783 81.944C235.783 82.3493 235.953 82.7227 236.295 83.064C236.657 83.384 237.073 83.544 237.543 83.544ZM265.541 70.712L259.397 86.68C258.501 89.0053 257.498 90.6907 256.389 91.736C255.279 92.7813 254.042 93.304 252.677 93.304C251.29 93.304 250.127 93.08 249.189 92.632V87.992C249.914 88.248 250.618 88.376 251.301 88.376C251.834 88.376 252.293 88.2587 252.677 88.024C253.061 87.7893 253.359 87.352 253.573 86.712L247.109 70.712H253.765L256.517 80.28L259.237 70.712H265.541Z" fill="white"/>
<path d="M235.786 110.753C234.141 109.673 232.297 108.965 230.598 107.984C228.269 106.634 226.214 104.767 223.696 103.821C222.384 103.38 221.032 103.069 219.66 102.892C218.881 102.766 218.078 102.641 217.311 102.816C216.259 103.051 215.412 103.808 214.464 104.319C212.19 105.546 209.277 105.385 207.208 106.935C205.068 108.542 204.498 111.453 204.068 114.09C203.334 118.603 202.512 123.231 200.125 127.131C199.986 127.306 199.916 127.526 199.93 127.749C199.989 127.924 200.101 128.076 200.251 128.183C201.643 129.397 203.569 130.474 205.263 129.73C205.975 129.416 206.518 128.823 207.137 128.35C207.756 127.877 208.559 127.511 209.299 127.754C211.006 128.317 210.844 131.441 212.623 131.709C213.579 131.851 214.36 131.001 214.96 130.247C215.56 129.493 216.401 128.67 217.341 128.899C217.641 129.004 217.932 129.134 218.21 129.288C219.095 129.676 220.156 129.501 220.997 129.014C221.822 128.501 222.527 127.818 223.066 127.011C223.456 126.408 223.915 125.853 224.436 125.357C224.996 124.899 225.681 124.619 226.403 124.551C227.124 124.483 227.849 124.632 228.486 124.977C229.152 125.354 229.678 125.934 230.324 126.344C230.971 126.754 231.845 126.964 232.484 126.546C232.656 126.434 232.845 126.273 233.032 126.344C233.116 126.385 233.189 126.447 233.243 126.524L235.142 128.845C235.528 128.548 235.782 128.111 235.849 127.628C236.331 127.478 236.83 127.738 237.304 127.902C237.778 128.066 238.416 128.118 238.69 127.694C238.912 127.352 238.764 126.899 238.783 126.491C238.822 125.751 239.43 125.16 240.082 124.81C240.734 124.461 241.471 124.264 242.099 123.873C243.283 123.129 243.951 121.711 243.962 120.32C243.944 119.126 243.568 117.964 242.883 116.985C241.973 115.635 241.038 116.061 239.838 115.361C239.137 114.954 238.926 114.137 238.523 113.481C237.819 112.385 236.885 111.454 235.786 110.753Z" fill="#17181A"/>
</g>
<defs>
<filter id="filter0_d" x="0" y="0" width="391" height="336" filterUnits="userSpaceOnUse" color-interpolation-filters="sRGB">
<feFlood flood-opacity="0" result="BackgroundImageFix"/>
<feColorMatrix in="SourceAlpha" type="matrix" values="0 0 0 0 0 0 0 0 0 0 0 0 0 0 0 0 0 0 127 0"/>
<feOffset dy="8"/>
<feGaussianBlur stdDeviation="12"/>
<feColorMatrix type="matrix" values="0 0 0 0 0.721569 0 0 0 0 0.760784 0 0 0 0 0.8 0 0 0 0.5 0"/>
<feBlend mode="normal" in2="BackgroundImageFix" result="effect1_dropShadow"/>
<feBlend mode="normal" in="SourceGraphic" in2="effect1_dropShadow" result="shape"/>
</filter>
<filter id="filter1_b" x="4" y="-4" width="383" height="134" filterUnits="userSpaceOnUse" color-interpolation-filters="sRGB">
<feFlood flood-opacity="0" result="BackgroundImageFix"/>
<feGaussianBlur in="BackgroundImage" stdDeviation="10"/>
<feComposite in2="SourceAlpha" operator="in" result="effect1_backgroundBlur"/>
<feBlend mode="normal" in="SourceGraphic" in2="effect1_backgroundBlur" result="shape"/>
</filter>
<linearGradient id="paint0_linear" x1="202.194" y1="301.912" x2="202.194" y2="101.69" gradientUnits="userSpaceOnUse">
<stop stop-color="#808080" stop-opacity="0.25"/>
<stop offset="0.54" stop-color="#808080" stop-opacity="0.12"/>
<stop offset="1" stop-color="#808080" stop-opacity="0.1"/>
</linearGradient>
<clipPath id="clip0">
<rect width="297" height="226" fill="white" transform="translate(59 78)"/>
</clipPath>
</defs>
</svg>
