<svg width="130" height="184" viewBox="0 0 130 184" fill="none" xmlns="http://www.w3.org/2000/svg">
<path d="M96.211 85.5607L109.142 90.9521C108.472 91.1351 107.812 91.3428 107.147 91.5357L105.177 92.1688C103.862 92.5893 102.557 93.0493 101.257 93.5093C99.9574 93.9792 98.6573 94.4491 97.3723 94.9585C96.1069 95.4531 94.8366 95.9576 93.5913 96.5067C92.8967 92.065 91.8547 87.3215 90.4902 86.2185L96.211 85.5607Z" fill="#17181A"/>
<path d="M109.142 90.9521V100.112C106.75 101.22 101.391 102.971 94.6283 104.98C94.6283 104.98 94.276 100.894 93.5913 96.5166C94.9061 96.1506 96.2111 95.74 97.5012 95.3146C98.816 94.8942 100.121 94.4342 101.421 93.9742C102.721 93.5043 104.021 93.0344 105.306 92.525L107.231 91.7633C107.867 91.4912 108.511 91.239 109.142 90.9521Z" fill="#17181A"/>
<path d="M16.3505 95.7944C16.8416 95.646 17.323 95.4828 17.7993 95.2899L17.1394 97.9016C16.4975 97.2709 15.8164 96.6811 15.1001 96.1357C15.5168 96.0319 15.9386 95.923 16.3505 95.7944Z" fill="#17181A"/>
<path d="M60.2676 105.796C53.3656 104.688 34.4859 98.5643 31.087 95.9873C28.5863 94.088 25.7233 90.9768 25.3511 83.5574C24.8055 86.9357 24.2449 90.314 23.6692 93.6923L23.6494 93.811C24.0716 93.5736 24.5262 93.3987 24.9989 93.2917C25.5301 93.1566 26.0806 93.1131 26.6265 93.1631C26.1611 93.4516 25.649 93.6575 25.113 93.7715C24.6301 93.8925 24.1314 93.9392 23.6344 93.91L22.2798 101.75C23.5154 102.586 24.7408 103.427 25.9515 104.292L27.857 105.647L29.7475 107.027C31.0078 107.947 32.273 108.857 33.5134 109.807C34.7539 110.752 36.0091 111.672 37.2397 112.636L37.2447 112.641C37.2721 112.666 37.2911 112.699 37.2993 112.735C38.2519 112.463 39.2147 112.211 40.1722 111.949L43.2336 111.167C45.2779 110.653 47.3271 110.178 49.3714 109.684C51.4305 109.224 53.4799 108.744 55.5391 108.308C57.5982 107.868 59.6573 107.438 61.7314 107.062C59.7069 107.636 57.6626 108.16 55.6234 108.674C53.5841 109.194 51.5299 109.664 49.4855 110.163C47.4313 110.618 45.3821 111.098 43.323 111.538L40.2318 112.186C39.2542 112.374 38.2817 112.572 37.3043 112.75C37.3043 112.755 37.3142 112.76 37.3142 112.765C37.4928 114.758 37.6614 116.752 37.7806 118.75C37.4678 116.801 37.205 114.847 36.952 112.889C35.6966 112.003 34.4711 111.083 33.2307 110.183C31.9653 109.273 30.7248 108.323 29.4795 107.388L27.6089 105.979L25.763 104.544C24.587 103.639 23.426 102.709 22.2749 101.77L21.8778 104.074C21.8678 104.13 21.8361 104.18 21.7896 104.212C21.7431 104.245 21.6856 104.257 21.6297 104.248C21.6176 104.247 21.6059 104.243 21.5951 104.238L16.2165 102.373C16.1623 102.353 16.1174 102.313 16.09 102.262C16.0626 102.211 16.0546 102.152 16.0675 102.096L17.1195 97.9708C16.2006 97.4699 15.3185 96.9046 14.4799 96.2792C13.8199 96.754 13.1699 97.2338 12.5051 97.7037C11.7807 98.2033 11.066 98.7177 10.3316 99.2123C11.0066 98.6435 11.6913 98.0895 12.376 97.5306C13.0112 97.0112 13.6561 96.5067 14.3011 95.9973C14.306 95.9608 14.3178 95.9255 14.336 95.8934C13.9539 94.4293 13.6164 92.9553 13.2641 91.4814C12.892 89.9579 12.5496 88.4246 12.2173 86.8913C11.8698 85.3579 11.5374 83.8246 11.2297 82.2814C10.9073 80.7431 10.6095 79.2048 10.3316 77.6567C10.7585 79.1702 11.1653 80.6887 11.5423 82.2121C11.9394 83.7306 12.3064 85.259 12.6638 86.7874C13.0308 88.3158 13.3882 89.8442 13.7157 91.3775C14.0382 92.8317 14.3658 94.2859 14.6633 95.745C15.1944 95.6214 15.7252 95.5076 16.2611 95.4136C16.7771 95.3246 17.2932 95.2554 17.8192 95.2108L18.3997 92.9405L20.7614 83.785L20.7665 83.7702V83.7653C21.063 82.9651 21.2968 82.1432 21.4659 81.307C21.6598 80.4933 21.6547 79.6452 21.4512 78.8339C21.3266 78.4483 21.1005 78.1032 20.7963 77.8347C20.6364 77.701 20.4673 77.5787 20.2902 77.4687L20.0123 77.2857L19.8684 77.167C19.8485 77.162 19.8337 77.1472 19.779 77.1274C18.9464 76.9384 18.1003 76.8144 17.2484 76.7564C13.795 76.4448 10.3268 76.2618 6.86346 76.0739C8.59501 76.0986 10.3317 76.1481 12.0683 76.2124C13.8049 76.2767 15.5367 76.3459 17.2734 76.4795C17.7051 76.5141 18.1417 76.5536 18.5734 76.6031C19.0195 76.6376 19.4613 76.7138 19.8931 76.8306C19.9649 76.8534 20.0322 76.8885 20.0918 76.9345L20.2008 77.0236L20.4687 77.1917C20.6619 77.3062 20.846 77.4352 21.0194 77.5775C21.3753 77.8806 21.6426 78.2736 21.7935 78.7152C22.031 79.5836 22.0565 80.496 21.8679 81.3762C21.7071 82.2349 21.4748 83.0787 21.1733 83.8988L18.861 93.0543L16.5688 102.007L21.5008 103.748L23.3913 93.6429C24.0314 90.2696 24.6847 86.8979 25.3511 83.5279C25.241 80.2814 25.4705 77.0323 26.036 73.8332L16.9509 72.8836C16.0355 72.7999 15.1687 72.4353 14.47 71.8399C13.7264 71.7315 12.9893 71.5829 12.2619 71.3947C12.0734 71.3502 11.8849 71.3007 11.6961 71.2414C11.6019 71.2117 11.5076 71.182 11.4086 71.1474C11.3975 71.1425 11.3857 71.1391 11.3737 71.1375H11.3589C11.3253 71.1412 11.292 71.1478 11.2596 71.1573C10.9093 71.2666 10.5704 71.409 10.2473 71.5827C9.56267 71.9141 8.88793 72.2801 8.20325 72.6263C7.52342 72.9874 6.82857 73.3287 6.12403 73.6552C7.334 72.6824 8.64281 71.8386 10.0291 71.1375C10.3909 70.9544 10.7699 70.807 11.1605 70.6973C11.2242 70.6848 11.2889 70.6782 11.3538 70.6775C11.432 70.682 11.5091 70.6987 11.5821 70.727C11.6615 70.7665 11.7509 70.7962 11.8352 70.8309L12.376 71.0287C13.0658 71.2711 13.7555 71.5282 14.4402 71.8102C13.7206 71.1276 13.2046 70.0246 13.5074 68.2242L13.9687 56.0119L12.1081 55.631C12.1081 55.631 10.7387 55.9377 13.4428 48.1523L17.7645 35.762C17.7645 35.762 0.790085 37.8493 0.174962 38.4626C-0.44042 39.076 3.74249 80.4067 9.52806 100.152C9.52806 100.152 35.8553 118.918 37.4531 119.531C38.2321 119.823 52.8249 116.336 68.7672 112.147C68.7672 112.147 67.1645 106.904 60.2676 105.796ZM4.62554 47.7418C4.22361 45.3082 3.8367 42.8747 3.49921 40.4312C4.03513 42.84 4.52138 45.2587 4.99768 47.6775C5.47424 50.0962 5.91082 52.5248 6.36727 54.9484C6.78399 57.377 7.22567 59.8056 7.62251 62.2392L8.21294 65.8895C8.39174 67.1112 8.58507 68.328 8.74885 69.5497C8.47605 68.3478 8.23283 67.1409 7.96993 65.934L7.24551 62.3035C6.76918 59.8848 6.33746 57.4562 5.88101 55.0325C5.46407 52.6039 5.02263 50.1802 4.62554 47.7418Z" fill="#17181A"/>
<path d="M50.4977 19.0833C49.5948 19.0833 48.4435 19.5729 47.2972 19.8203C46.151 20.0676 43.5264 19.5729 43.2784 18.8409C43.0303 18.1039 41.4821 12.0299 41.2289 12.3168C40.9808 12.6037 40.4897 13.1132 40.4897 13.1132C40.4897 13.1132 40.4054 20.5127 40.569 21.3091C40.7378 22.1104 43.7695 26.1168 48.2797 25.7063C52.7901 25.2957 53.4501 19.9835 53.4501 19.9835C53.4501 19.9835 51.3958 19.0833 50.4977 19.0833ZM51.242 21.2794C50.9108 21.4828 50.5234 21.5763 50.1355 21.5465C49.7587 21.5178 49.3936 21.4027 49.0688 21.2101C48.7528 21.0277 48.4829 20.7756 48.2797 20.4732C48.8687 20.7772 49.5071 20.9748 50.1653 21.0568C50.4734 21.0798 50.7828 21.0377 51.0734 20.9332C51.388 20.8115 51.689 20.6573 51.9715 20.4732C51.8135 20.8078 51.5597 21.0883 51.242 21.2794Z" fill="#17181A"/>
<path d="M40.4894 13.1154C40.4894 13.1154 44.5904 9.27253 44.2624 4.53031C44.2624 4.53031 45.3286 3.54916 47.0511 5.18441C47.0511 5.18441 48.5274 5.59322 50.2498 3.79444C51.9723 1.99567 52.8745 4.61206 52.8745 4.61206C52.8745 4.61206 53.7767 7.39198 54.0228 6.65612C54.2688 5.92026 54.6789 2.40447 50.988 1.2598C48.1179 0.407509 45.1177 0.0752012 42.1298 0.278654C41.1456 0.442176 39.0951 2.07742 39.0951 4.36677C39.0951 6.65611 38.1109 9.51778 38.1929 10.4172C38.2749 11.3166 40.4894 13.1154 40.4894 13.1154Z" fill="#17181A"/>
<path d="M44.1804 12.1342C44.9758 11.8312 45.8298 11.7119 46.6781 11.7853C47.1049 11.8219 47.5252 11.9132 47.9285 12.0571C48.3295 12.2042 48.6995 12.4244 49.0195 12.7065C48.6412 12.5433 48.2502 12.4111 47.8504 12.3113C47.4549 12.2209 47.0535 12.1585 46.6492 12.1246C45.8271 12.0686 45.002 12.0718 44.1804 12.1342Z" fill="#17181A"/>
<path d="M51.152 12.3172C51.481 11.958 51.886 11.6763 52.3377 11.4926C52.786 11.2812 53.2906 11.2195 53.7767 11.3166C53.333 11.4576 52.8968 11.6211 52.4699 11.8065C52.0423 11.9816 51.6211 12.1721 51.152 12.3172Z" fill="#17181A"/>
<path d="M47.2971 13.8717C47.43 13.8671 47.5559 13.8112 47.6483 13.7159C47.7407 13.6206 47.7924 13.4932 47.7924 13.3606C47.7924 13.2281 47.7407 13.1007 47.6483 13.0054C47.5559 12.91 47.43 12.8542 47.2971 12.8496C47.1642 12.8542 47.0383 12.91 46.9459 13.0054C46.8535 13.1007 46.8019 13.2281 46.8019 13.3606C46.8019 13.4932 46.8535 13.6206 46.9459 13.7159C47.0383 13.8112 47.1642 13.8671 47.2971 13.8717Z" fill="#17181A"/>
<path d="M52.5464 13.5446C52.6793 13.54 52.8052 13.4842 52.8976 13.3889C52.99 13.2935 53.0416 13.1662 53.0416 13.0336C53.0416 12.901 52.99 12.7737 52.8976 12.6783C52.8052 12.583 52.6793 12.5272 52.5464 12.5226C52.4135 12.5272 52.2876 12.583 52.1952 12.6783C52.1028 12.7737 52.0512 12.901 52.0512 13.0336C52.0512 13.1662 52.1028 13.2935 52.1952 13.3889C52.2876 13.4842 52.4135 13.54 52.5464 13.5446Z" fill="#17181A"/>
<path d="M38.1929 10.4172C38.0136 10.4915 37.8533 10.605 37.7239 10.7493C37.5945 10.8936 37.4993 11.0651 37.4453 11.251C37.3419 11.6184 37.3425 12.0072 37.4473 12.3742C37.686 13.125 37.9675 13.8616 38.2904 14.5804C38.5789 15.332 38.8065 16.1054 38.971 16.8933C39.0374 17.2631 39.2209 17.602 39.4945 17.8604C39.6409 17.9872 39.8125 18.0816 39.9981 18.1375C40.1837 18.1934 40.3791 18.2095 40.5714 18.1846C40.3723 18.2426 40.1627 18.2552 39.9581 18.2215C39.7535 18.1879 39.559 18.1088 39.3891 17.9902C39.0545 17.724 38.8168 17.3556 38.7126 16.9416C38.5122 16.1798 38.2645 15.4313 37.9708 14.7002C37.8342 14.3287 37.6946 13.9578 37.5458 13.5901C37.382 13.2163 37.2627 12.8246 37.1902 12.4231C37.1074 12.0119 37.1417 11.5858 37.2892 11.1931C37.3678 11.0019 37.4906 10.8319 37.6477 10.6971C37.8047 10.5622 37.9915 10.4663 38.1929 10.4172Z" fill="#17181A"/>
<path d="M51.5622 15.977C51.758 16.4943 51.752 17.066 51.5452 17.5791C51.4314 17.8537 51.2198 18.0767 50.9511 18.2051C50.6869 18.3105 50.3927 18.313 50.1268 18.2122C50.3734 18.1808 50.6108 18.0988 50.8241 17.9714C51.0064 17.8353 51.1478 17.6521 51.2328 17.4416C51.4038 16.9691 51.5145 16.4771 51.5622 15.977Z" fill="#17181A"/>
<path d="M54.0228 6.65612C53.9531 7.77883 53.9508 8.90469 54.016 10.0277C54.05 10.5846 54.1144 11.1392 54.2088 11.6891C54.3085 12.2286 54.4661 12.7813 54.5611 13.3449C54.7538 14.4768 54.7414 15.634 54.5244 16.7615C54.2886 17.8724 53.9277 18.9532 53.4486 19.9834C53.8016 18.9163 54.0746 17.8246 54.2653 16.7172C54.4373 15.6172 54.4235 14.4963 54.2243 13.4009C54.1422 12.8501 53.9984 12.3126 53.9028 11.7413C53.8096 11.1785 53.76 10.6093 53.7546 10.0388C53.733 8.90522 53.8228 7.77225 54.0228 6.65612Z" fill="#17181A"/>
<path d="M40.5714 21.3098C40.5035 21.9639 40.2589 22.5875 39.8637 23.1142C39.6624 23.3817 39.4155 23.612 39.1344 23.7945C38.8497 23.9701 38.5227 24.0658 38.188 24.0715C38.4721 23.9433 38.7377 23.7777 38.9777 23.5793C39.2037 23.3766 39.4091 23.1522 39.5909 22.9093C39.7762 22.6625 39.9469 22.4051 40.102 22.1384C40.2578 21.8684 40.4184 21.5957 40.5714 21.3098Z" fill="#17181A"/>
<path d="M40.2497 22.1835C37.7571 22.6882 35.3179 23.4265 32.9647 24.3887C31.7448 24.8302 30.4692 25.1005 29.1746 25.1918C27.9166 25.265 26.6637 25.4085 25.4219 25.6217C25.1417 25.6825 24.8729 25.7868 24.6251 25.9307C24.3405 26.1066 24.0403 26.2562 23.7285 26.3779C23.1612 26.5879 22.6385 26.9024 22.1878 27.3049C21.3275 28.1972 20.6203 29.2244 20.0945 30.3456C19.7964 30.8986 19.5585 31.4846 19.2966 32.0587C19.0598 32.6444 18.8218 33.2309 18.5996 33.8237C18.39 34.4215 18.1677 35.0153 17.9681 35.6172L17.3987 37.4333L17.3974 37.4377L17.395 37.4447C16.2087 40.4034 15.1307 43.4032 14.1609 46.4441C13.6806 47.9631 13.2268 49.491 12.8393 51.0308C12.6482 51.8008 12.4679 52.5734 12.333 53.3471C12.2643 53.7289 12.2172 54.1143 12.1917 54.5014C12.1806 54.6847 12.1835 54.8687 12.2004 55.0516C12.2044 55.1797 12.243 55.3044 12.3122 55.4123L12.1712 55.3404C14.9895 55.8926 17.8099 56.4433 20.634 56.9631L24.8668 57.7501L26.985 58.1067C27.6726 58.2257 28.3656 58.3104 29.0617 58.3603L29.2675 58.3625C29.268 58.3513 29.2625 58.3636 29.275 58.3559C29.289 58.3417 29.3047 58.3294 29.3218 58.3191C29.4158 58.2103 29.4943 58.0889 29.5548 57.9585C29.6992 57.6517 29.8185 57.334 29.9117 57.0082C30.1021 56.3299 30.2545 55.6417 30.3682 54.9466C30.6072 53.5482 30.7345 52.1273 30.8333 50.7056C30.9231 49.2826 30.9522 47.8561 30.9208 46.4262C30.9 44.9978 30.8148 43.5688 30.6542 42.1458C30.6533 42.1371 30.6559 42.1283 30.6613 42.1214C30.6668 42.1145 30.6747 42.11 30.6834 42.1088C30.6921 42.1075 30.701 42.1097 30.7081 42.1148C30.7153 42.1199 30.7202 42.1275 30.7219 42.1362C30.9622 43.5505 31.1281 44.979 31.2293 46.4132C31.3177 47.848 31.3438 49.2859 31.3077 50.7268C31.2723 52.1695 31.1535 53.6089 30.9521 55.038C30.8514 55.7598 30.7104 56.4755 30.5295 57.1816C30.4341 57.5472 30.3088 57.9044 30.1548 58.2496C30.0678 58.4463 29.9516 58.6288 29.8101 58.7909C29.7596 58.8375 29.7046 58.8829 29.6493 58.9255C29.5752 58.9701 29.4956 59.0049 29.4124 59.0289C29.296 59.0403 29.1916 59.04 29.0801 59.0434C28.3423 59.0001 27.6074 58.9165 26.8788 58.7928L24.7443 58.4445C23.3265 58.1944 21.9097 57.9441 20.4985 57.6665C17.6773 57.1053 14.8611 56.5242 12.0497 55.9232L12.0262 55.9181C11.981 55.9085 11.9399 55.885 11.9086 55.8511C11.7276 55.6456 11.6253 55.3829 11.6199 55.1095C11.6045 54.895 11.6056 54.6795 11.6233 54.4651C11.6594 54.0571 11.7183 53.6514 11.8 53.25C11.956 52.4554 12.1579 51.678 12.3817 50.9082C12.8278 49.3687 13.3372 47.8537 13.8621 46.3452C14.396 44.8398 14.9332 43.3368 15.4861 41.8395L17.1605 37.353L17.1567 37.3641C17.7957 34.8908 18.6259 32.4704 19.6398 30.1249C20.149 28.9184 20.8774 27.8162 21.7883 26.8736C22.2845 26.4199 22.8608 26.0619 23.488 25.8179C23.7688 25.7051 24.0408 25.5719 24.3018 25.4192C24.6064 25.2443 24.937 25.1188 25.2813 25.0476C26.5537 24.8441 27.8369 24.7139 29.1244 24.658C29.7542 24.6028 30.3813 24.5358 30.9973 24.4233C31.6144 24.3286 32.2217 24.1785 32.8117 23.975C35.2075 23.0726 37.6997 22.4489 40.2389 22.1162C40.2479 22.1149 40.257 22.1173 40.2643 22.1227C40.2715 22.1281 40.2763 22.1362 40.2776 22.1451C40.2785 22.1538 40.2762 22.1626 40.271 22.1696C40.2659 22.1767 40.2583 22.1817 40.2497 22.1835Z" fill="#17181A"/>
<path d="M48.2963 29.2716C48.2403 29.5691 48.2261 29.873 48.2542 30.1744C48.2723 30.4795 48.2922 30.7841 48.3213 31.0886L48.5085 32.9138C48.6431 34.1299 48.8034 35.3434 48.9525 36.5581L49.1898 38.3785C49.3395 39.0187 49.2413 39.6916 48.9149 40.2628C48.8075 40.3985 48.6743 40.5118 48.5229 40.5961C48.3715 40.6805 48.2049 40.7342 48.0326 40.7542C47.8604 40.7742 47.6858 40.7602 47.519 40.7128C47.3522 40.6655 47.1964 40.5858 47.0606 40.4783C46.9244 40.3721 46.8116 40.2393 46.729 40.0879C46.6464 39.9366 46.5958 39.77 46.5802 39.5984L46.4813 38.686C46.344 37.4702 46.1981 36.2549 46.012 35.0464C45.9232 34.4428 45.8024 33.8443 45.6501 33.2535C45.6129 33.1096 45.5615 32.9696 45.4968 32.8357C45.4839 32.8059 45.4643 32.7795 45.4395 32.7586C45.4147 32.7376 45.3853 32.7227 45.3537 32.715L45.1429 32.624C44.8614 32.503 44.5765 32.3892 44.2902 32.2788C43.1466 31.8346 41.9947 31.4098 40.8321 31.0205C40.2556 30.8386 39.6568 30.5788 39.1029 30.7607C38.8454 30.884 38.6316 31.0824 38.4898 31.3296C38.348 31.5767 38.2849 31.861 38.3088 32.1447C38.3083 32.1769 38.295 32.2074 38.2718 32.2298C38.2487 32.2522 38.2176 32.2644 38.1854 32.2639C38.1643 32.2634 38.1436 32.2575 38.1255 32.2468C38.1073 32.2361 38.0922 32.2209 38.0816 32.2027C37.7595 31.6444 37.3972 31.1101 36.9976 30.604C36.6111 30.0963 36.1589 29.6419 35.6527 29.2526C35.4052 29.0669 35.1286 28.9233 34.8342 28.8274C34.5109 28.7256 34.2001 28.5881 33.9073 28.4176C33.3105 28.0775 32.806 27.5971 32.4378 27.0183C32.4328 27.0103 32.4289 27.0017 32.4262 26.9927L32.423 26.9821C32.331 26.6417 32.3756 26.2789 32.5473 25.9707C32.7057 25.6862 32.9133 25.4318 33.1604 25.2192C33.6349 24.8146 34.1578 24.4702 34.7172 24.1937C35.8137 23.6394 36.9618 23.1927 38.1451 22.8601C38.1752 22.8514 38.2072 22.8521 38.2369 22.8619C38.2666 22.8717 38.2926 22.8903 38.3115 22.9152C38.3304 22.94 38.3413 22.97 38.3427 23.0012C38.3442 23.0323 38.3362 23.0632 38.3197 23.0897L38.3152 23.0969C38.1257 23.4156 38.003 23.7692 37.9545 24.1365C37.9266 24.3234 37.9114 24.512 37.9088 24.7009C37.9253 24.8897 37.9238 25.081 37.9575 25.2686C38.0853 26.0302 38.3713 26.7568 38.7973 27.4017C39.0054 27.7301 39.2308 28.0472 39.4724 28.352C39.7364 28.6388 39.9842 28.9418 40.2598 29.2192C40.5444 29.4873 40.8148 29.7725 41.1123 30.0279L42.0171 30.7828C42.0189 30.7841 42.0204 30.7858 42.0216 30.7877C42.0228 30.7896 42.0235 30.7918 42.0239 30.794C42.0242 30.7962 42.0241 30.7984 42.0236 30.8006C42.023 30.8028 42.0221 30.8048 42.0207 30.8066C42.0179 30.8101 42.0138 30.8124 42.0094 30.8131C42.0049 30.8137 42.0004 30.8126 41.9966 30.8101L41.0571 30.093C40.7471 29.8494 40.4628 29.5747 40.1636 29.3163C39.8709 29.0509 39.6149 28.747 39.34 28.4622C39.086 28.1571 38.8484 27.8387 38.6283 27.5085C38.1703 26.8474 37.8561 26.0981 37.7057 25.3087C37.6657 25.111 37.6613 24.9068 37.6401 24.7056C37.6378 24.5021 37.6494 24.2986 37.6748 24.0967C37.7197 23.682 37.8512 23.2813 38.0609 22.9203L38.2308 23.1571C37.0782 23.5123 35.9573 23.9627 34.8798 24.5036C34.3483 24.7685 33.8516 25.0976 33.4009 25.4836C33.1768 25.6369 32.9992 25.8485 32.8874 26.0955C32.7756 26.3425 32.734 26.6153 32.767 26.8842L32.7522 26.8482C33.0855 27.3743 33.5404 27.8132 34.0789 28.1279C34.3488 28.2888 34.6358 28.4192 34.9346 28.5167C35.2609 28.6265 35.5668 28.7889 35.8404 28.9974C36.3675 29.4069 36.8332 29.8894 37.2234 30.4302C37.6203 30.9563 37.9782 31.5104 38.2943 32.0883L38.0673 32.1463C38.0757 31.8205 38.1568 31.5007 38.3047 31.21C38.3777 31.0595 38.4805 30.9252 38.6069 30.8154C38.7334 30.7055 38.8808 30.6223 39.0404 30.5708C39.7037 30.3797 40.319 30.6794 40.8867 30.8623C42.0468 31.2711 43.193 31.7142 44.3312 32.1769L45.1847 32.5251L45.3977 32.6141C45.4401 32.6272 45.4795 32.6486 45.5134 32.6771C45.5473 32.7056 45.5751 32.7407 45.5952 32.7801C45.6661 32.921 45.7226 33.0686 45.7639 33.2207C45.9346 33.8151 46.0411 34.4194 46.1551 35.0221C46.3778 36.2286 46.5599 37.441 46.7316 38.6547L46.8569 39.5654C46.87 39.6996 46.9106 39.8297 46.9761 39.9476C47.0417 40.0655 47.1307 40.1688 47.2378 40.2512C47.4503 40.4172 47.7201 40.4927 47.9882 40.4611C48.2564 40.4295 48.501 40.2934 48.6688 40.0825C48.8174 39.8438 48.9082 39.5738 48.9337 39.2941C48.9644 39.0011 48.9539 38.7053 48.9025 38.4152L48.6854 36.5901C48.5409 35.3734 48.4254 34.1531 48.3218 32.9318C48.2689 32.3212 48.2259 31.7095 48.2019 31.0964C48.1871 30.7901 48.1814 30.4831 48.1772 30.1763C48.1623 29.8666 48.1923 29.5564 48.2664 29.2553C48.2678 29.2511 48.2707 29.2477 48.2746 29.2457C48.2785 29.2437 48.283 29.2433 48.2872 29.2446C48.2914 29.2459 48.2949 29.2488 48.297 29.2526C48.299 29.2565 48.2995 29.261 48.2983 29.2652L48.2963 29.2716Z" fill="#17181A"/>
<path d="M49.8338 25.3254C50.0743 25.6645 50.2864 26.0226 50.4681 26.3963C50.559 26.5842 50.6247 26.7844 50.7044 26.9793C50.7697 27.1813 50.8178 27.3885 50.8482 27.5986C50.9241 28.0292 50.8884 28.4719 50.7447 28.885C50.5833 29.308 50.2764 29.6602 49.8788 29.8787C49.8633 29.887 49.8463 29.8922 49.8288 29.894C49.8113 29.8957 49.7936 29.894 49.7768 29.889C49.76 29.8839 49.7443 29.8756 49.7307 29.8645C49.717 29.8535 49.7057 29.8398 49.6974 29.8244C49.6893 29.8094 49.6842 29.7931 49.6823 29.7762L49.6818 29.7715C49.6265 29.178 49.4998 28.5932 49.3042 28.0299C49.2062 27.7518 49.0518 27.4968 48.8505 27.2809C48.7523 27.1831 48.6257 27.1184 48.4887 27.096C48.4216 27.1044 48.3569 27.1261 48.2984 27.1597C48.2398 27.1934 48.1886 27.2384 48.1478 27.2921C47.808 27.7806 47.5622 28.3278 47.4229 28.9058C47.2499 29.4783 47.1049 30.0639 46.9786 30.6459L46.981 30.5903L47.1357 31.6523C47.1423 31.698 47.1309 31.7444 47.1039 31.7818C47.0768 31.8193 47.0362 31.8447 46.9906 31.8529C46.9451 31.861 46.8982 31.8512 46.8597 31.8255C46.8213 31.7997 46.7944 31.7601 46.7848 31.715L46.784 31.7111C46.6897 31.2113 46.6351 30.7049 46.6207 30.1965C46.5936 29.6924 46.6062 29.1894 46.6293 28.6882C46.672 27.6868 46.7764 26.689 46.9418 25.7003C46.9425 25.6958 46.945 25.6918 46.9487 25.6892C46.9524 25.6866 46.957 25.6855 46.9615 25.6862C46.9656 25.687 46.9693 25.6892 46.9719 25.6924C46.9746 25.6957 46.9759 25.6997 46.9758 25.7039C46.943 26.7029 46.9267 27.6996 46.927 28.6938C46.9136 29.6798 46.9827 30.6651 47.1336 31.6396L46.7819 31.6984L46.6578 30.6324L46.6572 30.6269C46.6553 30.6101 46.6563 30.593 46.6602 30.5766C46.8024 29.9837 46.9798 29.3997 47.1913 28.8277C47.3853 28.2425 47.6782 27.6947 48.0576 27.2081C48.1106 27.1432 48.1765 27.0899 48.251 27.0513C48.3256 27.0128 48.4072 26.9898 48.491 26.9839C48.6543 27.0103 48.805 27.0877 48.9213 27.205C49.1419 27.4251 49.3143 27.6885 49.4276 27.9784C49.6727 28.5416 49.8502 29.1317 49.9566 29.7364L49.7598 29.6292C50.08 29.4278 50.3263 29.1286 50.462 28.7763C50.6005 28.4114 50.6433 28.0172 50.5862 27.6312C50.576 27.4339 50.514 27.2408 50.4842 27.0429C50.4222 26.8517 50.3745 26.6546 50.3003 26.4658C50.2187 26.2802 50.1553 26.0853 50.0688 25.8999L49.8046 25.3431C49.8036 25.3411 49.8029 25.3389 49.8027 25.3367C49.8024 25.3345 49.8027 25.3322 49.8033 25.3301C49.804 25.3279 49.805 25.3259 49.8065 25.3242C49.8079 25.3225 49.8097 25.321 49.8116 25.32C49.8154 25.3182 49.8197 25.3177 49.8237 25.3187C49.8278 25.3197 49.8313 25.3221 49.8338 25.3254Z" fill="#17181A"/>
<path d="M47.3587 33.4537C47.4915 33.4492 47.6175 33.3933 47.7098 33.298C47.8022 33.2026 47.8538 33.0753 47.8538 32.9427C47.8538 32.8102 47.8022 32.6828 47.7098 32.5875C47.6175 32.4922 47.4915 32.4363 47.3587 32.4317C47.2258 32.4363 47.0999 32.4922 47.0075 32.5875C46.9151 32.6828 46.8635 32.8102 46.8635 32.9427C46.8635 33.0753 46.9151 33.2026 47.0075 33.298C47.0999 33.3933 47.2258 33.4492 47.3587 33.4537Z" fill="#17181A"/>
<path d="M47.7277 36.2746C47.8606 36.27 47.9865 36.2141 48.0789 36.1188C48.1713 36.0234 48.2229 35.8961 48.2229 35.7635C48.2229 35.631 48.1713 35.5036 48.0789 35.4083C47.9865 35.313 47.8606 35.2571 47.7277 35.2525C47.5948 35.2571 47.4689 35.313 47.3765 35.4083C47.2842 35.5036 47.2325 35.631 47.2325 35.7635C47.2325 35.8961 47.2842 36.0234 47.3765 36.1188C47.4689 36.2141 47.5948 36.27 47.7277 36.2746Z" fill="#17181A"/>
<path d="M48.0353 38.9727C48.1682 38.9681 48.2941 38.9123 48.3865 38.817C48.4789 38.7216 48.5305 38.5942 48.5305 38.4617C48.5305 38.3291 48.4789 38.2018 48.3865 38.1064C48.2941 38.0111 48.1682 37.9552 48.0353 37.9507C47.9024 37.9552 47.7765 38.0111 47.6841 38.1064C47.5917 38.2018 47.5401 38.3291 47.5401 38.4617C47.5401 38.5942 47.5917 38.7216 47.6841 38.817C47.7765 38.9123 47.9024 38.9681 48.0353 38.9727Z" fill="#17181A"/>
<path d="M51.3043 24.3667C53.3536 24.4175 55.4001 24.5531 57.4414 24.7623C58.4628 24.8609 59.48 25.0036 60.4943 25.1757C61.5264 25.3191 62.5359 25.593 63.4984 25.9908C63.6245 26.0531 63.7428 26.1302 63.8506 26.2204C63.95 26.31 64.0441 26.4054 64.1322 26.506C64.3017 26.6887 64.4862 26.8634 64.6695 27.0436C65.0486 27.4018 65.3906 27.7971 65.6906 28.2235C66.2643 29.0908 66.6903 30.0467 66.9516 31.0525C67.4665 33.0368 67.7857 35.0664 67.9046 37.1126C67.6563 35.09 67.2535 33.0892 66.6998 31.1277C66.4199 30.16 65.9936 29.2406 65.4356 28.4011C65.1428 27.994 64.8097 27.6173 64.4414 27.2766C64.2583 27.1002 64.0694 26.9249 63.8891 26.7348C63.7399 26.5498 63.5527 26.3989 63.34 26.2921C62.411 25.9019 61.4365 25.6291 60.4395 25.4803C59.4369 25.2948 58.4237 25.1602 57.4109 25.0214C55.3827 24.7588 53.3445 24.5577 51.3043 24.3667Z" fill="#17181A"/>
<path d="M23.1832 28.6888C24.1277 28.4894 25.1116 28.6028 25.9856 29.0116C26.8619 29.431 27.6104 30.0754 28.1541 30.8787C28.4257 31.2737 28.6624 31.6915 28.8613 32.1274C29.0497 32.5643 29.2146 33.0108 29.3551 33.4652C29.4579 33.9285 29.585 34.3852 29.6662 34.8498C29.7197 35.3199 29.7844 35.7865 29.8268 36.2541C29.7076 35.797 29.6106 35.339 29.5024 34.8844C29.3889 34.4315 29.2352 33.9899 29.1046 33.5443C28.9298 33.1146 28.7753 32.6762 28.5796 32.2587C28.379 31.8446 28.1432 31.4484 27.8749 31.0744C27.3715 30.3068 26.6823 29.678 25.8708 29.246C25.0448 28.8135 24.1137 28.6205 23.1832 28.6888Z" fill="#17181A"/>
<path d="M35.3221 50.2355C35.5578 50.8608 35.806 51.4793 36.0946 52.0801C36.3677 52.6871 36.6674 53.2813 36.985 53.865C37.6135 55.0338 38.3319 56.1525 39.1336 57.2108C39.924 58.2753 40.8229 59.2553 41.816 60.1351L42.5745 60.7802C42.8342 60.9865 43.1147 61.1654 43.3835 61.3611L43.7883 61.6546C43.9284 61.7441 44.075 61.8233 44.2183 61.9084L45.0825 62.418C43.8426 61.8911 42.685 61.1893 41.6452 60.3342C40.609 59.4701 39.675 58.4909 38.8613 57.4158C38.0588 56.3359 37.3532 55.1877 36.7524 53.9846C36.1505 52.786 35.6713 51.5299 35.3221 50.2355Z" fill="#17181A"/>
<path d="M13.9694 56.0119C13.9546 58.0495 13.9095 60.0859 13.8762 62.1228C13.8485 64.1599 13.7794 66.1954 13.7327 68.2317L13.7314 68.249L13.7285 68.2678C13.6037 69.0816 13.7079 69.914 14.0295 70.6722C14.3709 71.4049 14.9835 71.9773 15.739 72.2696C15.9332 72.3324 16.1233 72.4051 16.3195 72.4621L16.9284 72.5796C17.3498 72.6414 17.7848 72.6869 18.2147 72.7338C19.0774 72.8252 19.9417 72.9066 20.8078 72.978C24.2706 73.2681 27.7445 73.4169 31.2165 73.4944C34.6871 73.574 38.1595 73.4596 41.6172 73.1517C45.053 72.821 48.5428 72.2962 51.6643 70.8059C51.6949 70.7914 51.7297 70.7886 51.7621 70.798C51.7946 70.8074 51.8225 70.8283 51.8405 70.8568C52.0863 71.239 52.4271 71.5513 52.8298 71.7633C53.2406 71.9794 53.6943 72.1022 54.1583 72.123C54.6288 72.1407 55.0993 72.0913 55.5557 71.9761C55.7822 71.9097 56.0092 71.8406 56.2345 71.7663L56.8935 71.4937L56.2492 71.8029C56.0275 71.8899 55.8027 71.9721 55.5769 72.0519C55.1161 72.1957 54.636 72.2683 54.1531 72.2674C53.6573 72.2739 53.1672 72.1608 52.7247 71.9377C52.2823 71.7145 51.9005 71.388 51.612 70.9859L51.7879 71.0369C50.228 71.8471 48.5678 72.4488 46.8502 72.8264C45.1433 73.2171 43.4154 73.51 41.6749 73.7034C38.1976 74.0575 34.7023 74.2064 31.2074 74.1493C27.7151 74.1271 24.2292 73.9061 20.7533 73.597C19.8841 73.5185 19.0157 73.4295 18.148 73.3299C17.7129 73.2787 17.2819 73.2304 16.8429 73.1624L16.1707 73.0266C15.9501 72.9615 15.7328 72.8777 15.5145 72.8028C14.6338 72.4425 13.9294 71.753 13.5521 70.8816C13.2087 70.024 13.1147 69.0871 13.2811 68.1787L13.2769 68.2145C13.385 66.1805 13.4708 64.1456 13.5981 62.1123C13.7195 60.0787 13.8294 58.0448 13.9694 56.0119Z" fill="#17181A"/>
<path d="M26.6293 58.4041C26.6861 59.524 26.7182 60.644 26.7572 61.7639L26.6801 61.647C30.6328 63.0596 34.7824 63.8488 38.9792 63.9862C41.0655 64.0493 43.1525 63.8863 45.2034 63.5001L46.7306 63.1707C47.235 63.0432 47.7242 62.8625 48.2224 62.7112L48.9689 62.4786C49.2121 62.3865 49.4484 62.2767 49.6888 62.1766L51.1282 61.5619L51.0061 61.7459C51.0625 61.4058 51.1964 61.083 51.3976 60.8026C51.5843 60.5307 51.8171 60.2933 52.0855 60.1011C52.6099 59.7306 53.2127 59.4851 53.8473 59.3836C54.1556 59.3299 54.4665 59.2923 54.7788 59.2709C55.0903 59.271 55.4011 59.2442 55.7104 59.267C56.0193 59.2923 56.3294 59.2922 56.6349 59.3392L57.5496 59.4746L56.6285 59.4232C56.3222 59.4078 56.0153 59.422 55.71 59.4196C55.4042 59.4178 55.1014 59.4654 54.7986 59.4855C54.4991 59.5266 54.2021 59.5832 53.9086 59.655C53.3324 59.7918 52.7908 60.0459 52.3179 60.4013C51.8683 60.7376 51.5627 61.2306 51.462 61.7818L51.4601 61.7971C51.4551 61.8328 51.4416 61.8668 51.4207 61.8962C51.3998 61.9256 51.3721 61.9495 51.3399 61.9661C49.4492 62.9672 47.4264 63.6979 45.3312 64.1365C43.2354 64.5593 41.0965 64.7326 38.9597 64.6527C36.8304 64.5751 34.7128 64.3005 32.6345 63.8324C31.5993 63.5909 30.5724 63.318 29.5615 62.9946C28.5449 62.6856 27.5486 62.3137 26.5785 61.881L26.5725 61.8783C26.5506 61.8684 26.5322 61.8522 26.5195 61.8318C26.5068 61.8115 26.5005 61.7878 26.5013 61.7639C26.5405 60.644 26.5724 59.524 26.6293 58.4041Z" fill="#17181A"/>
<path d="M16.7036 64.344C17.2393 63.6083 17.9224 62.9916 18.7097 62.533C19.4976 62.0679 20.3506 61.7222 21.2407 61.5074C21.6883 61.4171 22.1412 61.354 22.5966 61.3188C23.05 61.2745 23.5063 61.2672 23.9609 61.2969C24.4156 61.3069 24.8635 61.3983 25.3125 61.4466C25.7554 61.5414 26.195 61.6488 26.6293 61.764C26.1783 61.7243 25.7362 61.6503 25.2907 61.6121C24.8433 61.5982 24.3996 61.5368 23.9543 61.5589C23.0674 61.5546 22.1828 61.6486 21.3167 61.8391C20.4537 62.0349 19.6207 62.3444 18.8397 62.7594C18.0475 63.1707 17.3264 63.7057 16.7036 64.344Z" fill="#17181A"/>
<path d="M51.234 61.764C51.3703 62.0606 51.5316 62.3451 51.7162 62.6145C51.8904 62.878 52.1146 63.1052 52.3761 63.2833C52.4408 63.3216 52.5086 63.3545 52.5788 63.3816C52.6742 63.4171 52.7605 63.4735 52.8312 63.5465C52.8943 63.6284 52.936 63.7246 52.9526 63.8265C52.9691 63.9284 52.96 64.0328 52.926 64.1303C52.8141 64.4634 52.6324 64.7689 52.393 65.0265L52.3912 65.0284L52.3813 65.0379C52.1262 65.2778 51.9339 65.5764 51.8214 65.9076C51.7695 66.0638 51.7533 66.2296 51.774 66.3929C51.7947 66.5561 51.8517 66.7127 51.9409 66.8512C52.1066 67.1199 52.4704 67.3817 52.6098 67.7942C52.653 67.9006 52.6723 68.0152 52.6664 68.1299C52.6605 68.2445 52.6296 68.3566 52.5758 68.4581C52.4585 68.6459 52.2823 68.7897 52.0745 68.8673L52.1203 68.836C51.8513 69.1193 51.6456 69.4563 51.5168 69.8247C51.4541 70.0085 51.435 70.2042 51.4607 70.3966C51.5038 70.5909 51.5951 70.7714 51.7262 70.9214C51.5656 70.7884 51.4459 70.613 51.3806 70.4153C51.3288 70.2094 51.3254 69.9944 51.3707 69.787C51.4143 69.5809 51.4891 69.3826 51.5925 69.199C51.6913 69.0129 51.8079 68.8369 51.9409 68.6733C51.9489 68.6635 51.9589 68.6556 51.9702 68.65L51.9868 68.6419C52.1312 68.5748 52.2506 68.4638 52.3278 68.3249C52.3583 68.2575 52.3742 68.1845 52.3743 68.1107C52.3745 68.0368 52.359 67.9637 52.3288 67.8963C52.2176 67.5779 51.9172 67.3804 51.6675 67.0263C51.5469 66.8494 51.4681 66.6476 51.4371 66.4359C51.4128 66.2241 51.4357 66.0096 51.5042 65.8077C51.6417 65.4237 51.8734 65.0801 52.1783 64.8083L52.1668 64.8195C52.3781 64.5972 52.5453 64.3372 52.6596 64.053C52.6863 63.9977 52.6988 63.9367 52.696 63.8754C52.6933 63.8141 52.6754 63.7544 52.6439 63.7017C52.6019 63.6548 52.5507 63.6171 52.4934 63.591C52.4126 63.5534 52.3351 63.5092 52.2618 63.4587C51.9877 63.2523 51.7649 62.9858 51.6108 62.6797C51.4514 62.3894 51.325 62.0823 51.234 61.764Z" fill="#17181A"/>
<path d="M57.3446 62.1081C57.3344 62.3158 57.3241 62.5203 57.3139 62.7246C56.9004 62.7213 56.4834 62.7042 56.0698 62.6599C55.5831 62.6206 55.1006 62.5397 54.6277 62.418C55.1006 62.2964 55.5831 62.2155 56.0698 62.1762C56.4937 62.1319 56.9209 62.1149 57.3446 62.1081Z" fill="#17181A"/>
<path d="M57.2353 64.4008C57.2216 64.6087 57.2147 64.813 57.2045 65.014C56.8252 65.0072 56.4492 64.9902 56.0698 64.9493C55.5831 64.91 55.1006 64.829 54.6277 64.7074C55.1006 64.5858 55.5831 64.5049 56.0698 64.4655C56.4595 64.4247 56.8456 64.4076 57.2353 64.4008Z" fill="#17181A"/>
<path d="M57.1327 66.6084C57.1259 66.8162 57.1156 67.0206 57.1088 67.2216C56.7637 67.2114 56.4151 67.1943 56.0698 67.1569C55.5831 67.1175 55.1006 67.0366 54.6277 66.915C55.1006 66.7934 55.5831 66.7125 56.0698 66.6731C56.4253 66.6356 56.7807 66.6186 57.1327 66.6084Z" fill="#17181A"/>
<path d="M56.0698 69.3099C56.3911 69.2758 56.7124 69.2589 57.0302 69.2486C57.02 69.4565 57.0132 69.6574 57.0063 69.8516C56.6953 69.8448 56.3809 69.8278 56.0698 69.7937C55.5831 69.7544 55.1006 69.6734 54.6277 69.5518C55.1006 69.4302 55.5831 69.3493 56.0698 69.3099Z" fill="#17181A"/>
<path d="M45.5357 74.3807C45.5357 74.3807 39.3785 68.3143 37.0797 72.2483C34.781 76.1822 36.3613 79.068 38.0692 81.0152C40.15 83.3874 40.2545 84.0979 40.8719 84.8005C41.4893 85.5031 48.4585 93.9967 57.1449 93.5195C62.212 93.2412 62.1257 90.5494 61.174 88.3545C60.4823 86.8 59.3709 85.4678 57.9638 84.5063C55.189 82.5731 48.9882 78.0961 45.5357 74.3807Z" fill="#17181A"/>
<path d="M43.4356 72.6473C44.7597 72.7095 46.0802 72.7984 47.4008 72.8843L51.3604 73.1521C52.6789 73.2564 53.9989 73.3326 55.3183 73.4025C55.9779 73.4432 56.6381 73.467 57.298 73.4777C57.6271 73.4772 57.9593 73.501 58.2873 73.4771L58.7817 73.4537L59.2708 73.3769C57.9682 73.6405 56.637 73.7371 55.3097 73.6644C53.983 73.6486 52.6597 73.5694 51.3371 73.4916C50.0161 73.3884 48.6956 73.2851 47.3784 73.1442C46.0613 73.0039 44.7456 72.8494 43.4356 72.6473Z" fill="#17181A"/>
<path d="M56.6127 83.7232C56.5752 83.7231 56.5388 83.7108 56.509 83.6882C56.4792 83.6655 56.4577 83.6337 56.4478 83.5976C56.4379 83.5616 56.4402 83.5233 56.4542 83.4887C56.4682 83.454 56.4933 83.4249 56.5255 83.4058C56.793 83.2489 63.1035 79.5551 65.465 80.3231C65.5079 80.3374 65.5433 80.368 65.5636 80.4082C65.5839 80.4484 65.5873 80.495 65.5733 80.5378C65.5592 80.5806 65.5287 80.6161 65.4884 80.6365C65.4481 80.6569 65.4014 80.6606 65.3584 80.6468C63.1445 79.9237 56.7637 83.6614 56.6994 83.6995C56.6732 83.715 56.6432 83.7231 56.6127 83.7232Z" fill="#17181A"/>
<path d="M94.3425 58.6774L94.3459 58.6774L94.3581 58.6797L109.244 64.1789L109.257 64.1845C110.737 64.8741 112.145 65.7078 113.46 66.6734C114.789 67.6401 115.959 68.8063 116.93 70.1304C117.429 70.7981 117.822 71.5392 118.093 72.327C118.354 73.1031 118.559 73.8972 118.706 74.7029C119.037 76.3405 118.923 78.037 118.374 79.6155C118.066 80.4011 117.613 81.1224 117.039 81.7423C116.461 82.3528 115.786 82.864 115.041 83.2555C114.302 83.6448 113.513 83.9336 112.696 84.1142C112.29 84.1995 111.879 84.2603 111.465 84.2963L110.257 84.4276C107.036 84.771 103.816 85.1199 100.592 85.4327C94.1441 86.0618 87.6946 86.6781 81.2309 87.1522C79.6151 87.2722 77.9985 87.3848 76.3799 87.477C74.7579 87.5579 73.1485 87.6707 71.4997 87.5982C70.6531 87.5289 69.8482 87.2025 69.1935 86.663C68.5504 86.1456 67.9849 85.5391 67.5141 84.8621C66.5844 83.5208 65.8359 82.0633 65.2881 80.5271C65.2806 80.5068 65.2784 80.485 65.2816 80.4637C65.2848 80.4423 65.2934 80.4221 65.3065 80.405C65.3197 80.3878 65.3369 80.3742 65.3567 80.3654C65.3765 80.3567 65.3982 80.353 65.4197 80.3548L65.4241 80.3553C66.1163 80.444 66.8171 80.4418 67.5087 80.3488C67.8337 80.2865 68.1782 80.1566 68.2723 79.8816C68.3306 79.5631 68.2676 79.2344 68.0955 78.9598C67.7555 78.3482 67.3579 77.7702 66.9079 77.2338C66.468 76.6821 66.0121 76.1406 65.5603 75.5949C65.1082 75.0495 64.659 74.5003 64.2242 73.9393C63.812 73.3755 63.3138 72.8794 62.7477 72.4693C62.4824 72.2585 62.1709 72.1133 61.8385 72.0456C61.5062 71.9778 61.1625 71.9893 60.8355 72.0793C60.1995 72.335 59.6806 72.8158 59.3782 73.4293L59.3746 73.436C59.3635 73.4563 59.3467 73.473 59.3261 73.4839C59.3056 73.4948 59.2823 73.4994 59.2591 73.4971C59.236 73.4949 59.2141 73.4859 59.196 73.4712C59.178 73.4566 59.1647 73.437 59.1578 73.4149C58.9344 72.7287 58.8176 72.0126 58.8115 71.2913C58.8096 70.9235 58.8679 70.5578 58.9842 70.2088C59.1044 69.846 59.3328 69.5284 59.6388 69.2984L59.6215 69.3134C59.9015 69.0689 60.223 68.8761 60.571 68.7442C60.9018 68.6066 61.2396 68.4864 61.5829 68.3839C62.2653 68.1758 62.9558 68.0071 63.6488 67.854C65.0355 67.5505 66.4322 67.3081 67.8315 67.0869C70.6308 66.6489 73.4417 66.3025 76.2551 65.9875C81.883 65.3587 87.5215 64.8587 93.1702 64.4444L92.9247 64.6771C93.2808 62.4345 93.7423 60.2701 94.1785 58.0729L95.536 51.5112L98.2639 38.3902L98.3901 38.7333C98.085 38.5643 97.7545 38.4455 97.4113 38.3814C97.0381 38.2964 96.6551 38.2261 96.2674 38.1697C95.4934 38.0527 94.7072 37.973 93.9205 37.9031C92.3456 37.7651 90.7616 37.6836 89.1773 37.6121C86.0076 37.4718 82.8315 37.4068 79.6551 37.3694C73.3022 37.296 66.9444 37.3516 60.5913 37.4393L60.8211 37.3387C60.6092 37.6034 60.4454 37.903 60.3373 38.224C60.2073 38.5651 60.098 38.9217 59.9999 39.2829C59.8047 40.0063 59.652 40.7482 59.5141 41.4929C59.242 42.9842 59.035 44.4924 58.8523 46.0034C58.4911 49.0268 58.2287 52.0654 58.0022 55.1061C57.7785 58.148 57.5908 61.1927 57.4393 64.2401C57.2704 67.2829 57.1585 70.335 57.0439 73.3814L57.0437 73.3845C57.0423 73.4236 57.0254 73.4606 56.9968 73.4873C56.9682 73.5141 56.9301 73.5286 56.8909 73.5276L43.8653 73.1902C43.8563 73.19 43.8478 73.1862 43.8416 73.1797C43.8354 73.1732 43.832 73.1646 43.8322 73.1556C43.8323 73.1466 43.836 73.1381 43.8425 73.1318C43.8489 73.1255 43.8576 73.1221 43.8665 73.1221L56.896 73.2277L56.7431 73.3738C56.8209 70.32 56.909 67.2718 57.0472 64.219C57.1707 61.1718 57.3293 58.1232 57.5231 55.0731C57.7209 52.0256 57.9543 48.9792 58.2882 45.9386C58.4572 44.4185 58.6506 42.8998 58.9118 41.3858C59.0446 40.6291 59.1923 39.8734 59.3874 39.1212C59.4858 38.7452 59.5961 38.37 59.7344 37.9965C59.8677 37.5916 60.0757 37.2152 60.3477 36.8865C60.3748 36.856 60.408 36.8314 60.4451 36.8141C60.4822 36.7969 60.5224 36.7874 60.5633 36.7862L60.5776 36.7859C63.7589 36.7039 66.9385 36.6749 70.1194 36.6515C73.3002 36.6313 76.4813 36.6348 79.6627 36.662C82.8443 36.6942 86.0264 36.7542 89.2093 36.8899C90.8008 36.9609 92.3921 37.0548 93.984 37.1993C94.7801 37.2735 95.576 37.3573 96.3732 37.4812C96.7718 37.5409 97.1709 37.6153 97.5719 37.7086C98.0112 37.7919 98.4312 37.9551 98.8112 38.19C98.8627 38.2244 98.9027 38.2734 98.926 38.3306C98.9494 38.3879 98.955 38.4508 98.9423 38.5112L98.9375 38.5333L96.1549 51.6391L94.7569 58.1907C94.3026 60.3696 93.8151 62.5726 93.4501 64.7376L93.4478 64.7517C93.4379 64.8101 93.4085 64.8635 93.3643 64.9032C93.3202 64.9429 93.264 64.9666 93.2046 64.9705C87.5624 65.3327 81.9208 65.781 76.2954 66.358C73.4835 66.6545 70.6745 66.9825 67.8801 67.4014C66.4836 67.613 65.0901 67.8458 63.7109 68.1384C63.0219 68.286 62.3362 68.4491 61.6642 68.6494C61.3291 68.7469 60.9994 68.8618 60.6764 68.9936C60.3611 69.1106 60.0685 69.281 59.8113 69.4972L59.8065 69.5017L59.7938 69.5124C59.5293 69.7097 59.3317 69.983 59.2273 70.2954C59.1187 70.6175 59.0632 70.955 59.0633 71.2948C59.0657 71.9884 59.1739 72.6776 59.3841 73.3388L59.1636 73.3243C59.4967 72.6564 60.0677 72.1365 60.7649 71.866C61.1245 71.7675 61.5023 71.755 61.8675 71.8296C62.2328 71.9042 62.5753 72.0636 62.8671 72.2951C63.4469 72.7228 63.9602 73.2335 64.3903 73.8107C64.8255 74.3668 65.2758 74.9119 65.73 75.4545C66.1839 75.9974 66.6427 76.5372 67.0884 77.0905C67.5516 77.6376 67.9611 78.2278 68.3112 78.853C68.5175 79.1848 68.5865 79.5835 68.5037 79.965C68.4279 80.1597 68.2824 80.3194 68.0953 80.4133C67.9259 80.4994 67.7448 80.5604 67.5577 80.5944C66.8423 80.6961 66.1165 80.7029 65.3992 80.6147L65.5354 80.4429C66.0781 81.9518 66.8262 83.3792 67.7589 84.685C68.2197 85.3314 68.7707 85.9091 69.3952 86.4003C70.0023 86.8918 70.7467 87.1847 71.5268 87.2391C73.1153 87.2899 74.744 87.1599 76.3534 87.0591C77.967 86.9483 79.5802 86.8171 81.1927 86.6784C87.6418 86.1084 94.0881 85.4923 100.531 84.8302L110.196 83.8526C110.996 83.7556 111.824 83.7183 112.575 83.5602C113.342 83.394 114.084 83.1263 114.78 82.7643C116.185 82.0622 117.285 80.8739 117.875 79.4216C118.396 77.9337 118.508 76.3339 118.2 74.7882C118.063 74.004 117.871 73.2303 117.626 72.4726C117.378 71.7286 117.016 71.0275 116.552 70.3943C115.622 69.0967 114.496 67.9504 113.214 66.9962C111.93 66.0318 110.554 65.1961 109.106 64.5013L109.119 64.5068L94.3338 58.7434L94.3459 58.7456L94.3425 58.7456C94.3334 58.7456 94.3247 58.742 94.3183 58.7356C94.3119 58.7292 94.3083 58.7206 94.3083 58.7115C94.3083 58.7025 94.3119 58.6938 94.3183 58.6875C94.3247 58.6811 94.3334 58.6775 94.3425 58.6775L94.3425 58.6774Z" fill="#17181A"/>
<path d="M60.5844 37.1126C58.0828 39.9334 56.8935 73.3776 56.8935 73.3776H59.2721C59.2721 73.3776 58.2776 70.441 59.7164 69.4053C62.3307 66.7208 93.1874 64.7074 93.1874 64.7074C93.2557 64.118 93.7171 61.7742 94.3459 58.7115C95.9385 50.9134 98.6008 38.4618 98.6008 38.4618C95.8941 36.3768 60.5844 37.1126 60.5844 37.1126ZM78.0547 52.443C75.0644 52.443 72.6414 51.7277 72.6414 50.8487C72.6414 49.9697 75.0644 49.2544 78.0547 49.2544C81.045 49.2544 83.468 49.9697 83.468 50.8487C83.468 51.7277 81.045 52.443 78.0547 52.443V52.443Z" fill="#17181A"/>
<path d="M26.1039 73.6598C25.7077 76.0087 25.5002 78.3853 25.4833 80.7672C25.446 83.1415 25.674 85.5126 26.163 87.8366C26.6858 90.1295 27.5925 92.3948 29.1867 94.1122C30.0003 94.9539 30.9439 95.6603 31.9816 96.2045L32.7566 96.6343C33.0165 96.7749 33.2896 96.8942 33.5555 97.0252C34.0889 97.2847 34.624 97.5408 35.1756 97.7657C37.3592 98.7089 39.6037 99.5236 41.869 100.273C44.1325 101.028 46.418 101.722 48.7109 102.391C53.2941 103.745 57.9215 104.926 62.5618 106.106C63.7499 106.421 64.8628 106.97 65.835 107.72C66.8072 108.47 67.619 109.407 68.2226 110.475C68.5207 111.006 68.7675 111.565 68.9597 112.143C69.1355 112.722 69.2681 113.314 69.3565 113.912L69.9449 117.441C70.7549 122.142 71.5385 126.847 72.3803 131.543L77.4371 159.714L77.2001 159.51C80.73 159.561 84.2692 159.514 87.7925 159.326C89.554 159.232 91.3135 159.1 93.0545 158.872C93.9206 158.761 94.7804 158.606 95.6304 158.407C96.0468 158.309 96.4565 158.185 96.8569 158.035C97.2268 157.907 97.5675 157.707 97.8591 157.446L97.7725 157.683C97.521 151.651 97.2199 145.617 96.9064 139.586C96.5887 133.554 96.1964 127.528 95.7999 121.502C95.3852 115.477 94.9099 109.456 94.2561 103.454C93.9285 100.453 93.5443 97.4586 93.0623 94.4806C92.8169 92.9927 92.5449 91.5078 92.1793 90.0459C92.0029 89.3142 91.7824 88.5937 91.519 87.8885C91.3875 87.5375 91.2261 87.1984 91.0364 86.8749C90.9567 86.7094 90.8451 86.5613 90.708 86.4389C90.5708 86.3165 90.4107 86.2223 90.237 86.1617L90.2342 86.1611C90.2253 86.1593 90.2176 86.1541 90.2126 86.1466C90.2076 86.1392 90.2057 86.13 90.2075 86.1212C90.2092 86.1124 90.2144 86.1046 90.2219 86.0996C90.2294 86.0945 90.2385 86.0926 90.2474 86.0943C90.4336 86.1524 90.6064 86.247 90.7555 86.3725C90.9046 86.498 91.0271 86.6519 91.1158 86.8251C91.3163 87.1495 91.4883 87.4904 91.6299 87.8442C91.9115 88.5487 92.1501 89.2695 92.3444 90.0027C92.7451 91.4639 93.0514 92.9473 93.3313 94.4338C93.8839 97.4091 94.2812 100.408 94.6528 103.408C95.3802 109.411 95.9289 115.432 96.4167 121.456C96.9147 127.48 97.2722 133.514 97.615 139.547C97.9576 145.582 98.2341 151.619 98.4446 157.659L98.4449 157.67C98.4463 157.711 98.4394 157.753 98.4244 157.792C98.4095 157.831 98.3868 157.866 98.3578 157.896C97.9965 158.234 97.5672 158.492 97.0985 158.653C96.6699 158.812 96.2315 158.943 95.7861 159.045C94.9121 159.245 94.0284 159.4 93.1385 159.509C91.3689 159.731 89.5959 159.855 87.8232 159.939C84.2763 160.09 80.7332 160.094 77.187 160.003C77.1298 160.001 77.075 159.98 77.0318 159.943C76.9885 159.906 76.9596 159.855 76.9498 159.798L72.1574 131.581C71.3577 126.879 70.4999 122.186 69.6682 117.489L69.0256 113.97C68.9314 113.389 68.7941 112.817 68.615 112.257C68.4221 111.705 68.1772 111.173 67.8837 110.668C67.2945 109.66 66.5093 108.78 65.574 108.079C64.6388 107.378 63.5724 106.87 62.4375 106.586C57.7839 105.497 53.1405 104.301 48.54 102.973C46.2372 102.315 43.9537 101.588 41.6829 100.822C39.4121 100.056 37.1602 99.2241 34.9588 98.2582C34.404 98.0282 33.8623 97.7652 33.3221 97.4986C33.0527 97.3639 32.7779 97.2418 32.5129 97.0967L31.7225 96.6524C30.6428 96.0772 29.6662 95.3274 28.8325 94.4337C27.1831 92.6014 26.2947 90.2558 25.7948 87.9173C25.3256 85.5629 25.1402 83.161 25.2427 80.7627C25.3171 78.3733 25.5827 75.9936 26.0369 73.6463C26.0386 73.6374 26.0438 73.6296 26.0513 73.6245C26.0589 73.6195 26.0681 73.6176 26.077 73.6193C26.0858 73.6214 26.0935 73.6267 26.0985 73.6342C26.1035 73.6417 26.1054 73.6509 26.1039 73.6598Z" fill="#17181A"/>
<path d="M82.7298 164.11C82.7298 164.11 79.7771 163.803 79.7771 165.214C79.7771 166.624 80.0232 176.926 81.2535 177.233C82.4838 177.539 118.532 189.926 128.128 179.87C128.128 179.87 134.772 176.19 122.223 171.898C109.673 167.605 101.8 163.313 101.8 163.313C101.8 163.313 89.8656 163.681 89.6195 164.907C89.3734 166.134 91.2189 170.549 91.2189 170.549C91.2189 170.549 83.345 172.388 82.7298 164.11Z" fill="#17181A"/>
<path d="M82.7299 164.281C82.7156 164.281 82.7014 164.279 82.6875 164.275C82.6436 164.264 82.606 164.236 82.5829 164.197C82.5599 164.158 82.5532 164.111 82.5645 164.068C82.7268 163.359 82.7475 162.625 82.6251 161.909C82.5028 161.192 82.24 160.506 81.8517 159.891C81.8388 159.873 81.8297 159.852 81.8249 159.83C81.82 159.808 81.8196 159.786 81.8235 159.764C81.8274 159.742 81.8356 159.721 81.8477 159.702C81.8598 159.683 81.8754 159.667 81.8938 159.654C81.9122 159.641 81.933 159.632 81.9549 159.627C81.9768 159.622 81.9994 159.622 82.0215 159.626C82.0436 159.63 82.0647 159.638 82.0836 159.65C82.1025 159.662 82.1189 159.677 82.1318 159.696C82.5532 160.349 82.8381 161.081 82.9693 161.847C83.1005 162.612 83.0754 163.397 82.8954 164.153C82.886 164.189 82.8646 164.222 82.8347 164.245C82.8047 164.268 82.7679 164.281 82.7299 164.281Z" fill="#17181A"/>
<path d="M100.323 163.483L100.317 163.483C96.5981 163.359 92.962 159.491 92.8091 159.327C92.7939 159.311 92.782 159.292 92.7742 159.271C92.7663 159.25 92.7627 159.227 92.7636 159.205C92.7644 159.183 92.7697 159.161 92.779 159.14C92.7884 159.12 92.8016 159.102 92.8181 159.086C92.8345 159.071 92.8538 159.059 92.8749 159.052C92.8959 159.044 92.9183 159.04 92.9407 159.041C92.9632 159.042 92.9852 159.047 93.0056 159.056C93.026 159.066 93.0444 159.079 93.0596 159.095C93.0962 159.135 96.7529 163.023 100.329 163.143C100.374 163.144 100.416 163.163 100.447 163.196C100.478 163.228 100.495 163.271 100.494 163.316C100.493 163.36 100.475 163.403 100.443 163.434C100.411 163.466 100.368 163.483 100.323 163.483V163.483Z" fill="#17181A"/>
<path d="M14.5443 71.8497C14.5194 71.8448 14.4947 71.8448 14.47 71.8398L14.4402 71.8101C14.4757 71.8212 14.5105 71.8344 14.5443 71.8497Z" fill="white"/>
<path d="M25.3511 83.5278V83.5574C25.3661 83.4684 25.3809 83.3843 25.3959 83.2953C25.3809 83.3744 25.3661 83.4486 25.3511 83.5278Z" fill="white"/>
<path d="M93.5913 96.5067V96.5166C93.5715 96.5215 93.5564 96.5265 93.5366 96.5314C93.5564 96.5215 93.5714 96.5166 93.5913 96.5067Z" fill="white"/>
<path d="M9.57804 100.15L10.1623 110.393L10.6953 120.638C10.8771 124.053 11.1178 127.466 11.1772 130.885C11.2035 132.595 11.2296 134.305 11.2116 136.017L11.1831 138.584C11.1532 139.44 11.1424 140.296 11.0954 141.153C11.0947 141.166 11.0892 141.178 11.0801 141.187C11.0709 141.196 11.0587 141.201 11.0459 141.202C11.0331 141.202 11.0205 141.198 11.0107 141.19C11.0009 141.181 10.9946 141.17 10.9929 141.157C10.8827 140.306 10.8088 139.453 10.7157 138.601L10.4975 136.043C10.353 134.337 10.2528 132.63 10.1526 130.923C9.95902 127.509 9.94679 124.087 9.87568 120.668L9.65 110.412L9.47556 100.153C9.47536 100.14 9.48041 100.127 9.48964 100.117C9.49888 100.108 9.51155 100.102 9.52495 100.101C9.53835 100.101 9.55141 100.106 9.56133 100.115C9.57126 100.124 9.57726 100.136 9.57804 100.15V100.15Z" fill="#17181A"/>
<path d="M37.5059 119.529L37.793 129.96L38.0289 140.392C38.1116 143.87 38.2532 147.346 38.2133 150.825C38.1901 152.564 38.1667 154.303 38.0991 156.043L37.9961 158.652C37.9414 159.522 37.9059 160.392 37.8341 161.262C37.833 161.274 37.8272 161.286 37.8178 161.295C37.8083 161.304 37.796 161.309 37.7831 161.309C37.7703 161.309 37.7579 161.304 37.7483 161.296C37.7387 161.287 37.7327 161.275 37.7315 161.262C37.6461 160.394 37.5968 159.524 37.5283 158.655L37.3844 156.048C37.2894 154.31 37.2388 152.571 37.1882 150.833C37.0937 147.356 37.1807 143.877 37.2086 140.399L37.2805 129.964L37.4034 119.529C37.4036 119.516 37.409 119.503 37.4185 119.494C37.428 119.484 37.4409 119.479 37.4543 119.479C37.4677 119.479 37.4806 119.484 37.4903 119.493C37.4999 119.503 37.5055 119.515 37.5059 119.529L37.5059 119.529Z" fill="#17181A"/>
<path d="M11.0442 141.213C13.445 141.213 15.3913 140.847 15.3913 140.396C15.3913 139.944 13.445 139.578 11.0442 139.578C8.64339 139.578 6.69714 139.944 6.69714 140.396C6.69714 140.847 8.64339 141.213 11.0442 141.213Z" fill="#17181A"/>
<path d="M37.6187 161.429C40.0196 161.429 41.9658 161.063 41.9658 160.611C41.9658 160.16 40.0196 159.793 37.6187 159.793C35.2179 159.793 33.2717 160.16 33.2717 160.611C33.2717 161.063 35.2179 161.429 37.6187 161.429Z" fill="#17181A"/>
<path d="M66.5287 112.782L66.911 117.568L67.242 122.355C67.3457 123.951 67.5379 125.544 67.5219 127.145C67.5335 128.753 67.4388 130.36 67.2382 131.955C67.2366 131.967 67.2307 131.978 67.2216 131.986C67.2125 131.995 67.2008 131.999 67.1886 132C67.1763 132 67.1643 131.996 67.1547 131.989C67.145 131.981 67.1383 131.971 67.1357 131.959C66.8177 130.382 66.6045 128.787 66.4973 127.182C66.363 125.587 66.437 123.985 66.4224 122.385L66.3987 117.586L66.4262 112.786C66.4263 112.772 66.4315 112.76 66.4407 112.75C66.4499 112.741 66.4624 112.735 66.4757 112.735C66.4889 112.734 66.5018 112.739 66.5117 112.748C66.5216 112.756 66.5277 112.769 66.5287 112.782Z" fill="#17181A"/>
<path d="M104.722 101.822L105.008 112.132L105.243 122.442C105.325 125.879 105.467 129.315 105.427 132.753C105.403 134.472 105.38 136.191 105.312 137.91L105.209 140.489C105.154 141.348 105.118 142.208 105.046 143.068C105.045 143.081 105.04 143.093 105.03 143.101C105.021 143.11 105.008 143.115 104.996 143.115C104.983 143.115 104.97 143.111 104.961 143.102C104.951 143.093 104.945 143.082 104.944 143.069C104.859 142.21 104.809 141.351 104.741 140.492L104.597 137.915C104.502 136.198 104.452 134.479 104.401 132.761C104.307 129.324 104.395 125.886 104.423 122.449L104.496 112.136L104.62 101.823C104.62 101.809 104.625 101.797 104.635 101.787C104.644 101.778 104.657 101.772 104.67 101.772C104.684 101.772 104.697 101.777 104.707 101.787C104.716 101.796 104.722 101.809 104.722 101.822V101.822Z" fill="#17181A"/>
<path d="M67.187 132.015C69.5878 132.015 71.5341 131.649 71.5341 131.197C71.5341 130.746 69.5878 130.38 67.187 130.38C64.7862 130.38 62.8399 130.746 62.8399 131.197C62.8399 131.649 64.7862 132.015 67.187 132.015Z" fill="#17181A"/>
<path d="M104.831 143.235C107.232 143.235 109.178 142.869 109.178 142.418C109.178 141.966 107.232 141.6 104.831 141.6C102.43 141.6 100.484 141.966 100.484 142.418C100.484 142.869 102.43 143.235 104.831 143.235Z" fill="#17181A"/>
<path d="M59.271 73.5472H56.8935C56.8483 73.5469 56.805 73.5289 56.7732 73.4969C56.7413 73.465 56.7234 73.4217 56.7234 73.3767C56.7234 73.3316 56.7413 73.2884 56.7732 73.2564C56.805 73.2245 56.8483 73.2064 56.8935 73.2062H59.271C59.3162 73.2064 59.3594 73.2245 59.3913 73.2564C59.4232 73.2884 59.4411 73.3316 59.4411 73.3767C59.4411 73.4217 59.4232 73.465 59.3913 73.4969C59.3594 73.5289 59.3162 73.5469 59.271 73.5472Z" fill="#17181A"/>
</svg>
